# Tiled2Unity generated file. Do not modify by hand.
# Wavefront file for 'Numbers-2_mesh_0003.obj'

# Vertices (Count = 580)
v 0 -13 0
v -1 -13 0
v -1 -12 0
v 0 -12 0
v -1 -13 0
v -2 -13 0
v -2 -12 0
v -1 -12 0
v 0 -14 0
v -1 -14 0
v -1 -13 0
v 0 -13 0
v -1 -14 0
v -2 -14 0
v -2 -13 0
v -1 -13 0
v -2 -14 0
v -3 -14 0
v -3 -13 0
v -2 -13 0
v 0 -15 0
v -1 -15 0
v -1 -14 0
v 0 -14 0
v -1 -15 0
v -2 -15 0
v -2 -14 0
v -1 -14 0
v -2 -15 0
v -3 -15 0
v -3 -14 0
v -2 -14 0
v -3 -15 0
v -4 -15 0
v -4 -14 0
v -3 -14 0
v 0 -16 0
v -1 -16 0
v -1 -15 0
v 0 -15 0
v -1 -16 0
v -2 -16 0
v -2 -15 0
v -1 -15 0
v -2 -16 0
v -3 -16 0
v -3 -15 0
v -2 -15 0
v -3 -16 0
v -4 -16 0
v -4 -15 0
v -3 -15 0
v -4 -16 0
v -5 -16 0
v -5 -15 0
v -4 -15 0
v 0 -17 0
v -1 -17 0
v -1 -16 0
v 0 -16 0
v -1 -17 0
v -2 -17 0
v -2 -16 0
v -1 -16 0
v -2 -17 0
v -3 -17 0
v -3 -16 0
v -2 -16 0
v -3 -17 0
v -4 -17 0
v -4 -16 0
v -3 -16 0
v -4 -17 0
v -5 -17 0
v -5 -16 0
v -4 -16 0
v -5 -17 0
v -6 -17 0
v -6 -16 0
v -5 -16 0
v 0 -18 0
v -1 -18 0
v -1 -17 0
v 0 -17 0
v -1 -18 0
v -2 -18 0
v -2 -17 0
v -1 -17 0
v -2 -18 0
v -3 -18 0
v -3 -17 0
v -2 -17 0
v -3 -18 0
v -4 -18 0
v -4 -17 0
v -3 -17 0
v -4 -18 0
v -5 -18 0
v -5 -17 0
v -4 -17 0
v -5 -18 0
v -6 -18 0
v -6 -17 0
v -5 -17 0
v 0 -19 0
v -1 -19 0
v -1 -18 0
v 0 -18 0
v -1 -19 0
v -2 -19 0
v -2 -18 0
v -1 -18 0
v -2 -19 0
v -3 -19 0
v -3 -18 0
v -2 -18 0
v -3 -19 0
v -4 -19 0
v -4 -18 0
v -3 -18 0
v -4 -19 0
v -5 -19 0
v -5 -18 0
v -4 -18 0
v -5 -19 0
v -6 -19 0
v -6 -18 0
v -5 -18 0
v -6 -19 0
v -7 -19 0
v -7 -18 0
v -6 -18 0
v -7 -19 0
v -8 -19 0
v -8 -18 0
v -7 -18 0
v -8 -19 0
v -9 -19 0
v -9 -18 0
v -8 -18 0
v 0 -20 0
v -1 -20 0
v -1 -19 0
v 0 -19 0
v -1 -20 0
v -2 -20 0
v -2 -19 0
v -1 -19 0
v -2 -20 0
v -3 -20 0
v -3 -19 0
v -2 -19 0
v -3 -20 0
v -4 -20 0
v -4 -19 0
v -3 -19 0
v -4 -20 0
v -5 -20 0
v -5 -19 0
v -4 -19 0
v -5 -20 0
v -6 -20 0
v -6 -19 0
v -5 -19 0
v -6 -20 0
v -7 -20 0
v -7 -19 0
v -6 -19 0
v -7 -20 0
v -8 -20 0
v -8 -19 0
v -7 -19 0
v -8 -20 0
v -9 -20 0
v -9 -19 0
v -8 -19 0
v 0 -21 0
v -1 -21 0
v -1 -20 0
v 0 -20 0
v -1 -21 0
v -2 -21 0
v -2 -20 0
v -1 -20 0
v -2 -21 0
v -3 -21 0
v -3 -20 0
v -2 -20 0
v -3 -21 0
v -4 -21 0
v -4 -20 0
v -3 -20 0
v -4 -21 0
v -5 -21 0
v -5 -20 0
v -4 -20 0
v -5 -21 0
v -6 -21 0
v -6 -20 0
v -5 -20 0
v -6 -21 0
v -7 -21 0
v -7 -20 0
v -6 -20 0
v -7 -21 0
v -8 -21 0
v -8 -20 0
v -7 -20 0
v -8 -21 0
v -9 -21 0
v -9 -20 0
v -8 -20 0
v 0 -22 0
v -1 -22 0
v -1 -21 0
v 0 -21 0
v -1 -22 0
v -2 -22 0
v -2 -21 0
v -1 -21 0
v -2 -22 0
v -3 -22 0
v -3 -21 0
v -2 -21 0
v -3 -22 0
v -4 -22 0
v -4 -21 0
v -3 -21 0
v -4 -22 0
v -5 -22 0
v -5 -21 0
v -4 -21 0
v -5 -22 0
v -6 -22 0
v -6 -21 0
v -5 -21 0
v -6 -22 0
v -7 -22 0
v -7 -21 0
v -6 -21 0
v -7 -22 0
v -8 -22 0
v -8 -21 0
v -7 -21 0
v 0 -23 0
v -1 -23 0
v -1 -22 0
v 0 -22 0
v -1 -23 0
v -2 -23 0
v -2 -22 0
v -1 -22 0
v -2 -23 0
v -3 -23 0
v -3 -22 0
v -2 -22 0
v -3 -23 0
v -4 -23 0
v -4 -22 0
v -3 -22 0
v -4 -23 0
v -5 -23 0
v -5 -22 0
v -4 -22 0
v -5 -23 0
v -6 -23 0
v -6 -22 0
v -5 -22 0
v -6 -23 0
v -7 -23 0
v -7 -22 0
v -6 -22 0
v -7 -23 0
v -8 -23 0
v -8 -22 0
v -7 -22 0
v 0 -24 0
v -1 -24 0
v -1 -23 0
v 0 -23 0
v -1 -24 0
v -2 -24 0
v -2 -23 0
v -1 -23 0
v -2 -24 0
v -3 -24 0
v -3 -23 0
v -2 -23 0
v -3 -24 0
v -4 -24 0
v -4 -23 0
v -3 -23 0
v -4 -24 0
v -5 -24 0
v -5 -23 0
v -4 -23 0
v -5 -24 0
v -6 -24 0
v -6 -23 0
v -5 -23 0
v -6 -24 0
v -7 -24 0
v -7 -23 0
v -6 -23 0
v -7 -24 0
v -8 -24 0
v -8 -23 0
v -7 -23 0
v 0 -25 0
v -1 -25 0
v -1 -24 0
v 0 -24 0
v -1 -25 0
v -2 -25 0
v -2 -24 0
v -1 -24 0
v -2 -25 0
v -3 -25 0
v -3 -24 0
v -2 -24 0
v -3 -25 0
v -4 -25 0
v -4 -24 0
v -3 -24 0
v -4 -25 0
v -5 -25 0
v -5 -24 0
v -4 -24 0
v -5 -25 0
v -6 -25 0
v -6 -24 0
v -5 -24 0
v -6 -25 0
v -7 -25 0
v -7 -24 0
v -6 -24 0
v -7 -25 0
v -8 -25 0
v -8 -24 0
v -7 -24 0
v -8 -25 0
v -9 -25 0
v -9 -24 0
v -8 -24 0
v 0 -26 0
v -1 -26 0
v -1 -25 0
v 0 -25 0
v -1 -26 0
v -2 -26 0
v -2 -25 0
v -1 -25 0
v -2 -26 0
v -3 -26 0
v -3 -25 0
v -2 -25 0
v -3 -26 0
v -4 -26 0
v -4 -25 0
v -3 -25 0
v -4 -26 0
v -5 -26 0
v -5 -25 0
v -4 -25 0
v -5 -26 0
v -6 -26 0
v -6 -25 0
v -5 -25 0
v -6 -26 0
v -7 -26 0
v -7 -25 0
v -6 -25 0
v -7 -26 0
v -8 -26 0
v -8 -25 0
v -7 -25 0
v -8 -26 0
v -9 -26 0
v -9 -25 0
v -8 -25 0
v -9 -26 0
v -10 -26 0
v -10 -25 0
v -9 -25 0
v 0 -27 0
v -1 -27 0
v -1 -26 0
v 0 -26 0
v -1 -27 0
v -2 -27 0
v -2 -26 0
v -1 -26 0
v -2 -27 0
v -3 -27 0
v -3 -26 0
v -2 -26 0
v -3 -27 0
v -4 -27 0
v -4 -26 0
v -3 -26 0
v -4 -27 0
v -5 -27 0
v -5 -26 0
v -4 -26 0
v -5 -27 0
v -6 -27 0
v -6 -26 0
v -5 -26 0
v -6 -27 0
v -7 -27 0
v -7 -26 0
v -6 -26 0
v -7 -27 0
v -8 -27 0
v -8 -26 0
v -7 -26 0
v -8 -27 0
v -9 -27 0
v -9 -26 0
v -8 -26 0
v -9 -27 0
v -10 -27 0
v -10 -26 0
v -9 -26 0
v -10 -27 0
v -11 -27 0
v -11 -26 0
v -10 -26 0
v 0 -28 0
v -1 -28 0
v -1 -27 0
v 0 -27 0
v -1 -28 0
v -2 -28 0
v -2 -27 0
v -1 -27 0
v -2 -28 0
v -3 -28 0
v -3 -27 0
v -2 -27 0
v -3 -28 0
v -4 -28 0
v -4 -27 0
v -3 -27 0
v -4 -28 0
v -5 -28 0
v -5 -27 0
v -4 -27 0
v -5 -28 0
v -6 -28 0
v -6 -27 0
v -5 -27 0
v -6 -28 0
v -7 -28 0
v -7 -27 0
v -6 -27 0
v -7 -28 0
v -8 -28 0
v -8 -27 0
v -7 -27 0
v -8 -28 0
v -9 -28 0
v -9 -27 0
v -8 -27 0
v -9 -28 0
v -10 -28 0
v -10 -27 0
v -9 -27 0
v -10 -28 0
v -11 -28 0
v -11 -27 0
v -10 -27 0
v -11 -28 0
v -12 -28 0
v -12 -27 0
v -11 -27 0
v 0 -29 0
v -1 -29 0
v -1 -28 0
v 0 -28 0
v -1 -29 0
v -2 -29 0
v -2 -28 0
v -1 -28 0
v -2 -29 0
v -3 -29 0
v -3 -28 0
v -2 -28 0
v -3 -29 0
v -4 -29 0
v -4 -28 0
v -3 -28 0
v -4 -29 0
v -5 -29 0
v -5 -28 0
v -4 -28 0
v -5 -29 0
v -6 -29 0
v -6 -28 0
v -5 -28 0
v -6 -29 0
v -7 -29 0
v -7 -28 0
v -6 -28 0
v -7 -29 0
v -8 -29 0
v -8 -28 0
v -7 -28 0
v -8 -29 0
v -9 -29 0
v -9 -28 0
v -8 -28 0
v -9 -29 0
v -10 -29 0
v -10 -28 0
v -9 -28 0
v -10 -29 0
v -11 -29 0
v -11 -28 0
v -10 -28 0
v -11 -29 0
v -12 -29 0
v -12 -28 0
v -11 -28 0
v -12 -29 0
v -13 -29 0
v -13 -28 0
v -12 -28 0
v 0 -30 0
v -1 -30 0
v -1 -29 0
v 0 -29 0
v -1 -30 0
v -2 -30 0
v -2 -29 0
v -1 -29 0
v -2 -30 0
v -3 -30 0
v -3 -29 0
v -2 -29 0
v -3 -30 0
v -4 -30 0
v -4 -29 0
v -3 -29 0
v -4 -30 0
v -5 -30 0
v -5 -29 0
v -4 -29 0
v -5 -30 0
v -6 -30 0
v -6 -29 0
v -5 -29 0
v -6 -30 0
v -7 -30 0
v -7 -29 0
v -6 -29 0
v -7 -30 0
v -8 -30 0
v -8 -29 0
v -7 -29 0
v -8 -30 0
v -9 -30 0
v -9 -29 0
v -8 -29 0
v -9 -30 0
v -10 -30 0
v -10 -29 0
v -9 -29 0
v -10 -30 0
v -11 -30 0
v -11 -29 0
v -10 -29 0
v -11 -30 0
v -12 -30 0
v -12 -29 0
v -11 -29 0
v -12 -30 0
v -13 -30 0
v -13 -29 0
v -12 -29 0

# Texture cooridinates (Count = 29)
vt 0.075 0.8055556
vt 0.1 0.8055556
vt 0.1 0.8333333
vt 0.075 0.8333333
vt 0.125 0.8055556
vt 0.125 0.8333333
vt 0.075 0.8888889
vt 0.1 0.8888889
vt 0.1 0.9166667
vt 0.075 0.9166667
vt 0.05 0.6944444
vt 0.075 0.6944444
vt 0.075 0.7222222
vt 0.05 0.7222222
vt 0.125 0.8888889
vt 0.125 0.9166667
vt 0.1 0.8611111
vt 0.125 0.8611111
vt 0.15 0.8888889
vt 0.15 0.9166667
vt 0.1 0.7777778
vt 0.125 0.7777778
vt 0.075 0.8611111
vt 0.075 0.75
vt 0.05 0.75
vt 0.1 0.75
vt 0.125 0.75
vt 0.15 0.8611111
vt 0.075 0.7777778

# Normal
vn 0 0 -1

# Mesh description
g Numbers-2_mesh_0003

# Faces
f 1/1/1 2/2/1 3/3/1 4/4/1
f 5/2/1 6/5/1 7/6/1 8/3/1
f 9/7/1 10/8/1 11/9/1 12/10/1
f 13/11/1 14/12/1 15/13/1 16/14/1
f 17/2/1 18/5/1 19/6/1 20/3/1
f 21/7/1 22/8/1 23/9/1 24/10/1
f 25/8/1 26/15/1 27/16/1 28/9/1
f 29/11/1 30/12/1 31/13/1 32/14/1
f 33/2/1 34/5/1 35/6/1 36/3/1
f 37/8/1 38/15/1 39/16/1 40/9/1
f 41/17/1 42/18/1 43/15/1 44/8/1
f 45/15/1 46/19/1 47/20/1 48/16/1
f 49/11/1 50/12/1 51/13/1 52/14/1
f 53/2/1 54/5/1 55/6/1 56/3/1
f 57/17/1 58/18/1 59/15/1 60/8/1
f 61/7/1 62/8/1 63/9/1 64/10/1
f 65/8/1 66/15/1 67/16/1 68/9/1
f 69/15/1 70/19/1 71/20/1 72/16/1
f 73/11/1 74/12/1 75/13/1 76/14/1
f 77/2/1 78/5/1 79/6/1 80/3/1
f 81/7/1 82/8/1 83/9/1 84/10/1
f 85/8/1 86/15/1 87/16/1 88/9/1
f 89/8/1 90/15/1 91/16/1 92/9/1
f 93/7/1 94/8/1 95/9/1 96/10/1
f 97/8/1 98/15/1 99/16/1 100/9/1
f 101/21/1 102/22/1 103/5/1 104/2/1
f 105/23/1 106/17/1 107/8/1 108/7/1
f 109/17/1 110/18/1 111/15/1 112/8/1
f 113/17/1 114/18/1 115/15/1 116/8/1
f 117/23/1 118/17/1 119/8/1 120/7/1
f 121/17/1 122/18/1 123/15/1 124/8/1
f 125/11/1 126/12/1 127/13/1 128/14/1
f 129/1/1 130/2/1 131/3/1 132/4/1
f 133/1/1 134/2/1 135/3/1 136/4/1
f 137/2/1 138/5/1 139/6/1 140/3/1
f 141/7/1 142/8/1 143/9/1 144/10/1
f 145/7/1 146/8/1 147/9/1 148/10/1
f 149/8/1 150/15/1 151/16/1 152/9/1
f 153/7/1 154/8/1 155/9/1 156/10/1
f 157/8/1 158/15/1 159/16/1 160/9/1
f 161/7/1 162/8/1 163/9/1 164/10/1
f 165/23/1 166/17/1 167/8/1 168/7/1
f 169/17/1 170/18/1 171/15/1 172/8/1
f 173/21/1 174/22/1 175/5/1 176/2/1
f 177/23/1 178/17/1 179/8/1 180/7/1
f 181/23/1 182/17/1 183/8/1 184/7/1
f 185/17/1 186/18/1 187/15/1 188/8/1
f 189/23/1 190/17/1 191/8/1 192/7/1
f 193/17/1 194/18/1 195/15/1 196/8/1
f 197/23/1 198/17/1 199/8/1 200/7/1
f 201/7/1 202/8/1 203/9/1 204/10/1
f 205/14/1 206/13/1 207/24/1 208/25/1
f 209/26/1 210/27/1 211/22/1 212/21/1
f 213/23/1 214/17/1 215/8/1 216/7/1
f 217/23/1 218/17/1 219/8/1 220/7/1
f 221/17/1 222/18/1 223/15/1 224/8/1
f 225/23/1 226/17/1 227/8/1 228/7/1
f 229/17/1 230/18/1 231/15/1 232/8/1
f 233/23/1 234/17/1 235/8/1 236/7/1
f 237/14/1 238/13/1 239/24/1 240/25/1
f 241/26/1 242/27/1 243/22/1 244/21/1
f 245/23/1 246/17/1 247/8/1 248/7/1
f 249/23/1 250/17/1 251/8/1 252/7/1
f 253/17/1 254/18/1 255/15/1 256/8/1
f 257/23/1 258/17/1 259/8/1 260/7/1
f 261/17/1 262/18/1 263/15/1 264/8/1
f 265/23/1 266/17/1 267/8/1 268/7/1
f 269/11/1 270/12/1 271/13/1 272/14/1
f 273/2/1 274/5/1 275/6/1 276/3/1
f 277/23/1 278/17/1 279/8/1 280/7/1
f 281/23/1 282/17/1 283/8/1 284/7/1
f 285/17/1 286/18/1 287/15/1 288/8/1
f 289/23/1 290/17/1 291/8/1 292/7/1
f 293/17/1 294/18/1 295/15/1 296/8/1
f 297/23/1 298/17/1 299/8/1 300/7/1
f 301/23/1 302/17/1 303/8/1 304/7/1
f 305/21/1 306/22/1 307/5/1 308/2/1
f 309/23/1 310/17/1 311/8/1 312/7/1
f 313/23/1 314/17/1 315/8/1 316/7/1
f 317/17/1 318/18/1 319/15/1 320/8/1
f 321/23/1 322/17/1 323/8/1 324/7/1
f 325/17/1 326/18/1 327/15/1 328/8/1
f 329/23/1 330/17/1 331/8/1 332/7/1
f 333/7/1 334/8/1 335/9/1 336/10/1
f 337/11/1 338/12/1 339/13/1 340/14/1
f 341/2/1 342/5/1 343/6/1 344/3/1
f 345/23/1 346/17/1 347/8/1 348/7/1
f 349/23/1 350/17/1 351/8/1 352/7/1
f 353/17/1 354/18/1 355/15/1 356/8/1
f 357/23/1 358/17/1 359/8/1 360/7/1
f 361/17/1 362/18/1 363/15/1 364/8/1
f 365/23/1 366/17/1 367/8/1 368/7/1
f 369/23/1 370/17/1 371/8/1 372/7/1
f 373/17/1 374/18/1 375/15/1 376/8/1
f 377/11/1 378/12/1 379/13/1 380/14/1
f 381/2/1 382/5/1 383/6/1 384/3/1
f 385/23/1 386/17/1 387/8/1 388/7/1
f 389/23/1 390/17/1 391/8/1 392/7/1
f 393/17/1 394/18/1 395/15/1 396/8/1
f 397/23/1 398/17/1 399/8/1 400/7/1
f 401/17/1 402/18/1 403/15/1 404/8/1
f 405/23/1 406/17/1 407/8/1 408/7/1
f 409/7/1 410/8/1 411/9/1 412/10/1
f 413/8/1 414/15/1 415/16/1 416/9/1
f 417/15/1 418/19/1 419/20/1 420/16/1
f 421/11/1 422/12/1 423/13/1 424/14/1
f 425/2/1 426/5/1 427/6/1 428/3/1
f 429/23/1 430/17/1 431/8/1 432/7/1
f 433/23/1 434/17/1 435/8/1 436/7/1
f 437/17/1 438/18/1 439/15/1 440/8/1
f 441/23/1 442/17/1 443/8/1 444/7/1
f 445/17/1 446/18/1 447/15/1 448/8/1
f 449/23/1 450/17/1 451/8/1 452/7/1
f 453/23/1 454/17/1 455/8/1 456/7/1
f 457/17/1 458/18/1 459/15/1 460/8/1
f 461/18/1 462/28/1 463/19/1 464/15/1
f 465/15/1 466/19/1 467/20/1 468/16/1
f 469/11/1 470/12/1 471/13/1 472/14/1
f 473/2/1 474/5/1 475/6/1 476/3/1
f 477/7/1 478/8/1 479/9/1 480/10/1
f 481/7/1 482/8/1 483/9/1 484/10/1
f 485/8/1 486/15/1 487/16/1 488/9/1
f 489/7/1 490/8/1 491/9/1 492/10/1
f 493/8/1 494/15/1 495/16/1 496/9/1
f 497/7/1 498/8/1 499/9/1 500/10/1
f 501/8/1 502/15/1 503/16/1 504/9/1
f 505/15/1 506/19/1 507/20/1 508/16/1
f 509/7/1 510/8/1 511/9/1 512/10/1
f 513/8/1 514/15/1 515/16/1 516/9/1
f 517/15/1 518/19/1 519/20/1 520/16/1
f 521/11/1 522/12/1 523/13/1 524/14/1
f 525/2/1 526/5/1 527/6/1 528/3/1
f 529/23/1 530/17/1 531/8/1 532/7/1
f 533/23/1 534/17/1 535/8/1 536/7/1
f 537/17/1 538/18/1 539/15/1 540/8/1
f 541/23/1 542/17/1 543/8/1 544/7/1
f 545/17/1 546/18/1 547/15/1 548/8/1
f 549/23/1 550/17/1 551/8/1 552/7/1
f 553/17/1 554/18/1 555/15/1 556/8/1
f 557/18/1 558/28/1 559/19/1 560/15/1
f 561/23/1 562/17/1 563/8/1 564/7/1
f 565/17/1 566/18/1 567/15/1 568/8/1
f 569/18/1 570/28/1 571/19/1 572/15/1
f 573/29/1 574/21/1 575/2/1 576/1/1
f 577/21/1 578/22/1 579/5/1 580/2/1

