# Tiled2Unity generated file. Do not modify by hand.
# Wavefront file for 'Numbers-2_mesh_0004.obj'

# Vertices (Count = 660)
v 0 -1 0
v -1 -1 0
v -1 0 0
v 0 0 0
v -1 -1 0
v -2 -1 0
v -2 0 0
v -1 0 0
v -6 -1 0
v -7 -1 0
v -7 0 0
v -6 0 0
v -7 -1 0
v -8 -1 0
v -8 0 0
v -7 0 0
v -8 -1 0
v -9 -1 0
v -9 0 0
v -8 0 0
v -9 -1 0
v -10 -1 0
v -10 0 0
v -9 0 0
v -10 -1 0
v -11 -1 0
v -11 0 0
v -10 0 0
v -11 -1 0
v -12 -1 0
v -12 0 0
v -11 0 0
v -12 -1 0
v -13 -1 0
v -13 0 0
v -12 0 0
v -13 -1 0
v -14 -1 0
v -14 0 0
v -13 0 0
v -14 -1 0
v -15 -1 0
v -15 0 0
v -14 0 0
v -15 -1 0
v -16 -1 0
v -16 0 0
v -15 0 0
v -16 -1 0
v -17 -1 0
v -17 0 0
v -16 0 0
v -17 -1 0
v -18 -1 0
v -18 0 0
v -17 0 0
v -18 -1 0
v -19 -1 0
v -19 0 0
v -18 0 0
v -19 -1 0
v -20 -1 0
v -20 0 0
v -19 0 0
v -20 -1 0
v -21 -1 0
v -21 0 0
v -20 0 0
v -21 -1 0
v -22 -1 0
v -22 0 0
v -21 0 0
v -22 -1 0
v -23 -1 0
v -23 0 0
v -22 0 0
v -23 -1 0
v -24 -1 0
v -24 0 0
v -23 0 0
v -24 -1 0
v -25 -1 0
v -25 0 0
v -24 0 0
v -25 -1 0
v -26 -1 0
v -26 0 0
v -25 0 0
v -26 -1 0
v -27 -1 0
v -27 0 0
v -26 0 0
v -27 -1 0
v -28 -1 0
v -28 0 0
v -27 0 0
v -28 -1 0
v -29 -1 0
v -29 0 0
v -28 0 0
v -29 -1 0
v -30 -1 0
v -30 0 0
v -29 0 0
v 0 -2 0
v -1 -2 0
v -1 -1 0
v 0 -1 0
v -1 -2 0
v -2 -2 0
v -2 -1 0
v -1 -1 0
v -6 -2 0
v -7 -2 0
v -7 -1 0
v -6 -1 0
v -7 -2 0
v -8 -2 0
v -8 -1 0
v -7 -1 0
v -8 -2 0
v -9 -2 0
v -9 -1 0
v -8 -1 0
v -9 -2 0
v -10 -2 0
v -10 -1 0
v -9 -1 0
v -10 -2 0
v -11 -2 0
v -11 -1 0
v -10 -1 0
v -11 -2 0
v -12 -2 0
v -12 -1 0
v -11 -1 0
v -12 -2 0
v -13 -2 0
v -13 -1 0
v -12 -1 0
v -13 -2 0
v -14 -2 0
v -14 -1 0
v -13 -1 0
v -14 -2 0
v -15 -2 0
v -15 -1 0
v -14 -1 0
v -15 -2 0
v -16 -2 0
v -16 -1 0
v -15 -1 0
v -16 -2 0
v -17 -2 0
v -17 -1 0
v -16 -1 0
v -17 -2 0
v -18 -2 0
v -18 -1 0
v -17 -1 0
v -18 -2 0
v -19 -2 0
v -19 -1 0
v -18 -1 0
v -19 -2 0
v -20 -2 0
v -20 -1 0
v -19 -1 0
v -20 -2 0
v -21 -2 0
v -21 -1 0
v -20 -1 0
v -21 -2 0
v -22 -2 0
v -22 -1 0
v -21 -1 0
v -22 -2 0
v -23 -2 0
v -23 -1 0
v -22 -1 0
v -23 -2 0
v -24 -2 0
v -24 -1 0
v -23 -1 0
v -24 -2 0
v -25 -2 0
v -25 -1 0
v -24 -1 0
v -25 -2 0
v -26 -2 0
v -26 -1 0
v -25 -1 0
v -26 -2 0
v -27 -2 0
v -27 -1 0
v -26 -1 0
v -27 -2 0
v -28 -2 0
v -28 -1 0
v -27 -1 0
v -28 -2 0
v -29 -2 0
v -29 -1 0
v -28 -1 0
v -29 -2 0
v -30 -2 0
v -30 -1 0
v -29 -1 0
v 0 -3 0
v -1 -3 0
v -1 -2 0
v 0 -2 0
v -1 -3 0
v -2 -3 0
v -2 -2 0
v -1 -2 0
v -28 -3 0
v -29 -3 0
v -29 -2 0
v -28 -2 0
v -29 -3 0
v -30 -3 0
v -30 -2 0
v -29 -2 0
v 0 -4 0
v -1 -4 0
v -1 -3 0
v 0 -3 0
v -1 -4 0
v -2 -4 0
v -2 -3 0
v -1 -3 0
v -28 -4 0
v -29 -4 0
v -29 -3 0
v -28 -3 0
v -29 -4 0
v -30 -4 0
v -30 -3 0
v -29 -3 0
v 0 -5 0
v -1 -5 0
v -1 -4 0
v 0 -4 0
v -1 -5 0
v -2 -5 0
v -2 -4 0
v -1 -4 0
v -16 -5 0
v -17 -5 0
v -17 -4 0
v -16 -4 0
v -17 -5 0
v -18 -5 0
v -18 -4 0
v -17 -4 0
v -18 -5 0
v -19 -5 0
v -19 -4 0
v -18 -4 0
v -28 -5 0
v -29 -5 0
v -29 -4 0
v -28 -4 0
v -29 -5 0
v -30 -5 0
v -30 -4 0
v -29 -4 0
v 0 -6 0
v -1 -6 0
v -1 -5 0
v 0 -5 0
v -1 -6 0
v -2 -6 0
v -2 -5 0
v -1 -5 0
v -21 -6 0
v -22 -6 0
v -22 -5 0
v -21 -5 0
v -22 -6 0
v -23 -6 0
v -23 -5 0
v -22 -5 0
v -23 -6 0
v -24 -6 0
v -24 -5 0
v -23 -5 0
v -24 -6 0
v -25 -6 0
v -25 -5 0
v -24 -5 0
v -25 -6 0
v -26 -6 0
v -26 -5 0
v -25 -5 0
v -28 -6 0
v -29 -6 0
v -29 -5 0
v -28 -5 0
v -29 -6 0
v -30 -6 0
v -30 -5 0
v -29 -5 0
v 0 -7 0
v -1 -7 0
v -1 -6 0
v 0 -6 0
v -1 -7 0
v -2 -7 0
v -2 -6 0
v -1 -6 0
v -11 -7 0
v -12 -7 0
v -12 -6 0
v -11 -6 0
v -12 -7 0
v -13 -7 0
v -13 -6 0
v -12 -6 0
v -13 -7 0
v -14 -7 0
v -14 -6 0
v -13 -6 0
v -28 -7 0
v -29 -7 0
v -29 -6 0
v -28 -6 0
v -29 -7 0
v -30 -7 0
v -30 -6 0
v -29 -6 0
v 0 -8 0
v -1 -8 0
v -1 -7 0
v 0 -7 0
v -1 -8 0
v -2 -8 0
v -2 -7 0
v -1 -7 0
v -28 -8 0
v -29 -8 0
v -29 -7 0
v -28 -7 0
v -29 -8 0
v -30 -8 0
v -30 -7 0
v -29 -7 0
v 0 -9 0
v -1 -9 0
v -1 -8 0
v 0 -8 0
v -1 -9 0
v -2 -9 0
v -2 -8 0
v -1 -8 0
v 0 -10 0
v -1 -10 0
v -1 -9 0
v 0 -9 0
v -1 -10 0
v -2 -10 0
v -2 -9 0
v -1 -9 0
v -18 -10 0
v -19 -10 0
v -19 -9 0
v -18 -9 0
v -19 -10 0
v -20 -10 0
v -20 -9 0
v -19 -9 0
v -20 -10 0
v -21 -10 0
v -21 -9 0
v -20 -9 0
v 0 -11 0
v -1 -11 0
v -1 -10 0
v 0 -10 0
v -1 -11 0
v -2 -11 0
v -2 -10 0
v -1 -10 0
v 0 -12 0
v -1 -12 0
v -1 -11 0
v 0 -11 0
v -1 -12 0
v -2 -12 0
v -2 -11 0
v -1 -11 0
v -7 -14 0
v -8 -14 0
v -8 -13 0
v -7 -13 0
v -8 -14 0
v -9 -14 0
v -9 -13 0
v -8 -13 0
v -9 -14 0
v -10 -14 0
v -10 -13 0
v -9 -13 0
v -11 -16 0
v -12 -16 0
v -12 -15 0
v -11 -15 0
v -12 -16 0
v -13 -16 0
v -13 -15 0
v -12 -15 0
v -13 -16 0
v -14 -16 0
v -14 -15 0
v -13 -15 0
v 0 -18 0
v -1 -18 0
v -1 -17 0
v 0 -17 0
v -2 -19 0
v -3 -19 0
v -3 -18 0
v -2 -18 0
v -14 -20 0
v -15 -20 0
v -15 -19 0
v -14 -19 0
v -15 -20 0
v -16 -20 0
v -16 -19 0
v -15 -19 0
v -16 -20 0
v -17 -20 0
v -17 -19 0
v -16 -19 0
v -17 -20 0
v -18 -20 0
v -18 -19 0
v -17 -19 0
v -18 -20 0
v -19 -20 0
v -19 -19 0
v -18 -19 0
v -4 -21 0
v -5 -21 0
v -5 -20 0
v -4 -20 0
v -1 -22 0
v -2 -22 0
v -2 -21 0
v -1 -21 0
v -11 -23 0
v -12 -23 0
v -12 -22 0
v -11 -22 0
v -12 -23 0
v -13 -23 0
v -13 -22 0
v -12 -22 0
v -13 -23 0
v -14 -23 0
v -14 -22 0
v -13 -22 0
v -14 -23 0
v -15 -23 0
v -15 -22 0
v -14 -22 0
v -15 -23 0
v -16 -23 0
v -16 -22 0
v -15 -22 0
v -4 -25 0
v -5 -25 0
v -5 -24 0
v -4 -24 0
v -28 -26 0
v -29 -26 0
v -29 -25 0
v -28 -25 0
v -29 -26 0
v -30 -26 0
v -30 -25 0
v -29 -25 0
v -28 -27 0
v -29 -27 0
v -29 -26 0
v -28 -26 0
v -29 -27 0
v -30 -27 0
v -30 -26 0
v -29 -26 0
v -1 -28 0
v -2 -28 0
v -2 -27 0
v -1 -27 0
v -17 -28 0
v -18 -28 0
v -18 -27 0
v -17 -27 0
v -18 -28 0
v -19 -28 0
v -19 -27 0
v -18 -27 0
v -19 -28 0
v -20 -28 0
v -20 -27 0
v -19 -27 0
v -20 -28 0
v -21 -28 0
v -21 -27 0
v -20 -27 0
v -21 -28 0
v -22 -28 0
v -22 -27 0
v -21 -27 0
v -22 -28 0
v -23 -28 0
v -23 -27 0
v -22 -27 0
v -28 -28 0
v -29 -28 0
v -29 -27 0
v -28 -27 0
v -29 -28 0
v -30 -28 0
v -30 -27 0
v -29 -27 0
v -5 -29 0
v -6 -29 0
v -6 -28 0
v -5 -28 0
v -9 -29 0
v -10 -29 0
v -10 -28 0
v -9 -28 0
v -13 -29 0
v -14 -29 0
v -14 -28 0
v -13 -28 0
v -14 -29 0
v -15 -29 0
v -15 -28 0
v -14 -28 0
v -15 -29 0
v -16 -29 0
v -16 -28 0
v -15 -28 0
v -16 -29 0
v -17 -29 0
v -17 -28 0
v -16 -28 0
v -17 -29 0
v -18 -29 0
v -18 -28 0
v -17 -28 0
v -18 -29 0
v -19 -29 0
v -19 -28 0
v -18 -28 0
v -19 -29 0
v -20 -29 0
v -20 -28 0
v -19 -28 0
v -20 -29 0
v -21 -29 0
v -21 -28 0
v -20 -28 0
v -21 -29 0
v -22 -29 0
v -22 -28 0
v -21 -28 0
v -22 -29 0
v -23 -29 0
v -23 -28 0
v -22 -28 0
v -23 -29 0
v -24 -29 0
v -24 -28 0
v -23 -28 0
v -24 -29 0
v -25 -29 0
v -25 -28 0
v -24 -28 0
v -28 -29 0
v -29 -29 0
v -29 -28 0
v -28 -28 0
v -29 -29 0
v -30 -29 0
v -30 -28 0
v -29 -28 0
v -13 -30 0
v -14 -30 0
v -14 -29 0
v -13 -29 0
v -14 -30 0
v -15 -30 0
v -15 -29 0
v -14 -29 0
v -15 -30 0
v -16 -30 0
v -16 -29 0
v -15 -29 0
v -16 -30 0
v -17 -30 0
v -17 -29 0
v -16 -29 0
v -17 -30 0
v -18 -30 0
v -18 -29 0
v -17 -29 0
v -18 -30 0
v -19 -30 0
v -19 -29 0
v -18 -29 0
v -19 -30 0
v -20 -30 0
v -20 -29 0
v -19 -29 0
v -20 -30 0
v -21 -30 0
v -21 -29 0
v -20 -29 0
v -21 -30 0
v -22 -30 0
v -22 -29 0
v -21 -29 0
v -22 -30 0
v -23 -30 0
v -23 -29 0
v -22 -29 0
v -23 -30 0
v -24 -30 0
v -24 -29 0
v -23 -29 0
v -24 -30 0
v -25 -30 0
v -25 -29 0
v -24 -29 0
v -25 -30 0
v -26 -30 0
v -26 -29 0
v -25 -29 0
v -26 -30 0
v -27 -30 0
v -27 -29 0
v -26 -29 0
v -27 -30 0
v -28 -30 0
v -28 -29 0
v -27 -29 0
v -28 -30 0
v -29 -30 0
v -29 -29 0
v -28 -29 0
v -29 -30 0
v -30 -30 0
v -30 -29 0
v -29 -29 0

# Texture cooridinates (Count = 48)
vt 0.125 0.5277778
vt 0.15 0.5277778
vt 0.15 0.5555556
vt 0.125 0.5555556
vt 0.175 0.5277778
vt 0.175 0.5555556
vt 0.125 0.4722222
vt 0.15 0.4722222
vt 0.15 0.5
vt 0.125 0.5
vt 0.175 0.4722222
vt 0.175 0.5
vt 0.2 0.4722222
vt 0.2 0.5
vt 0.125 0.4444444
vt 0.15 0.4444444
vt 0.2 0.8333333
vt 0.225 0.8333333
vt 0.225 0.8611111
vt 0.2 0.8611111
vt 0.25 0.8333333
vt 0.25 0.8611111
vt 0.275 0.8333333
vt 0.275 0.8611111
vt 0.15 0.8333333
vt 0.175 0.8333333
vt 0.175 0.8611111
vt 0.15 0.8611111
vt 0.1 0.9722222
vt 0.125 0.9722222
vt 0.125 1
vt 0.1 1
vt 0.075 0.9722222
vt 0.075 1
vt 0.05 0.9722222
vt 0.05 1
vt 0.15 0.9722222
vt 0.15 1
vt 0.1 0.9166667
vt 0.125 0.9166667
vt 0.125 0.9444444
vt 0.1 0.9444444
vt 0.15 0.9166667
vt 0.15 0.9444444
vt 0.05 0.5833334
vt 0.075 0.5833334
vt 0.075 0.6111111
vt 0.05 0.6111111

# Normal
vn 0 0 -1

# Mesh description
g Numbers-2_mesh_0004

# Faces
f 1/1/1 2/2/1 3/3/1 4/4/1
f 5/2/1 6/5/1 7/6/1 8/3/1
f 9/1/1 10/2/1 11/3/1 12/4/1
f 13/7/1 14/8/1 15/9/1 16/10/1
f 17/7/1 18/8/1 19/9/1 20/10/1
f 21/7/1 22/8/1 23/9/1 24/10/1
f 25/7/1 26/8/1 27/9/1 28/10/1
f 29/2/1 30/5/1 31/6/1 32/3/1
f 33/1/1 34/2/1 35/3/1 36/4/1
f 37/7/1 38/8/1 39/9/1 40/10/1
f 41/7/1 42/8/1 43/9/1 44/10/1
f 45/7/1 46/8/1 47/9/1 48/10/1
f 49/2/1 50/5/1 51/6/1 52/3/1
f 53/1/1 54/2/1 55/3/1 56/4/1
f 57/7/1 58/8/1 59/9/1 60/10/1
f 61/7/1 62/8/1 63/9/1 64/10/1
f 65/2/1 66/5/1 67/6/1 68/3/1
f 69/1/1 70/2/1 71/3/1 72/4/1
f 73/7/1 74/8/1 75/9/1 76/10/1
f 77/7/1 78/8/1 79/9/1 80/10/1
f 81/7/1 82/8/1 83/9/1 84/10/1
f 85/7/1 86/8/1 87/9/1 88/10/1
f 89/7/1 90/8/1 91/9/1 92/10/1
f 93/2/1 94/5/1 95/6/1 96/3/1
f 97/1/1 98/2/1 99/3/1 100/4/1
f 101/2/1 102/5/1 103/6/1 104/3/1
f 105/8/1 106/11/1 107/12/1 108/9/1
f 109/11/1 110/13/1 111/14/1 112/12/1
f 113/10/1 114/9/1 115/2/1 116/1/1
f 117/15/1 118/16/1 119/8/1 120/7/1
f 121/15/1 122/16/1 123/8/1 124/7/1
f 125/15/1 126/16/1 127/8/1 128/7/1
f 129/15/1 130/16/1 131/8/1 132/7/1
f 133/9/1 134/12/1 135/5/1 136/2/1
f 137/10/1 138/9/1 139/2/1 140/1/1
f 141/15/1 142/16/1 143/8/1 144/7/1
f 145/15/1 146/16/1 147/8/1 148/7/1
f 149/15/1 150/16/1 151/8/1 152/7/1
f 153/9/1 154/12/1 155/5/1 156/2/1
f 157/10/1 158/9/1 159/2/1 160/1/1
f 161/15/1 162/16/1 163/8/1 164/7/1
f 165/15/1 166/16/1 167/8/1 168/7/1
f 169/9/1 170/12/1 171/5/1 172/2/1
f 173/10/1 174/9/1 175/2/1 176/1/1
f 177/15/1 178/16/1 179/8/1 180/7/1
f 181/15/1 182/16/1 183/8/1 184/7/1
f 185/15/1 186/16/1 187/8/1 188/7/1
f 189/15/1 190/16/1 191/8/1 192/7/1
f 193/15/1 194/16/1 195/8/1 196/7/1
f 197/9/1 198/12/1 199/5/1 200/2/1
f 201/8/1 202/11/1 203/12/1 204/9/1
f 205/11/1 206/13/1 207/14/1 208/12/1
f 209/10/1 210/9/1 211/2/1 212/1/1
f 213/9/1 214/12/1 215/5/1 216/2/1
f 217/8/1 218/11/1 219/12/1 220/9/1
f 221/11/1 222/13/1 223/14/1 224/12/1
f 225/1/1 226/2/1 227/3/1 228/4/1
f 229/2/1 230/5/1 231/6/1 232/3/1
f 233/10/1 234/9/1 235/2/1 236/1/1
f 237/9/1 238/12/1 239/5/1 240/2/1
f 241/8/1 242/11/1 243/12/1 244/9/1
f 245/11/1 246/13/1 247/14/1 248/12/1
f 249/17/1 250/18/1 251/19/1 252/20/1
f 253/18/1 254/21/1 255/22/1 256/19/1
f 257/21/1 258/23/1 259/24/1 260/22/1
f 261/1/1 262/2/1 263/3/1 264/4/1
f 265/2/1 266/5/1 267/6/1 268/3/1
f 269/8/1 270/11/1 271/12/1 272/9/1
f 273/11/1 274/13/1 275/14/1 276/12/1
f 277/25/1 278/26/1 279/27/1 280/28/1
f 281/26/1 282/17/1 283/20/1 284/27/1
f 285/17/1 286/18/1 287/19/1 288/20/1
f 289/18/1 290/21/1 291/22/1 292/19/1
f 293/21/1 294/23/1 295/24/1 296/22/1
f 297/8/1 298/11/1 299/12/1 300/9/1
f 301/11/1 302/13/1 303/14/1 304/12/1
f 305/10/1 306/9/1 307/2/1 308/1/1
f 309/9/1 310/12/1 311/5/1 312/2/1
f 313/17/1 314/18/1 315/19/1 316/20/1
f 317/18/1 318/21/1 319/22/1 320/19/1
f 321/21/1 322/23/1 323/24/1 324/22/1
f 325/8/1 326/11/1 327/12/1 328/9/1
f 329/11/1 330/13/1 331/14/1 332/12/1
f 333/1/1 334/2/1 335/3/1 336/4/1
f 337/2/1 338/5/1 339/6/1 340/3/1
f 341/10/1 342/9/1 343/2/1 344/1/1
f 345/9/1 346/12/1 347/5/1 348/2/1
f 349/8/1 350/11/1 351/12/1 352/9/1
f 353/11/1 354/13/1 355/14/1 356/12/1
f 357/8/1 358/11/1 359/12/1 360/9/1
f 361/11/1 362/13/1 363/14/1 364/12/1
f 365/17/1 366/18/1 367/19/1 368/20/1
f 369/18/1 370/21/1 371/22/1 372/19/1
f 373/21/1 374/23/1 375/24/1 376/22/1
f 377/8/1 378/11/1 379/12/1 380/9/1
f 381/11/1 382/13/1 383/14/1 384/12/1
f 385/10/1 386/9/1 387/2/1 388/1/1
f 389/9/1 390/12/1 391/5/1 392/2/1
f 393/25/1 394/26/1 395/27/1 396/28/1
f 397/26/1 398/17/1 399/20/1 400/27/1
f 401/17/1 402/18/1 403/19/1 404/20/1
f 405/25/1 406/26/1 407/27/1 408/28/1
f 409/26/1 410/17/1 411/20/1 412/27/1
f 413/17/1 414/18/1 415/19/1 416/20/1
f 417/29/1 418/30/1 419/31/1 420/32/1
f 421/33/1 422/29/1 423/32/1 424/34/1
f 425/25/1 426/26/1 427/27/1 428/28/1
f 429/26/1 430/17/1 431/20/1 432/27/1
f 433/17/1 434/18/1 435/19/1 436/20/1
f 437/18/1 438/21/1 439/22/1 440/19/1
f 441/21/1 442/23/1 443/24/1 444/22/1
f 445/29/1 446/30/1 447/31/1 448/32/1
f 449/35/1 450/33/1 451/34/1 452/36/1
f 453/25/1 454/26/1 455/27/1 456/28/1
f 457/26/1 458/17/1 459/20/1 460/27/1
f 461/17/1 462/18/1 463/19/1 464/20/1
f 465/18/1 466/21/1 467/22/1 468/19/1
f 469/21/1 470/23/1 471/24/1 472/22/1
f 473/30/1 474/37/1 475/38/1 476/31/1
f 477/10/1 478/9/1 479/2/1 480/1/1
f 481/9/1 482/12/1 483/5/1 484/2/1
f 485/1/1 486/2/1 487/3/1 488/4/1
f 489/2/1 490/5/1 491/6/1 492/3/1
f 493/30/1 494/37/1 495/38/1 496/31/1
f 497/39/1 498/40/1 499/41/1 500/42/1
f 501/40/1 502/43/1 503/44/1 504/41/1
f 505/39/1 506/40/1 507/41/1 508/42/1
f 509/40/1 510/43/1 511/44/1 512/41/1
f 513/39/1 514/40/1 515/41/1 516/42/1
f 517/40/1 518/43/1 519/44/1 520/41/1
f 521/10/1 522/9/1 523/2/1 524/1/1
f 525/9/1 526/12/1 527/5/1 528/2/1
f 529/33/1 530/29/1 531/32/1 532/34/1
f 533/35/1 534/33/1 535/34/1 536/36/1
f 537/1/1 538/2/1 539/3/1 540/4/1
f 541/7/1 542/8/1 543/9/1 544/10/1
f 545/7/1 546/8/1 547/9/1 548/10/1
f 549/7/1 550/8/1 551/9/1 552/10/1
f 553/2/1 554/5/1 555/6/1 556/3/1
f 557/1/1 558/2/1 559/3/1 560/4/1
f 561/7/1 562/8/1 563/9/1 564/10/1
f 565/7/1 566/8/1 567/9/1 568/10/1
f 569/7/1 570/8/1 571/9/1 572/10/1
f 573/7/1 574/8/1 575/9/1 576/10/1
f 577/7/1 578/8/1 579/9/1 580/10/1
f 581/2/1 582/5/1 583/6/1 584/3/1
f 585/1/1 586/2/1 587/3/1 588/4/1
f 589/2/1 590/5/1 591/6/1 592/3/1
f 593/10/1 594/9/1 595/2/1 596/1/1
f 597/15/1 598/16/1 599/8/1 600/7/1
f 601/15/1 602/16/1 603/8/1 604/7/1
f 605/15/1 606/16/1 607/8/1 608/7/1
f 609/9/1 610/12/1 611/5/1 612/2/1
f 613/10/1 614/9/1 615/2/1 616/1/1
f 617/15/1 618/16/1 619/8/1 620/7/1
f 621/15/1 622/16/1 623/8/1 624/7/1
f 625/15/1 626/16/1 627/8/1 628/7/1
f 629/15/1 630/16/1 631/8/1 632/7/1
f 633/15/1 634/16/1 635/8/1 636/7/1
f 637/9/1 638/12/1 639/5/1 640/2/1
f 641/45/1 642/46/1 643/47/1 644/48/1
f 645/45/1 646/46/1 647/47/1 648/48/1
f 649/45/1 650/46/1 651/47/1 652/48/1
f 653/10/1 654/9/1 655/2/1 656/1/1
f 657/9/1 658/12/1 659/5/1 660/2/1

