# Tiled2Unity generated file. Do not modify by hand.
# Wavefront file for 'Numbers-3_mesh_0004.obj'

# Vertices (Count = 636)
v 0 -1 0
v -1 -1 0
v -1 0 0
v 0 0 0
v -1 -1 0
v -2 -1 0
v -2 0 0
v -1 0 0
v -2 -1 0
v -3 -1 0
v -3 0 0
v -2 0 0
v -6 -1 0
v -7 -1 0
v -7 0 0
v -6 0 0
v -7 -1 0
v -8 -1 0
v -8 0 0
v -7 0 0
v -8 -1 0
v -9 -1 0
v -9 0 0
v -8 0 0
v -9 -1 0
v -10 -1 0
v -10 0 0
v -9 0 0
v -10 -1 0
v -11 -1 0
v -11 0 0
v -10 0 0
v -11 -1 0
v -12 -1 0
v -12 0 0
v -11 0 0
v -12 -1 0
v -13 -1 0
v -13 0 0
v -12 0 0
v -13 -1 0
v -14 -1 0
v -14 0 0
v -13 0 0
v -14 -1 0
v -15 -1 0
v -15 0 0
v -14 0 0
v -15 -1 0
v -16 -1 0
v -16 0 0
v -15 0 0
v -16 -1 0
v -17 -1 0
v -17 0 0
v -16 0 0
v -17 -1 0
v -18 -1 0
v -18 0 0
v -17 0 0
v -18 -1 0
v -19 -1 0
v -19 0 0
v -18 0 0
v -19 -1 0
v -20 -1 0
v -20 0 0
v -19 0 0
v -20 -1 0
v -21 -1 0
v -21 0 0
v -20 0 0
v -21 -1 0
v -22 -1 0
v -22 0 0
v -21 0 0
v -22 -1 0
v -23 -1 0
v -23 0 0
v -22 0 0
v -23 -1 0
v -24 -1 0
v -24 0 0
v -23 0 0
v -24 -1 0
v -25 -1 0
v -25 0 0
v -24 0 0
v -25 -1 0
v -26 -1 0
v -26 0 0
v -25 0 0
v -26 -1 0
v -27 -1 0
v -27 0 0
v -26 0 0
v -27 -1 0
v -28 -1 0
v -28 0 0
v -27 0 0
v -28 -1 0
v -29 -1 0
v -29 0 0
v -28 0 0
v -29 -1 0
v -30 -1 0
v -30 0 0
v -29 0 0
v 0 -2 0
v -1 -2 0
v -1 -1 0
v 0 -1 0
v -25 -2 0
v -26 -2 0
v -26 -1 0
v -25 -1 0
v -26 -2 0
v -27 -2 0
v -27 -1 0
v -26 -1 0
v -27 -2 0
v -28 -2 0
v -28 -1 0
v -27 -1 0
v -28 -2 0
v -29 -2 0
v -29 -1 0
v -28 -1 0
v -29 -2 0
v -30 -2 0
v -30 -1 0
v -29 -1 0
v 0 -3 0
v -1 -3 0
v -1 -2 0
v 0 -2 0
v -25 -3 0
v -26 -3 0
v -26 -2 0
v -25 -2 0
v -26 -3 0
v -27 -3 0
v -27 -2 0
v -26 -2 0
v -27 -3 0
v -28 -3 0
v -28 -2 0
v -27 -2 0
v -28 -3 0
v -29 -3 0
v -29 -2 0
v -28 -2 0
v -29 -3 0
v -30 -3 0
v -30 -2 0
v -29 -2 0
v 0 -4 0
v -1 -4 0
v -1 -3 0
v 0 -3 0
v -9 -4 0
v -10 -4 0
v -10 -3 0
v -9 -3 0
v -10 -4 0
v -11 -4 0
v -11 -3 0
v -10 -3 0
v -17 -4 0
v -18 -4 0
v -18 -3 0
v -17 -3 0
v -18 -4 0
v -19 -4 0
v -19 -3 0
v -18 -3 0
v -25 -4 0
v -26 -4 0
v -26 -3 0
v -25 -3 0
v -26 -4 0
v -27 -4 0
v -27 -3 0
v -26 -3 0
v -27 -4 0
v -28 -4 0
v -28 -3 0
v -27 -3 0
v -28 -4 0
v -29 -4 0
v -29 -3 0
v -28 -3 0
v -29 -4 0
v -30 -4 0
v -30 -3 0
v -29 -3 0
v 0 -5 0
v -1 -5 0
v -1 -4 0
v 0 -4 0
v -13 -5 0
v -14 -5 0
v -14 -4 0
v -13 -4 0
v -14 -5 0
v -15 -5 0
v -15 -4 0
v -14 -4 0
v -21 -5 0
v -22 -5 0
v -22 -4 0
v -21 -4 0
v -22 -5 0
v -23 -5 0
v -23 -4 0
v -22 -4 0
v -29 -5 0
v -30 -5 0
v -30 -4 0
v -29 -4 0
v 0 -6 0
v -1 -6 0
v -1 -5 0
v 0 -5 0
v -29 -6 0
v -30 -6 0
v -30 -5 0
v -29 -5 0
v 0 -7 0
v -1 -7 0
v -1 -6 0
v 0 -6 0
v -29 -7 0
v -30 -7 0
v -30 -6 0
v -29 -6 0
v 0 -8 0
v -1 -8 0
v -1 -7 0
v 0 -7 0
v -29 -8 0
v -30 -8 0
v -30 -7 0
v -29 -7 0
v 0 -9 0
v -1 -9 0
v -1 -8 0
v 0 -8 0
v -29 -9 0
v -30 -9 0
v -30 -8 0
v -29 -8 0
v 0 -10 0
v -1 -10 0
v -1 -9 0
v 0 -9 0
v -29 -10 0
v -30 -10 0
v -30 -9 0
v -29 -9 0
v 0 -11 0
v -1 -11 0
v -1 -10 0
v 0 -10 0
v -11 -11 0
v -12 -11 0
v -12 -10 0
v -11 -10 0
v -12 -11 0
v -13 -11 0
v -13 -10 0
v -12 -10 0
v -13 -11 0
v -14 -11 0
v -14 -10 0
v -13 -10 0
v -14 -11 0
v -15 -11 0
v -15 -10 0
v -14 -10 0
v -15 -11 0
v -16 -11 0
v -16 -10 0
v -15 -10 0
v -21 -11 0
v -22 -11 0
v -22 -10 0
v -21 -10 0
v -22 -11 0
v -23 -11 0
v -23 -10 0
v -22 -10 0
v -23 -11 0
v -24 -11 0
v -24 -10 0
v -23 -10 0
v -24 -11 0
v -25 -11 0
v -25 -10 0
v -24 -10 0
v -25 -11 0
v -26 -11 0
v -26 -10 0
v -25 -10 0
v -29 -11 0
v -30 -11 0
v -30 -10 0
v -29 -10 0
v 0 -12 0
v -1 -12 0
v -1 -11 0
v 0 -11 0
v -10 -12 0
v -11 -12 0
v -11 -11 0
v -10 -11 0
v -11 -12 0
v -12 -12 0
v -12 -11 0
v -11 -11 0
v -12 -12 0
v -13 -12 0
v -13 -11 0
v -12 -11 0
v -13 -12 0
v -14 -12 0
v -14 -11 0
v -13 -11 0
v -14 -12 0
v -15 -12 0
v -15 -11 0
v -14 -11 0
v -15 -12 0
v -16 -12 0
v -16 -11 0
v -15 -11 0
v -16 -12 0
v -17 -12 0
v -17 -11 0
v -16 -11 0
v -20 -12 0
v -21 -12 0
v -21 -11 0
v -20 -11 0
v -21 -12 0
v -22 -12 0
v -22 -11 0
v -21 -11 0
v -22 -12 0
v -23 -12 0
v -23 -11 0
v -22 -11 0
v -23 -12 0
v -24 -12 0
v -24 -11 0
v -23 -11 0
v -24 -12 0
v -25 -12 0
v -25 -11 0
v -24 -11 0
v -25 -12 0
v -26 -12 0
v -26 -11 0
v -25 -11 0
v -26 -12 0
v -27 -12 0
v -27 -11 0
v -26 -11 0
v -29 -12 0
v -30 -12 0
v -30 -11 0
v -29 -11 0
v 0 -13 0
v -1 -13 0
v -1 -12 0
v 0 -12 0
v -29 -13 0
v -30 -13 0
v -30 -12 0
v -29 -12 0
v 0 -14 0
v -1 -14 0
v -1 -13 0
v 0 -13 0
v -29 -14 0
v -30 -14 0
v -30 -13 0
v -29 -13 0
v 0 -15 0
v -1 -15 0
v -1 -14 0
v 0 -14 0
v 0 -16 0
v -1 -16 0
v -1 -15 0
v 0 -15 0
v 0 -17 0
v -1 -17 0
v -1 -16 0
v 0 -16 0
v -10 -17 0
v -11 -17 0
v -11 -16 0
v -10 -16 0
v -11 -17 0
v -12 -17 0
v -12 -16 0
v -11 -16 0
v -12 -17 0
v -13 -17 0
v -13 -16 0
v -12 -16 0
v -13 -17 0
v -14 -17 0
v -14 -16 0
v -13 -16 0
v -19 -17 0
v -20 -17 0
v -20 -16 0
v -19 -16 0
v -20 -17 0
v -21 -17 0
v -21 -16 0
v -20 -16 0
v -21 -17 0
v -22 -17 0
v -22 -16 0
v -21 -16 0
v -22 -17 0
v -23 -17 0
v -23 -16 0
v -22 -16 0
v 0 -18 0
v -1 -18 0
v -1 -17 0
v 0 -17 0
v 0 -19 0
v -1 -19 0
v -1 -18 0
v 0 -18 0
v -9 -19 0
v -10 -19 0
v -10 -18 0
v -9 -18 0
v -10 -19 0
v -11 -19 0
v -11 -18 0
v -10 -18 0
v -11 -19 0
v -12 -19 0
v -12 -18 0
v -11 -18 0
v -12 -19 0
v -13 -19 0
v -13 -18 0
v -12 -18 0
v -13 -19 0
v -14 -19 0
v -14 -18 0
v -13 -18 0
v -14 -19 0
v -15 -19 0
v -15 -18 0
v -14 -18 0
v -15 -19 0
v -16 -19 0
v -16 -18 0
v -15 -18 0
v -16 -19 0
v -17 -19 0
v -17 -18 0
v -16 -18 0
v -17 -19 0
v -18 -19 0
v -18 -18 0
v -17 -18 0
v -18 -19 0
v -19 -19 0
v -19 -18 0
v -18 -18 0
v -19 -19 0
v -20 -19 0
v -20 -18 0
v -19 -18 0
v -20 -19 0
v -21 -19 0
v -21 -18 0
v -20 -18 0
v -21 -19 0
v -22 -19 0
v -22 -18 0
v -21 -18 0
v -22 -19 0
v -23 -19 0
v -23 -18 0
v -22 -18 0
v 0 -20 0
v -1 -20 0
v -1 -19 0
v 0 -19 0
v 0 -21 0
v -1 -21 0
v -1 -20 0
v 0 -20 0
v 0 -22 0
v -1 -22 0
v -1 -21 0
v 0 -21 0
v 0 -23 0
v -1 -23 0
v -1 -22 0
v 0 -22 0
v -4 -23 0
v -5 -23 0
v -5 -22 0
v -4 -22 0
v -7 -23 0
v -8 -23 0
v -8 -22 0
v -7 -22 0
v -11 -23 0
v -12 -23 0
v -12 -22 0
v -11 -22 0
v -14 -23 0
v -15 -23 0
v -15 -22 0
v -14 -22 0
v -29 -23 0
v -30 -23 0
v -30 -22 0
v -29 -22 0
v 0 -24 0
v -1 -24 0
v -1 -23 0
v 0 -23 0
v -4 -24 0
v -5 -24 0
v -5 -23 0
v -4 -23 0
v -8 -24 0
v -9 -24 0
v -9 -23 0
v -8 -23 0
v -9 -24 0
v -10 -24 0
v -10 -23 0
v -9 -23 0
v -10 -24 0
v -11 -24 0
v -11 -23 0
v -10 -23 0
v -14 -24 0
v -15 -24 0
v -15 -23 0
v -14 -23 0
v -29 -24 0
v -30 -24 0
v -30 -23 0
v -29 -23 0
v 0 -25 0
v -1 -25 0
v -1 -24 0
v 0 -24 0
v -4 -25 0
v -5 -25 0
v -5 -24 0
v -4 -24 0
v -7 -25 0
v -8 -25 0
v -8 -24 0
v -7 -24 0
v -8 -25 0
v -9 -25 0
v -9 -24 0
v -8 -24 0
v -9 -25 0
v -10 -25 0
v -10 -24 0
v -9 -24 0
v -10 -25 0
v -11 -25 0
v -11 -24 0
v -10 -24 0
v -11 -25 0
v -12 -25 0
v -12 -24 0
v -11 -24 0
v -14 -25 0
v -15 -25 0
v -15 -24 0
v -14 -24 0
v -19 -25 0
v -20 -25 0
v -20 -24 0
v -19 -24 0
v -20 -25 0
v -21 -25 0
v -21 -24 0
v -20 -24 0
v -29 -25 0
v -30 -25 0
v -30 -24 0
v -29 -24 0
v 0 -26 0
v -1 -26 0
v -1 -25 0
v 0 -25 0
v -29 -26 0
v -30 -26 0
v -30 -25 0
v -29 -25 0
v 0 -27 0
v -1 -27 0
v -1 -26 0
v 0 -26 0
v -29 -27 0
v -30 -27 0
v -30 -26 0
v -29 -26 0
v 0 -28 0
v -1 -28 0
v -1 -27 0
v 0 -27 0
v -29 -28 0
v -30 -28 0
v -30 -27 0
v -29 -27 0
v -29 -29 0
v -30 -29 0
v -30 -28 0
v -29 -28 0
v -29 -30 0
v -30 -30 0
v -30 -29 0
v -29 -29 0

# Texture cooridinates (Count = 127)
vt 0.025 0.6111111
vt 0.05 0.6111111
vt 0.05 0.6388889
vt 0.025 0.6388889
vt 0.075 0.6111111
vt 0.075 0.6388889
vt 0.025 0.5277778
vt 0.05 0.5277778
vt 0.05 0.5555556
vt 0.025 0.5555556
vt 0 0.5277778
vt 0 0.5555556
vt 0.1 0.6111111
vt 0.1 0.6388889
vt 0.025 0.5833334
vt 0.05 0.5833334
vt 0.875 0.9444444
vt 0.9 0.9444444
vt 0.9 0.9722222
vt 0.875 0.9722222
vt 0.075 0.5833334
vt 0.1 0.5833334
vt 0.325 0.7777778
vt 0.35 0.7777778
vt 0.35 0.8055556
vt 0.325 0.8055556
vt 0.375 0.7777778
vt 0.375 0.8055556
vt 0.1 0.9166667
vt 0.125 0.9166667
vt 0.125 0.9444444
vt 0.1 0.9444444
vt 0.15 0.9166667
vt 0.15 0.9444444
vt 0.575 0.25
vt 0.55 0.25
vt 0.55 0.2777778
vt 0.575 0.2777778
vt 0.625 0.3888889
vt 0.65 0.3888889
vt 0.65 0.4166667
vt 0.625 0.4166667
vt 0.5 0.25
vt 0.475 0.25
vt 0.475 0.2777778
vt 0.5 0.2777778
vt 0.45 0.25
vt 0.45 0.2777778
vt 0.6 0.3888889
vt 0.6 0.4166667
vt 0.525 0.25
vt 0.525 0.2777778
vt 0.8 0.9166667
vt 0.825 0.9166667
vt 0.825 0.9444444
vt 0.8 0.9444444
vt 0.575 0.2222222
vt 0.55 0.2222222
vt 0.525 0.2222222
vt 0.5 0.2222222
vt 0.475 0.2222222
vt 0.45 0.2222222
vt 0 0.5833334
vt 0.675 0.3888889
vt 0.675 0.4166667
vt 0.7 0.3888889
vt 0.7 0.4166667
vt 0.725 0.3888889
vt 0.725 0.4166667
vt 0.75 0.3888889
vt 0.75 0.4166667
vt 0.15 0.8333333
vt 0.175 0.8333333
vt 0.175 0.8611111
vt 0.15 0.8611111
vt 0.2 0.8333333
vt 0.2 0.8611111
vt 0.225 0.8333333
vt 0.225 0.8611111
vt 0.25 0.8333333
vt 0.25 0.8611111
vt 0.275 0.8333333
vt 0.275 0.8611111
vt 0.65 0.8333333
vt 0.675 0.8333333
vt 0.675 0.8611111
vt 0.65 0.8611111
vt 0.9 1
vt 0.875 1
vt 0.7 0.8333333
vt 0.7 0.8611111
vt 0.55 0.9444444
vt 0.575 0.9444444
vt 0.575 0.9722222
vt 0.55 0.9722222
vt 0.65 0.8055556
vt 0.675 0.8055556
vt 0.7 0.6944444
vt 0.725 0.6944444
vt 0.725 0.7222222
vt 0.7 0.7222222
vt 0.75 0.6944444
vt 0.75 0.7222222
vt 0.775 0.6944444
vt 0.775 0.7222222
vt 0.7 0.8055556
vt 0.65 0.7777778
vt 0.675 0.7777778
vt 0.7 0.6666666
vt 0.725 0.6666666
vt 0.75 0.6666666
vt 0.775 0.6666666
vt 0.7 0.7777778
vt 0.775 0.8611111
vt 0.8 0.8611111
vt 0.8 0.8888889
vt 0.775 0.8888889
vt 0.825 0.8611111
vt 0.825 0.8888889
vt 0.725 0.9444444
vt 0.75 0.9444444
vt 0.75 0.9722222
vt 0.725 0.9722222
vt 0.675 0.3055556
vt 0.7 0.3055556
vt 0.7 0.3333333
vt 0.675 0.3333333

# Normal
vn 0 0 -1

# Mesh description
g Numbers-3_mesh_0004

# Faces
f 1/1/1 2/2/1 3/3/1 4/4/1
f 5/2/1 6/5/1 7/6/1 8/3/1
f 9/7/1 10/8/1 11/9/1 12/10/1
f 13/11/1 14/7/1 15/10/1 16/12/1
f 17/2/1 18/5/1 19/6/1 20/3/1
f 21/2/1 22/5/1 23/6/1 24/3/1
f 25/2/1 26/5/1 27/6/1 28/3/1
f 29/2/1 30/5/1 31/6/1 32/3/1
f 33/2/1 34/5/1 35/6/1 36/3/1
f 37/2/1 38/5/1 39/6/1 40/3/1
f 41/2/1 42/5/1 43/6/1 44/3/1
f 45/2/1 46/5/1 47/6/1 48/3/1
f 49/2/1 50/5/1 51/6/1 52/3/1
f 53/2/1 54/5/1 55/6/1 56/3/1
f 57/2/1 58/5/1 59/6/1 60/3/1
f 61/2/1 62/5/1 63/6/1 64/3/1
f 65/2/1 66/5/1 67/6/1 68/3/1
f 69/2/1 70/5/1 71/6/1 72/3/1
f 73/2/1 74/5/1 75/6/1 76/3/1
f 77/2/1 78/5/1 79/6/1 80/3/1
f 81/2/1 82/5/1 83/6/1 84/3/1
f 85/2/1 86/5/1 87/6/1 88/3/1
f 89/2/1 90/5/1 91/6/1 92/3/1
f 93/2/1 94/5/1 95/6/1 96/3/1
f 97/2/1 98/5/1 99/6/1 100/3/1
f 101/2/1 102/5/1 103/6/1 104/3/1
f 105/5/1 106/13/1 107/14/1 108/6/1
f 109/15/1 110/16/1 111/2/1 112/1/1
f 113/17/1 114/18/1 115/19/1 116/20/1
f 117/17/1 118/18/1 119/19/1 120/20/1
f 121/17/1 122/18/1 123/19/1 124/20/1
f 125/17/1 126/18/1 127/19/1 128/20/1
f 129/21/1 130/22/1 131/13/1 132/5/1
f 133/15/1 134/16/1 135/2/1 136/1/1
f 137/17/1 138/18/1 139/19/1 140/20/1
f 141/17/1 142/18/1 143/19/1 144/20/1
f 145/17/1 146/18/1 147/19/1 148/20/1
f 149/17/1 150/18/1 151/19/1 152/20/1
f 153/21/1 154/22/1 155/13/1 156/5/1
f 157/15/1 158/16/1 159/2/1 160/1/1
f 161/23/1 162/24/1 163/25/1 164/26/1
f 165/24/1 166/27/1 167/28/1 168/25/1
f 169/23/1 170/24/1 171/25/1 172/26/1
f 173/24/1 174/27/1 175/28/1 176/25/1
f 177/17/1 178/18/1 179/19/1 180/20/1
f 181/17/1 182/18/1 183/19/1 184/20/1
f 185/17/1 186/18/1 187/19/1 188/20/1
f 189/17/1 190/18/1 191/19/1 192/20/1
f 193/21/1 194/22/1 195/13/1 196/5/1
f 197/15/1 198/16/1 199/2/1 200/1/1
f 201/29/1 202/30/1 203/31/1 204/32/1
f 205/30/1 206/33/1 207/34/1 208/31/1
f 209/29/1 210/30/1 211/31/1 212/32/1
f 213/30/1 214/33/1 215/34/1 216/31/1
f 217/21/1 218/22/1 219/13/1 220/5/1
f 221/15/1 222/16/1 223/2/1 224/1/1
f 225/21/1 226/22/1 227/13/1 228/5/1
f 229/15/1 230/16/1 231/2/1 232/1/1
f 233/21/1 234/22/1 235/13/1 236/5/1
f 237/15/1 238/16/1 239/2/1 240/1/1
f 241/21/1 242/22/1 243/13/1 244/5/1
f 245/15/1 246/16/1 247/2/1 248/1/1
f 249/21/1 250/22/1 251/13/1 252/5/1
f 253/15/1 254/16/1 255/2/1 256/1/1
f 257/21/1 258/22/1 259/13/1 260/5/1
f 261/15/1 262/16/1 263/2/1 264/1/1
f 265/35/1 266/36/1 267/37/1 268/38/1
f 269/39/1 270/40/1 271/41/1 272/42/1
f 273/39/1 274/40/1 275/41/1 276/42/1
f 277/43/1 278/44/1 279/45/1 280/46/1
f 281/44/1 282/47/1 283/48/1 284/45/1
f 285/47/1 286/44/1 287/45/1 288/48/1
f 289/49/1 290/39/1 291/42/1 292/50/1
f 293/43/1 294/51/1 295/52/1 296/46/1
f 297/51/1 298/36/1 299/37/1 300/52/1
f 301/36/1 302/35/1 303/38/1 304/37/1
f 305/21/1 306/22/1 307/13/1 308/5/1
f 309/15/1 310/16/1 311/2/1 312/1/1
f 313/53/1 314/54/1 315/55/1 316/56/1
f 317/57/1 318/58/1 319/36/1 320/35/1
f 321/58/1 322/59/1 323/51/1 324/36/1
f 325/59/1 326/60/1 327/43/1 328/51/1
f 329/60/1 330/61/1 331/44/1 332/43/1
f 333/61/1 334/62/1 335/47/1 336/44/1
f 337/53/1 338/54/1 339/55/1 340/56/1
f 341/53/1 342/54/1 343/55/1 344/56/1
f 345/62/1 346/61/1 347/44/1 348/47/1
f 349/61/1 350/60/1 351/43/1 352/44/1
f 353/60/1 354/59/1 355/51/1 356/43/1
f 357/59/1 358/58/1 359/36/1 360/51/1
f 361/58/1 362/57/1 363/35/1 364/36/1
f 365/53/1 366/54/1 367/55/1 368/56/1
f 369/21/1 370/22/1 371/13/1 372/5/1
f 373/15/1 374/16/1 375/2/1 376/1/1
f 377/21/1 378/22/1 379/13/1 380/5/1
f 381/15/1 382/16/1 383/2/1 384/1/1
f 385/12/1 386/10/1 387/15/1 388/63/1
f 389/15/1 390/16/1 391/2/1 392/1/1
f 393/15/1 394/16/1 395/2/1 396/1/1
f 397/15/1 398/16/1 399/2/1 400/1/1
f 401/40/1 402/64/1 403/65/1 404/41/1
f 405/64/1 406/66/1 407/67/1 408/65/1
f 409/66/1 410/68/1 411/69/1 412/67/1
f 413/68/1 414/70/1 415/71/1 416/69/1
f 417/40/1 418/64/1 419/65/1 420/41/1
f 421/64/1 422/66/1 423/67/1 424/65/1
f 425/66/1 426/68/1 427/69/1 428/67/1
f 429/68/1 430/70/1 431/71/1 432/69/1
f 433/15/1 434/16/1 435/2/1 436/1/1
f 437/15/1 438/16/1 439/2/1 440/1/1
f 441/72/1 442/73/1 443/74/1 444/75/1
f 445/73/1 446/76/1 447/77/1 448/74/1
f 449/76/1 450/78/1 451/79/1 452/77/1
f 453/78/1 454/80/1 455/81/1 456/79/1
f 457/80/1 458/82/1 459/83/1 460/81/1
f 461/72/1 462/73/1 463/74/1 464/75/1
f 465/73/1 466/76/1 467/77/1 468/74/1
f 469/76/1 470/78/1 471/79/1 472/77/1
f 473/78/1 474/80/1 475/81/1 476/79/1
f 477/72/1 478/73/1 479/74/1 480/75/1
f 481/73/1 482/76/1 483/77/1 484/74/1
f 485/76/1 486/78/1 487/79/1 488/77/1
f 489/78/1 490/80/1 491/81/1 492/79/1
f 493/80/1 494/82/1 495/83/1 496/81/1
f 497/15/1 498/16/1 499/2/1 500/1/1
f 501/15/1 502/16/1 503/2/1 504/1/1
f 505/15/1 506/16/1 507/2/1 508/1/1
f 509/15/1 510/16/1 511/2/1 512/1/1
f 513/84/1 514/85/1 515/86/1 516/87/1
f 517/20/1 518/19/1 519/88/1 520/89/1
f 521/20/1 522/19/1 523/88/1 524/89/1
f 525/85/1 526/90/1 527/91/1 528/86/1
f 529/92/1 530/93/1 531/94/1 532/95/1
f 533/15/1 534/16/1 535/2/1 536/1/1
f 537/96/1 538/97/1 539/85/1 540/84/1
f 541/98/1 542/99/1 543/100/1 544/101/1
f 545/99/1 546/102/1 547/103/1 548/100/1
f 549/102/1 550/104/1 551/105/1 552/103/1
f 553/97/1 554/106/1 555/90/1 556/85/1
f 557/92/1 558/93/1 559/94/1 560/95/1
f 561/15/1 562/16/1 563/2/1 564/1/1
f 565/107/1 566/108/1 567/97/1 568/96/1
f 569/20/1 570/19/1 571/88/1 572/89/1
f 573/109/1 574/110/1 575/99/1 576/98/1
f 577/110/1 578/111/1 579/102/1 580/99/1
f 581/111/1 582/112/1 583/104/1 584/102/1
f 585/20/1 586/19/1 587/88/1 588/89/1
f 589/108/1 590/113/1 591/106/1 592/97/1
f 593/114/1 594/115/1 595/116/1 596/117/1
f 597/115/1 598/118/1 599/119/1 600/116/1
f 601/92/1 602/93/1 603/94/1 604/95/1
f 605/15/1 606/16/1 607/2/1 608/1/1
f 609/92/1 610/93/1 611/94/1 612/95/1
f 613/15/1 614/16/1 615/2/1 616/1/1
f 617/92/1 618/93/1 619/94/1 620/95/1
f 621/12/1 622/10/1 623/15/1 624/63/1
f 625/92/1 626/93/1 627/94/1 628/95/1
f 629/120/1 630/121/1 631/122/1 632/123/1
f 633/124/1 634/125/1 635/126/1 636/127/1

