# Tiled2Unity generated file. Do not modify by hand.
# Wavefront file for 'After-bridge_mesh_0003.obj'

# Vertices (Count = 424)
v 0 -1 0
v -1 -1 0
v -1 0 0
v 0 0 0
v -1 -1 0
v -2 -1 0
v -2 0 0
v -1 0 0
v -2 -1 0
v -3 -1 0
v -3 0 0
v -2 0 0
v -3 -1 0
v -4 -1 0
v -4 0 0
v -3 0 0
v -24 -1 0
v -25 -1 0
v -25 0 0
v -24 0 0
v -24 -2 0
v -25 -2 0
v -25 -1 0
v -24 -1 0
v -16 -3 0
v -17 -3 0
v -17 -2 0
v -16 -2 0
v -17 -3 0
v -18 -3 0
v -18 -2 0
v -17 -2 0
v -24 -3 0
v -25 -3 0
v -25 -2 0
v -24 -2 0
v -24 -4 0
v -25 -4 0
v -25 -3 0
v -24 -3 0
v -24 -5 0
v -25 -5 0
v -25 -4 0
v -24 -4 0
v -24 -6 0
v -25 -6 0
v -25 -5 0
v -24 -5 0
v -1 -7 0
v -2 -7 0
v -2 -6 0
v -1 -6 0
v -2 -7 0
v -3 -7 0
v -3 -6 0
v -2 -6 0
v -24 -7 0
v -25 -7 0
v -25 -6 0
v -24 -6 0
v -1 -8 0
v -2 -8 0
v -2 -7 0
v -1 -7 0
v -2 -8 0
v -3 -8 0
v -3 -7 0
v -2 -7 0
v -11 -8 0
v -12 -8 0
v -12 -7 0
v -11 -7 0
v -12 -8 0
v -13 -8 0
v -13 -7 0
v -12 -7 0
v -13 -8 0
v -14 -8 0
v -14 -7 0
v -13 -7 0
v -14 -8 0
v -15 -8 0
v -15 -7 0
v -14 -7 0
v -15 -8 0
v -16 -8 0
v -16 -7 0
v -15 -7 0
v -16 -8 0
v -17 -8 0
v -17 -7 0
v -16 -7 0
v -24 -8 0
v -25 -8 0
v -25 -7 0
v -24 -7 0
v -24 -9 0
v -25 -9 0
v -25 -8 0
v -24 -8 0
v -24 -10 0
v -25 -10 0
v -25 -9 0
v -24 -9 0
v -15 -11 0
v -16 -11 0
v -16 -10 0
v -15 -10 0
v -16 -11 0
v -17 -11 0
v -17 -10 0
v -16 -10 0
v -24 -11 0
v -25 -11 0
v -25 -10 0
v -24 -10 0
v 0 -12 0
v -1 -12 0
v -1 -11 0
v 0 -11 0
v -1 -12 0
v -2 -12 0
v -2 -11 0
v -1 -11 0
v -7 -12 0
v -8 -12 0
v -8 -11 0
v -7 -11 0
v -8 -12 0
v -9 -12 0
v -9 -11 0
v -8 -11 0
v -19 -12 0
v -20 -12 0
v -20 -11 0
v -19 -11 0
v -20 -12 0
v -21 -12 0
v -21 -11 0
v -20 -11 0
v -21 -12 0
v -22 -12 0
v -22 -11 0
v -21 -11 0
v -22 -12 0
v -23 -12 0
v -23 -11 0
v -22 -11 0
v -24 -12 0
v -25 -12 0
v -25 -11 0
v -24 -11 0
v 0 -13 0
v -1 -13 0
v -1 -12 0
v 0 -12 0
v -1 -13 0
v -2 -13 0
v -2 -12 0
v -1 -12 0
v -7 -13 0
v -8 -13 0
v -8 -12 0
v -7 -12 0
v -8 -13 0
v -9 -13 0
v -9 -12 0
v -8 -12 0
v -12 -13 0
v -13 -13 0
v -13 -12 0
v -12 -12 0
v -13 -13 0
v -14 -13 0
v -14 -12 0
v -13 -12 0
v -18 -13 0
v -19 -13 0
v -19 -12 0
v -18 -12 0
v -24 -13 0
v -25 -13 0
v -25 -12 0
v -24 -12 0
v 0 -14 0
v -1 -14 0
v -1 -13 0
v 0 -13 0
v -1 -14 0
v -2 -14 0
v -2 -13 0
v -1 -13 0
v -19 -14 0
v -20 -14 0
v -20 -13 0
v -19 -13 0
v -20 -14 0
v -21 -14 0
v -21 -13 0
v -20 -13 0
v -24 -14 0
v -25 -14 0
v -25 -13 0
v -24 -13 0
v -19 -15 0
v -20 -15 0
v -20 -14 0
v -19 -14 0
v -20 -15 0
v -21 -15 0
v -21 -14 0
v -20 -14 0
v -24 -15 0
v -25 -15 0
v -25 -14 0
v -24 -14 0
v -24 -16 0
v -25 -16 0
v -25 -15 0
v -24 -15 0
v -24 -17 0
v -25 -17 0
v -25 -16 0
v -24 -16 0
v -11 -18 0
v -12 -18 0
v -12 -17 0
v -11 -17 0
v -12 -18 0
v -13 -18 0
v -13 -17 0
v -12 -17 0
v -13 -18 0
v -14 -18 0
v -14 -17 0
v -13 -17 0
v -14 -18 0
v -15 -18 0
v -15 -17 0
v -14 -17 0
v -15 -18 0
v -16 -18 0
v -16 -17 0
v -15 -17 0
v -16 -18 0
v -17 -18 0
v -17 -17 0
v -16 -17 0
v -17 -18 0
v -18 -18 0
v -18 -17 0
v -17 -17 0
v -18 -18 0
v -19 -18 0
v -19 -17 0
v -18 -17 0
v -19 -18 0
v -20 -18 0
v -20 -17 0
v -19 -17 0
v -20 -18 0
v -21 -18 0
v -21 -17 0
v -20 -17 0
v -21 -18 0
v -22 -18 0
v -22 -17 0
v -21 -17 0
v -22 -18 0
v -23 -18 0
v -23 -17 0
v -22 -17 0
v -23 -18 0
v -24 -18 0
v -24 -17 0
v -23 -17 0
v -24 -18 0
v -25 -18 0
v -25 -17 0
v -24 -17 0
v 0 -19 0
v -1 -19 0
v -1 -18 0
v 0 -18 0
v -1 -19 0
v -2 -19 0
v -2 -18 0
v -1 -18 0
v -3 -19 0
v -4 -19 0
v -4 -18 0
v -3 -18 0
v -4 -19 0
v -5 -19 0
v -5 -18 0
v -4 -18 0
v -11 -19 0
v -12 -19 0
v -12 -18 0
v -11 -18 0
v -12 -19 0
v -13 -19 0
v -13 -18 0
v -12 -18 0
v -13 -19 0
v -14 -19 0
v -14 -18 0
v -13 -18 0
v -14 -19 0
v -15 -19 0
v -15 -18 0
v -14 -18 0
v -15 -19 0
v -16 -19 0
v -16 -18 0
v -15 -18 0
v -16 -19 0
v -17 -19 0
v -17 -18 0
v -16 -18 0
v -17 -19 0
v -18 -19 0
v -18 -18 0
v -17 -18 0
v -18 -19 0
v -19 -19 0
v -19 -18 0
v -18 -18 0
v -19 -19 0
v -20 -19 0
v -20 -18 0
v -19 -18 0
v -20 -19 0
v -21 -19 0
v -21 -18 0
v -20 -18 0
v -21 -19 0
v -22 -19 0
v -22 -18 0
v -21 -18 0
v -22 -19 0
v -23 -19 0
v -23 -18 0
v -22 -18 0
v -23 -19 0
v -24 -19 0
v -24 -18 0
v -23 -18 0
v -24 -19 0
v -25 -19 0
v -25 -18 0
v -24 -18 0
v 0 -20 0
v -1 -20 0
v -1 -19 0
v 0 -19 0
v -1 -20 0
v -2 -20 0
v -2 -19 0
v -1 -19 0
v -3 -20 0
v -4 -20 0
v -4 -19 0
v -3 -19 0
v -4 -20 0
v -5 -20 0
v -5 -19 0
v -4 -19 0
v -11 -20 0
v -12 -20 0
v -12 -19 0
v -11 -19 0
v -12 -20 0
v -13 -20 0
v -13 -19 0
v -12 -19 0
v -13 -20 0
v -14 -20 0
v -14 -19 0
v -13 -19 0
v -14 -20 0
v -15 -20 0
v -15 -19 0
v -14 -19 0
v -15 -20 0
v -16 -20 0
v -16 -19 0
v -15 -19 0
v -16 -20 0
v -17 -20 0
v -17 -19 0
v -16 -19 0
v -17 -20 0
v -18 -20 0
v -18 -19 0
v -17 -19 0
v -18 -20 0
v -19 -20 0
v -19 -19 0
v -18 -19 0
v -19 -20 0
v -20 -20 0
v -20 -19 0
v -19 -19 0
v -20 -20 0
v -21 -20 0
v -21 -19 0
v -20 -19 0
v -21 -20 0
v -22 -20 0
v -22 -19 0
v -21 -19 0
v -22 -20 0
v -23 -20 0
v -23 -19 0
v -22 -19 0
v -23 -20 0
v -24 -20 0
v -24 -19 0
v -23 -19 0
v -24 -20 0
v -25 -20 0
v -25 -19 0
v -24 -19 0

# Texture cooridinates (Count = 100)
vt 0.275 0.6944444
vt 0.3 0.6944444
vt 0.3 0.7222222
vt 0.275 0.7222222
vt 0.325 0.6944444
vt 0.325 0.7222222
vt 0.35 0.6944444
vt 0.35 0.7222222
vt 0.375 0.6944444
vt 0.375 0.7222222
vt 0.075 0.6111111
vt 0.1 0.6111111
vt 0.1 0.6388889
vt 0.075 0.6388889
vt 0.075 0.5833334
vt 0.1 0.5833334
vt 0.1 0.9444444
vt 0.125 0.9444444
vt 0.125 0.9722222
vt 0.1 0.9722222
vt 0.15 0.9444444
vt 0.15 0.9722222
vt 0.275 0.7777778
vt 0.3 0.7777778
vt 0.3 0.8055556
vt 0.275 0.8055556
vt 0.325 0.7777778
vt 0.325 0.8055556
vt 0.275 0.75
vt 0.3 0.75
vt 0.325 0.75
vt 0.075 0.8333333
vt 0.1 0.8333333
vt 0.1 0.8611111
vt 0.075 0.8611111
vt 0.125 0.8333333
vt 0.125 0.8611111
vt 0.15 0.8333333
vt 0.15 0.8611111
vt 0.35 0.75
vt 0.35 0.7777778
vt 0.375 0.75
vt 0.375 0.7777778
vt 0.2 0.1111111
vt 0.225 0.1111111
vt 0.225 0.1388889
vt 0.2 0.1388889
vt 0.25 0.1111111
vt 0.25 0.1388889
vt 0.875 0.8333333
vt 0.9 0.8333333
vt 0.9 0.8611111
vt 0.875 0.8611111
vt 0.975 0.8333333
vt 1 0.8333333
vt 1 0.8611111
vt 0.975 0.8611111
vt 0.95 0.8333333
vt 0.95 0.8611111
vt 0.2 0.08333331
vt 0.225 0.08333331
vt 0.25 0.08333331
vt 0.925 0.8611111
vt 0.95 0.8888889
vt 0.925 0.8888889
vt 0.925 0.7777778
vt 0.95 0.7777778
vt 0.95 0.8055556
vt 0.925 0.8055556
vt 0.975 0.7777778
vt 0.975 0.8055556
vt 0.125 0.5277778
vt 0.15 0.5277778
vt 0.15 0.5555556
vt 0.125 0.5555556
vt 0.175 0.5277778
vt 0.175 0.5555556
vt 0.7 0.8055556
vt 0.725 0.8055556
vt 0.725 0.8333333
vt 0.7 0.8333333
vt 0.75 0.8055556
vt 0.75 0.8333333
vt 0.775 0.8055556
vt 0.775 0.8333333
vt 0.125 0.5
vt 0.15 0.5
vt 0.175 0.5
vt 0.7 0.7777778
vt 0.725 0.7777778
vt 0.75 0.7777778
vt 0.775 0.7777778
vt 0 0.5277778
vt 0.025 0.5277778
vt 0.025 0.5555556
vt 0 0.5555556
vt 0.05 0.5555556
vt 0.075 0.5555556
vt 0.05 0.5833334
vt 0.1 0.5555556

# Normal
vn 0 0 -1

# Mesh description
g After-bridge_mesh_0003

# Faces
f 1/1/1 2/2/1 3/3/1 4/4/1
f 5/2/1 6/5/1 7/6/1 8/3/1
f 9/5/1 10/7/1 11/8/1 12/6/1
f 13/7/1 14/9/1 15/10/1 16/8/1
f 17/11/1 18/12/1 19/13/1 20/14/1
f 21/15/1 22/16/1 23/12/1 24/11/1
f 25/17/1 26/18/1 27/19/1 28/20/1
f 29/18/1 30/21/1 31/22/1 32/19/1
f 33/15/1 34/16/1 35/12/1 36/11/1
f 37/15/1 38/16/1 39/12/1 40/11/1
f 41/15/1 42/16/1 43/12/1 44/11/1
f 45/15/1 46/16/1 47/12/1 48/11/1
f 49/23/1 50/24/1 51/25/1 52/26/1
f 53/24/1 54/27/1 55/28/1 56/25/1
f 57/15/1 58/16/1 59/12/1 60/11/1
f 61/29/1 62/30/1 63/24/1 64/23/1
f 65/30/1 66/31/1 67/27/1 68/24/1
f 69/32/1 70/33/1 71/34/1 72/35/1
f 73/33/1 74/36/1 75/37/1 76/34/1
f 77/36/1 78/38/1 79/39/1 80/37/1
f 81/32/1 82/33/1 83/34/1 84/35/1
f 85/33/1 86/36/1 87/37/1 88/34/1
f 89/36/1 90/38/1 91/39/1 92/37/1
f 93/15/1 94/16/1 95/12/1 96/11/1
f 97/15/1 98/16/1 99/12/1 100/11/1
f 101/15/1 102/16/1 103/12/1 104/11/1
f 105/17/1 106/18/1 107/19/1 108/20/1
f 109/18/1 110/21/1 111/22/1 112/19/1
f 113/15/1 114/16/1 115/12/1 116/11/1
f 117/31/1 118/40/1 119/41/1 120/27/1
f 121/40/1 122/42/1 123/43/1 124/41/1
f 125/44/1 126/45/1 127/46/1 128/47/1
f 129/45/1 130/48/1 131/49/1 132/46/1
f 133/50/1 134/51/1 135/52/1 136/53/1
f 137/54/1 138/55/1 139/56/1 140/57/1
f 141/54/1 142/55/1 143/56/1 144/57/1
f 145/58/1 146/54/1 147/57/1 148/59/1
f 149/15/1 150/16/1 151/12/1 152/11/1
f 153/4/1 154/3/1 155/30/1 156/29/1
f 157/3/1 158/6/1 159/31/1 160/30/1
f 161/60/1 162/61/1 163/45/1 164/44/1
f 165/61/1 166/62/1 167/48/1 168/45/1
f 169/17/1 170/18/1 171/19/1 172/20/1
f 173/18/1 174/21/1 175/22/1 176/19/1
f 177/50/1 178/51/1 179/52/1 180/53/1
f 181/15/1 182/16/1 183/12/1 184/11/1
f 185/6/1 186/8/1 187/40/1 188/31/1
f 189/8/1 190/10/1 191/42/1 192/40/1
f 193/63/1 194/59/1 195/64/1 196/65/1
f 197/58/1 198/54/1 199/57/1 200/59/1
f 201/15/1 202/16/1 203/12/1 204/11/1
f 205/66/1 206/67/1 207/68/1 208/69/1
f 209/67/1 210/70/1 211/71/1 212/68/1
f 213/15/1 214/16/1 215/12/1 216/11/1
f 217/15/1 218/16/1 219/12/1 220/11/1
f 221/15/1 222/16/1 223/12/1 224/11/1
f 225/72/1 226/73/1 227/74/1 228/75/1
f 229/73/1 230/76/1 231/77/1 232/74/1
f 233/72/1 234/73/1 235/74/1 236/75/1
f 237/73/1 238/76/1 239/77/1 240/74/1
f 241/72/1 242/73/1 243/74/1 244/75/1
f 245/73/1 246/76/1 247/77/1 248/74/1
f 249/72/1 250/73/1 251/74/1 252/75/1
f 253/73/1 254/76/1 255/77/1 256/74/1
f 257/72/1 258/73/1 259/74/1 260/75/1
f 261/73/1 262/76/1 263/77/1 264/74/1
f 265/78/1 266/79/1 267/80/1 268/81/1
f 269/79/1 270/82/1 271/83/1 272/80/1
f 273/82/1 274/84/1 275/85/1 276/83/1
f 277/15/1 278/16/1 279/12/1 280/11/1
f 281/31/1 282/40/1 283/41/1 284/27/1
f 285/40/1 286/42/1 287/43/1 288/41/1
f 289/31/1 290/40/1 291/41/1 292/27/1
f 293/40/1 294/42/1 295/43/1 296/41/1
f 297/86/1 298/87/1 299/73/1 300/72/1
f 301/87/1 302/88/1 303/76/1 304/73/1
f 305/86/1 306/87/1 307/73/1 308/72/1
f 309/87/1 310/88/1 311/76/1 312/73/1
f 313/86/1 314/87/1 315/73/1 316/72/1
f 317/87/1 318/88/1 319/76/1 320/73/1
f 321/86/1 322/87/1 323/73/1 324/72/1
f 325/87/1 326/88/1 327/76/1 328/73/1
f 329/86/1 330/87/1 331/73/1 332/72/1
f 333/87/1 334/88/1 335/76/1 336/73/1
f 337/89/1 338/90/1 339/79/1 340/78/1
f 341/90/1 342/91/1 343/82/1 344/79/1
f 345/91/1 346/92/1 347/84/1 348/82/1
f 349/15/1 350/16/1 351/12/1 352/11/1
f 353/6/1 354/8/1 355/40/1 356/31/1
f 357/8/1 358/10/1 359/42/1 360/40/1
f 361/4/1 362/3/1 363/30/1 364/29/1
f 365/3/1 366/6/1 367/31/1 368/30/1
f 369/93/1 370/94/1 371/95/1 372/96/1
f 373/97/1 374/98/1 375/15/1 376/99/1
f 377/97/1 378/98/1 379/15/1 380/99/1
f 381/97/1 382/98/1 383/15/1 384/99/1
f 385/97/1 386/98/1 387/15/1 388/99/1
f 389/97/1 390/98/1 391/15/1 392/99/1
f 393/97/1 394/98/1 395/15/1 396/99/1
f 397/97/1 398/98/1 399/15/1 400/99/1
f 401/97/1 402/98/1 403/15/1 404/99/1
f 405/97/1 406/98/1 407/15/1 408/99/1
f 409/97/1 410/98/1 411/15/1 412/99/1
f 413/97/1 414/98/1 415/15/1 416/99/1
f 417/97/1 418/98/1 419/15/1 420/99/1
f 421/98/1 422/100/1 423/16/1 424/15/1

