# Tiled2Unity generated file. Do not modify by hand.
# Wavefront file for 'Numbers-3-final_mesh_0007.obj'

# Vertices (Count = 452)
v -45 -24 0
v -46 -24 0
v -46 -23 0
v -45 -23 0
v -22 -27 0
v -23 -27 0
v -23 -26 0
v -22 -26 0
v -23 -27 0
v -24 -27 0
v -24 -26 0
v -23 -26 0
v -24 -27 0
v -25 -27 0
v -25 -26 0
v -24 -26 0
v -25 -27 0
v -26 -27 0
v -26 -26 0
v -25 -26 0
v -26 -27 0
v -27 -27 0
v -27 -26 0
v -26 -26 0
v -27 -27 0
v -28 -27 0
v -28 -26 0
v -27 -26 0
v -28 -27 0
v -29 -27 0
v -29 -26 0
v -28 -26 0
v -29 -27 0
v -30 -27 0
v -30 -26 0
v -29 -26 0
v -30 -27 0
v -31 -27 0
v -31 -26 0
v -30 -26 0
v -31 -27 0
v -32 -27 0
v -32 -26 0
v -31 -26 0
v -32 -27 0
v -33 -27 0
v -33 -26 0
v -32 -26 0
v -33 -27 0
v -34 -27 0
v -34 -26 0
v -33 -26 0
v -34 -27 0
v -35 -27 0
v -35 -26 0
v -34 -26 0
v -35 -27 0
v -36 -27 0
v -36 -26 0
v -35 -26 0
v -36 -27 0
v -37 -27 0
v -37 -26 0
v -36 -26 0
v -37 -27 0
v -38 -27 0
v -38 -26 0
v -37 -26 0
v -38 -27 0
v -39 -27 0
v -39 -26 0
v -38 -26 0
v -39 -27 0
v -40 -27 0
v -40 -26 0
v -39 -26 0
v -40 -27 0
v -41 -27 0
v -41 -26 0
v -40 -26 0
v -41 -27 0
v -42 -27 0
v -42 -26 0
v -41 -26 0
v -42 -27 0
v -43 -27 0
v -43 -26 0
v -42 -26 0
v -43 -27 0
v -44 -27 0
v -44 -26 0
v -43 -26 0
v -44 -27 0
v -45 -27 0
v -45 -26 0
v -44 -26 0
v -45 -27 0
v -46 -27 0
v -46 -26 0
v -45 -26 0
v -46 -27 0
v -47 -27 0
v -47 -26 0
v -46 -26 0
v -47 -27 0
v -48 -27 0
v -48 -26 0
v -47 -26 0
v -48 -27 0
v -49 -27 0
v -49 -26 0
v -48 -26 0
v -49 -27 0
v -50 -27 0
v -50 -26 0
v -49 -26 0
v -22 -28 0
v -23 -28 0
v -23 -27 0
v -22 -27 0
v -23 -28 0
v -24 -28 0
v -24 -27 0
v -23 -27 0
v -24 -28 0
v -25 -28 0
v -25 -27 0
v -24 -27 0
v -25 -28 0
v -26 -28 0
v -26 -27 0
v -25 -27 0
v -26 -28 0
v -27 -28 0
v -27 -27 0
v -26 -27 0
v -27 -28 0
v -28 -28 0
v -28 -27 0
v -27 -27 0
v -28 -28 0
v -29 -28 0
v -29 -27 0
v -28 -27 0
v -29 -28 0
v -30 -28 0
v -30 -27 0
v -29 -27 0
v -30 -28 0
v -31 -28 0
v -31 -27 0
v -30 -27 0
v -31 -28 0
v -32 -28 0
v -32 -27 0
v -31 -27 0
v -32 -28 0
v -33 -28 0
v -33 -27 0
v -32 -27 0
v -33 -28 0
v -34 -28 0
v -34 -27 0
v -33 -27 0
v -34 -28 0
v -35 -28 0
v -35 -27 0
v -34 -27 0
v -35 -28 0
v -36 -28 0
v -36 -27 0
v -35 -27 0
v -36 -28 0
v -37 -28 0
v -37 -27 0
v -36 -27 0
v -37 -28 0
v -38 -28 0
v -38 -27 0
v -37 -27 0
v -38 -28 0
v -39 -28 0
v -39 -27 0
v -38 -27 0
v -39 -28 0
v -40 -28 0
v -40 -27 0
v -39 -27 0
v -40 -28 0
v -41 -28 0
v -41 -27 0
v -40 -27 0
v -41 -28 0
v -42 -28 0
v -42 -27 0
v -41 -27 0
v -42 -28 0
v -43 -28 0
v -43 -27 0
v -42 -27 0
v -43 -28 0
v -44 -28 0
v -44 -27 0
v -43 -27 0
v -44 -28 0
v -45 -28 0
v -45 -27 0
v -44 -27 0
v -45 -28 0
v -46 -28 0
v -46 -27 0
v -45 -27 0
v -46 -28 0
v -47 -28 0
v -47 -27 0
v -46 -27 0
v -47 -28 0
v -48 -28 0
v -48 -27 0
v -47 -27 0
v -48 -28 0
v -49 -28 0
v -49 -27 0
v -48 -27 0
v -49 -28 0
v -50 -28 0
v -50 -27 0
v -49 -27 0
v -22 -29 0
v -23 -29 0
v -23 -28 0
v -22 -28 0
v -23 -29 0
v -24 -29 0
v -24 -28 0
v -23 -28 0
v -24 -29 0
v -25 -29 0
v -25 -28 0
v -24 -28 0
v -25 -29 0
v -26 -29 0
v -26 -28 0
v -25 -28 0
v -26 -29 0
v -27 -29 0
v -27 -28 0
v -26 -28 0
v -27 -29 0
v -28 -29 0
v -28 -28 0
v -27 -28 0
v -28 -29 0
v -29 -29 0
v -29 -28 0
v -28 -28 0
v -29 -29 0
v -30 -29 0
v -30 -28 0
v -29 -28 0
v -30 -29 0
v -31 -29 0
v -31 -28 0
v -30 -28 0
v -31 -29 0
v -32 -29 0
v -32 -28 0
v -31 -28 0
v -32 -29 0
v -33 -29 0
v -33 -28 0
v -32 -28 0
v -33 -29 0
v -34 -29 0
v -34 -28 0
v -33 -28 0
v -34 -29 0
v -35 -29 0
v -35 -28 0
v -34 -28 0
v -35 -29 0
v -36 -29 0
v -36 -28 0
v -35 -28 0
v -36 -29 0
v -37 -29 0
v -37 -28 0
v -36 -28 0
v -37 -29 0
v -38 -29 0
v -38 -28 0
v -37 -28 0
v -38 -29 0
v -39 -29 0
v -39 -28 0
v -38 -28 0
v -39 -29 0
v -40 -29 0
v -40 -28 0
v -39 -28 0
v -40 -29 0
v -41 -29 0
v -41 -28 0
v -40 -28 0
v -41 -29 0
v -42 -29 0
v -42 -28 0
v -41 -28 0
v -42 -29 0
v -43 -29 0
v -43 -28 0
v -42 -28 0
v -43 -29 0
v -44 -29 0
v -44 -28 0
v -43 -28 0
v -44 -29 0
v -45 -29 0
v -45 -28 0
v -44 -28 0
v -45 -29 0
v -46 -29 0
v -46 -28 0
v -45 -28 0
v -46 -29 0
v -47 -29 0
v -47 -28 0
v -46 -28 0
v -47 -29 0
v -48 -29 0
v -48 -28 0
v -47 -28 0
v -48 -29 0
v -49 -29 0
v -49 -28 0
v -48 -28 0
v -49 -29 0
v -50 -29 0
v -50 -28 0
v -49 -28 0
v -22 -30 0
v -23 -30 0
v -23 -29 0
v -22 -29 0
v -23 -30 0
v -24 -30 0
v -24 -29 0
v -23 -29 0
v -24 -30 0
v -25 -30 0
v -25 -29 0
v -24 -29 0
v -25 -30 0
v -26 -30 0
v -26 -29 0
v -25 -29 0
v -26 -30 0
v -27 -30 0
v -27 -29 0
v -26 -29 0
v -27 -30 0
v -28 -30 0
v -28 -29 0
v -27 -29 0
v -28 -30 0
v -29 -30 0
v -29 -29 0
v -28 -29 0
v -29 -30 0
v -30 -30 0
v -30 -29 0
v -29 -29 0
v -30 -30 0
v -31 -30 0
v -31 -29 0
v -30 -29 0
v -31 -30 0
v -32 -30 0
v -32 -29 0
v -31 -29 0
v -32 -30 0
v -33 -30 0
v -33 -29 0
v -32 -29 0
v -33 -30 0
v -34 -30 0
v -34 -29 0
v -33 -29 0
v -34 -30 0
v -35 -30 0
v -35 -29 0
v -34 -29 0
v -35 -30 0
v -36 -30 0
v -36 -29 0
v -35 -29 0
v -36 -30 0
v -37 -30 0
v -37 -29 0
v -36 -29 0
v -37 -30 0
v -38 -30 0
v -38 -29 0
v -37 -29 0
v -38 -30 0
v -39 -30 0
v -39 -29 0
v -38 -29 0
v -39 -30 0
v -40 -30 0
v -40 -29 0
v -39 -29 0
v -40 -30 0
v -41 -30 0
v -41 -29 0
v -40 -29 0
v -41 -30 0
v -42 -30 0
v -42 -29 0
v -41 -29 0
v -42 -30 0
v -43 -30 0
v -43 -29 0
v -42 -29 0
v -43 -30 0
v -44 -30 0
v -44 -29 0
v -43 -29 0
v -44 -30 0
v -45 -30 0
v -45 -29 0
v -44 -29 0
v -45 -30 0
v -46 -30 0
v -46 -29 0
v -45 -29 0
v -46 -30 0
v -47 -30 0
v -47 -29 0
v -46 -29 0
v -47 -30 0
v -48 -30 0
v -48 -29 0
v -47 -29 0
v -48 -30 0
v -49 -30 0
v -49 -29 0
v -48 -29 0
v -49 -30 0
v -50 -30 0
v -50 -29 0
v -49 -29 0

# Texture cooridinates (Count = 29)
vt 0.675 0.3611111
vt 0.7 0.3611111
vt 0.7 0.3888889
vt 0.675 0.3888889
vt 0.625 0.2777778
vt 0.65 0.2777778
vt 0.65 0.3055556
vt 0.625 0.3055556
vt 0.675 0.2777778
vt 0.675 0.3055556
vt 0.7 0.2777778
vt 0.7 0.3055556
vt 0.725 0.2777778
vt 0.725 0.3055556
vt 0.625 0.25
vt 0.65 0.25
vt 0.675 0.25
vt 0.7 0.25
vt 0.725 0.25
vt 0.625 0.2222222
vt 0.65 0.2222222
vt 0.675 0.2222222
vt 0.7 0.2222222
vt 0.725 0.2222222
vt 0.625 0.1944444
vt 0.65 0.1944444
vt 0.675 0.1944444
vt 0.7 0.1944444
vt 0.725 0.1944444

# Normal
vn 0 0 -1

# Mesh description
g Numbers-3-final_mesh_0007

# Faces
f 1/1/1 2/2/1 3/3/1 4/4/1
f 5/5/1 6/6/1 7/7/1 8/8/1
f 9/6/1 10/9/1 11/10/1 12/7/1
f 13/9/1 14/11/1 15/12/1 16/10/1
f 17/11/1 18/13/1 19/14/1 20/12/1
f 21/6/1 22/9/1 23/10/1 24/7/1
f 25/9/1 26/11/1 27/12/1 28/10/1
f 29/11/1 30/13/1 31/14/1 32/12/1
f 33/6/1 34/9/1 35/10/1 36/7/1
f 37/9/1 38/11/1 39/12/1 40/10/1
f 41/11/1 42/13/1 43/14/1 44/12/1
f 45/6/1 46/9/1 47/10/1 48/7/1
f 49/9/1 50/11/1 51/12/1 52/10/1
f 53/11/1 54/13/1 55/14/1 56/12/1
f 57/6/1 58/9/1 59/10/1 60/7/1
f 61/9/1 62/11/1 63/12/1 64/10/1
f 65/11/1 66/13/1 67/14/1 68/12/1
f 69/6/1 70/9/1 71/10/1 72/7/1
f 73/9/1 74/11/1 75/12/1 76/10/1
f 77/11/1 78/13/1 79/14/1 80/12/1
f 81/6/1 82/9/1 83/10/1 84/7/1
f 85/9/1 86/11/1 87/12/1 88/10/1
f 89/11/1 90/13/1 91/14/1 92/12/1
f 93/6/1 94/9/1 95/10/1 96/7/1
f 97/9/1 98/11/1 99/12/1 100/10/1
f 101/11/1 102/13/1 103/14/1 104/12/1
f 105/6/1 106/9/1 107/10/1 108/7/1
f 109/9/1 110/11/1 111/12/1 112/10/1
f 113/11/1 114/13/1 115/14/1 116/12/1
f 117/15/1 118/16/1 119/6/1 120/5/1
f 121/16/1 122/17/1 123/9/1 124/6/1
f 125/17/1 126/18/1 127/11/1 128/9/1
f 129/18/1 130/19/1 131/13/1 132/11/1
f 133/16/1 134/17/1 135/9/1 136/6/1
f 137/17/1 138/18/1 139/11/1 140/9/1
f 141/18/1 142/19/1 143/13/1 144/11/1
f 145/16/1 146/17/1 147/9/1 148/6/1
f 149/17/1 150/18/1 151/11/1 152/9/1
f 153/18/1 154/19/1 155/13/1 156/11/1
f 157/16/1 158/17/1 159/9/1 160/6/1
f 161/17/1 162/18/1 163/11/1 164/9/1
f 165/18/1 166/19/1 167/13/1 168/11/1
f 169/16/1 170/17/1 171/9/1 172/6/1
f 173/17/1 174/18/1 175/11/1 176/9/1
f 177/18/1 178/19/1 179/13/1 180/11/1
f 181/16/1 182/17/1 183/9/1 184/6/1
f 185/17/1 186/18/1 187/11/1 188/9/1
f 189/18/1 190/19/1 191/13/1 192/11/1
f 193/16/1 194/17/1 195/9/1 196/6/1
f 197/17/1 198/18/1 199/11/1 200/9/1
f 201/18/1 202/19/1 203/13/1 204/11/1
f 205/16/1 206/17/1 207/9/1 208/6/1
f 209/17/1 210/18/1 211/11/1 212/9/1
f 213/18/1 214/19/1 215/13/1 216/11/1
f 217/16/1 218/17/1 219/9/1 220/6/1
f 221/17/1 222/18/1 223/11/1 224/9/1
f 225/18/1 226/19/1 227/13/1 228/11/1
f 229/20/1 230/21/1 231/16/1 232/15/1
f 233/21/1 234/22/1 235/17/1 236/16/1
f 237/22/1 238/23/1 239/18/1 240/17/1
f 241/23/1 242/24/1 243/19/1 244/18/1
f 245/21/1 246/22/1 247/17/1 248/16/1
f 249/22/1 250/23/1 251/18/1 252/17/1
f 253/23/1 254/24/1 255/19/1 256/18/1
f 257/21/1 258/22/1 259/17/1 260/16/1
f 261/22/1 262/23/1 263/18/1 264/17/1
f 265/23/1 266/24/1 267/19/1 268/18/1
f 269/21/1 270/22/1 271/17/1 272/16/1
f 273/22/1 274/23/1 275/18/1 276/17/1
f 277/23/1 278/24/1 279/19/1 280/18/1
f 281/21/1 282/22/1 283/17/1 284/16/1
f 285/22/1 286/23/1 287/18/1 288/17/1
f 289/23/1 290/24/1 291/19/1 292/18/1
f 293/21/1 294/22/1 295/17/1 296/16/1
f 297/22/1 298/23/1 299/18/1 300/17/1
f 301/23/1 302/24/1 303/19/1 304/18/1
f 305/21/1 306/22/1 307/17/1 308/16/1
f 309/22/1 310/23/1 311/18/1 312/17/1
f 313/23/1 314/24/1 315/19/1 316/18/1
f 317/21/1 318/22/1 319/17/1 320/16/1
f 321/22/1 322/23/1 323/18/1 324/17/1
f 325/23/1 326/24/1 327/19/1 328/18/1
f 329/21/1 330/22/1 331/17/1 332/16/1
f 333/22/1 334/23/1 335/18/1 336/17/1
f 337/23/1 338/24/1 339/19/1 340/18/1
f 341/25/1 342/26/1 343/21/1 344/20/1
f 345/26/1 346/27/1 347/22/1 348/21/1
f 349/27/1 350/28/1 351/23/1 352/22/1
f 353/28/1 354/29/1 355/24/1 356/23/1
f 357/26/1 358/27/1 359/22/1 360/21/1
f 361/27/1 362/28/1 363/23/1 364/22/1
f 365/28/1 366/29/1 367/24/1 368/23/1
f 369/26/1 370/27/1 371/22/1 372/21/1
f 373/27/1 374/28/1 375/23/1 376/22/1
f 377/28/1 378/29/1 379/24/1 380/23/1
f 381/26/1 382/27/1 383/22/1 384/21/1
f 385/27/1 386/28/1 387/23/1 388/22/1
f 389/28/1 390/29/1 391/24/1 392/23/1
f 393/26/1 394/27/1 395/22/1 396/21/1
f 397/27/1 398/28/1 399/23/1 400/22/1
f 401/28/1 402/29/1 403/24/1 404/23/1
f 405/26/1 406/27/1 407/22/1 408/21/1
f 409/27/1 410/28/1 411/23/1 412/22/1
f 413/28/1 414/29/1 415/24/1 416/23/1
f 417/26/1 418/27/1 419/22/1 420/21/1
f 421/27/1 422/28/1 423/23/1 424/22/1
f 425/28/1 426/29/1 427/24/1 428/23/1
f 429/26/1 430/27/1 431/22/1 432/21/1
f 433/27/1 434/28/1 435/23/1 436/22/1
f 437/28/1 438/29/1 439/24/1 440/23/1
f 441/26/1 442/27/1 443/22/1 444/21/1
f 445/27/1 446/28/1 447/23/1 448/22/1
f 449/28/1 450/29/1 451/24/1 452/23/1

