# Tiled2Unity generated file. Do not modify by hand.
# Wavefront file for 'Numbers-3-castle_mesh_0007.obj'

# Vertices (Count = 392)
v 0 -18 0
v -1 -18 0
v -1 -17 0
v 0 -17 0
v -3 -18 0
v -4 -18 0
v -4 -17 0
v -3 -17 0
v -4 -18 0
v -5 -18 0
v -5 -17 0
v -4 -17 0
v -5 -18 0
v -6 -18 0
v -6 -17 0
v -5 -17 0
v -19 -18 0
v -20 -18 0
v -20 -17 0
v -19 -17 0
v -22 -18 0
v -23 -18 0
v -23 -17 0
v -22 -17 0
v -23 -18 0
v -24 -18 0
v -24 -17 0
v -23 -17 0
v -24 -18 0
v -25 -18 0
v -25 -17 0
v -24 -17 0
v 0 -19 0
v -1 -19 0
v -1 -18 0
v 0 -18 0
v -3 -19 0
v -4 -19 0
v -4 -18 0
v -3 -18 0
v -4 -19 0
v -5 -19 0
v -5 -18 0
v -4 -18 0
v -5 -19 0
v -6 -19 0
v -6 -18 0
v -5 -18 0
v -19 -19 0
v -20 -19 0
v -20 -18 0
v -19 -18 0
v -22 -19 0
v -23 -19 0
v -23 -18 0
v -22 -18 0
v -23 -19 0
v -24 -19 0
v -24 -18 0
v -23 -18 0
v -24 -19 0
v -25 -19 0
v -25 -18 0
v -24 -18 0
v -1 -20 0
v -2 -20 0
v -2 -19 0
v -1 -19 0
v -2 -20 0
v -3 -20 0
v -3 -19 0
v -2 -19 0
v -4 -20 0
v -5 -20 0
v -5 -19 0
v -4 -19 0
v -5 -20 0
v -6 -20 0
v -6 -19 0
v -5 -19 0
v -17 -20 0
v -18 -20 0
v -18 -19 0
v -17 -19 0
v -18 -20 0
v -19 -20 0
v -19 -19 0
v -18 -19 0
v -20 -20 0
v -21 -20 0
v -21 -19 0
v -20 -19 0
v -21 -20 0
v -22 -20 0
v -22 -19 0
v -21 -19 0
v -23 -20 0
v -24 -20 0
v -24 -19 0
v -23 -19 0
v -24 -20 0
v -25 -20 0
v -25 -19 0
v -24 -19 0
v -1 -21 0
v -2 -21 0
v -2 -20 0
v -1 -20 0
v -2 -21 0
v -3 -21 0
v -3 -20 0
v -2 -20 0
v -4 -21 0
v -5 -21 0
v -5 -20 0
v -4 -20 0
v -5 -21 0
v -6 -21 0
v -6 -20 0
v -5 -20 0
v -17 -21 0
v -18 -21 0
v -18 -20 0
v -17 -20 0
v -18 -21 0
v -19 -21 0
v -19 -20 0
v -18 -20 0
v -20 -21 0
v -21 -21 0
v -21 -20 0
v -20 -20 0
v -21 -21 0
v -22 -21 0
v -22 -20 0
v -21 -20 0
v -23 -21 0
v -24 -21 0
v -24 -20 0
v -23 -20 0
v -24 -21 0
v -25 -21 0
v -25 -20 0
v -24 -20 0
v -1 -22 0
v -2 -22 0
v -2 -21 0
v -1 -21 0
v -2 -22 0
v -3 -22 0
v -3 -21 0
v -2 -21 0
v -20 -22 0
v -21 -22 0
v -21 -21 0
v -20 -21 0
v -21 -22 0
v -22 -22 0
v -22 -21 0
v -21 -21 0
v -4 -24 0
v -5 -24 0
v -5 -23 0
v -4 -23 0
v -5 -24 0
v -6 -24 0
v -6 -23 0
v -5 -23 0
v -17 -24 0
v -18 -24 0
v -18 -23 0
v -17 -23 0
v -18 -24 0
v -19 -24 0
v -19 -23 0
v -18 -23 0
v -19 -24 0
v -20 -24 0
v -20 -23 0
v -19 -23 0
v -20 -24 0
v -21 -24 0
v -21 -23 0
v -20 -23 0
v -21 -24 0
v -22 -24 0
v -22 -23 0
v -21 -23 0
v -23 -24 0
v -24 -24 0
v -24 -23 0
v -23 -23 0
v -24 -24 0
v -25 -24 0
v -25 -23 0
v -24 -23 0
v 0 -25 0
v -1 -25 0
v -1 -24 0
v 0 -24 0
v -1 -25 0
v -2 -25 0
v -2 -24 0
v -1 -24 0
v -2 -25 0
v -3 -25 0
v -3 -24 0
v -2 -24 0
v -4 -25 0
v -5 -25 0
v -5 -24 0
v -4 -24 0
v -5 -25 0
v -6 -25 0
v -6 -24 0
v -5 -24 0
v -17 -25 0
v -18 -25 0
v -18 -24 0
v -17 -24 0
v -18 -25 0
v -19 -25 0
v -19 -24 0
v -18 -24 0
v -19 -25 0
v -20 -25 0
v -20 -24 0
v -19 -24 0
v -20 -25 0
v -21 -25 0
v -21 -24 0
v -20 -24 0
v -21 -25 0
v -22 -25 0
v -22 -24 0
v -21 -24 0
v -23 -25 0
v -24 -25 0
v -24 -24 0
v -23 -24 0
v -24 -25 0
v -25 -25 0
v -25 -24 0
v -24 -24 0
v 0 -26 0
v -1 -26 0
v -1 -25 0
v 0 -25 0
v -1 -26 0
v -2 -26 0
v -2 -25 0
v -1 -25 0
v -2 -26 0
v -3 -26 0
v -3 -25 0
v -2 -25 0
v -19 -26 0
v -20 -26 0
v -20 -25 0
v -19 -25 0
v -20 -26 0
v -21 -26 0
v -21 -25 0
v -20 -25 0
v -21 -26 0
v -22 -26 0
v -22 -25 0
v -21 -25 0
v 0 -27 0
v -1 -27 0
v -1 -26 0
v 0 -26 0
v -1 -27 0
v -2 -27 0
v -2 -26 0
v -1 -26 0
v -2 -27 0
v -3 -27 0
v -3 -26 0
v -2 -26 0
v -3 -27 0
v -4 -27 0
v -4 -26 0
v -3 -26 0
v -20 -27 0
v -21 -27 0
v -21 -26 0
v -20 -26 0
v -21 -27 0
v -22 -27 0
v -22 -26 0
v -21 -26 0
v -22 -27 0
v -23 -27 0
v -23 -26 0
v -22 -26 0
v -1 -28 0
v -2 -28 0
v -2 -27 0
v -1 -27 0
v -2 -28 0
v -3 -28 0
v -3 -27 0
v -2 -27 0
v -3 -28 0
v -4 -28 0
v -4 -27 0
v -3 -27 0
v -4 -28 0
v -5 -28 0
v -5 -27 0
v -4 -27 0
v -5 -28 0
v -6 -28 0
v -6 -27 0
v -5 -27 0
v -17 -28 0
v -18 -28 0
v -18 -27 0
v -17 -27 0
v -18 -28 0
v -19 -28 0
v -19 -27 0
v -18 -27 0
v -20 -28 0
v -21 -28 0
v -21 -27 0
v -20 -27 0
v -21 -28 0
v -22 -28 0
v -22 -27 0
v -21 -27 0
v -22 -28 0
v -23 -28 0
v -23 -27 0
v -22 -27 0
v -23 -28 0
v -24 -28 0
v -24 -27 0
v -23 -27 0
v -24 -28 0
v -25 -28 0
v -25 -27 0
v -24 -27 0
v -1 -29 0
v -2 -29 0
v -2 -28 0
v -1 -28 0
v -2 -29 0
v -3 -29 0
v -3 -28 0
v -2 -28 0
v -3 -29 0
v -4 -29 0
v -4 -28 0
v -3 -28 0
v -4 -29 0
v -5 -29 0
v -5 -28 0
v -4 -28 0
v -5 -29 0
v -6 -29 0
v -6 -28 0
v -5 -28 0
v -17 -29 0
v -18 -29 0
v -18 -28 0
v -17 -28 0
v -18 -29 0
v -19 -29 0
v -19 -28 0
v -18 -28 0
v -20 -29 0
v -21 -29 0
v -21 -28 0
v -20 -28 0
v -21 -29 0
v -22 -29 0
v -22 -28 0
v -21 -28 0
v -22 -29 0
v -23 -29 0
v -23 -28 0
v -22 -28 0
v -23 -29 0
v -24 -29 0
v -24 -28 0
v -23 -28 0
v -24 -29 0
v -25 -29 0
v -25 -28 0
v -24 -28 0

# Texture cooridinates (Count = 56)
vt 0.25 0.3055556
vt 0.275 0.3055556
vt 0.275 0.3333333
vt 0.25 0.3333333
vt 0.125 0.1666667
vt 0.15 0.1666667
vt 0.15 0.1944444
vt 0.125 0.1944444
vt 0.175 0.1666667
vt 0.175 0.1944444
vt 0.25 0.2777778
vt 0.275 0.2777778
vt 0.125 0.1388889
vt 0.15 0.1388889
vt 0.175 0.1388889
vt 0.2 0.1111111
vt 0.225 0.1111111
vt 0.225 0.1388889
vt 0.2 0.1388889
vt 0.25 0.1111111
vt 0.25 0.1388889
vt 0.35 0.2222222
vt 0.375 0.2222222
vt 0.375 0.25
vt 0.35 0.25
vt 0.4 0.2222222
vt 0.4 0.25
vt 0.425 0.2222222
vt 0.425 0.25
vt 0.45 0.2222222
vt 0.45 0.25
vt 0.2 0.08333331
vt 0.225 0.08333331
vt 0.25 0.08333331
vt 0.35 0.1944444
vt 0.375 0.1944444
vt 0.4 0.1944444
vt 0.425 0.1944444
vt 0.45 0.1944444
vt 0.2 0.05555558
vt 0.225 0.05555558
vt 0.25 0.05555558
vt 0.275 0.3611111
vt 0.3 0.3611111
vt 0.3 0.3888889
vt 0.275 0.3888889
vt 0.325 0.3611111
vt 0.325 0.3888889
vt 0.35 0.3611111
vt 0.35 0.3888889
vt 0.3 0.3333333
vt 0.325 0.3333333
vt 0.35 0.3333333
vt 0.3 0.3055556
vt 0.325 0.3055556
vt 0.35 0.3055556

# Normal
vn 0 0 -1

# Mesh description
g Numbers-3-castle_mesh_0007

# Faces
f 1/1/1 2/2/1 3/3/1 4/4/1
f 5/1/1 6/2/1 7/3/1 8/4/1
f 9/5/1 10/6/1 11/7/1 12/8/1
f 13/6/1 14/9/1 15/10/1 16/7/1
f 17/1/1 18/2/1 19/3/1 20/4/1
f 21/1/1 22/2/1 23/3/1 24/4/1
f 25/5/1 26/6/1 27/7/1 28/8/1
f 29/6/1 30/9/1 31/10/1 32/7/1
f 33/11/1 34/12/1 35/2/1 36/1/1
f 37/11/1 38/12/1 39/2/1 40/1/1
f 41/13/1 42/14/1 43/6/1 44/5/1
f 45/14/1 46/15/1 47/9/1 48/6/1
f 49/11/1 50/12/1 51/2/1 52/1/1
f 53/11/1 54/12/1 55/2/1 56/1/1
f 57/13/1 58/14/1 59/6/1 60/5/1
f 61/14/1 62/15/1 63/9/1 64/6/1
f 65/16/1 66/17/1 67/18/1 68/19/1
f 69/17/1 70/20/1 71/21/1 72/18/1
f 73/22/1 74/23/1 75/24/1 76/25/1
f 77/23/1 78/26/1 79/27/1 80/24/1
f 81/26/1 82/28/1 83/29/1 84/27/1
f 85/28/1 86/30/1 87/31/1 88/29/1
f 89/16/1 90/17/1 91/18/1 92/19/1
f 93/17/1 94/20/1 95/21/1 96/18/1
f 97/22/1 98/23/1 99/24/1 100/25/1
f 101/23/1 102/26/1 103/27/1 104/24/1
f 105/32/1 106/33/1 107/17/1 108/16/1
f 109/33/1 110/34/1 111/20/1 112/17/1
f 113/35/1 114/36/1 115/23/1 116/22/1
f 117/36/1 118/37/1 119/26/1 120/23/1
f 121/37/1 122/38/1 123/28/1 124/26/1
f 125/38/1 126/39/1 127/30/1 128/28/1
f 129/32/1 130/33/1 131/17/1 132/16/1
f 133/33/1 134/34/1 135/20/1 136/17/1
f 137/35/1 138/36/1 139/23/1 140/22/1
f 141/36/1 142/37/1 143/26/1 144/23/1
f 145/40/1 146/41/1 147/33/1 148/32/1
f 149/41/1 150/42/1 151/34/1 152/33/1
f 153/40/1 154/41/1 155/33/1 156/32/1
f 157/41/1 158/42/1 159/34/1 160/33/1
f 161/22/1 162/23/1 163/24/1 164/25/1
f 165/23/1 166/26/1 167/27/1 168/24/1
f 169/26/1 170/28/1 171/29/1 172/27/1
f 173/28/1 174/30/1 175/31/1 176/29/1
f 177/43/1 178/44/1 179/45/1 180/46/1
f 181/44/1 182/47/1 183/48/1 184/45/1
f 185/47/1 186/49/1 187/50/1 188/48/1
f 189/22/1 190/23/1 191/24/1 192/25/1
f 193/23/1 194/26/1 195/27/1 196/24/1
f 197/43/1 198/44/1 199/45/1 200/46/1
f 201/44/1 202/47/1 203/48/1 204/45/1
f 205/47/1 206/49/1 207/50/1 208/48/1
f 209/35/1 210/36/1 211/23/1 212/22/1
f 213/36/1 214/37/1 215/26/1 216/23/1
f 217/37/1 218/38/1 219/28/1 220/26/1
f 221/38/1 222/39/1 223/30/1 224/28/1
f 225/3/1 226/51/1 227/44/1 228/43/1
f 229/51/1 230/52/1 231/47/1 232/44/1
f 233/52/1 234/53/1 235/49/1 236/47/1
f 237/35/1 238/36/1 239/23/1 240/22/1
f 241/36/1 242/37/1 243/26/1 244/23/1
f 245/3/1 246/51/1 247/44/1 248/43/1
f 249/51/1 250/52/1 251/47/1 252/44/1
f 253/52/1 254/53/1 255/49/1 256/47/1
f 257/2/1 258/54/1 259/51/1 260/3/1
f 261/54/1 262/55/1 263/52/1 264/51/1
f 265/55/1 266/56/1 267/53/1 268/52/1
f 269/2/1 270/54/1 271/51/1 272/3/1
f 273/54/1 274/55/1 275/52/1 276/51/1
f 277/55/1 278/56/1 279/53/1 280/52/1
f 281/47/1 282/49/1 283/50/1 284/48/1
f 285/43/1 286/44/1 287/45/1 288/46/1
f 289/44/1 290/47/1 291/48/1 292/45/1
f 293/47/1 294/49/1 295/50/1 296/48/1
f 297/3/1 298/51/1 299/44/1 300/43/1
f 301/51/1 302/52/1 303/47/1 304/44/1
f 305/52/1 306/53/1 307/49/1 308/47/1
f 309/22/1 310/23/1 311/24/1 312/25/1
f 313/23/1 314/26/1 315/27/1 316/24/1
f 317/26/1 318/28/1 319/29/1 320/27/1
f 321/28/1 322/30/1 323/31/1 324/29/1
f 325/3/1 326/51/1 327/44/1 328/43/1
f 329/51/1 330/52/1 331/47/1 332/44/1
f 333/52/1 334/53/1 335/49/1 336/47/1
f 337/22/1 338/23/1 339/24/1 340/25/1
f 341/23/1 342/26/1 343/27/1 344/24/1
f 345/2/1 346/54/1 347/51/1 348/3/1
f 349/54/1 350/55/1 351/52/1 352/51/1
f 353/55/1 354/56/1 355/53/1 356/52/1
f 357/35/1 358/36/1 359/23/1 360/22/1
f 361/36/1 362/37/1 363/26/1 364/23/1
f 365/37/1 366/38/1 367/28/1 368/26/1
f 369/38/1 370/39/1 371/30/1 372/28/1
f 373/2/1 374/54/1 375/51/1 376/3/1
f 377/54/1 378/55/1 379/52/1 380/51/1
f 381/55/1 382/56/1 383/53/1 384/52/1
f 385/35/1 386/36/1 387/23/1 388/22/1
f 389/36/1 390/37/1 391/26/1 392/23/1

