# Tiled2Unity generated file. Do not modify by hand.
# Wavefront file for 'Numbers-3-castle_mesh_0004.obj'

# Vertices (Count = 744)
v 0 -2 0
v -1 -2 0
v -1 -1 0
v 0 -1 0
v 0 -3 0
v -1 -3 0
v -1 -2 0
v 0 -2 0
v 0 -4 0
v -1 -4 0
v -1 -3 0
v 0 -3 0
v 0 -5 0
v -1 -5 0
v -1 -4 0
v 0 -4 0
v 0 -6 0
v -1 -6 0
v -1 -5 0
v 0 -5 0
v 0 -7 0
v -1 -7 0
v -1 -6 0
v 0 -6 0
v 0 -8 0
v -1 -8 0
v -1 -7 0
v 0 -7 0
v 0 -9 0
v -1 -9 0
v -1 -8 0
v 0 -8 0
v -9 -9 0
v -10 -9 0
v -10 -8 0
v -9 -8 0
v -21 -9 0
v -22 -9 0
v -22 -8 0
v -21 -8 0
v 0 -10 0
v -1 -10 0
v -1 -9 0
v 0 -9 0
v 0 -11 0
v -1 -11 0
v -1 -10 0
v 0 -10 0
v -14 -11 0
v -15 -11 0
v -15 -10 0
v -14 -10 0
v -15 -11 0
v -16 -11 0
v -16 -10 0
v -15 -10 0
v -16 -11 0
v -17 -11 0
v -17 -10 0
v -16 -10 0
v 0 -12 0
v -1 -12 0
v -1 -11 0
v 0 -11 0
v -10 -14 0
v -11 -14 0
v -11 -13 0
v -10 -13 0
v -20 -14 0
v -21 -14 0
v -21 -13 0
v -20 -13 0
v -26 -14 0
v -27 -14 0
v -27 -13 0
v -26 -13 0
v -10 -15 0
v -11 -15 0
v -11 -14 0
v -10 -14 0
v -14 -15 0
v -15 -15 0
v -15 -14 0
v -14 -14 0
v -15 -15 0
v -16 -15 0
v -16 -14 0
v -15 -14 0
v -16 -15 0
v -17 -15 0
v -17 -14 0
v -16 -14 0
v -20 -15 0
v -21 -15 0
v -21 -14 0
v -20 -14 0
v -26 -15 0
v -27 -15 0
v -27 -14 0
v -26 -14 0
v -10 -16 0
v -11 -16 0
v -11 -15 0
v -10 -15 0
v -14 -16 0
v -15 -16 0
v -15 -15 0
v -14 -15 0
v -15 -16 0
v -16 -16 0
v -16 -15 0
v -15 -15 0
v -16 -16 0
v -17 -16 0
v -17 -15 0
v -16 -15 0
v -20 -16 0
v -21 -16 0
v -21 -15 0
v -20 -15 0
v -26 -16 0
v -27 -16 0
v -27 -15 0
v -26 -15 0
v 0 -19 0
v -1 -19 0
v -1 -18 0
v 0 -18 0
v -1 -19 0
v -2 -19 0
v -2 -18 0
v -1 -18 0
v -2 -19 0
v -3 -19 0
v -3 -18 0
v -2 -18 0
v -3 -19 0
v -4 -19 0
v -4 -18 0
v -3 -18 0
v -4 -19 0
v -5 -19 0
v -5 -18 0
v -4 -18 0
v -18 -19 0
v -19 -19 0
v -19 -18 0
v -18 -18 0
v -19 -19 0
v -20 -19 0
v -20 -18 0
v -19 -18 0
v -20 -19 0
v -21 -19 0
v -21 -18 0
v -20 -18 0
v -21 -19 0
v -22 -19 0
v -22 -18 0
v -21 -18 0
v -22 -19 0
v -23 -19 0
v -23 -18 0
v -22 -18 0
v -23 -19 0
v -24 -19 0
v -24 -18 0
v -23 -18 0
v 0 -20 0
v -1 -20 0
v -1 -19 0
v 0 -19 0
v -1 -20 0
v -2 -20 0
v -2 -19 0
v -1 -19 0
v -2 -20 0
v -3 -20 0
v -3 -19 0
v -2 -19 0
v -3 -20 0
v -4 -20 0
v -4 -19 0
v -3 -19 0
v -4 -20 0
v -5 -20 0
v -5 -19 0
v -4 -19 0
v -14 -20 0
v -15 -20 0
v -15 -19 0
v -14 -19 0
v -15 -20 0
v -16 -20 0
v -16 -19 0
v -15 -19 0
v -16 -20 0
v -17 -20 0
v -17 -19 0
v -16 -19 0
v -18 -20 0
v -19 -20 0
v -19 -19 0
v -18 -19 0
v -19 -20 0
v -20 -20 0
v -20 -19 0
v -19 -19 0
v -20 -20 0
v -21 -20 0
v -21 -19 0
v -20 -19 0
v -21 -20 0
v -22 -20 0
v -22 -19 0
v -21 -19 0
v -22 -20 0
v -23 -20 0
v -23 -19 0
v -22 -19 0
v -23 -20 0
v -24 -20 0
v -24 -19 0
v -23 -19 0
v 0 -21 0
v -1 -21 0
v -1 -20 0
v 0 -20 0
v -1 -21 0
v -2 -21 0
v -2 -20 0
v -1 -20 0
v -2 -21 0
v -3 -21 0
v -3 -20 0
v -2 -20 0
v -3 -21 0
v -4 -21 0
v -4 -20 0
v -3 -20 0
v -4 -21 0
v -5 -21 0
v -5 -20 0
v -4 -20 0
v -9 -21 0
v -10 -21 0
v -10 -20 0
v -9 -20 0
v -18 -21 0
v -19 -21 0
v -19 -20 0
v -18 -20 0
v -19 -21 0
v -20 -21 0
v -20 -20 0
v -19 -20 0
v -20 -21 0
v -21 -21 0
v -21 -20 0
v -20 -20 0
v -21 -21 0
v -22 -21 0
v -22 -20 0
v -21 -20 0
v -22 -21 0
v -23 -21 0
v -23 -20 0
v -22 -20 0
v -23 -21 0
v -24 -21 0
v -24 -20 0
v -23 -20 0
v 0 -22 0
v -1 -22 0
v -1 -21 0
v 0 -21 0
v -1 -22 0
v -2 -22 0
v -2 -21 0
v -1 -21 0
v -2 -22 0
v -3 -22 0
v -3 -21 0
v -2 -21 0
v -3 -22 0
v -4 -22 0
v -4 -21 0
v -3 -21 0
v -4 -22 0
v -5 -22 0
v -5 -21 0
v -4 -21 0
v -18 -22 0
v -19 -22 0
v -19 -21 0
v -18 -21 0
v -19 -22 0
v -20 -22 0
v -20 -21 0
v -19 -21 0
v -20 -22 0
v -21 -22 0
v -21 -21 0
v -20 -21 0
v -21 -22 0
v -22 -22 0
v -22 -21 0
v -21 -21 0
v -22 -22 0
v -23 -22 0
v -23 -21 0
v -22 -21 0
v -23 -22 0
v -24 -22 0
v -24 -21 0
v -23 -21 0
v 0 -23 0
v -1 -23 0
v -1 -22 0
v 0 -22 0
v -1 -23 0
v -2 -23 0
v -2 -22 0
v -1 -22 0
v -2 -23 0
v -3 -23 0
v -3 -22 0
v -2 -22 0
v -3 -23 0
v -4 -23 0
v -4 -22 0
v -3 -22 0
v -4 -23 0
v -5 -23 0
v -5 -22 0
v -4 -22 0
v -18 -23 0
v -19 -23 0
v -19 -22 0
v -18 -22 0
v -19 -23 0
v -20 -23 0
v -20 -22 0
v -19 -22 0
v -20 -23 0
v -21 -23 0
v -21 -22 0
v -20 -22 0
v -21 -23 0
v -22 -23 0
v -22 -22 0
v -21 -22 0
v -22 -23 0
v -23 -23 0
v -23 -22 0
v -22 -22 0
v -23 -23 0
v -24 -23 0
v -24 -22 0
v -23 -22 0
v 0 -24 0
v -1 -24 0
v -1 -23 0
v 0 -23 0
v -1 -24 0
v -2 -24 0
v -2 -23 0
v -1 -23 0
v -2 -24 0
v -3 -24 0
v -3 -23 0
v -2 -23 0
v -3 -24 0
v -4 -24 0
v -4 -23 0
v -3 -23 0
v -4 -24 0
v -5 -24 0
v -5 -23 0
v -4 -23 0
v -18 -24 0
v -19 -24 0
v -19 -23 0
v -18 -23 0
v -19 -24 0
v -20 -24 0
v -20 -23 0
v -19 -23 0
v -20 -24 0
v -21 -24 0
v -21 -23 0
v -20 -23 0
v -21 -24 0
v -22 -24 0
v -22 -23 0
v -21 -23 0
v -22 -24 0
v -23 -24 0
v -23 -23 0
v -22 -23 0
v -23 -24 0
v -24 -24 0
v -24 -23 0
v -23 -23 0
v 0 -25 0
v -1 -25 0
v -1 -24 0
v 0 -24 0
v -1 -25 0
v -2 -25 0
v -2 -24 0
v -1 -24 0
v -2 -25 0
v -3 -25 0
v -3 -24 0
v -2 -24 0
v -3 -25 0
v -4 -25 0
v -4 -24 0
v -3 -24 0
v -4 -25 0
v -5 -25 0
v -5 -24 0
v -4 -24 0
v -18 -25 0
v -19 -25 0
v -19 -24 0
v -18 -24 0
v -19 -25 0
v -20 -25 0
v -20 -24 0
v -19 -24 0
v -20 -25 0
v -21 -25 0
v -21 -24 0
v -20 -24 0
v -21 -25 0
v -22 -25 0
v -22 -24 0
v -21 -24 0
v -22 -25 0
v -23 -25 0
v -23 -24 0
v -22 -24 0
v -23 -25 0
v -24 -25 0
v -24 -24 0
v -23 -24 0
v 0 -26 0
v -1 -26 0
v -1 -25 0
v 0 -25 0
v -1 -26 0
v -2 -26 0
v -2 -25 0
v -1 -25 0
v -2 -26 0
v -3 -26 0
v -3 -25 0
v -2 -25 0
v -3 -26 0
v -4 -26 0
v -4 -25 0
v -3 -25 0
v -4 -26 0
v -5 -26 0
v -5 -25 0
v -4 -25 0
v -18 -26 0
v -19 -26 0
v -19 -25 0
v -18 -25 0
v -19 -26 0
v -20 -26 0
v -20 -25 0
v -19 -25 0
v -20 -26 0
v -21 -26 0
v -21 -25 0
v -20 -25 0
v -21 -26 0
v -22 -26 0
v -22 -25 0
v -21 -25 0
v -22 -26 0
v -23 -26 0
v -23 -25 0
v -22 -25 0
v -23 -26 0
v -24 -26 0
v -24 -25 0
v -23 -25 0
v 0 -27 0
v -1 -27 0
v -1 -26 0
v 0 -26 0
v -1 -27 0
v -2 -27 0
v -2 -26 0
v -1 -26 0
v -2 -27 0
v -3 -27 0
v -3 -26 0
v -2 -26 0
v -3 -27 0
v -4 -27 0
v -4 -26 0
v -3 -26 0
v -4 -27 0
v -5 -27 0
v -5 -26 0
v -4 -26 0
v -18 -27 0
v -19 -27 0
v -19 -26 0
v -18 -26 0
v -19 -27 0
v -20 -27 0
v -20 -26 0
v -19 -26 0
v -20 -27 0
v -21 -27 0
v -21 -26 0
v -20 -26 0
v -21 -27 0
v -22 -27 0
v -22 -26 0
v -21 -26 0
v -22 -27 0
v -23 -27 0
v -23 -26 0
v -22 -26 0
v -23 -27 0
v -24 -27 0
v -24 -26 0
v -23 -26 0
v 0 -28 0
v -1 -28 0
v -1 -27 0
v 0 -27 0
v -1 -28 0
v -2 -28 0
v -2 -27 0
v -1 -27 0
v -2 -28 0
v -3 -28 0
v -3 -27 0
v -2 -27 0
v -3 -28 0
v -4 -28 0
v -4 -27 0
v -3 -27 0
v -4 -28 0
v -5 -28 0
v -5 -27 0
v -4 -27 0
v -18 -28 0
v -19 -28 0
v -19 -27 0
v -18 -27 0
v -19 -28 0
v -20 -28 0
v -20 -27 0
v -19 -27 0
v -20 -28 0
v -21 -28 0
v -21 -27 0
v -20 -27 0
v -21 -28 0
v -22 -28 0
v -22 -27 0
v -21 -27 0
v -22 -28 0
v -23 -28 0
v -23 -27 0
v -22 -27 0
v -23 -28 0
v -24 -28 0
v -24 -27 0
v -23 -27 0
v 0 -29 0
v -1 -29 0
v -1 -28 0
v 0 -28 0
v -1 -29 0
v -2 -29 0
v -2 -28 0
v -1 -28 0
v -2 -29 0
v -3 -29 0
v -3 -28 0
v -2 -28 0
v -3 -29 0
v -4 -29 0
v -4 -28 0
v -3 -28 0
v -4 -29 0
v -5 -29 0
v -5 -28 0
v -4 -28 0
v -18 -29 0
v -19 -29 0
v -19 -28 0
v -18 -28 0
v -19 -29 0
v -20 -29 0
v -20 -28 0
v -19 -28 0
v -20 -29 0
v -21 -29 0
v -21 -28 0
v -20 -28 0
v -21 -29 0
v -22 -29 0
v -22 -28 0
v -21 -28 0
v -22 -29 0
v -23 -29 0
v -23 -28 0
v -22 -28 0
v -23 -29 0
v -24 -29 0
v -24 -28 0
v -23 -28 0
v 0 -30 0
v -1 -30 0
v -1 -29 0
v 0 -29 0
v -1 -30 0
v -2 -30 0
v -2 -29 0
v -1 -29 0
v -2 -30 0
v -3 -30 0
v -3 -29 0
v -2 -29 0
v -3 -30 0
v -4 -30 0
v -4 -29 0
v -3 -29 0
v -4 -30 0
v -5 -30 0
v -5 -29 0
v -4 -29 0
v -5 -30 0
v -6 -30 0
v -6 -29 0
v -5 -29 0
v -6 -30 0
v -7 -30 0
v -7 -29 0
v -6 -29 0
v -7 -30 0
v -8 -30 0
v -8 -29 0
v -7 -29 0
v -8 -30 0
v -9 -30 0
v -9 -29 0
v -8 -29 0
v -9 -30 0
v -10 -30 0
v -10 -29 0
v -9 -29 0
v -10 -30 0
v -11 -30 0
v -11 -29 0
v -10 -29 0
v -11 -30 0
v -12 -30 0
v -12 -29 0
v -11 -29 0
v -12 -30 0
v -13 -30 0
v -13 -29 0
v -12 -29 0
v -13 -30 0
v -14 -30 0
v -14 -29 0
v -13 -29 0
v -14 -30 0
v -15 -30 0
v -15 -29 0
v -14 -29 0
v -15 -30 0
v -16 -30 0
v -16 -29 0
v -15 -29 0
v -16 -30 0
v -17 -30 0
v -17 -29 0
v -16 -29 0
v -17 -30 0
v -18 -30 0
v -18 -29 0
v -17 -29 0
v -18 -30 0
v -19 -30 0
v -19 -29 0
v -18 -29 0
v -19 -30 0
v -20 -30 0
v -20 -29 0
v -19 -29 0
v -20 -30 0
v -21 -30 0
v -21 -29 0
v -20 -29 0
v -21 -30 0
v -22 -30 0
v -22 -29 0
v -21 -29 0
v -22 -30 0
v -23 -30 0
v -23 -29 0
v -22 -29 0
v -23 -30 0
v -24 -30 0
v -24 -29 0
v -23 -29 0
v -24 -30 0
v -25 -30 0
v -25 -29 0
v -24 -29 0
v -25 -30 0
v -26 -30 0
v -26 -29 0
v -25 -29 0
v -26 -30 0
v -27 -30 0
v -27 -29 0
v -26 -29 0
v -27 -30 0
v -28 -30 0
v -28 -29 0
v -27 -29 0
v -28 -30 0
v -29 -30 0
v -29 -29 0
v -28 -29 0
v -29 -30 0
v -30 -30 0
v -30 -29 0
v -29 -29 0

# Texture cooridinates (Count = 64)
vt 0 0.5833334
vt 0.025 0.5833334
vt 0.025 0.6111111
vt 0 0.6111111
vt 0 0.5555556
vt 0.025 0.5555556
vt 0.8 0.9444444
vt 0.825 0.9444444
vt 0.825 0.9722222
vt 0.8 0.9722222
vt 0.7 0.8611111
vt 0.725 0.8611111
vt 0.725 0.8888889
vt 0.7 0.8888889
vt 0.75 0.8611111
vt 0.75 0.8888889
vt 0.775 0.8611111
vt 0.775 0.8888889
vt 0.65 0.8611111
vt 0.675 0.8611111
vt 0.675 0.8888889
vt 0.65 0.8888889
vt 0.65 0.8333333
vt 0.675 0.8333333
vt 0.7 0.7222222
vt 0.725 0.7222222
vt 0.725 0.75
vt 0.7 0.75
vt 0.75 0.7222222
vt 0.75 0.75
vt 0.775 0.7222222
vt 0.775 0.75
vt 0.7 0.8333333
vt 0.65 0.8055556
vt 0.675 0.8055556
vt 0.7 0.6944444
vt 0.725 0.6944444
vt 0.75 0.6944444
vt 0.775 0.6944444
vt 0.7 0.8055556
vt 0.575 0.9722222
vt 0.6 0.9722222
vt 0.6 1
vt 0.575 1
vt 0.625 0.9722222
vt 0.625 1
vt 0.55 0.9722222
vt 0.55 1
vt 0.575 0.9444444
vt 0.6 0.9444444
vt 0.625 0.9444444
vt 0.725 0.8055556
vt 0.725 0.8333333
vt 0.75 0.8055556
vt 0.75 0.8333333
vt 0.775 0.8055556
vt 0.775 0.8333333
vt 0.55 0.9444444
vt 0.7 0.9444444
vt 0.725 0.9444444
vt 0.725 0.9722222
vt 0.7 0.9722222
vt 0.75 0.9444444
vt 0.75 0.9722222

# Normal
vn 0 0 -1

# Mesh description
g Numbers-3-castle_mesh_0004

# Faces
f 1/1/1 2/2/1 3/3/1 4/4/1
f 5/5/1 6/6/1 7/2/1 8/1/1
f 9/1/1 10/2/1 11/3/1 12/4/1
f 13/5/1 14/6/1 15/2/1 16/1/1
f 17/1/1 18/2/1 19/3/1 20/4/1
f 21/5/1 22/6/1 23/2/1 24/1/1
f 25/1/1 26/2/1 27/3/1 28/4/1
f 29/5/1 30/6/1 31/2/1 32/1/1
f 33/7/1 34/8/1 35/9/1 36/10/1
f 37/7/1 38/8/1 39/9/1 40/10/1
f 41/1/1 42/2/1 43/3/1 44/4/1
f 45/5/1 46/6/1 47/2/1 48/1/1
f 49/11/1 50/12/1 51/13/1 52/14/1
f 53/12/1 54/15/1 55/16/1 56/13/1
f 57/15/1 58/17/1 59/18/1 60/16/1
f 61/1/1 62/2/1 63/3/1 64/4/1
f 65/19/1 66/20/1 67/21/1 68/22/1
f 69/20/1 70/11/1 71/14/1 72/21/1
f 73/20/1 74/11/1 75/14/1 76/21/1
f 77/23/1 78/24/1 79/20/1 80/19/1
f 81/25/1 82/26/1 83/27/1 84/28/1
f 85/26/1 86/29/1 87/30/1 88/27/1
f 89/29/1 90/31/1 91/32/1 92/30/1
f 93/24/1 94/33/1 95/11/1 96/20/1
f 97/24/1 98/33/1 99/11/1 100/20/1
f 101/34/1 102/35/1 103/24/1 104/23/1
f 105/36/1 106/37/1 107/26/1 108/25/1
f 109/37/1 110/38/1 111/29/1 112/26/1
f 113/38/1 114/39/1 115/31/1 116/29/1
f 117/35/1 118/40/1 119/33/1 120/24/1
f 121/35/1 122/40/1 123/33/1 124/24/1
f 125/41/1 126/42/1 127/43/1 128/44/1
f 129/41/1 130/42/1 131/43/1 132/44/1
f 133/41/1 134/42/1 135/43/1 136/44/1
f 137/41/1 138/42/1 139/43/1 140/44/1
f 141/42/1 142/45/1 143/46/1 144/43/1
f 145/47/1 146/41/1 147/44/1 148/48/1
f 149/41/1 150/42/1 151/43/1 152/44/1
f 153/41/1 154/42/1 155/43/1 156/44/1
f 157/41/1 158/42/1 159/43/1 160/44/1
f 161/41/1 162/42/1 163/43/1 164/44/1
f 165/42/1 166/45/1 167/46/1 168/43/1
f 169/49/1 170/50/1 171/42/1 172/41/1
f 173/49/1 174/50/1 175/42/1 176/41/1
f 177/49/1 178/50/1 179/42/1 180/41/1
f 181/49/1 182/50/1 183/42/1 184/41/1
f 185/50/1 186/51/1 187/45/1 188/42/1
f 189/40/1 190/52/1 191/53/1 192/33/1
f 193/52/1 194/54/1 195/55/1 196/53/1
f 197/54/1 198/56/1 199/57/1 200/55/1
f 201/58/1 202/49/1 203/41/1 204/47/1
f 205/49/1 206/50/1 207/42/1 208/41/1
f 209/49/1 210/50/1 211/42/1 212/41/1
f 213/49/1 214/50/1 215/42/1 216/41/1
f 217/49/1 218/50/1 219/42/1 220/41/1
f 221/50/1 222/51/1 223/45/1 224/42/1
f 225/49/1 226/50/1 227/42/1 228/41/1
f 229/49/1 230/50/1 231/42/1 232/41/1
f 233/49/1 234/50/1 235/42/1 236/41/1
f 237/49/1 238/50/1 239/42/1 240/41/1
f 241/50/1 242/51/1 243/45/1 244/42/1
f 245/7/1 246/8/1 247/9/1 248/10/1
f 249/58/1 250/49/1 251/41/1 252/47/1
f 253/49/1 254/50/1 255/42/1 256/41/1
f 257/49/1 258/50/1 259/42/1 260/41/1
f 261/49/1 262/50/1 263/42/1 264/41/1
f 265/49/1 266/50/1 267/42/1 268/41/1
f 269/50/1 270/51/1 271/45/1 272/42/1
f 273/49/1 274/50/1 275/42/1 276/41/1
f 277/49/1 278/50/1 279/42/1 280/41/1
f 281/49/1 282/50/1 283/42/1 284/41/1
f 285/49/1 286/50/1 287/42/1 288/41/1
f 289/50/1 290/51/1 291/45/1 292/42/1
f 293/58/1 294/49/1 295/41/1 296/47/1
f 297/49/1 298/50/1 299/42/1 300/41/1
f 301/49/1 302/50/1 303/42/1 304/41/1
f 305/49/1 306/50/1 307/42/1 308/41/1
f 309/49/1 310/50/1 311/42/1 312/41/1
f 313/50/1 314/51/1 315/45/1 316/42/1
f 317/49/1 318/50/1 319/42/1 320/41/1
f 321/49/1 322/50/1 323/42/1 324/41/1
f 325/49/1 326/50/1 327/42/1 328/41/1
f 329/49/1 330/50/1 331/42/1 332/41/1
f 333/50/1 334/51/1 335/45/1 336/42/1
f 337/58/1 338/49/1 339/41/1 340/47/1
f 341/49/1 342/50/1 343/42/1 344/41/1
f 345/49/1 346/50/1 347/42/1 348/41/1
f 349/49/1 350/50/1 351/42/1 352/41/1
f 353/49/1 354/50/1 355/42/1 356/41/1
f 357/50/1 358/51/1 359/45/1 360/42/1
f 361/49/1 362/50/1 363/42/1 364/41/1
f 365/49/1 366/50/1 367/42/1 368/41/1
f 369/49/1 370/50/1 371/42/1 372/41/1
f 373/49/1 374/50/1 375/42/1 376/41/1
f 377/50/1 378/51/1 379/45/1 380/42/1
f 381/58/1 382/49/1 383/41/1 384/47/1
f 385/49/1 386/50/1 387/42/1 388/41/1
f 389/49/1 390/50/1 391/42/1 392/41/1
f 393/49/1 394/50/1 395/42/1 396/41/1
f 397/49/1 398/50/1 399/42/1 400/41/1
f 401/50/1 402/51/1 403/45/1 404/42/1
f 405/49/1 406/50/1 407/42/1 408/41/1
f 409/49/1 410/50/1 411/42/1 412/41/1
f 413/49/1 414/50/1 415/42/1 416/41/1
f 417/49/1 418/50/1 419/42/1 420/41/1
f 421/50/1 422/51/1 423/45/1 424/42/1
f 425/58/1 426/49/1 427/41/1 428/47/1
f 429/49/1 430/50/1 431/42/1 432/41/1
f 433/49/1 434/50/1 435/42/1 436/41/1
f 437/49/1 438/50/1 439/42/1 440/41/1
f 441/49/1 442/50/1 443/42/1 444/41/1
f 445/50/1 446/51/1 447/45/1 448/42/1
f 449/49/1 450/50/1 451/42/1 452/41/1
f 453/49/1 454/50/1 455/42/1 456/41/1
f 457/49/1 458/50/1 459/42/1 460/41/1
f 461/49/1 462/50/1 463/42/1 464/41/1
f 465/50/1 466/51/1 467/45/1 468/42/1
f 469/58/1 470/49/1 471/41/1 472/47/1
f 473/49/1 474/50/1 475/42/1 476/41/1
f 477/49/1 478/50/1 479/42/1 480/41/1
f 481/49/1 482/50/1 483/42/1 484/41/1
f 485/49/1 486/50/1 487/42/1 488/41/1
f 489/50/1 490/51/1 491/45/1 492/42/1
f 493/49/1 494/50/1 495/42/1 496/41/1
f 497/49/1 498/50/1 499/42/1 500/41/1
f 501/49/1 502/50/1 503/42/1 504/41/1
f 505/49/1 506/50/1 507/42/1 508/41/1
f 509/50/1 510/51/1 511/45/1 512/42/1
f 513/58/1 514/49/1 515/41/1 516/47/1
f 517/49/1 518/50/1 519/42/1 520/41/1
f 521/49/1 522/50/1 523/42/1 524/41/1
f 525/49/1 526/50/1 527/42/1 528/41/1
f 529/49/1 530/50/1 531/42/1 532/41/1
f 533/50/1 534/51/1 535/45/1 536/42/1
f 537/49/1 538/50/1 539/42/1 540/41/1
f 541/49/1 542/50/1 543/42/1 544/41/1
f 545/49/1 546/50/1 547/42/1 548/41/1
f 549/49/1 550/50/1 551/42/1 552/41/1
f 553/50/1 554/51/1 555/45/1 556/42/1
f 557/58/1 558/49/1 559/41/1 560/47/1
f 561/49/1 562/50/1 563/42/1 564/41/1
f 565/49/1 566/50/1 567/42/1 568/41/1
f 569/49/1 570/50/1 571/42/1 572/41/1
f 573/49/1 574/50/1 575/42/1 576/41/1
f 577/50/1 578/51/1 579/45/1 580/42/1
f 581/49/1 582/50/1 583/42/1 584/41/1
f 585/49/1 586/50/1 587/42/1 588/41/1
f 589/49/1 590/50/1 591/42/1 592/41/1
f 593/49/1 594/50/1 595/42/1 596/41/1
f 597/50/1 598/51/1 599/45/1 600/42/1
f 601/58/1 602/49/1 603/41/1 604/47/1
f 605/49/1 606/50/1 607/42/1 608/41/1
f 609/49/1 610/50/1 611/42/1 612/41/1
f 613/49/1 614/50/1 615/42/1 616/41/1
f 617/49/1 618/50/1 619/42/1 620/41/1
f 621/50/1 622/51/1 623/45/1 624/42/1
f 625/49/1 626/50/1 627/42/1 628/41/1
f 629/49/1 630/50/1 631/42/1 632/41/1
f 633/49/1 634/50/1 635/42/1 636/41/1
f 637/49/1 638/50/1 639/42/1 640/41/1
f 641/59/1 642/60/1 643/61/1 644/62/1
f 645/41/1 646/42/1 647/43/1 648/44/1
f 649/41/1 650/42/1 651/43/1 652/44/1
f 653/41/1 654/42/1 655/43/1 656/44/1
f 657/41/1 658/42/1 659/43/1 660/44/1
f 661/41/1 662/42/1 663/43/1 664/44/1
f 665/41/1 666/42/1 667/43/1 668/44/1
f 669/41/1 670/42/1 671/43/1 672/44/1
f 673/41/1 674/42/1 675/43/1 676/44/1
f 677/41/1 678/42/1 679/43/1 680/44/1
f 681/41/1 682/42/1 683/43/1 684/44/1
f 685/41/1 686/42/1 687/43/1 688/44/1
f 689/41/1 690/42/1 691/43/1 692/44/1
f 693/41/1 694/42/1 695/43/1 696/44/1
f 697/60/1 698/63/1 699/64/1 700/61/1
f 701/49/1 702/50/1 703/42/1 704/41/1
f 705/49/1 706/50/1 707/42/1 708/41/1
f 709/49/1 710/50/1 711/42/1 712/41/1
f 713/49/1 714/50/1 715/42/1 716/41/1
f 717/59/1 718/60/1 719/61/1 720/62/1
f 721/41/1 722/42/1 723/43/1 724/44/1
f 725/41/1 726/42/1 727/43/1 728/44/1
f 729/41/1 730/42/1 731/43/1 732/44/1
f 733/41/1 734/42/1 735/43/1 736/44/1
f 737/41/1 738/42/1 739/43/1 740/44/1
f 741/41/1 742/42/1 743/43/1 744/44/1

