# Tiled2Unity generated file. Do not modify by hand.
# Wavefront file for 'Numbers-3-castle_mesh_0005.obj'

# Vertices (Count = 540)
v 0 -2 0
v -1 -2 0
v -1 -1 0
v 0 -1 0
v 0 -3 0
v -1 -3 0
v -1 -2 0
v 0 -2 0
v 0 -4 0
v -1 -4 0
v -1 -3 0
v 0 -3 0
v 0 -5 0
v -1 -5 0
v -1 -4 0
v 0 -4 0
v 0 -6 0
v -1 -6 0
v -1 -5 0
v 0 -5 0
v 0 -7 0
v -1 -7 0
v -1 -6 0
v 0 -6 0
v 0 -8 0
v -1 -8 0
v -1 -7 0
v 0 -7 0
v 0 -9 0
v -1 -9 0
v -1 -8 0
v 0 -8 0
v 0 -10 0
v -1 -10 0
v -1 -9 0
v 0 -9 0
v -9 -10 0
v -10 -10 0
v -10 -9 0
v -9 -9 0
v -21 -10 0
v -22 -10 0
v -22 -9 0
v -21 -9 0
v 0 -11 0
v -1 -11 0
v -1 -10 0
v 0 -10 0
v 0 -12 0
v -1 -12 0
v -1 -11 0
v 0 -11 0
v -14 -12 0
v -15 -12 0
v -15 -11 0
v -14 -11 0
v -15 -12 0
v -16 -12 0
v -16 -11 0
v -15 -11 0
v -16 -12 0
v -17 -12 0
v -17 -11 0
v -16 -11 0
v 0 -13 0
v -1 -13 0
v -1 -12 0
v 0 -12 0
v -10 -15 0
v -11 -15 0
v -11 -14 0
v -10 -14 0
v -20 -15 0
v -21 -15 0
v -21 -14 0
v -20 -14 0
v -26 -15 0
v -27 -15 0
v -27 -14 0
v -26 -14 0
v -10 -16 0
v -11 -16 0
v -11 -15 0
v -10 -15 0
v -14 -16 0
v -15 -16 0
v -15 -15 0
v -14 -15 0
v -15 -16 0
v -16 -16 0
v -16 -15 0
v -15 -15 0
v -16 -16 0
v -17 -16 0
v -17 -15 0
v -16 -15 0
v -20 -16 0
v -21 -16 0
v -21 -15 0
v -20 -15 0
v -26 -16 0
v -27 -16 0
v -27 -15 0
v -26 -15 0
v -10 -17 0
v -11 -17 0
v -11 -16 0
v -10 -16 0
v -14 -17 0
v -15 -17 0
v -15 -16 0
v -14 -16 0
v -15 -17 0
v -16 -17 0
v -16 -16 0
v -15 -16 0
v -16 -17 0
v -17 -17 0
v -17 -16 0
v -16 -16 0
v -20 -17 0
v -21 -17 0
v -21 -16 0
v -20 -16 0
v -26 -17 0
v -27 -17 0
v -27 -16 0
v -26 -16 0
v -14 -21 0
v -15 -21 0
v -15 -20 0
v -14 -20 0
v -15 -21 0
v -16 -21 0
v -16 -20 0
v -15 -20 0
v -16 -21 0
v -17 -21 0
v -17 -20 0
v -16 -20 0
v 0 -22 0
v -1 -22 0
v -1 -21 0
v 0 -21 0
v -1 -22 0
v -2 -22 0
v -2 -21 0
v -1 -21 0
v -2 -22 0
v -3 -22 0
v -3 -21 0
v -2 -21 0
v -3 -22 0
v -4 -22 0
v -4 -21 0
v -3 -21 0
v -4 -22 0
v -5 -22 0
v -5 -21 0
v -4 -21 0
v -9 -22 0
v -10 -22 0
v -10 -21 0
v -9 -21 0
v -18 -22 0
v -19 -22 0
v -19 -21 0
v -18 -21 0
v -19 -22 0
v -20 -22 0
v -20 -21 0
v -19 -21 0
v -20 -22 0
v -21 -22 0
v -21 -21 0
v -20 -21 0
v -21 -22 0
v -22 -22 0
v -22 -21 0
v -21 -21 0
v -22 -22 0
v -23 -22 0
v -23 -21 0
v -22 -21 0
v -23 -22 0
v -24 -22 0
v -24 -21 0
v -23 -21 0
v 0 -23 0
v -1 -23 0
v -1 -22 0
v 0 -22 0
v -1 -23 0
v -2 -23 0
v -2 -22 0
v -1 -22 0
v -2 -23 0
v -3 -23 0
v -3 -22 0
v -2 -22 0
v -3 -23 0
v -4 -23 0
v -4 -22 0
v -3 -22 0
v -4 -23 0
v -5 -23 0
v -5 -22 0
v -4 -22 0
v -18 -23 0
v -19 -23 0
v -19 -22 0
v -18 -22 0
v -19 -23 0
v -20 -23 0
v -20 -22 0
v -19 -22 0
v -20 -23 0
v -21 -23 0
v -21 -22 0
v -20 -22 0
v -21 -23 0
v -22 -23 0
v -22 -22 0
v -21 -22 0
v -22 -23 0
v -23 -23 0
v -23 -22 0
v -22 -22 0
v -23 -23 0
v -24 -23 0
v -24 -22 0
v -23 -22 0
v 0 -24 0
v -1 -24 0
v -1 -23 0
v 0 -23 0
v -1 -24 0
v -2 -24 0
v -2 -23 0
v -1 -23 0
v -2 -24 0
v -3 -24 0
v -3 -23 0
v -2 -23 0
v -3 -24 0
v -4 -24 0
v -4 -23 0
v -3 -23 0
v -4 -24 0
v -5 -24 0
v -5 -23 0
v -4 -23 0
v -18 -24 0
v -19 -24 0
v -19 -23 0
v -18 -23 0
v -19 -24 0
v -20 -24 0
v -20 -23 0
v -19 -23 0
v -20 -24 0
v -21 -24 0
v -21 -23 0
v -20 -23 0
v -21 -24 0
v -22 -24 0
v -22 -23 0
v -21 -23 0
v -22 -24 0
v -23 -24 0
v -23 -23 0
v -22 -23 0
v -23 -24 0
v -24 -24 0
v -24 -23 0
v -23 -23 0
v 0 -25 0
v -1 -25 0
v -1 -24 0
v 0 -24 0
v -1 -25 0
v -2 -25 0
v -2 -24 0
v -1 -24 0
v -2 -25 0
v -3 -25 0
v -3 -24 0
v -2 -24 0
v -3 -25 0
v -4 -25 0
v -4 -24 0
v -3 -24 0
v -4 -25 0
v -5 -25 0
v -5 -24 0
v -4 -24 0
v -18 -25 0
v -19 -25 0
v -19 -24 0
v -18 -24 0
v -19 -25 0
v -20 -25 0
v -20 -24 0
v -19 -24 0
v -20 -25 0
v -21 -25 0
v -21 -24 0
v -20 -24 0
v -21 -25 0
v -22 -25 0
v -22 -24 0
v -21 -24 0
v -22 -25 0
v -23 -25 0
v -23 -24 0
v -22 -24 0
v -23 -25 0
v -24 -25 0
v -24 -24 0
v -23 -24 0
v 0 -26 0
v -1 -26 0
v -1 -25 0
v 0 -25 0
v -1 -26 0
v -2 -26 0
v -2 -25 0
v -1 -25 0
v -2 -26 0
v -3 -26 0
v -3 -25 0
v -2 -25 0
v -3 -26 0
v -4 -26 0
v -4 -25 0
v -3 -25 0
v -4 -26 0
v -5 -26 0
v -5 -25 0
v -4 -25 0
v -18 -26 0
v -19 -26 0
v -19 -25 0
v -18 -25 0
v -19 -26 0
v -20 -26 0
v -20 -25 0
v -19 -25 0
v -20 -26 0
v -21 -26 0
v -21 -25 0
v -20 -25 0
v -21 -26 0
v -22 -26 0
v -22 -25 0
v -21 -25 0
v -22 -26 0
v -23 -26 0
v -23 -25 0
v -22 -25 0
v -23 -26 0
v -24 -26 0
v -24 -25 0
v -23 -25 0
v 0 -27 0
v -1 -27 0
v -1 -26 0
v 0 -26 0
v -1 -27 0
v -2 -27 0
v -2 -26 0
v -1 -26 0
v -2 -27 0
v -3 -27 0
v -3 -26 0
v -2 -26 0
v -3 -27 0
v -4 -27 0
v -4 -26 0
v -3 -26 0
v -4 -27 0
v -5 -27 0
v -5 -26 0
v -4 -26 0
v -18 -27 0
v -19 -27 0
v -19 -26 0
v -18 -26 0
v -19 -27 0
v -20 -27 0
v -20 -26 0
v -19 -26 0
v -20 -27 0
v -21 -27 0
v -21 -26 0
v -20 -26 0
v -21 -27 0
v -22 -27 0
v -22 -26 0
v -21 -26 0
v -22 -27 0
v -23 -27 0
v -23 -26 0
v -22 -26 0
v -23 -27 0
v -24 -27 0
v -24 -26 0
v -23 -26 0
v 0 -28 0
v -1 -28 0
v -1 -27 0
v 0 -27 0
v -1 -28 0
v -2 -28 0
v -2 -27 0
v -1 -27 0
v -2 -28 0
v -3 -28 0
v -3 -27 0
v -2 -27 0
v -3 -28 0
v -4 -28 0
v -4 -27 0
v -3 -27 0
v -4 -28 0
v -5 -28 0
v -5 -27 0
v -4 -27 0
v -18 -28 0
v -19 -28 0
v -19 -27 0
v -18 -27 0
v -19 -28 0
v -20 -28 0
v -20 -27 0
v -19 -27 0
v -20 -28 0
v -21 -28 0
v -21 -27 0
v -20 -27 0
v -21 -28 0
v -22 -28 0
v -22 -27 0
v -21 -27 0
v -22 -28 0
v -23 -28 0
v -23 -27 0
v -22 -27 0
v -23 -28 0
v -24 -28 0
v -24 -27 0
v -23 -27 0
v 0 -29 0
v -1 -29 0
v -1 -28 0
v 0 -28 0
v -1 -29 0
v -2 -29 0
v -2 -28 0
v -1 -28 0
v -2 -29 0
v -3 -29 0
v -3 -28 0
v -2 -28 0
v -3 -29 0
v -4 -29 0
v -4 -28 0
v -3 -28 0
v -4 -29 0
v -5 -29 0
v -5 -28 0
v -4 -28 0
v -18 -29 0
v -19 -29 0
v -19 -28 0
v -18 -28 0
v -19 -29 0
v -20 -29 0
v -20 -28 0
v -19 -28 0
v -20 -29 0
v -21 -29 0
v -21 -28 0
v -20 -28 0
v -21 -29 0
v -22 -29 0
v -22 -28 0
v -21 -28 0
v -22 -29 0
v -23 -29 0
v -23 -28 0
v -22 -28 0
v -23 -29 0
v -24 -29 0
v -24 -28 0
v -23 -28 0
v 0 -30 0
v -1 -30 0
v -1 -29 0
v 0 -29 0
v -1 -30 0
v -2 -30 0
v -2 -29 0
v -1 -29 0
v -2 -30 0
v -3 -30 0
v -3 -29 0
v -2 -29 0
v -3 -30 0
v -4 -30 0
v -4 -29 0
v -3 -29 0
v -4 -30 0
v -5 -30 0
v -5 -29 0
v -4 -29 0
v -18 -30 0
v -19 -30 0
v -19 -29 0
v -18 -29 0
v -19 -30 0
v -20 -30 0
v -20 -29 0
v -19 -29 0
v -20 -30 0
v -21 -30 0
v -21 -29 0
v -20 -29 0
v -21 -30 0
v -22 -30 0
v -22 -29 0
v -21 -29 0
v -22 -30 0
v -23 -30 0
v -23 -29 0
v -22 -29 0
v -23 -30 0
v -24 -30 0
v -24 -29 0
v -23 -29 0

# Texture cooridinates (Count = 60)
vt 0 0.5833334
vt 0.025 0.5833334
vt 0.025 0.6111111
vt 0 0.6111111
vt 0 0.5555556
vt 0.025 0.5555556
vt 0.8 0.9166667
vt 0.825 0.9166667
vt 0.825 0.9444444
vt 0.8 0.9444444
vt 0.7 0.8333333
vt 0.725 0.8333333
vt 0.725 0.8611111
vt 0.7 0.8611111
vt 0.75 0.8333333
vt 0.75 0.8611111
vt 0.775 0.8333333
vt 0.775 0.8611111
vt 0.65 0.8333333
vt 0.675 0.8333333
vt 0.675 0.8611111
vt 0.65 0.8611111
vt 0.65 0.8055556
vt 0.675 0.8055556
vt 0.7 0.6944444
vt 0.725 0.6944444
vt 0.725 0.7222222
vt 0.7 0.7222222
vt 0.75 0.6944444
vt 0.75 0.7222222
vt 0.775 0.6944444
vt 0.775 0.7222222
vt 0.7 0.8055556
vt 0.65 0.7777778
vt 0.675 0.7777778
vt 0.7 0.6666666
vt 0.725 0.6666666
vt 0.75 0.6666666
vt 0.775 0.6666666
vt 0.7 0.7777778
vt 0.725 0.7777778
vt 0.725 0.8055556
vt 0.75 0.7777778
vt 0.75 0.8055556
vt 0.775 0.7777778
vt 0.775 0.8055556
vt 0.575 0.9444444
vt 0.6 0.9444444
vt 0.6 0.9722222
vt 0.575 0.9722222
vt 0.625 0.9444444
vt 0.625 0.9722222
vt 0.55 0.9444444
vt 0.55 0.9722222
vt 0.7 0.9444444
vt 0.725 0.9444444
vt 0.725 0.9722222
vt 0.7 0.9722222
vt 0.75 0.9444444
vt 0.75 0.9722222

# Normal
vn 0 0 -1

# Mesh description
g Numbers-3-castle_mesh_0005

# Faces
f 1/1/1 2/2/1 3/3/1 4/4/1
f 5/5/1 6/6/1 7/2/1 8/1/1
f 9/1/1 10/2/1 11/3/1 12/4/1
f 13/5/1 14/6/1 15/2/1 16/1/1
f 17/1/1 18/2/1 19/3/1 20/4/1
f 21/5/1 22/6/1 23/2/1 24/1/1
f 25/1/1 26/2/1 27/3/1 28/4/1
f 29/5/1 30/6/1 31/2/1 32/1/1
f 33/1/1 34/2/1 35/3/1 36/4/1
f 37/7/1 38/8/1 39/9/1 40/10/1
f 41/7/1 42/8/1 43/9/1 44/10/1
f 45/5/1 46/6/1 47/2/1 48/1/1
f 49/1/1 50/2/1 51/3/1 52/4/1
f 53/11/1 54/12/1 55/13/1 56/14/1
f 57/12/1 58/15/1 59/16/1 60/13/1
f 61/15/1 62/17/1 63/18/1 64/16/1
f 65/5/1 66/6/1 67/2/1 68/1/1
f 69/19/1 70/20/1 71/21/1 72/22/1
f 73/20/1 74/11/1 75/14/1 76/21/1
f 77/20/1 78/11/1 79/14/1 80/21/1
f 81/23/1 82/24/1 83/20/1 84/19/1
f 85/25/1 86/26/1 87/27/1 88/28/1
f 89/26/1 90/29/1 91/30/1 92/27/1
f 93/29/1 94/31/1 95/32/1 96/30/1
f 97/24/1 98/33/1 99/11/1 100/20/1
f 101/24/1 102/33/1 103/11/1 104/20/1
f 105/34/1 106/35/1 107/24/1 108/23/1
f 109/36/1 110/37/1 111/26/1 112/25/1
f 113/37/1 114/38/1 115/29/1 116/26/1
f 117/38/1 118/39/1 119/31/1 120/29/1
f 121/35/1 122/40/1 123/33/1 124/24/1
f 125/35/1 126/40/1 127/33/1 128/24/1
f 129/40/1 130/41/1 131/42/1 132/33/1
f 133/41/1 134/43/1 135/44/1 136/42/1
f 137/43/1 138/45/1 139/46/1 140/44/1
f 141/47/1 142/48/1 143/49/1 144/50/1
f 145/47/1 146/48/1 147/49/1 148/50/1
f 149/47/1 150/48/1 151/49/1 152/50/1
f 153/47/1 154/48/1 155/49/1 156/50/1
f 157/48/1 158/51/1 159/52/1 160/49/1
f 161/7/1 162/8/1 163/9/1 164/10/1
f 165/53/1 166/47/1 167/50/1 168/54/1
f 169/47/1 170/48/1 171/49/1 172/50/1
f 173/47/1 174/48/1 175/49/1 176/50/1
f 177/47/1 178/48/1 179/49/1 180/50/1
f 181/47/1 182/48/1 183/49/1 184/50/1
f 185/48/1 186/51/1 187/52/1 188/49/1
f 189/47/1 190/48/1 191/49/1 192/50/1
f 193/47/1 194/48/1 195/49/1 196/50/1
f 197/47/1 198/48/1 199/49/1 200/50/1
f 201/47/1 202/48/1 203/49/1 204/50/1
f 205/48/1 206/51/1 207/52/1 208/49/1
f 209/53/1 210/47/1 211/50/1 212/54/1
f 213/47/1 214/48/1 215/49/1 216/50/1
f 217/47/1 218/48/1 219/49/1 220/50/1
f 221/47/1 222/48/1 223/49/1 224/50/1
f 225/47/1 226/48/1 227/49/1 228/50/1
f 229/48/1 230/51/1 231/52/1 232/49/1
f 233/47/1 234/48/1 235/49/1 236/50/1
f 237/47/1 238/48/1 239/49/1 240/50/1
f 241/47/1 242/48/1 243/49/1 244/50/1
f 245/47/1 246/48/1 247/49/1 248/50/1
f 249/48/1 250/51/1 251/52/1 252/49/1
f 253/53/1 254/47/1 255/50/1 256/54/1
f 257/47/1 258/48/1 259/49/1 260/50/1
f 261/47/1 262/48/1 263/49/1 264/50/1
f 265/47/1 266/48/1 267/49/1 268/50/1
f 269/47/1 270/48/1 271/49/1 272/50/1
f 273/48/1 274/51/1 275/52/1 276/49/1
f 277/47/1 278/48/1 279/49/1 280/50/1
f 281/47/1 282/48/1 283/49/1 284/50/1
f 285/47/1 286/48/1 287/49/1 288/50/1
f 289/47/1 290/48/1 291/49/1 292/50/1
f 293/48/1 294/51/1 295/52/1 296/49/1
f 297/53/1 298/47/1 299/50/1 300/54/1
f 301/47/1 302/48/1 303/49/1 304/50/1
f 305/47/1 306/48/1 307/49/1 308/50/1
f 309/47/1 310/48/1 311/49/1 312/50/1
f 313/47/1 314/48/1 315/49/1 316/50/1
f 317/48/1 318/51/1 319/52/1 320/49/1
f 321/47/1 322/48/1 323/49/1 324/50/1
f 325/47/1 326/48/1 327/49/1 328/50/1
f 329/47/1 330/48/1 331/49/1 332/50/1
f 333/47/1 334/48/1 335/49/1 336/50/1
f 337/48/1 338/51/1 339/52/1 340/49/1
f 341/53/1 342/47/1 343/50/1 344/54/1
f 345/47/1 346/48/1 347/49/1 348/50/1
f 349/47/1 350/48/1 351/49/1 352/50/1
f 353/47/1 354/48/1 355/49/1 356/50/1
f 357/47/1 358/48/1 359/49/1 360/50/1
f 361/48/1 362/51/1 363/52/1 364/49/1
f 365/47/1 366/48/1 367/49/1 368/50/1
f 369/47/1 370/48/1 371/49/1 372/50/1
f 373/47/1 374/48/1 375/49/1 376/50/1
f 377/47/1 378/48/1 379/49/1 380/50/1
f 381/48/1 382/51/1 383/52/1 384/49/1
f 385/53/1 386/47/1 387/50/1 388/54/1
f 389/47/1 390/48/1 391/49/1 392/50/1
f 393/47/1 394/48/1 395/49/1 396/50/1
f 397/47/1 398/48/1 399/49/1 400/50/1
f 401/47/1 402/48/1 403/49/1 404/50/1
f 405/48/1 406/51/1 407/52/1 408/49/1
f 409/47/1 410/48/1 411/49/1 412/50/1
f 413/47/1 414/48/1 415/49/1 416/50/1
f 417/47/1 418/48/1 419/49/1 420/50/1
f 421/47/1 422/48/1 423/49/1 424/50/1
f 425/48/1 426/51/1 427/52/1 428/49/1
f 429/53/1 430/47/1 431/50/1 432/54/1
f 433/47/1 434/48/1 435/49/1 436/50/1
f 437/47/1 438/48/1 439/49/1 440/50/1
f 441/47/1 442/48/1 443/49/1 444/50/1
f 445/47/1 446/48/1 447/49/1 448/50/1
f 449/48/1 450/51/1 451/52/1 452/49/1
f 453/47/1 454/48/1 455/49/1 456/50/1
f 457/47/1 458/48/1 459/49/1 460/50/1
f 461/47/1 462/48/1 463/49/1 464/50/1
f 465/47/1 466/48/1 467/49/1 468/50/1
f 469/48/1 470/51/1 471/52/1 472/49/1
f 473/53/1 474/47/1 475/50/1 476/54/1
f 477/47/1 478/48/1 479/49/1 480/50/1
f 481/47/1 482/48/1 483/49/1 484/50/1
f 485/47/1 486/48/1 487/49/1 488/50/1
f 489/47/1 490/48/1 491/49/1 492/50/1
f 493/48/1 494/51/1 495/52/1 496/49/1
f 497/47/1 498/48/1 499/49/1 500/50/1
f 501/47/1 502/48/1 503/49/1 504/50/1
f 505/47/1 506/48/1 507/49/1 508/50/1
f 509/47/1 510/48/1 511/49/1 512/50/1
f 513/55/1 514/56/1 515/57/1 516/58/1
f 517/56/1 518/59/1 519/60/1 520/57/1
f 521/47/1 522/48/1 523/49/1 524/50/1
f 525/47/1 526/48/1 527/49/1 528/50/1
f 529/47/1 530/48/1 531/49/1 532/50/1
f 533/47/1 534/48/1 535/49/1 536/50/1
f 537/55/1 538/56/1 539/57/1 540/58/1

