# Tiled2Unity generated file. Do not modify by hand.
# Wavefront file for 'Numbers-3-castle_mesh_0002.obj'

# Vertices (Count = 1156)
v 0 -1 0
v -1 -1 0
v -1 0 0
v 0 0 0
v -1 -1 0
v -2 -1 0
v -2 0 0
v -1 0 0
v -2 -1 0
v -3 -1 0
v -3 0 0
v -2 0 0
v -3 -1 0
v -4 -1 0
v -4 0 0
v -3 0 0
v -4 -1 0
v -5 -1 0
v -5 0 0
v -4 0 0
v -5 -1 0
v -6 -1 0
v -6 0 0
v -5 0 0
v -6 -1 0
v -7 -1 0
v -7 0 0
v -6 0 0
v -7 -1 0
v -8 -1 0
v -8 0 0
v -7 0 0
v -8 -1 0
v -9 -1 0
v -9 0 0
v -8 0 0
v -9 -1 0
v -10 -1 0
v -10 0 0
v -9 0 0
v -10 -1 0
v -11 -1 0
v -11 0 0
v -10 0 0
v -11 -1 0
v -12 -1 0
v -12 0 0
v -11 0 0
v -12 -1 0
v -13 -1 0
v -13 0 0
v -12 0 0
v -13 -1 0
v -14 -1 0
v -14 0 0
v -13 0 0
v -14 -1 0
v -15 -1 0
v -15 0 0
v -14 0 0
v -15 -1 0
v -16 -1 0
v -16 0 0
v -15 0 0
v -16 -1 0
v -17 -1 0
v -17 0 0
v -16 0 0
v -17 -1 0
v -18 -1 0
v -18 0 0
v -17 0 0
v -18 -1 0
v -19 -1 0
v -19 0 0
v -18 0 0
v -19 -1 0
v -20 -1 0
v -20 0 0
v -19 0 0
v -20 -1 0
v -21 -1 0
v -21 0 0
v -20 0 0
v -21 -1 0
v -22 -1 0
v -22 0 0
v -21 0 0
v -22 -1 0
v -23 -1 0
v -23 0 0
v -22 0 0
v -23 -1 0
v -24 -1 0
v -24 0 0
v -23 0 0
v -24 -1 0
v -25 -1 0
v -25 0 0
v -24 0 0
v -25 -1 0
v -26 -1 0
v -26 0 0
v -25 0 0
v -26 -1 0
v -27 -1 0
v -27 0 0
v -26 0 0
v -27 -1 0
v -28 -1 0
v -28 0 0
v -27 0 0
v -28 -1 0
v -29 -1 0
v -29 0 0
v -28 0 0
v -29 -1 0
v -30 -1 0
v -30 0 0
v -29 0 0
v 0 -2 0
v -1 -2 0
v -1 -1 0
v 0 -1 0
v -1 -2 0
v -2 -2 0
v -2 -1 0
v -1 -1 0
v -2 -2 0
v -3 -2 0
v -3 -1 0
v -2 -1 0
v -3 -2 0
v -4 -2 0
v -4 -1 0
v -3 -1 0
v -4 -2 0
v -5 -2 0
v -5 -1 0
v -4 -1 0
v -5 -2 0
v -6 -2 0
v -6 -1 0
v -5 -1 0
v -6 -2 0
v -7 -2 0
v -7 -1 0
v -6 -1 0
v -7 -2 0
v -8 -2 0
v -8 -1 0
v -7 -1 0
v -8 -2 0
v -9 -2 0
v -9 -1 0
v -8 -1 0
v -9 -2 0
v -10 -2 0
v -10 -1 0
v -9 -1 0
v -10 -2 0
v -11 -2 0
v -11 -1 0
v -10 -1 0
v -11 -2 0
v -12 -2 0
v -12 -1 0
v -11 -1 0
v -12 -2 0
v -13 -2 0
v -13 -1 0
v -12 -1 0
v -13 -2 0
v -14 -2 0
v -14 -1 0
v -13 -1 0
v -14 -2 0
v -15 -2 0
v -15 -1 0
v -14 -1 0
v -15 -2 0
v -16 -2 0
v -16 -1 0
v -15 -1 0
v -16 -2 0
v -17 -2 0
v -17 -1 0
v -16 -1 0
v -17 -2 0
v -18 -2 0
v -18 -1 0
v -17 -1 0
v -18 -2 0
v -19 -2 0
v -19 -1 0
v -18 -1 0
v -19 -2 0
v -20 -2 0
v -20 -1 0
v -19 -1 0
v -20 -2 0
v -21 -2 0
v -21 -1 0
v -20 -1 0
v -21 -2 0
v -22 -2 0
v -22 -1 0
v -21 -1 0
v -22 -2 0
v -23 -2 0
v -23 -1 0
v -22 -1 0
v -23 -2 0
v -24 -2 0
v -24 -1 0
v -23 -1 0
v -24 -2 0
v -25 -2 0
v -25 -1 0
v -24 -1 0
v -25 -2 0
v -26 -2 0
v -26 -1 0
v -25 -1 0
v -26 -2 0
v -27 -2 0
v -27 -1 0
v -26 -1 0
v -27 -2 0
v -28 -2 0
v -28 -1 0
v -27 -1 0
v -28 -2 0
v -29 -2 0
v -29 -1 0
v -28 -1 0
v -29 -2 0
v -30 -2 0
v -30 -1 0
v -29 -1 0
v -1 -3 0
v -2 -3 0
v -2 -2 0
v -1 -2 0
v -2 -3 0
v -3 -3 0
v -3 -2 0
v -2 -2 0
v -3 -3 0
v -4 -3 0
v -4 -2 0
v -3 -2 0
v -4 -3 0
v -5 -3 0
v -5 -2 0
v -4 -2 0
v -5 -3 0
v -6 -3 0
v -6 -2 0
v -5 -2 0
v -6 -3 0
v -7 -3 0
v -7 -2 0
v -6 -2 0
v -7 -3 0
v -8 -3 0
v -8 -2 0
v -7 -2 0
v -8 -3 0
v -9 -3 0
v -9 -2 0
v -8 -2 0
v -9 -3 0
v -10 -3 0
v -10 -2 0
v -9 -2 0
v -10 -3 0
v -11 -3 0
v -11 -2 0
v -10 -2 0
v -11 -3 0
v -12 -3 0
v -12 -2 0
v -11 -2 0
v -12 -3 0
v -13 -3 0
v -13 -2 0
v -12 -2 0
v -13 -3 0
v -14 -3 0
v -14 -2 0
v -13 -2 0
v -14 -3 0
v -15 -3 0
v -15 -2 0
v -14 -2 0
v -15 -3 0
v -16 -3 0
v -16 -2 0
v -15 -2 0
v -16 -3 0
v -17 -3 0
v -17 -2 0
v -16 -2 0
v -17 -3 0
v -18 -3 0
v -18 -2 0
v -17 -2 0
v -18 -3 0
v -19 -3 0
v -19 -2 0
v -18 -2 0
v -19 -3 0
v -20 -3 0
v -20 -2 0
v -19 -2 0
v -20 -3 0
v -21 -3 0
v -21 -2 0
v -20 -2 0
v -21 -3 0
v -22 -3 0
v -22 -2 0
v -21 -2 0
v -22 -3 0
v -23 -3 0
v -23 -2 0
v -22 -2 0
v -23 -3 0
v -24 -3 0
v -24 -2 0
v -23 -2 0
v -24 -3 0
v -25 -3 0
v -25 -2 0
v -24 -2 0
v -25 -3 0
v -26 -3 0
v -26 -2 0
v -25 -2 0
v -26 -3 0
v -27 -3 0
v -27 -2 0
v -26 -2 0
v -27 -3 0
v -28 -3 0
v -28 -2 0
v -27 -2 0
v -28 -3 0
v -29 -3 0
v -29 -2 0
v -28 -2 0
v -29 -3 0
v -30 -3 0
v -30 -2 0
v -29 -2 0
v -2 -4 0
v -3 -4 0
v -3 -3 0
v -2 -3 0
v -3 -4 0
v -4 -4 0
v -4 -3 0
v -3 -3 0
v -4 -4 0
v -5 -4 0
v -5 -3 0
v -4 -3 0
v -5 -4 0
v -6 -4 0
v -6 -3 0
v -5 -3 0
v -6 -4 0
v -7 -4 0
v -7 -3 0
v -6 -3 0
v -7 -4 0
v -8 -4 0
v -8 -3 0
v -7 -3 0
v -8 -4 0
v -9 -4 0
v -9 -3 0
v -8 -3 0
v -9 -4 0
v -10 -4 0
v -10 -3 0
v -9 -3 0
v -10 -4 0
v -11 -4 0
v -11 -3 0
v -10 -3 0
v -11 -4 0
v -12 -4 0
v -12 -3 0
v -11 -3 0
v -12 -4 0
v -13 -4 0
v -13 -3 0
v -12 -3 0
v -13 -4 0
v -14 -4 0
v -14 -3 0
v -13 -3 0
v -14 -4 0
v -15 -4 0
v -15 -3 0
v -14 -3 0
v -15 -4 0
v -16 -4 0
v -16 -3 0
v -15 -3 0
v -16 -4 0
v -17 -4 0
v -17 -3 0
v -16 -3 0
v -17 -4 0
v -18 -4 0
v -18 -3 0
v -17 -3 0
v -18 -4 0
v -19 -4 0
v -19 -3 0
v -18 -3 0
v -19 -4 0
v -20 -4 0
v -20 -3 0
v -19 -3 0
v -20 -4 0
v -21 -4 0
v -21 -3 0
v -20 -3 0
v -21 -4 0
v -22 -4 0
v -22 -3 0
v -21 -3 0
v -22 -4 0
v -23 -4 0
v -23 -3 0
v -22 -3 0
v -23 -4 0
v -24 -4 0
v -24 -3 0
v -23 -3 0
v -24 -4 0
v -25 -4 0
v -25 -3 0
v -24 -3 0
v -25 -4 0
v -26 -4 0
v -26 -3 0
v -25 -3 0
v -26 -4 0
v -27 -4 0
v -27 -3 0
v -26 -3 0
v -27 -4 0
v -28 -4 0
v -28 -3 0
v -27 -3 0
v -28 -4 0
v -29 -4 0
v -29 -3 0
v -28 -3 0
v -29 -4 0
v -30 -4 0
v -30 -3 0
v -29 -3 0
v -2 -5 0
v -3 -5 0
v -3 -4 0
v -2 -4 0
v -3 -5 0
v -4 -5 0
v -4 -4 0
v -3 -4 0
v -4 -5 0
v -5 -5 0
v -5 -4 0
v -4 -4 0
v -5 -5 0
v -6 -5 0
v -6 -4 0
v -5 -4 0
v -6 -5 0
v -7 -5 0
v -7 -4 0
v -6 -4 0
v -7 -5 0
v -8 -5 0
v -8 -4 0
v -7 -4 0
v -8 -5 0
v -9 -5 0
v -9 -4 0
v -8 -4 0
v -9 -5 0
v -10 -5 0
v -10 -4 0
v -9 -4 0
v -10 -5 0
v -11 -5 0
v -11 -4 0
v -10 -4 0
v -11 -5 0
v -12 -5 0
v -12 -4 0
v -11 -4 0
v -12 -5 0
v -13 -5 0
v -13 -4 0
v -12 -4 0
v -13 -5 0
v -14 -5 0
v -14 -4 0
v -13 -4 0
v -14 -5 0
v -15 -5 0
v -15 -4 0
v -14 -4 0
v -15 -5 0
v -16 -5 0
v -16 -4 0
v -15 -4 0
v -16 -5 0
v -17 -5 0
v -17 -4 0
v -16 -4 0
v -17 -5 0
v -18 -5 0
v -18 -4 0
v -17 -4 0
v -18 -5 0
v -19 -5 0
v -19 -4 0
v -18 -4 0
v -19 -5 0
v -20 -5 0
v -20 -4 0
v -19 -4 0
v -20 -5 0
v -21 -5 0
v -21 -4 0
v -20 -4 0
v -21 -5 0
v -22 -5 0
v -22 -4 0
v -21 -4 0
v -22 -5 0
v -23 -5 0
v -23 -4 0
v -22 -4 0
v -23 -5 0
v -24 -5 0
v -24 -4 0
v -23 -4 0
v -24 -5 0
v -25 -5 0
v -25 -4 0
v -24 -4 0
v -25 -5 0
v -26 -5 0
v -26 -4 0
v -25 -4 0
v -26 -5 0
v -27 -5 0
v -27 -4 0
v -26 -4 0
v -27 -5 0
v -28 -5 0
v -28 -4 0
v -27 -4 0
v -28 -5 0
v -29 -5 0
v -29 -4 0
v -28 -4 0
v -29 -5 0
v -30 -5 0
v -30 -4 0
v -29 -4 0
v -4 -6 0
v -5 -6 0
v -5 -5 0
v -4 -5 0
v -5 -6 0
v -6 -6 0
v -6 -5 0
v -5 -5 0
v -6 -6 0
v -7 -6 0
v -7 -5 0
v -6 -5 0
v -7 -6 0
v -8 -6 0
v -8 -5 0
v -7 -5 0
v -8 -6 0
v -9 -6 0
v -9 -5 0
v -8 -5 0
v -9 -6 0
v -10 -6 0
v -10 -5 0
v -9 -5 0
v -10 -6 0
v -11 -6 0
v -11 -5 0
v -10 -5 0
v -11 -6 0
v -12 -6 0
v -12 -5 0
v -11 -5 0
v -12 -6 0
v -13 -6 0
v -13 -5 0
v -12 -5 0
v -13 -6 0
v -14 -6 0
v -14 -5 0
v -13 -5 0
v -14 -6 0
v -15 -6 0
v -15 -5 0
v -14 -5 0
v -15 -6 0
v -16 -6 0
v -16 -5 0
v -15 -5 0
v -16 -6 0
v -17 -6 0
v -17 -5 0
v -16 -5 0
v -17 -6 0
v -18 -6 0
v -18 -5 0
v -17 -5 0
v -18 -6 0
v -19 -6 0
v -19 -5 0
v -18 -5 0
v -19 -6 0
v -20 -6 0
v -20 -5 0
v -19 -5 0
v -20 -6 0
v -21 -6 0
v -21 -5 0
v -20 -5 0
v -21 -6 0
v -22 -6 0
v -22 -5 0
v -21 -5 0
v -22 -6 0
v -23 -6 0
v -23 -5 0
v -22 -5 0
v -23 -6 0
v -24 -6 0
v -24 -5 0
v -23 -5 0
v -24 -6 0
v -25 -6 0
v -25 -5 0
v -24 -5 0
v -25 -6 0
v -26 -6 0
v -26 -5 0
v -25 -5 0
v -26 -6 0
v -27 -6 0
v -27 -5 0
v -26 -5 0
v -27 -6 0
v -28 -6 0
v -28 -5 0
v -27 -5 0
v -28 -6 0
v -29 -6 0
v -29 -5 0
v -28 -5 0
v -29 -6 0
v -30 -6 0
v -30 -5 0
v -29 -5 0
v -6 -7 0
v -7 -7 0
v -7 -6 0
v -6 -6 0
v -7 -7 0
v -8 -7 0
v -8 -6 0
v -7 -6 0
v -8 -7 0
v -9 -7 0
v -9 -6 0
v -8 -6 0
v -9 -7 0
v -10 -7 0
v -10 -6 0
v -9 -6 0
v -10 -7 0
v -11 -7 0
v -11 -6 0
v -10 -6 0
v -11 -7 0
v -12 -7 0
v -12 -6 0
v -11 -6 0
v -12 -7 0
v -13 -7 0
v -13 -6 0
v -12 -6 0
v -13 -7 0
v -14 -7 0
v -14 -6 0
v -13 -6 0
v -14 -7 0
v -15 -7 0
v -15 -6 0
v -14 -6 0
v -15 -7 0
v -16 -7 0
v -16 -6 0
v -15 -6 0
v -16 -7 0
v -17 -7 0
v -17 -6 0
v -16 -6 0
v -17 -7 0
v -18 -7 0
v -18 -6 0
v -17 -6 0
v -18 -7 0
v -19 -7 0
v -19 -6 0
v -18 -6 0
v -19 -7 0
v -20 -7 0
v -20 -6 0
v -19 -6 0
v -20 -7 0
v -21 -7 0
v -21 -6 0
v -20 -6 0
v -21 -7 0
v -22 -7 0
v -22 -6 0
v -21 -6 0
v -22 -7 0
v -23 -7 0
v -23 -6 0
v -22 -6 0
v -23 -7 0
v -24 -7 0
v -24 -6 0
v -23 -6 0
v -26 -7 0
v -27 -7 0
v -27 -6 0
v -26 -6 0
v -27 -7 0
v -28 -7 0
v -28 -6 0
v -27 -6 0
v -28 -7 0
v -29 -7 0
v -29 -6 0
v -28 -6 0
v -29 -7 0
v -30 -7 0
v -30 -6 0
v -29 -6 0
v -7 -8 0
v -8 -8 0
v -8 -7 0
v -7 -7 0
v -8 -8 0
v -9 -8 0
v -9 -7 0
v -8 -7 0
v -9 -8 0
v -10 -8 0
v -10 -7 0
v -9 -7 0
v -10 -8 0
v -11 -8 0
v -11 -7 0
v -10 -7 0
v -11 -8 0
v -12 -8 0
v -12 -7 0
v -11 -7 0
v -12 -8 0
v -13 -8 0
v -13 -7 0
v -12 -7 0
v -13 -8 0
v -14 -8 0
v -14 -7 0
v -13 -7 0
v -14 -8 0
v -15 -8 0
v -15 -7 0
v -14 -7 0
v -15 -8 0
v -16 -8 0
v -16 -7 0
v -15 -7 0
v -16 -8 0
v -17 -8 0
v -17 -7 0
v -16 -7 0
v -17 -8 0
v -18 -8 0
v -18 -7 0
v -17 -7 0
v -18 -8 0
v -19 -8 0
v -19 -7 0
v -18 -7 0
v -19 -8 0
v -20 -8 0
v -20 -7 0
v -19 -7 0
v -20 -8 0
v -21 -8 0
v -21 -7 0
v -20 -7 0
v -21 -8 0
v -22 -8 0
v -22 -7 0
v -21 -7 0
v -26 -8 0
v -27 -8 0
v -27 -7 0
v -26 -7 0
v -27 -8 0
v -28 -8 0
v -28 -7 0
v -27 -7 0
v -28 -8 0
v -29 -8 0
v -29 -7 0
v -28 -7 0
v -29 -8 0
v -30 -8 0
v -30 -7 0
v -29 -7 0
v -26 -9 0
v -27 -9 0
v -27 -8 0
v -26 -8 0
v -27 -9 0
v -28 -9 0
v -28 -8 0
v -27 -8 0
v -28 -9 0
v -29 -9 0
v -29 -8 0
v -28 -8 0
v -29 -9 0
v -30 -9 0
v -30 -8 0
v -29 -8 0
v -26 -10 0
v -27 -10 0
v -27 -9 0
v -26 -9 0
v -27 -10 0
v -28 -10 0
v -28 -9 0
v -27 -9 0
v -28 -10 0
v -29 -10 0
v -29 -9 0
v -28 -9 0
v -29 -10 0
v -30 -10 0
v -30 -9 0
v -29 -9 0
v -27 -11 0
v -28 -11 0
v -28 -10 0
v -27 -10 0
v -28 -11 0
v -29 -11 0
v -29 -10 0
v -28 -10 0
v -29 -11 0
v -30 -11 0
v -30 -10 0
v -29 -10 0
v -26 -12 0
v -27 -12 0
v -27 -11 0
v -26 -11 0
v -27 -12 0
v -28 -12 0
v -28 -11 0
v -27 -11 0
v -28 -12 0
v -29 -12 0
v -29 -11 0
v -28 -11 0
v -29 -12 0
v -30 -12 0
v -30 -11 0
v -29 -11 0
v -26 -13 0
v -27 -13 0
v -27 -12 0
v -26 -12 0
v -27 -13 0
v -28 -13 0
v -28 -12 0
v -27 -12 0
v -28 -13 0
v -29 -13 0
v -29 -12 0
v -28 -12 0
v -29 -13 0
v -30 -13 0
v -30 -12 0
v -29 -12 0
v -26 -14 0
v -27 -14 0
v -27 -13 0
v -26 -13 0
v -27 -14 0
v -28 -14 0
v -28 -13 0
v -27 -13 0
v -28 -14 0
v -29 -14 0
v -29 -13 0
v -28 -13 0
v -29 -14 0
v -30 -14 0
v -30 -13 0
v -29 -13 0
v -26 -15 0
v -27 -15 0
v -27 -14 0
v -26 -14 0
v -27 -15 0
v -28 -15 0
v -28 -14 0
v -27 -14 0
v -28 -15 0
v -29 -15 0
v -29 -14 0
v -28 -14 0
v -29 -15 0
v -30 -15 0
v -30 -14 0
v -29 -14 0
v -27 -16 0
v -28 -16 0
v -28 -15 0
v -27 -15 0
v -28 -16 0
v -29 -16 0
v -29 -15 0
v -28 -15 0
v -29 -16 0
v -30 -16 0
v -30 -15 0
v -29 -15 0
v -26 -17 0
v -27 -17 0
v -27 -16 0
v -26 -16 0
v -27 -17 0
v -28 -17 0
v -28 -16 0
v -27 -16 0
v -28 -17 0
v -29 -17 0
v -29 -16 0
v -28 -16 0
v -29 -17 0
v -30 -17 0
v -30 -16 0
v -29 -16 0
v -26 -18 0
v -27 -18 0
v -27 -17 0
v -26 -17 0
v -27 -18 0
v -28 -18 0
v -28 -17 0
v -27 -17 0
v -28 -18 0
v -29 -18 0
v -29 -17 0
v -28 -17 0
v -29 -18 0
v -30 -18 0
v -30 -17 0
v -29 -17 0
v -26 -19 0
v -27 -19 0
v -27 -18 0
v -26 -18 0
v -27 -19 0
v -28 -19 0
v -28 -18 0
v -27 -18 0
v -28 -19 0
v -29 -19 0
v -29 -18 0
v -28 -18 0
v -29 -19 0
v -30 -19 0
v -30 -18 0
v -29 -18 0
v -27 -20 0
v -28 -20 0
v -28 -19 0
v -27 -19 0
v -28 -20 0
v -29 -20 0
v -29 -19 0
v -28 -19 0
v -29 -20 0
v -30 -20 0
v -30 -19 0
v -29 -19 0
v -26 -21 0
v -27 -21 0
v -27 -20 0
v -26 -20 0
v -27 -21 0
v -28 -21 0
v -28 -20 0
v -27 -20 0
v -28 -21 0
v -29 -21 0
v -29 -20 0
v -28 -20 0
v -29 -21 0
v -30 -21 0
v -30 -20 0
v -29 -20 0
v -26 -22 0
v -27 -22 0
v -27 -21 0
v -26 -21 0
v -27 -22 0
v -28 -22 0
v -28 -21 0
v -27 -21 0
v -28 -22 0
v -29 -22 0
v -29 -21 0
v -28 -21 0
v -29 -22 0
v -30 -22 0
v -30 -21 0
v -29 -21 0
v -26 -23 0
v -27 -23 0
v -27 -22 0
v -26 -22 0
v -27 -23 0
v -28 -23 0
v -28 -22 0
v -27 -22 0
v -28 -23 0
v -29 -23 0
v -29 -22 0
v -28 -22 0
v -29 -23 0
v -30 -23 0
v -30 -22 0
v -29 -22 0
v -26 -24 0
v -27 -24 0
v -27 -23 0
v -26 -23 0
v -27 -24 0
v -28 -24 0
v -28 -23 0
v -27 -23 0
v -28 -24 0
v -29 -24 0
v -29 -23 0
v -28 -23 0
v -29 -24 0
v -30 -24 0
v -30 -23 0
v -29 -23 0
v -27 -25 0
v -28 -25 0
v -28 -24 0
v -27 -24 0
v -28 -25 0
v -29 -25 0
v -29 -24 0
v -28 -24 0
v -29 -25 0
v -30 -25 0
v -30 -24 0
v -29 -24 0
v -27 -26 0
v -28 -26 0
v -28 -25 0
v -27 -25 0
v -28 -26 0
v -29 -26 0
v -29 -25 0
v -28 -25 0
v -29 -26 0
v -30 -26 0
v -30 -25 0
v -29 -25 0
v -27 -27 0
v -28 -27 0
v -28 -26 0
v -27 -26 0
v -28 -27 0
v -29 -27 0
v -29 -26 0
v -28 -26 0
v -29 -27 0
v -30 -27 0
v -30 -26 0
v -29 -26 0
v -27 -28 0
v -28 -28 0
v -28 -27 0
v -27 -27 0
v -28 -28 0
v -29 -28 0
v -29 -27 0
v -28 -27 0
v -29 -28 0
v -30 -28 0
v -30 -27 0
v -29 -27 0
v -28 -29 0
v -29 -29 0
v -29 -28 0
v -28 -28 0
v -29 -29 0
v -30 -29 0
v -30 -28 0
v -29 -28 0
v -28 -30 0
v -29 -30 0
v -29 -29 0
v -28 -29 0
v -29 -30 0
v -30 -30 0
v -30 -29 0
v -29 -29 0

# Texture cooridinates (Count = 31)
vt 0.075 0.7222222
vt 0.1 0.7222222
vt 0.1 0.75
vt 0.075 0.75
vt 0.075 0.8611111
vt 0.1 0.8611111
vt 0.1 0.8888889
vt 0.075 0.8888889
vt 0.1 0.9166667
vt 0.075 0.9166667
vt 0.125 0.8888889
vt 0.125 0.9166667
vt 0.15 0.8888889
vt 0.15 0.9166667
vt 0.125 0.8611111
vt 0.15 0.8611111
vt 0.05 0.75
vt 0.075 0.7777778
vt 0.05 0.7777778
vt 0.075 0.8055556
vt 0.05 0.8055556
vt 0.1 0.7777778
vt 0.05 0.7222222
vt 0.125 0.75
vt 0.125 0.7777778
vt 0.075 0.8333333
vt 0.05 0.8333333
vt 0.1 0.8055556
vt 0.1 0.8333333
vt 0.075 0.6944444
vt 0.1 0.6944444

# Normal
vn 0 0 -1

# Mesh description
g Numbers-3-castle_mesh_0002

# Faces
f 1/1/1 2/2/1 3/3/1 4/4/1
f 5/5/1 6/6/1 7/7/1 8/8/1
f 9/8/1 10/7/1 11/9/1 12/10/1
f 13/7/1 14/11/1 15/12/1 16/9/1
f 17/11/1 18/13/1 19/14/1 20/12/1
f 21/8/1 22/7/1 23/9/1 24/10/1
f 25/7/1 26/11/1 27/12/1 28/9/1
f 29/11/1 30/13/1 31/14/1 32/12/1
f 33/8/1 34/7/1 35/9/1 36/10/1
f 37/7/1 38/11/1 39/12/1 40/9/1
f 41/11/1 42/13/1 43/14/1 44/12/1
f 45/8/1 46/7/1 47/9/1 48/10/1
f 49/7/1 50/11/1 51/12/1 52/9/1
f 53/11/1 54/13/1 55/14/1 56/12/1
f 57/8/1 58/7/1 59/9/1 60/10/1
f 61/7/1 62/11/1 63/12/1 64/9/1
f 65/11/1 66/13/1 67/14/1 68/12/1
f 69/7/1 70/11/1 71/12/1 72/9/1
f 73/11/1 74/13/1 75/14/1 76/12/1
f 77/8/1 78/7/1 79/9/1 80/10/1
f 81/8/1 82/7/1 83/9/1 84/10/1
f 85/7/1 86/11/1 87/12/1 88/9/1
f 89/11/1 90/13/1 91/14/1 92/12/1
f 93/8/1 94/7/1 95/9/1 96/10/1
f 97/7/1 98/11/1 99/12/1 100/9/1
f 101/5/1 102/6/1 103/7/1 104/8/1
f 105/5/1 106/6/1 107/7/1 108/8/1
f 109/5/1 110/6/1 111/7/1 112/8/1
f 113/6/1 114/15/1 115/11/1 116/7/1
f 117/15/1 118/16/1 119/13/1 120/11/1
f 121/17/1 122/4/1 123/18/1 124/19/1
f 125/1/1 126/2/1 127/3/1 128/4/1
f 129/5/1 130/6/1 131/7/1 132/8/1
f 133/6/1 134/15/1 135/11/1 136/7/1
f 137/15/1 138/16/1 139/13/1 140/11/1
f 141/5/1 142/6/1 143/7/1 144/8/1
f 145/6/1 146/15/1 147/11/1 148/7/1
f 149/15/1 150/16/1 151/13/1 152/11/1
f 153/5/1 154/6/1 155/7/1 156/8/1
f 157/6/1 158/15/1 159/11/1 160/7/1
f 161/15/1 162/16/1 163/13/1 164/11/1
f 165/5/1 166/6/1 167/7/1 168/8/1
f 169/6/1 170/15/1 171/11/1 172/7/1
f 173/15/1 174/16/1 175/13/1 176/11/1
f 177/5/1 178/6/1 179/7/1 180/8/1
f 181/6/1 182/15/1 183/11/1 184/7/1
f 185/15/1 186/16/1 187/13/1 188/11/1
f 189/6/1 190/15/1 191/11/1 192/7/1
f 193/15/1 194/16/1 195/13/1 196/11/1
f 197/5/1 198/6/1 199/7/1 200/8/1
f 201/5/1 202/6/1 203/7/1 204/8/1
f 205/6/1 206/15/1 207/11/1 208/7/1
f 209/15/1 210/16/1 211/13/1 212/11/1
f 213/5/1 214/6/1 215/7/1 216/8/1
f 217/6/1 218/15/1 219/11/1 220/7/1
f 221/7/1 222/11/1 223/12/1 224/9/1
f 225/5/1 226/6/1 227/7/1 228/8/1
f 229/5/1 230/6/1 231/7/1 232/8/1
f 233/5/1 234/6/1 235/7/1 236/8/1
f 237/6/1 238/15/1 239/11/1 240/7/1
f 241/17/1 242/4/1 243/18/1 244/19/1
f 245/1/1 246/2/1 247/3/1 248/4/1
f 249/8/1 250/7/1 251/9/1 252/10/1
f 253/7/1 254/11/1 255/12/1 256/9/1
f 257/8/1 258/7/1 259/9/1 260/10/1
f 261/8/1 262/7/1 263/9/1 264/10/1
f 265/8/1 266/7/1 267/9/1 268/10/1
f 269/8/1 270/7/1 271/9/1 272/10/1
f 273/7/1 274/11/1 275/12/1 276/9/1
f 277/8/1 278/7/1 279/9/1 280/10/1
f 281/7/1 282/11/1 283/12/1 284/9/1
f 285/11/1 286/13/1 287/14/1 288/12/1
f 289/8/1 290/7/1 291/9/1 292/10/1
f 293/7/1 294/11/1 295/12/1 296/9/1
f 297/8/1 298/7/1 299/9/1 300/10/1
f 301/7/1 302/11/1 303/12/1 304/9/1
f 305/8/1 306/7/1 307/9/1 308/10/1
f 309/8/1 310/7/1 311/9/1 312/10/1
f 313/7/1 314/11/1 315/12/1 316/9/1
f 317/8/1 318/7/1 319/9/1 320/10/1
f 321/8/1 322/7/1 323/9/1 324/10/1
f 325/7/1 326/11/1 327/12/1 328/9/1
f 329/11/1 330/13/1 331/14/1 332/12/1
f 333/8/1 334/7/1 335/9/1 336/10/1
f 337/6/1 338/15/1 339/11/1 340/7/1
f 341/7/1 342/11/1 343/12/1 344/9/1
f 345/5/1 346/6/1 347/7/1 348/8/1
f 349/5/1 350/6/1 351/7/1 352/8/1
f 353/6/1 354/15/1 355/11/1 356/7/1
f 357/19/1 358/18/1 359/20/1 360/21/1
f 361/5/1 362/6/1 363/7/1 364/8/1
f 365/6/1 366/15/1 367/11/1 368/7/1
f 369/5/1 370/6/1 371/7/1 372/8/1
f 373/5/1 374/6/1 375/7/1 376/8/1
f 377/5/1 378/6/1 379/7/1 380/8/1
f 381/5/1 382/6/1 383/7/1 384/8/1
f 385/6/1 386/15/1 387/11/1 388/7/1
f 389/5/1 390/6/1 391/7/1 392/8/1
f 393/6/1 394/15/1 395/11/1 396/7/1
f 397/15/1 398/16/1 399/13/1 400/11/1
f 401/5/1 402/6/1 403/7/1 404/8/1
f 405/6/1 406/15/1 407/11/1 408/7/1
f 409/5/1 410/6/1 411/7/1 412/8/1
f 413/6/1 414/15/1 415/11/1 416/7/1
f 417/5/1 418/6/1 419/7/1 420/8/1
f 421/5/1 422/6/1 423/7/1 424/8/1
f 425/6/1 426/15/1 427/11/1 428/7/1
f 429/5/1 430/6/1 431/7/1 432/8/1
f 433/5/1 434/6/1 435/7/1 436/8/1
f 437/8/1 438/7/1 439/9/1 440/10/1
f 441/7/1 442/11/1 443/12/1 444/9/1
f 445/11/1 446/13/1 447/14/1 448/12/1
f 449/6/1 450/15/1 451/11/1 452/7/1
f 453/6/1 454/15/1 455/11/1 456/7/1
f 457/5/1 458/6/1 459/7/1 460/8/1
f 461/5/1 462/6/1 463/7/1 464/8/1
f 465/6/1 466/15/1 467/11/1 468/7/1
f 469/17/1 470/4/1 471/18/1 472/19/1
f 473/4/1 474/3/1 475/22/1 476/18/1
f 477/1/1 478/2/1 479/3/1 480/4/1
f 481/8/1 482/7/1 483/9/1 484/10/1
f 485/7/1 486/11/1 487/12/1 488/9/1
f 489/11/1 490/13/1 491/14/1 492/12/1
f 493/8/1 494/7/1 495/9/1 496/10/1
f 497/7/1 498/11/1 499/12/1 500/9/1
f 501/11/1 502/13/1 503/14/1 504/12/1
f 505/8/1 506/7/1 507/9/1 508/10/1
f 509/11/1 510/13/1 511/14/1 512/12/1
f 513/8/1 514/7/1 515/9/1 516/10/1
f 517/8/1 518/7/1 519/9/1 520/10/1
f 521/7/1 522/11/1 523/12/1 524/9/1
f 525/7/1 526/11/1 527/12/1 528/9/1
f 529/7/1 530/11/1 531/12/1 532/9/1
f 533/7/1 534/11/1 535/12/1 536/9/1
f 537/7/1 538/11/1 539/12/1 540/9/1
f 541/8/1 542/7/1 543/9/1 544/10/1
f 545/7/1 546/11/1 547/12/1 548/9/1
f 549/5/1 550/6/1 551/7/1 552/8/1
f 553/6/1 554/15/1 555/11/1 556/7/1
f 557/23/1 558/1/1 559/4/1 560/17/1
f 561/1/1 562/2/1 563/3/1 564/4/1
f 565/5/1 566/6/1 567/7/1 568/8/1
f 569/5/1 570/6/1 571/7/1 572/8/1
f 573/5/1 574/6/1 575/7/1 576/8/1
f 577/6/1 578/15/1 579/11/1 580/7/1
f 581/17/1 582/4/1 583/18/1 584/19/1
f 585/4/1 586/3/1 587/22/1 588/18/1
f 589/1/1 590/2/1 591/3/1 592/4/1
f 593/8/1 594/7/1 595/9/1 596/10/1
f 597/8/1 598/7/1 599/9/1 600/10/1
f 601/7/1 602/11/1 603/12/1 604/9/1
f 605/8/1 606/7/1 607/9/1 608/10/1
f 609/7/1 610/11/1 611/12/1 612/9/1
f 613/11/1 614/13/1 615/14/1 616/12/1
f 617/8/1 618/7/1 619/9/1 620/10/1
f 621/11/1 622/13/1 623/14/1 624/12/1
f 625/8/1 626/7/1 627/9/1 628/10/1
f 629/8/1 630/7/1 631/9/1 632/10/1
f 633/7/1 634/11/1 635/12/1 636/9/1
f 637/8/1 638/7/1 639/9/1 640/10/1
f 641/7/1 642/11/1 643/12/1 644/9/1
f 645/5/1 646/6/1 647/7/1 648/8/1
f 649/6/1 650/15/1 651/11/1 652/7/1
f 653/15/1 654/16/1 655/13/1 656/11/1
f 657/23/1 658/1/1 659/4/1 660/17/1
f 661/3/1 662/24/1 663/25/1 664/22/1
f 665/17/1 666/4/1 667/18/1 668/19/1
f 669/1/1 670/2/1 671/3/1 672/4/1
f 673/5/1 674/6/1 675/7/1 676/8/1
f 677/5/1 678/6/1 679/7/1 680/8/1
f 681/6/1 682/15/1 683/11/1 684/7/1
f 685/17/1 686/4/1 687/18/1 688/19/1
f 689/1/1 690/2/1 691/3/1 692/4/1
f 693/5/1 694/6/1 695/7/1 696/8/1
f 697/5/1 698/6/1 699/7/1 700/8/1
f 701/5/1 702/6/1 703/7/1 704/8/1
f 705/5/1 706/6/1 707/7/1 708/8/1
f 709/5/1 710/6/1 711/7/1 712/8/1
f 713/6/1 714/15/1 715/11/1 716/7/1
f 717/15/1 718/16/1 719/13/1 720/11/1
f 721/5/1 722/6/1 723/7/1 724/8/1
f 725/5/1 726/6/1 727/7/1 728/8/1
f 729/6/1 730/15/1 731/11/1 732/7/1
f 733/5/1 734/6/1 735/7/1 736/8/1
f 737/6/1 738/15/1 739/11/1 740/7/1
f 741/15/1 742/16/1 743/13/1 744/11/1
f 745/23/1 746/1/1 747/4/1 748/17/1
f 749/4/1 750/3/1 751/22/1 752/18/1
f 753/3/1 754/24/1 755/25/1 756/22/1
f 757/19/1 758/18/1 759/20/1 760/21/1
f 761/5/1 762/6/1 763/7/1 764/8/1
f 765/5/1 766/6/1 767/7/1 768/8/1
f 769/5/1 770/6/1 771/7/1 772/8/1
f 773/17/1 774/4/1 775/18/1 776/19/1
f 777/4/1 778/3/1 779/22/1 780/18/1
f 781/4/1 782/3/1 783/22/1 784/18/1
f 785/4/1 786/3/1 787/22/1 788/18/1
f 789/4/1 790/3/1 791/22/1 792/18/1
f 793/4/1 794/3/1 795/22/1 796/18/1
f 797/4/1 798/3/1 799/22/1 800/18/1
f 801/4/1 802/3/1 803/22/1 804/18/1
f 805/4/1 806/3/1 807/22/1 808/18/1
f 809/4/1 810/3/1 811/22/1 812/18/1
f 813/4/1 814/3/1 815/22/1 816/18/1
f 817/4/1 818/3/1 819/22/1 820/18/1
f 821/4/1 822/3/1 823/22/1 824/18/1
f 825/4/1 826/3/1 827/22/1 828/18/1
f 829/3/1 830/24/1 831/25/1 832/22/1
f 833/19/1 834/18/1 835/20/1 836/21/1
f 837/7/1 838/11/1 839/12/1 840/9/1
f 841/7/1 842/11/1 843/12/1 844/9/1
f 845/8/1 846/7/1 847/9/1 848/10/1
f 849/19/1 850/18/1 851/20/1 852/21/1
f 853/6/1 854/15/1 855/11/1 856/7/1
f 857/6/1 858/15/1 859/11/1 860/7/1
f 861/5/1 862/6/1 863/7/1 864/8/1
f 865/17/1 866/4/1 867/18/1 868/19/1
f 869/1/1 870/2/1 871/3/1 872/4/1
f 873/5/1 874/6/1 875/7/1 876/8/1
f 877/7/1 878/11/1 879/12/1 880/9/1
f 881/17/1 882/4/1 883/18/1 884/19/1
f 885/1/1 886/2/1 887/3/1 888/4/1
f 889/5/1 890/6/1 891/7/1 892/8/1
f 893/21/1 894/20/1 895/26/1 896/27/1
f 897/20/1 898/28/1 899/29/1 900/26/1
f 901/30/1 902/31/1 903/2/1 904/1/1
f 905/5/1 906/6/1 907/7/1 908/8/1
f 909/19/1 910/18/1 911/20/1 912/21/1
f 913/5/1 914/6/1 915/7/1 916/8/1
f 917/5/1 918/6/1 919/7/1 920/8/1
f 921/5/1 922/6/1 923/7/1 924/8/1
f 925/19/1 926/18/1 927/20/1 928/21/1
f 929/5/1 930/6/1 931/7/1 932/8/1
f 933/5/1 934/6/1 935/7/1 936/8/1
f 937/5/1 938/6/1 939/7/1 940/8/1
f 941/17/1 942/4/1 943/18/1 944/19/1
f 945/1/1 946/2/1 947/3/1 948/4/1
f 949/5/1 950/6/1 951/7/1 952/8/1
f 953/5/1 954/6/1 955/7/1 956/8/1
f 957/17/1 958/4/1 959/18/1 960/19/1
f 961/1/1 962/2/1 963/3/1 964/4/1
f 965/5/1 966/6/1 967/7/1 968/8/1
f 969/21/1 970/20/1 971/26/1 972/27/1
f 973/20/1 974/28/1 975/29/1 976/26/1
f 977/30/1 978/31/1 979/2/1 980/1/1
f 981/5/1 982/6/1 983/7/1 984/8/1
f 985/19/1 986/18/1 987/20/1 988/21/1
f 989/5/1 990/6/1 991/7/1 992/8/1
f 993/7/1 994/11/1 995/12/1 996/9/1
f 997/5/1 998/6/1 999/7/1 1000/8/1
f 1001/17/1 1002/4/1 1003/18/1 1004/19/1
f 1005/1/1 1006/2/1 1007/3/1 1008/4/1
f 1009/6/1 1010/15/1 1011/11/1 1012/7/1
f 1013/7/1 1014/11/1 1015/12/1 1016/9/1
f 1017/17/1 1018/4/1 1019/18/1 1020/19/1
f 1021/1/1 1022/2/1 1023/3/1 1024/4/1
f 1025/5/1 1026/6/1 1027/7/1 1028/8/1
f 1029/21/1 1030/20/1 1031/26/1 1032/27/1
f 1033/20/1 1034/28/1 1035/29/1 1036/26/1
f 1037/30/1 1038/31/1 1039/2/1 1040/1/1
f 1041/8/1 1042/7/1 1043/9/1 1044/10/1
f 1045/19/1 1046/18/1 1047/20/1 1048/21/1
f 1049/5/1 1050/6/1 1051/7/1 1052/8/1
f 1053/6/1 1054/15/1 1055/11/1 1056/7/1
f 1057/5/1 1058/6/1 1059/7/1 1060/8/1
f 1061/19/1 1062/18/1 1063/20/1 1064/21/1
f 1065/5/1 1066/6/1 1067/7/1 1068/8/1
f 1069/5/1 1070/6/1 1071/7/1 1072/8/1
f 1073/5/1 1074/6/1 1075/7/1 1076/8/1
f 1077/17/1 1078/4/1 1079/18/1 1080/19/1
f 1081/1/1 1082/2/1 1083/3/1 1084/4/1
f 1085/5/1 1086/6/1 1087/7/1 1088/8/1
f 1089/6/1 1090/15/1 1091/11/1 1092/7/1
f 1093/17/1 1094/4/1 1095/18/1 1096/19/1
f 1097/1/1 1098/2/1 1099/3/1 1100/4/1
f 1101/15/1 1102/16/1 1103/13/1 1104/11/1
f 1105/21/1 1106/20/1 1107/26/1 1108/27/1
f 1109/30/1 1110/31/1 1111/2/1 1112/1/1
f 1113/7/1 1114/11/1 1115/12/1 1116/9/1
f 1117/19/1 1118/18/1 1119/20/1 1120/21/1
f 1121/8/1 1122/7/1 1123/9/1 1124/10/1
f 1125/15/1 1126/16/1 1127/13/1 1128/11/1
f 1129/17/1 1130/4/1 1131/18/1 1132/19/1
f 1133/1/1 1134/2/1 1135/3/1 1136/4/1
f 1137/7/1 1138/11/1 1139/12/1 1140/9/1
f 1141/19/1 1142/18/1 1143/20/1 1144/21/1
f 1145/8/1 1146/7/1 1147/9/1 1148/10/1
f 1149/17/1 1150/4/1 1151/18/1 1152/19/1
f 1153/1/1 1154/2/1 1155/3/1 1156/4/1

