# Tiled2Unity generated file. Do not modify by hand.
# Wavefront file for 'Numbers-3-castle_mesh_0008.obj'

# Vertices (Count = 24)
v 0 -18 0
v -1 -18 0
v -1 -17 0
v 0 -17 0
v -18 -18 0
v -19 -18 0
v -19 -17 0
v -18 -17 0
v -19 -18 0
v -20 -18 0
v -20 -17 0
v -19 -17 0
v 0 -19 0
v -1 -19 0
v -1 -18 0
v 0 -18 0
v -18 -19 0
v -19 -19 0
v -19 -18 0
v -18 -18 0
v -19 -19 0
v -20 -19 0
v -20 -18 0
v -19 -18 0

# Texture cooridinates (Count = 9)
vt 0.15 0.1666667
vt 0.175 0.1666667
vt 0.175 0.1944444
vt 0.15 0.1944444
vt 0.125 0.1666667
vt 0.125 0.1944444
vt 0.15 0.1388889
vt 0.175 0.1388889
vt 0.125 0.1388889

# Normal
vn 0 0 -1

# Mesh description
g Numbers-3-castle_mesh_0008

# Faces
f 1/1/1 2/2/1 3/3/1 4/4/1
f 5/5/1 6/1/1 7/4/1 8/6/1
f 9/1/1 10/2/1 11/3/1 12/4/1
f 13/7/1 14/8/1 15/2/1 16/1/1
f 17/9/1 18/7/1 19/1/1 20/5/1
f 21/7/1 22/8/1 23/2/1 24/1/1

