# Tiled2Unity generated file. Do not modify by hand.
# Wavefront file for 'Numbers-3-lake_mesh_0007.obj'

# Vertices (Count = 208)
v -1 -2 0
v -2 -2 0
v -2 -1 0
v -1 -1 0
v -2 -2 0
v -3 -2 0
v -3 -1 0
v -2 -1 0
v -27 -2 0
v -28 -2 0
v -28 -1 0
v -27 -1 0
v -28 -2 0
v -29 -2 0
v -29 -1 0
v -28 -1 0
v -1 -3 0
v -2 -3 0
v -2 -2 0
v -1 -2 0
v -2 -3 0
v -3 -3 0
v -3 -2 0
v -2 -2 0
v -27 -3 0
v -28 -3 0
v -28 -2 0
v -27 -2 0
v -28 -3 0
v -29 -3 0
v -29 -2 0
v -28 -2 0
v -1 -4 0
v -2 -4 0
v -2 -3 0
v -1 -3 0
v -2 -4 0
v -3 -4 0
v -3 -3 0
v -2 -3 0
v -27 -4 0
v -28 -4 0
v -28 -3 0
v -27 -3 0
v -28 -4 0
v -29 -4 0
v -29 -3 0
v -28 -3 0
v -1 -7 0
v -2 -7 0
v -2 -6 0
v -1 -6 0
v -2 -7 0
v -3 -7 0
v -3 -6 0
v -2 -6 0
v -3 -7 0
v -4 -7 0
v -4 -6 0
v -3 -6 0
v -26 -7 0
v -27 -7 0
v -27 -6 0
v -26 -6 0
v -27 -7 0
v -28 -7 0
v -28 -6 0
v -27 -6 0
v -28 -7 0
v -29 -7 0
v -29 -6 0
v -28 -6 0
v -1 -8 0
v -2 -8 0
v -2 -7 0
v -1 -7 0
v -2 -8 0
v -3 -8 0
v -3 -7 0
v -2 -7 0
v -3 -8 0
v -4 -8 0
v -4 -7 0
v -3 -7 0
v -6 -8 0
v -7 -8 0
v -7 -7 0
v -6 -7 0
v -7 -8 0
v -8 -8 0
v -8 -7 0
v -7 -7 0
v -9 -8 0
v -10 -8 0
v -10 -7 0
v -9 -7 0
v -10 -8 0
v -11 -8 0
v -11 -7 0
v -10 -7 0
v -18 -8 0
v -19 -8 0
v -19 -7 0
v -18 -7 0
v -19 -8 0
v -20 -8 0
v -20 -7 0
v -19 -7 0
v -21 -8 0
v -22 -8 0
v -22 -7 0
v -21 -7 0
v -22 -8 0
v -23 -8 0
v -23 -7 0
v -22 -7 0
v -26 -8 0
v -27 -8 0
v -27 -7 0
v -26 -7 0
v -27 -8 0
v -28 -8 0
v -28 -7 0
v -27 -7 0
v -28 -8 0
v -29 -8 0
v -29 -7 0
v -28 -7 0
v -1 -9 0
v -2 -9 0
v -2 -8 0
v -1 -8 0
v -2 -9 0
v -3 -9 0
v -3 -8 0
v -2 -8 0
v -3 -9 0
v -4 -9 0
v -4 -8 0
v -3 -8 0
v -5 -9 0
v -6 -9 0
v -6 -8 0
v -5 -8 0
v -8 -9 0
v -9 -9 0
v -9 -8 0
v -8 -8 0
v -11 -9 0
v -12 -9 0
v -12 -8 0
v -11 -8 0
v -19 -9 0
v -20 -9 0
v -20 -8 0
v -19 -8 0
v -22 -9 0
v -23 -9 0
v -23 -8 0
v -22 -8 0
v -25 -9 0
v -26 -9 0
v -26 -8 0
v -25 -8 0
v -26 -9 0
v -27 -9 0
v -27 -8 0
v -26 -8 0
v -27 -9 0
v -28 -9 0
v -28 -8 0
v -27 -8 0
v -28 -9 0
v -29 -9 0
v -29 -8 0
v -28 -8 0
v -2 -10 0
v -3 -10 0
v -3 -9 0
v -2 -9 0
v -5 -10 0
v -6 -10 0
v -6 -9 0
v -5 -9 0
v -8 -10 0
v -9 -10 0
v -9 -9 0
v -8 -9 0
v -11 -10 0
v -12 -10 0
v -12 -9 0
v -11 -9 0
v -19 -10 0
v -20 -10 0
v -20 -9 0
v -19 -9 0
v -22 -10 0
v -23 -10 0
v -23 -9 0
v -22 -9 0
v -25 -10 0
v -26 -10 0
v -26 -9 0
v -25 -9 0
v -28 -10 0
v -29 -10 0
v -29 -9 0
v -28 -9 0

# Texture cooridinates (Count = 31)
vt 0.2 0.1111111
vt 0.225 0.1111111
vt 0.225 0.1388889
vt 0.2 0.1388889
vt 0.25 0.1111111
vt 0.25 0.1388889
vt 0.2 0.08333331
vt 0.225 0.08333331
vt 0.25 0.08333331
vt 0.2 0.05555558
vt 0.225 0.05555558
vt 0.25 0.05555558
vt 0.275 0.3611111
vt 0.3 0.3611111
vt 0.3 0.3888889
vt 0.275 0.3888889
vt 0.325 0.3611111
vt 0.325 0.3888889
vt 0.35 0.3611111
vt 0.35 0.3888889
vt 0.275 0.3333333
vt 0.3 0.3333333
vt 0.325 0.3333333
vt 0.35 0.3333333
vt 0.275 0.3055556
vt 0.3 0.3055556
vt 0.325 0.3055556
vt 0.35 0.3055556
vt 0.25 0.3611111
vt 0.25 0.3888889
vt 0.25 0.3333333

# Normal
vn 0 0 -1

# Mesh description
g Numbers-3-lake_mesh_0007

# Faces
f 1/1/1 2/2/1 3/3/1 4/4/1
f 5/2/1 6/5/1 7/6/1 8/3/1
f 9/1/1 10/2/1 11/3/1 12/4/1
f 13/2/1 14/5/1 15/6/1 16/3/1
f 17/7/1 18/8/1 19/2/1 20/1/1
f 21/8/1 22/9/1 23/5/1 24/2/1
f 25/7/1 26/8/1 27/2/1 28/1/1
f 29/8/1 30/9/1 31/5/1 32/2/1
f 33/10/1 34/11/1 35/8/1 36/7/1
f 37/11/1 38/12/1 39/9/1 40/8/1
f 41/10/1 42/11/1 43/8/1 44/7/1
f 45/11/1 46/12/1 47/9/1 48/8/1
f 49/13/1 50/14/1 51/15/1 52/16/1
f 53/14/1 54/17/1 55/18/1 56/15/1
f 57/17/1 58/19/1 59/20/1 60/18/1
f 61/13/1 62/14/1 63/15/1 64/16/1
f 65/14/1 66/17/1 67/18/1 68/15/1
f 69/17/1 70/19/1 71/20/1 72/18/1
f 73/21/1 74/22/1 75/14/1 76/13/1
f 77/22/1 78/23/1 79/17/1 80/14/1
f 81/23/1 82/24/1 83/19/1 84/17/1
f 85/14/1 86/17/1 87/18/1 88/15/1
f 89/17/1 90/19/1 91/20/1 92/18/1
f 93/14/1 94/17/1 95/18/1 96/15/1
f 97/17/1 98/19/1 99/20/1 100/18/1
f 101/14/1 102/17/1 103/18/1 104/15/1
f 105/17/1 106/19/1 107/20/1 108/18/1
f 109/14/1 110/17/1 111/18/1 112/15/1
f 113/17/1 114/19/1 115/20/1 116/18/1
f 117/21/1 118/22/1 119/14/1 120/13/1
f 121/22/1 122/23/1 123/17/1 124/14/1
f 125/23/1 126/24/1 127/19/1 128/17/1
f 129/25/1 130/26/1 131/22/1 132/21/1
f 133/26/1 134/27/1 135/23/1 136/22/1
f 137/27/1 138/28/1 139/24/1 140/23/1
f 141/29/1 142/13/1 143/16/1 144/30/1
f 145/29/1 146/13/1 147/16/1 148/30/1
f 149/29/1 150/13/1 151/16/1 152/30/1
f 153/29/1 154/13/1 155/16/1 156/30/1
f 157/29/1 158/13/1 159/16/1 160/30/1
f 161/29/1 162/13/1 163/16/1 164/30/1
f 165/25/1 166/26/1 167/22/1 168/21/1
f 169/26/1 170/27/1 171/23/1 172/22/1
f 173/27/1 174/28/1 175/24/1 176/23/1
f 177/31/1 178/21/1 179/13/1 180/29/1
f 181/31/1 182/21/1 183/13/1 184/29/1
f 185/31/1 186/21/1 187/13/1 188/29/1
f 189/31/1 190/21/1 191/13/1 192/29/1
f 193/31/1 194/21/1 195/13/1 196/29/1
f 197/31/1 198/21/1 199/13/1 200/29/1
f 201/31/1 202/21/1 203/13/1 204/29/1
f 205/31/1 206/21/1 207/13/1 208/29/1

