# Tiled2Unity generated file. Do not modify by hand.
# Wavefront file for 'Numbers-3-lake_mesh_0006.obj'

# Vertices (Count = 764)
v -13 -18 0
v -14 -18 0
v -14 -17 0
v -13 -17 0
v -14 -18 0
v -15 -18 0
v -15 -17 0
v -14 -17 0
v -15 -18 0
v -16 -18 0
v -16 -17 0
v -15 -17 0
v -16 -18 0
v -17 -18 0
v -17 -17 0
v -16 -17 0
v -17 -18 0
v -18 -18 0
v -18 -17 0
v -17 -17 0
v -13 -19 0
v -14 -19 0
v -14 -18 0
v -13 -18 0
v -14 -19 0
v -15 -19 0
v -15 -18 0
v -14 -18 0
v -15 -19 0
v -16 -19 0
v -16 -18 0
v -15 -18 0
v -16 -19 0
v -17 -19 0
v -17 -18 0
v -16 -18 0
v -17 -19 0
v -18 -19 0
v -18 -18 0
v -17 -18 0
v -13 -20 0
v -14 -20 0
v -14 -19 0
v -13 -19 0
v -14 -20 0
v -15 -20 0
v -15 -19 0
v -14 -19 0
v -15 -20 0
v -16 -20 0
v -16 -19 0
v -15 -19 0
v -16 -20 0
v -17 -20 0
v -17 -19 0
v -16 -19 0
v -17 -20 0
v -18 -20 0
v -18 -19 0
v -17 -19 0
v -13 -21 0
v -14 -21 0
v -14 -20 0
v -13 -20 0
v -14 -21 0
v -15 -21 0
v -15 -20 0
v -14 -20 0
v -15 -21 0
v -16 -21 0
v -16 -20 0
v -15 -20 0
v -16 -21 0
v -17 -21 0
v -17 -20 0
v -16 -20 0
v -17 -21 0
v -18 -21 0
v -18 -20 0
v -17 -20 0
v -13 -22 0
v -14 -22 0
v -14 -21 0
v -13 -21 0
v -14 -22 0
v -15 -22 0
v -15 -21 0
v -14 -21 0
v -15 -22 0
v -16 -22 0
v -16 -21 0
v -15 -21 0
v -16 -22 0
v -17 -22 0
v -17 -21 0
v -16 -21 0
v -17 -22 0
v -18 -22 0
v -18 -21 0
v -17 -21 0
v -13 -23 0
v -14 -23 0
v -14 -22 0
v -13 -22 0
v -14 -23 0
v -15 -23 0
v -15 -22 0
v -14 -22 0
v -15 -23 0
v -16 -23 0
v -16 -22 0
v -15 -22 0
v -16 -23 0
v -17 -23 0
v -17 -22 0
v -16 -22 0
v -17 -23 0
v -18 -23 0
v -18 -22 0
v -17 -22 0
v 0 -24 0
v -1 -24 0
v -1 -23 0
v 0 -23 0
v -1 -24 0
v -2 -24 0
v -2 -23 0
v -1 -23 0
v -2 -24 0
v -3 -24 0
v -3 -23 0
v -2 -23 0
v -3 -24 0
v -4 -24 0
v -4 -23 0
v -3 -23 0
v -4 -24 0
v -5 -24 0
v -5 -23 0
v -4 -23 0
v -5 -24 0
v -6 -24 0
v -6 -23 0
v -5 -23 0
v -6 -24 0
v -7 -24 0
v -7 -23 0
v -6 -23 0
v -7 -24 0
v -8 -24 0
v -8 -23 0
v -7 -23 0
v -8 -24 0
v -9 -24 0
v -9 -23 0
v -8 -23 0
v -9 -24 0
v -10 -24 0
v -10 -23 0
v -9 -23 0
v -10 -24 0
v -11 -24 0
v -11 -23 0
v -10 -23 0
v -11 -24 0
v -12 -24 0
v -12 -23 0
v -11 -23 0
v -12 -24 0
v -13 -24 0
v -13 -23 0
v -12 -23 0
v -13 -24 0
v -14 -24 0
v -14 -23 0
v -13 -23 0
v -14 -24 0
v -15 -24 0
v -15 -23 0
v -14 -23 0
v -15 -24 0
v -16 -24 0
v -16 -23 0
v -15 -23 0
v -16 -24 0
v -17 -24 0
v -17 -23 0
v -16 -23 0
v -17 -24 0
v -18 -24 0
v -18 -23 0
v -17 -23 0
v -18 -24 0
v -19 -24 0
v -19 -23 0
v -18 -23 0
v -19 -24 0
v -20 -24 0
v -20 -23 0
v -19 -23 0
v -20 -24 0
v -21 -24 0
v -21 -23 0
v -20 -23 0
v -21 -24 0
v -22 -24 0
v -22 -23 0
v -21 -23 0
v -22 -24 0
v -23 -24 0
v -23 -23 0
v -22 -23 0
v 0 -25 0
v -1 -25 0
v -1 -24 0
v 0 -24 0
v -1 -25 0
v -2 -25 0
v -2 -24 0
v -1 -24 0
v -2 -25 0
v -3 -25 0
v -3 -24 0
v -2 -24 0
v -3 -25 0
v -4 -25 0
v -4 -24 0
v -3 -24 0
v -4 -25 0
v -5 -25 0
v -5 -24 0
v -4 -24 0
v -5 -25 0
v -6 -25 0
v -6 -24 0
v -5 -24 0
v -6 -25 0
v -7 -25 0
v -7 -24 0
v -6 -24 0
v -7 -25 0
v -8 -25 0
v -8 -24 0
v -7 -24 0
v -8 -25 0
v -9 -25 0
v -9 -24 0
v -8 -24 0
v -9 -25 0
v -10 -25 0
v -10 -24 0
v -9 -24 0
v -10 -25 0
v -11 -25 0
v -11 -24 0
v -10 -24 0
v -11 -25 0
v -12 -25 0
v -12 -24 0
v -11 -24 0
v -12 -25 0
v -13 -25 0
v -13 -24 0
v -12 -24 0
v -13 -25 0
v -14 -25 0
v -14 -24 0
v -13 -24 0
v -14 -25 0
v -15 -25 0
v -15 -24 0
v -14 -24 0
v -15 -25 0
v -16 -25 0
v -16 -24 0
v -15 -24 0
v -16 -25 0
v -17 -25 0
v -17 -24 0
v -16 -24 0
v -17 -25 0
v -18 -25 0
v -18 -24 0
v -17 -24 0
v -18 -25 0
v -19 -25 0
v -19 -24 0
v -18 -24 0
v -19 -25 0
v -20 -25 0
v -20 -24 0
v -19 -24 0
v -20 -25 0
v -21 -25 0
v -21 -24 0
v -20 -24 0
v -21 -25 0
v -22 -25 0
v -22 -24 0
v -21 -24 0
v -22 -25 0
v -23 -25 0
v -23 -24 0
v -22 -24 0
v 0 -26 0
v -1 -26 0
v -1 -25 0
v 0 -25 0
v -1 -26 0
v -2 -26 0
v -2 -25 0
v -1 -25 0
v -2 -26 0
v -3 -26 0
v -3 -25 0
v -2 -25 0
v -3 -26 0
v -4 -26 0
v -4 -25 0
v -3 -25 0
v -4 -26 0
v -5 -26 0
v -5 -25 0
v -4 -25 0
v -5 -26 0
v -6 -26 0
v -6 -25 0
v -5 -25 0
v -6 -26 0
v -7 -26 0
v -7 -25 0
v -6 -25 0
v -7 -26 0
v -8 -26 0
v -8 -25 0
v -7 -25 0
v -8 -26 0
v -9 -26 0
v -9 -25 0
v -8 -25 0
v -9 -26 0
v -10 -26 0
v -10 -25 0
v -9 -25 0
v -10 -26 0
v -11 -26 0
v -11 -25 0
v -10 -25 0
v -11 -26 0
v -12 -26 0
v -12 -25 0
v -11 -25 0
v -12 -26 0
v -13 -26 0
v -13 -25 0
v -12 -25 0
v -13 -26 0
v -14 -26 0
v -14 -25 0
v -13 -25 0
v -14 -26 0
v -15 -26 0
v -15 -25 0
v -14 -25 0
v -15 -26 0
v -16 -26 0
v -16 -25 0
v -15 -25 0
v -16 -26 0
v -17 -26 0
v -17 -25 0
v -16 -25 0
v -17 -26 0
v -18 -26 0
v -18 -25 0
v -17 -25 0
v -18 -26 0
v -19 -26 0
v -19 -25 0
v -18 -25 0
v -19 -26 0
v -20 -26 0
v -20 -25 0
v -19 -25 0
v -20 -26 0
v -21 -26 0
v -21 -25 0
v -20 -25 0
v -21 -26 0
v -22 -26 0
v -22 -25 0
v -21 -25 0
v -22 -26 0
v -23 -26 0
v -23 -25 0
v -22 -25 0
v 0 -27 0
v -1 -27 0
v -1 -26 0
v 0 -26 0
v -1 -27 0
v -2 -27 0
v -2 -26 0
v -1 -26 0
v -2 -27 0
v -3 -27 0
v -3 -26 0
v -2 -26 0
v -3 -27 0
v -4 -27 0
v -4 -26 0
v -3 -26 0
v -4 -27 0
v -5 -27 0
v -5 -26 0
v -4 -26 0
v -5 -27 0
v -6 -27 0
v -6 -26 0
v -5 -26 0
v -6 -27 0
v -7 -27 0
v -7 -26 0
v -6 -26 0
v -7 -27 0
v -8 -27 0
v -8 -26 0
v -7 -26 0
v -8 -27 0
v -9 -27 0
v -9 -26 0
v -8 -26 0
v -9 -27 0
v -10 -27 0
v -10 -26 0
v -9 -26 0
v -10 -27 0
v -11 -27 0
v -11 -26 0
v -10 -26 0
v -11 -27 0
v -12 -27 0
v -12 -26 0
v -11 -26 0
v -12 -27 0
v -13 -27 0
v -13 -26 0
v -12 -26 0
v -13 -27 0
v -14 -27 0
v -14 -26 0
v -13 -26 0
v -14 -27 0
v -15 -27 0
v -15 -26 0
v -14 -26 0
v -15 -27 0
v -16 -27 0
v -16 -26 0
v -15 -26 0
v -16 -27 0
v -17 -27 0
v -17 -26 0
v -16 -26 0
v -17 -27 0
v -18 -27 0
v -18 -26 0
v -17 -26 0
v -18 -27 0
v -19 -27 0
v -19 -26 0
v -18 -26 0
v -19 -27 0
v -20 -27 0
v -20 -26 0
v -19 -26 0
v -20 -27 0
v -21 -27 0
v -21 -26 0
v -20 -26 0
v -21 -27 0
v -22 -27 0
v -22 -26 0
v -21 -26 0
v -22 -27 0
v -23 -27 0
v -23 -26 0
v -22 -26 0
v 0 -28 0
v -1 -28 0
v -1 -27 0
v 0 -27 0
v -1 -28 0
v -2 -28 0
v -2 -27 0
v -1 -27 0
v -2 -28 0
v -3 -28 0
v -3 -27 0
v -2 -27 0
v -3 -28 0
v -4 -28 0
v -4 -27 0
v -3 -27 0
v -4 -28 0
v -5 -28 0
v -5 -27 0
v -4 -27 0
v -5 -28 0
v -6 -28 0
v -6 -27 0
v -5 -27 0
v -6 -28 0
v -7 -28 0
v -7 -27 0
v -6 -27 0
v -7 -28 0
v -8 -28 0
v -8 -27 0
v -7 -27 0
v -8 -28 0
v -9 -28 0
v -9 -27 0
v -8 -27 0
v -9 -28 0
v -10 -28 0
v -10 -27 0
v -9 -27 0
v -10 -28 0
v -11 -28 0
v -11 -27 0
v -10 -27 0
v -11 -28 0
v -12 -28 0
v -12 -27 0
v -11 -27 0
v -12 -28 0
v -13 -28 0
v -13 -27 0
v -12 -27 0
v -13 -28 0
v -14 -28 0
v -14 -27 0
v -13 -27 0
v -14 -28 0
v -15 -28 0
v -15 -27 0
v -14 -27 0
v -15 -28 0
v -16 -28 0
v -16 -27 0
v -15 -27 0
v -16 -28 0
v -17 -28 0
v -17 -27 0
v -16 -27 0
v -17 -28 0
v -18 -28 0
v -18 -27 0
v -17 -27 0
v -18 -28 0
v -19 -28 0
v -19 -27 0
v -18 -27 0
v -19 -28 0
v -20 -28 0
v -20 -27 0
v -19 -27 0
v -20 -28 0
v -21 -28 0
v -21 -27 0
v -20 -27 0
v -21 -28 0
v -22 -28 0
v -22 -27 0
v -21 -27 0
v -22 -28 0
v -23 -28 0
v -23 -27 0
v -22 -27 0
v 0 -29 0
v -1 -29 0
v -1 -28 0
v 0 -28 0
v -1 -29 0
v -2 -29 0
v -2 -28 0
v -1 -28 0
v -2 -29 0
v -3 -29 0
v -3 -28 0
v -2 -28 0
v -3 -29 0
v -4 -29 0
v -4 -28 0
v -3 -28 0
v -4 -29 0
v -5 -29 0
v -5 -28 0
v -4 -28 0
v -5 -29 0
v -6 -29 0
v -6 -28 0
v -5 -28 0
v -6 -29 0
v -7 -29 0
v -7 -28 0
v -6 -28 0
v -7 -29 0
v -8 -29 0
v -8 -28 0
v -7 -28 0
v -8 -29 0
v -9 -29 0
v -9 -28 0
v -8 -28 0
v -9 -29 0
v -10 -29 0
v -10 -28 0
v -9 -28 0
v -10 -29 0
v -11 -29 0
v -11 -28 0
v -10 -28 0
v -11 -29 0
v -12 -29 0
v -12 -28 0
v -11 -28 0
v -12 -29 0
v -13 -29 0
v -13 -28 0
v -12 -28 0
v -13 -29 0
v -14 -29 0
v -14 -28 0
v -13 -28 0
v -14 -29 0
v -15 -29 0
v -15 -28 0
v -14 -28 0
v -15 -29 0
v -16 -29 0
v -16 -28 0
v -15 -28 0
v -16 -29 0
v -17 -29 0
v -17 -28 0
v -16 -28 0
v -17 -29 0
v -18 -29 0
v -18 -28 0
v -17 -28 0
v -18 -29 0
v -19 -29 0
v -19 -28 0
v -18 -28 0
v -19 -29 0
v -20 -29 0
v -20 -28 0
v -19 -28 0
v -20 -29 0
v -21 -29 0
v -21 -28 0
v -20 -28 0
v -21 -29 0
v -22 -29 0
v -22 -28 0
v -21 -28 0
v -22 -29 0
v -23 -29 0
v -23 -28 0
v -22 -28 0
v 0 -30 0
v -1 -30 0
v -1 -29 0
v 0 -29 0
v -1 -30 0
v -2 -30 0
v -2 -29 0
v -1 -29 0
v -2 -30 0
v -3 -30 0
v -3 -29 0
v -2 -29 0
v -3 -30 0
v -4 -30 0
v -4 -29 0
v -3 -29 0
v -4 -30 0
v -5 -30 0
v -5 -29 0
v -4 -29 0
v -5 -30 0
v -6 -30 0
v -6 -29 0
v -5 -29 0
v -6 -30 0
v -7 -30 0
v -7 -29 0
v -6 -29 0
v -7 -30 0
v -8 -30 0
v -8 -29 0
v -7 -29 0
v -8 -30 0
v -9 -30 0
v -9 -29 0
v -8 -29 0
v -9 -30 0
v -10 -30 0
v -10 -29 0
v -9 -29 0
v -10 -30 0
v -11 -30 0
v -11 -29 0
v -10 -29 0
v -11 -30 0
v -12 -30 0
v -12 -29 0
v -11 -29 0
v -12 -30 0
v -13 -30 0
v -13 -29 0
v -12 -29 0
v -13 -30 0
v -14 -30 0
v -14 -29 0
v -13 -29 0
v -14 -30 0
v -15 -30 0
v -15 -29 0
v -14 -29 0
v -15 -30 0
v -16 -30 0
v -16 -29 0
v -15 -29 0
v -16 -30 0
v -17 -30 0
v -17 -29 0
v -16 -29 0
v -17 -30 0
v -18 -30 0
v -18 -29 0
v -17 -29 0
v -18 -30 0
v -19 -30 0
v -19 -29 0
v -18 -29 0
v -19 -30 0
v -20 -30 0
v -20 -29 0
v -19 -29 0
v -20 -30 0
v -21 -30 0
v -21 -29 0
v -20 -29 0
v -21 -30 0
v -22 -30 0
v -22 -29 0
v -21 -29 0
v -22 -30 0
v -23 -30 0
v -23 -29 0
v -22 -29 0

# Texture cooridinates (Count = 79)
vt 0.475 0.1944444
vt 0.5 0.1944444
vt 0.5 0.2222222
vt 0.475 0.2222222
vt 0.525 0.1944444
vt 0.525 0.2222222
vt 0.55 0.1944444
vt 0.55 0.2222222
vt 0.575 0.1944444
vt 0.575 0.2222222
vt 0.6 0.1944444
vt 0.6 0.2222222
vt 0.475 0.1666667
vt 0.5 0.1666667
vt 0.525 0.1666667
vt 0.55 0.1666667
vt 0.575 0.1666667
vt 0.6 0.1666667
vt 0.475 0.1388889
vt 0.5 0.1388889
vt 0.525 0.1388889
vt 0.55 0.1388889
vt 0.575 0.1388889
vt 0.6 0.1388889
vt 0.475 0.1111111
vt 0.5 0.1111111
vt 0.525 0.1111111
vt 0.55 0.1111111
vt 0.575 0.1111111
vt 0.6 0.1111111
vt 0.65 0.3611111
vt 0.675 0.3611111
vt 0.675 0.3888889
vt 0.65 0.3888889
vt 0.7 0.3611111
vt 0.7 0.3888889
vt 0.725 0.3611111
vt 0.725 0.3888889
vt 0.625 0.3611111
vt 0.625 0.3888889
vt 0.75 0.3611111
vt 0.75 0.3888889
vt 0.65 0.3333333
vt 0.675 0.3333333
vt 0.7 0.3333333
vt 0.725 0.3333333
vt 0.725 0.9444444
vt 0.75 0.9444444
vt 0.75 0.9722222
vt 0.725 0.9722222
vt 0.75 0.3333333
vt 0.65 0.3055556
vt 0.675 0.3055556
vt 0.7 0.3055556
vt 0.725 0.3055556
vt 0.75 0.3055556
vt 0.65 0.2777778
vt 0.675 0.2777778
vt 0.7 0.2777778
vt 0.725 0.2777778
vt 0.75 0.2777778
vt 0.65 0.25
vt 0.675 0.25
vt 0.7 0.25
vt 0.725 0.25
vt 0.75 0.25
vt 0.65 0.2222222
vt 0.675 0.2222222
vt 0.7 0.2222222
vt 0.725 0.2222222
vt 0.625 0.2222222
vt 0.625 0.25
vt 0.75 0.2222222
vt 0.65 0.1944444
vt 0.675 0.1944444
vt 0.7 0.1944444
vt 0.725 0.1944444
vt 0.625 0.1944444
vt 0.75 0.1944444

# Normal
vn 0 0 -1

# Mesh description
g Numbers-3-lake_mesh_0006

# Faces
f 1/1/1 2/2/1 3/3/1 4/4/1
f 5/2/1 6/5/1 7/6/1 8/3/1
f 9/5/1 10/7/1 11/8/1 12/6/1
f 13/7/1 14/9/1 15/10/1 16/8/1
f 17/9/1 18/11/1 19/12/1 20/10/1
f 21/13/1 22/14/1 23/2/1 24/1/1
f 25/14/1 26/15/1 27/5/1 28/2/1
f 29/15/1 30/16/1 31/7/1 32/5/1
f 33/16/1 34/17/1 35/9/1 36/7/1
f 37/17/1 38/18/1 39/11/1 40/9/1
f 41/19/1 42/20/1 43/14/1 44/13/1
f 45/20/1 46/21/1 47/15/1 48/14/1
f 49/21/1 50/22/1 51/16/1 52/15/1
f 53/22/1 54/23/1 55/17/1 56/16/1
f 57/23/1 58/24/1 59/18/1 60/17/1
f 61/25/1 62/26/1 63/20/1 64/19/1
f 65/26/1 66/27/1 67/21/1 68/20/1
f 69/27/1 70/28/1 71/22/1 72/21/1
f 73/28/1 74/29/1 75/23/1 76/22/1
f 77/29/1 78/30/1 79/24/1 80/23/1
f 81/13/1 82/14/1 83/2/1 84/1/1
f 85/14/1 86/15/1 87/5/1 88/2/1
f 89/15/1 90/16/1 91/7/1 92/5/1
f 93/16/1 94/17/1 95/9/1 96/7/1
f 97/17/1 98/18/1 99/11/1 100/9/1
f 101/19/1 102/20/1 103/14/1 104/13/1
f 105/20/1 106/21/1 107/15/1 108/14/1
f 109/21/1 110/22/1 111/16/1 112/15/1
f 113/22/1 114/23/1 115/17/1 116/16/1
f 117/23/1 118/24/1 119/18/1 120/17/1
f 121/31/1 122/32/1 123/33/1 124/34/1
f 125/32/1 126/35/1 127/36/1 128/33/1
f 129/35/1 130/37/1 131/38/1 132/36/1
f 133/31/1 134/32/1 135/33/1 136/34/1
f 137/32/1 138/35/1 139/36/1 140/33/1
f 141/35/1 142/37/1 143/38/1 144/36/1
f 145/31/1 146/32/1 147/33/1 148/34/1
f 149/32/1 150/35/1 151/36/1 152/33/1
f 153/35/1 154/37/1 155/38/1 156/36/1
f 157/31/1 158/32/1 159/33/1 160/34/1
f 161/32/1 162/35/1 163/36/1 164/33/1
f 165/35/1 166/37/1 167/38/1 168/36/1
f 169/31/1 170/32/1 171/33/1 172/34/1
f 173/25/1 174/26/1 175/20/1 176/19/1
f 177/26/1 178/27/1 179/21/1 180/20/1
f 181/27/1 182/28/1 183/22/1 184/21/1
f 185/28/1 186/29/1 187/23/1 188/22/1
f 189/29/1 190/30/1 191/24/1 192/23/1
f 193/39/1 194/31/1 195/34/1 196/40/1
f 197/31/1 198/32/1 199/33/1 200/34/1
f 201/32/1 202/35/1 203/36/1 204/33/1
f 205/35/1 206/37/1 207/38/1 208/36/1
f 209/37/1 210/41/1 211/42/1 212/38/1
f 213/43/1 214/44/1 215/32/1 216/31/1
f 217/44/1 218/45/1 219/35/1 220/32/1
f 221/45/1 222/46/1 223/37/1 224/35/1
f 225/43/1 226/44/1 227/32/1 228/31/1
f 229/44/1 230/45/1 231/35/1 232/32/1
f 233/45/1 234/46/1 235/37/1 236/35/1
f 237/43/1 238/44/1 239/32/1 240/31/1
f 241/44/1 242/45/1 243/35/1 244/32/1
f 245/45/1 246/46/1 247/37/1 248/35/1
f 249/43/1 250/44/1 251/32/1 252/31/1
f 253/44/1 254/45/1 255/35/1 256/32/1
f 257/45/1 258/46/1 259/37/1 260/35/1
f 261/43/1 262/44/1 263/32/1 264/31/1
f 265/45/1 266/46/1 267/37/1 268/35/1
f 269/47/1 270/48/1 271/49/1 272/50/1
f 273/21/1 274/22/1 275/16/1 276/15/1
f 277/16/1 278/17/1 279/9/1 280/7/1
f 281/44/1 282/45/1 283/35/1 284/32/1
f 285/44/1 286/45/1 287/35/1 288/32/1
f 289/43/1 290/44/1 291/32/1 292/31/1
f 293/44/1 294/45/1 295/35/1 296/32/1
f 297/45/1 298/46/1 299/37/1 300/35/1
f 301/46/1 302/51/1 303/41/1 304/37/1
f 305/52/1 306/53/1 307/44/1 308/43/1
f 309/53/1 310/54/1 311/45/1 312/44/1
f 313/54/1 314/55/1 315/46/1 316/45/1
f 317/52/1 318/53/1 319/44/1 320/43/1
f 321/53/1 322/54/1 323/45/1 324/44/1
f 325/54/1 326/55/1 327/46/1 328/45/1
f 329/52/1 330/53/1 331/44/1 332/43/1
f 333/53/1 334/54/1 335/45/1 336/44/1
f 337/54/1 338/55/1 339/46/1 340/45/1
f 341/52/1 342/53/1 343/44/1 344/43/1
f 345/53/1 346/54/1 347/45/1 348/44/1
f 349/54/1 350/55/1 351/46/1 352/45/1
f 353/52/1 354/53/1 355/44/1 356/43/1
f 357/21/1 358/22/1 359/16/1 360/15/1
f 361/21/1 362/22/1 363/16/1 364/15/1
f 365/21/1 366/22/1 367/16/1 368/15/1
f 369/21/1 370/22/1 371/16/1 372/15/1
f 373/21/1 374/22/1 375/16/1 376/15/1
f 377/21/1 378/22/1 379/16/1 380/15/1
f 381/52/1 382/53/1 383/44/1 384/43/1
f 385/53/1 386/54/1 387/45/1 388/44/1
f 389/54/1 390/55/1 391/46/1 392/45/1
f 393/55/1 394/56/1 395/51/1 396/46/1
f 397/57/1 398/58/1 399/53/1 400/52/1
f 401/58/1 402/59/1 403/54/1 404/53/1
f 405/59/1 406/60/1 407/55/1 408/54/1
f 409/57/1 410/58/1 411/53/1 412/52/1
f 413/58/1 414/59/1 415/54/1 416/53/1
f 417/59/1 418/60/1 419/55/1 420/54/1
f 421/57/1 422/58/1 423/53/1 424/52/1
f 425/58/1 426/59/1 427/54/1 428/53/1
f 429/59/1 430/60/1 431/55/1 432/54/1
f 433/57/1 434/58/1 435/53/1 436/52/1
f 437/58/1 438/59/1 439/54/1 440/53/1
f 441/59/1 442/60/1 443/55/1 444/54/1
f 445/57/1 446/58/1 447/53/1 448/52/1
f 449/58/1 450/59/1 451/54/1 452/53/1
f 453/21/1 454/22/1 455/16/1 456/15/1
f 457/21/1 458/22/1 459/16/1 460/15/1
f 461/21/1 462/22/1 463/16/1 464/15/1
f 465/58/1 466/59/1 467/54/1 468/53/1
f 469/58/1 470/59/1 471/54/1 472/53/1
f 473/57/1 474/58/1 475/53/1 476/52/1
f 477/58/1 478/59/1 479/54/1 480/53/1
f 481/59/1 482/60/1 483/55/1 484/54/1
f 485/60/1 486/61/1 487/56/1 488/55/1
f 489/62/1 490/63/1 491/58/1 492/57/1
f 493/63/1 494/64/1 495/59/1 496/58/1
f 497/64/1 498/65/1 499/60/1 500/59/1
f 501/62/1 502/63/1 503/58/1 504/57/1
f 505/63/1 506/64/1 507/59/1 508/58/1
f 509/64/1 510/65/1 511/60/1 512/59/1
f 513/62/1 514/63/1 515/58/1 516/57/1
f 517/63/1 518/64/1 519/59/1 520/58/1
f 521/64/1 522/65/1 523/60/1 524/59/1
f 525/62/1 526/63/1 527/58/1 528/57/1
f 529/63/1 530/64/1 531/59/1 532/58/1
f 533/64/1 534/65/1 535/60/1 536/59/1
f 537/62/1 538/63/1 539/58/1 540/57/1
f 541/63/1 542/64/1 543/59/1 544/58/1
f 545/14/1 546/15/1 547/5/1 548/2/1
f 549/15/1 550/16/1 551/7/1 552/5/1
f 553/16/1 554/17/1 555/9/1 556/7/1
f 557/63/1 558/64/1 559/59/1 560/58/1
f 561/63/1 562/64/1 563/59/1 564/58/1
f 565/62/1 566/63/1 567/58/1 568/57/1
f 569/63/1 570/64/1 571/59/1 572/58/1
f 573/64/1 574/65/1 575/60/1 576/59/1
f 577/65/1 578/66/1 579/61/1 580/60/1
f 581/67/1 582/68/1 583/63/1 584/62/1
f 585/68/1 586/69/1 587/64/1 588/63/1
f 589/69/1 590/70/1 591/65/1 592/64/1
f 593/67/1 594/68/1 595/63/1 596/62/1
f 597/68/1 598/69/1 599/64/1 600/63/1
f 601/69/1 602/70/1 603/65/1 604/64/1
f 605/67/1 606/68/1 607/63/1 608/62/1
f 609/68/1 610/69/1 611/64/1 612/63/1
f 613/69/1 614/70/1 615/65/1 616/64/1
f 617/67/1 618/68/1 619/63/1 620/62/1
f 621/68/1 622/69/1 623/64/1 624/63/1
f 625/69/1 626/70/1 627/65/1 628/64/1
f 629/67/1 630/68/1 631/63/1 632/62/1
f 633/19/1 634/20/1 635/14/1 636/13/1
f 637/20/1 638/21/1 639/15/1 640/14/1
f 641/21/1 642/22/1 643/16/1 644/15/1
f 645/22/1 646/23/1 647/17/1 648/16/1
f 649/23/1 650/24/1 651/18/1 652/17/1
f 653/71/1 654/67/1 655/62/1 656/72/1
f 657/67/1 658/68/1 659/63/1 660/62/1
f 661/68/1 662/69/1 663/64/1 664/63/1
f 665/69/1 666/70/1 667/65/1 668/64/1
f 669/70/1 670/73/1 671/66/1 672/65/1
f 673/74/1 674/75/1 675/68/1 676/67/1
f 677/75/1 678/76/1 679/69/1 680/68/1
f 681/76/1 682/77/1 683/70/1 684/69/1
f 685/74/1 686/75/1 687/68/1 688/67/1
f 689/75/1 690/76/1 691/69/1 692/68/1
f 693/76/1 694/77/1 695/70/1 696/69/1
f 697/74/1 698/75/1 699/68/1 700/67/1
f 701/75/1 702/76/1 703/69/1 704/68/1
f 705/76/1 706/77/1 707/70/1 708/69/1
f 709/74/1 710/75/1 711/68/1 712/67/1
f 713/75/1 714/76/1 715/69/1 716/68/1
f 717/76/1 718/77/1 719/70/1 720/69/1
f 721/74/1 722/75/1 723/68/1 724/67/1
f 725/25/1 726/26/1 727/20/1 728/19/1
f 729/26/1 730/27/1 731/21/1 732/20/1
f 733/27/1 734/28/1 735/22/1 736/21/1
f 737/28/1 738/29/1 739/23/1 740/22/1
f 741/29/1 742/30/1 743/24/1 744/23/1
f 745/78/1 746/74/1 747/67/1 748/71/1
f 749/74/1 750/75/1 751/68/1 752/67/1
f 753/75/1 754/76/1 755/69/1 756/68/1
f 757/76/1 758/77/1 759/70/1 760/69/1
f 761/77/1 762/79/1 763/73/1 764/70/1

