# Tiled2Unity generated file. Do not modify by hand.
# Wavefront file for 'Numbers-3-lake_mesh_0004.obj'

# Vertices (Count = 1124)
v 0 -1 0
v -1 -1 0
v -1 0 0
v 0 0 0
v -1 -1 0
v -2 -1 0
v -2 0 0
v -1 0 0
v -2 -1 0
v -3 -1 0
v -3 0 0
v -2 0 0
v -3 -1 0
v -4 -1 0
v -4 0 0
v -3 0 0
v -4 -1 0
v -5 -1 0
v -5 0 0
v -4 0 0
v -5 -1 0
v -6 -1 0
v -6 0 0
v -5 0 0
v -6 -1 0
v -7 -1 0
v -7 0 0
v -6 0 0
v -7 -1 0
v -8 -1 0
v -8 0 0
v -7 0 0
v -8 -1 0
v -9 -1 0
v -9 0 0
v -8 0 0
v -9 -1 0
v -10 -1 0
v -10 0 0
v -9 0 0
v -10 -1 0
v -11 -1 0
v -11 0 0
v -10 0 0
v -11 -1 0
v -12 -1 0
v -12 0 0
v -11 0 0
v -12 -1 0
v -13 -1 0
v -13 0 0
v -12 0 0
v -13 -1 0
v -14 -1 0
v -14 0 0
v -13 0 0
v -14 -1 0
v -15 -1 0
v -15 0 0
v -14 0 0
v -15 -1 0
v -16 -1 0
v -16 0 0
v -15 0 0
v -16 -1 0
v -17 -1 0
v -17 0 0
v -16 0 0
v -17 -1 0
v -18 -1 0
v -18 0 0
v -17 0 0
v -18 -1 0
v -19 -1 0
v -19 0 0
v -18 0 0
v -19 -1 0
v -20 -1 0
v -20 0 0
v -19 0 0
v -20 -1 0
v -21 -1 0
v -21 0 0
v -20 0 0
v -21 -1 0
v -22 -1 0
v -22 0 0
v -21 0 0
v -22 -1 0
v -23 -1 0
v -23 0 0
v -22 0 0
v -23 -1 0
v -24 -1 0
v -24 0 0
v -23 0 0
v -24 -1 0
v -25 -1 0
v -25 0 0
v -24 0 0
v -25 -1 0
v -26 -1 0
v -26 0 0
v -25 0 0
v -26 -1 0
v -27 -1 0
v -27 0 0
v -26 0 0
v -27 -1 0
v -28 -1 0
v -28 0 0
v -27 0 0
v -28 -1 0
v -29 -1 0
v -29 0 0
v -28 0 0
v -29 -1 0
v -30 -1 0
v -30 0 0
v -29 0 0
v 0 -2 0
v -1 -2 0
v -1 -1 0
v 0 -1 0
v -1 -2 0
v -2 -2 0
v -2 -1 0
v -1 -1 0
v -2 -2 0
v -3 -2 0
v -3 -1 0
v -2 -1 0
v -3 -2 0
v -4 -2 0
v -4 -1 0
v -3 -1 0
v -4 -2 0
v -5 -2 0
v -5 -1 0
v -4 -1 0
v -5 -2 0
v -6 -2 0
v -6 -1 0
v -5 -1 0
v -6 -2 0
v -7 -2 0
v -7 -1 0
v -6 -1 0
v -7 -2 0
v -8 -2 0
v -8 -1 0
v -7 -1 0
v -8 -2 0
v -9 -2 0
v -9 -1 0
v -8 -1 0
v -9 -2 0
v -10 -2 0
v -10 -1 0
v -9 -1 0
v -10 -2 0
v -11 -2 0
v -11 -1 0
v -10 -1 0
v -11 -2 0
v -12 -2 0
v -12 -1 0
v -11 -1 0
v -12 -2 0
v -13 -2 0
v -13 -1 0
v -12 -1 0
v -13 -2 0
v -14 -2 0
v -14 -1 0
v -13 -1 0
v -14 -2 0
v -15 -2 0
v -15 -1 0
v -14 -1 0
v -15 -2 0
v -16 -2 0
v -16 -1 0
v -15 -1 0
v -16 -2 0
v -17 -2 0
v -17 -1 0
v -16 -1 0
v -17 -2 0
v -18 -2 0
v -18 -1 0
v -17 -1 0
v -18 -2 0
v -19 -2 0
v -19 -1 0
v -18 -1 0
v -19 -2 0
v -20 -2 0
v -20 -1 0
v -19 -1 0
v -20 -2 0
v -21 -2 0
v -21 -1 0
v -20 -1 0
v -21 -2 0
v -22 -2 0
v -22 -1 0
v -21 -1 0
v -22 -2 0
v -23 -2 0
v -23 -1 0
v -22 -1 0
v -23 -2 0
v -24 -2 0
v -24 -1 0
v -23 -1 0
v -24 -2 0
v -25 -2 0
v -25 -1 0
v -24 -1 0
v -25 -2 0
v -26 -2 0
v -26 -1 0
v -25 -1 0
v -26 -2 0
v -27 -2 0
v -27 -1 0
v -26 -1 0
v -27 -2 0
v -28 -2 0
v -28 -1 0
v -27 -1 0
v -28 -2 0
v -29 -2 0
v -29 -1 0
v -28 -1 0
v -29 -2 0
v -30 -2 0
v -30 -1 0
v -29 -1 0
v 0 -3 0
v -1 -3 0
v -1 -2 0
v 0 -2 0
v -1 -3 0
v -2 -3 0
v -2 -2 0
v -1 -2 0
v -2 -3 0
v -3 -3 0
v -3 -2 0
v -2 -2 0
v -3 -3 0
v -4 -3 0
v -4 -2 0
v -3 -2 0
v -4 -3 0
v -5 -3 0
v -5 -2 0
v -4 -2 0
v -5 -3 0
v -6 -3 0
v -6 -2 0
v -5 -2 0
v -6 -3 0
v -7 -3 0
v -7 -2 0
v -6 -2 0
v -7 -3 0
v -8 -3 0
v -8 -2 0
v -7 -2 0
v -8 -3 0
v -9 -3 0
v -9 -2 0
v -8 -2 0
v -9 -3 0
v -10 -3 0
v -10 -2 0
v -9 -2 0
v -10 -3 0
v -11 -3 0
v -11 -2 0
v -10 -2 0
v -11 -3 0
v -12 -3 0
v -12 -2 0
v -11 -2 0
v -12 -3 0
v -13 -3 0
v -13 -2 0
v -12 -2 0
v -13 -3 0
v -14 -3 0
v -14 -2 0
v -13 -2 0
v -14 -3 0
v -15 -3 0
v -15 -2 0
v -14 -2 0
v -15 -3 0
v -16 -3 0
v -16 -2 0
v -15 -2 0
v -16 -3 0
v -17 -3 0
v -17 -2 0
v -16 -2 0
v -17 -3 0
v -18 -3 0
v -18 -2 0
v -17 -2 0
v -18 -3 0
v -19 -3 0
v -19 -2 0
v -18 -2 0
v -19 -3 0
v -20 -3 0
v -20 -2 0
v -19 -2 0
v -20 -3 0
v -21 -3 0
v -21 -2 0
v -20 -2 0
v -21 -3 0
v -22 -3 0
v -22 -2 0
v -21 -2 0
v -22 -3 0
v -23 -3 0
v -23 -2 0
v -22 -2 0
v -23 -3 0
v -24 -3 0
v -24 -2 0
v -23 -2 0
v -24 -3 0
v -25 -3 0
v -25 -2 0
v -24 -2 0
v -25 -3 0
v -26 -3 0
v -26 -2 0
v -25 -2 0
v -26 -3 0
v -27 -3 0
v -27 -2 0
v -26 -2 0
v -27 -3 0
v -28 -3 0
v -28 -2 0
v -27 -2 0
v -28 -3 0
v -29 -3 0
v -29 -2 0
v -28 -2 0
v -29 -3 0
v -30 -3 0
v -30 -2 0
v -29 -2 0
v 0 -4 0
v -1 -4 0
v -1 -3 0
v 0 -3 0
v -1 -4 0
v -2 -4 0
v -2 -3 0
v -1 -3 0
v -2 -4 0
v -3 -4 0
v -3 -3 0
v -2 -3 0
v -3 -4 0
v -4 -4 0
v -4 -3 0
v -3 -3 0
v -26 -4 0
v -27 -4 0
v -27 -3 0
v -26 -3 0
v -27 -4 0
v -28 -4 0
v -28 -3 0
v -27 -3 0
v -28 -4 0
v -29 -4 0
v -29 -3 0
v -28 -3 0
v -29 -4 0
v -30 -4 0
v -30 -3 0
v -29 -3 0
v 0 -5 0
v -1 -5 0
v -1 -4 0
v 0 -4 0
v -1 -5 0
v -2 -5 0
v -2 -4 0
v -1 -4 0
v -2 -5 0
v -3 -5 0
v -3 -4 0
v -2 -4 0
v -3 -5 0
v -4 -5 0
v -4 -4 0
v -3 -4 0
v -26 -5 0
v -27 -5 0
v -27 -4 0
v -26 -4 0
v -27 -5 0
v -28 -5 0
v -28 -4 0
v -27 -4 0
v -28 -5 0
v -29 -5 0
v -29 -4 0
v -28 -4 0
v -29 -5 0
v -30 -5 0
v -30 -4 0
v -29 -4 0
v 0 -6 0
v -1 -6 0
v -1 -5 0
v 0 -5 0
v -1 -6 0
v -2 -6 0
v -2 -5 0
v -1 -5 0
v -2 -6 0
v -3 -6 0
v -3 -5 0
v -2 -5 0
v -3 -6 0
v -4 -6 0
v -4 -5 0
v -3 -5 0
v -26 -6 0
v -27 -6 0
v -27 -5 0
v -26 -5 0
v -27 -6 0
v -28 -6 0
v -28 -5 0
v -27 -5 0
v -28 -6 0
v -29 -6 0
v -29 -5 0
v -28 -5 0
v -29 -6 0
v -30 -6 0
v -30 -5 0
v -29 -5 0
v 0 -7 0
v -1 -7 0
v -1 -6 0
v 0 -6 0
v -1 -7 0
v -2 -7 0
v -2 -6 0
v -1 -6 0
v -2 -7 0
v -3 -7 0
v -3 -6 0
v -2 -6 0
v -3 -7 0
v -4 -7 0
v -4 -6 0
v -3 -6 0
v -4 -7 0
v -5 -7 0
v -5 -6 0
v -4 -6 0
v -5 -7 0
v -6 -7 0
v -6 -6 0
v -5 -6 0
v -6 -7 0
v -7 -7 0
v -7 -6 0
v -6 -6 0
v -7 -7 0
v -8 -7 0
v -8 -6 0
v -7 -6 0
v -8 -7 0
v -9 -7 0
v -9 -6 0
v -8 -6 0
v -9 -7 0
v -10 -7 0
v -10 -6 0
v -9 -6 0
v -10 -7 0
v -11 -7 0
v -11 -6 0
v -10 -6 0
v -11 -7 0
v -12 -7 0
v -12 -6 0
v -11 -6 0
v -12 -7 0
v -13 -7 0
v -13 -6 0
v -12 -6 0
v -13 -7 0
v -14 -7 0
v -14 -6 0
v -13 -6 0
v -17 -7 0
v -18 -7 0
v -18 -6 0
v -17 -6 0
v -18 -7 0
v -19 -7 0
v -19 -6 0
v -18 -6 0
v -19 -7 0
v -20 -7 0
v -20 -6 0
v -19 -6 0
v -20 -7 0
v -21 -7 0
v -21 -6 0
v -20 -6 0
v -21 -7 0
v -22 -7 0
v -22 -6 0
v -21 -6 0
v -22 -7 0
v -23 -7 0
v -23 -6 0
v -22 -6 0
v -23 -7 0
v -24 -7 0
v -24 -6 0
v -23 -6 0
v -24 -7 0
v -25 -7 0
v -25 -6 0
v -24 -6 0
v -25 -7 0
v -26 -7 0
v -26 -6 0
v -25 -6 0
v -26 -7 0
v -27 -7 0
v -27 -6 0
v -26 -6 0
v -27 -7 0
v -28 -7 0
v -28 -6 0
v -27 -6 0
v -28 -7 0
v -29 -7 0
v -29 -6 0
v -28 -6 0
v -29 -7 0
v -30 -7 0
v -30 -6 0
v -29 -6 0
v 0 -8 0
v -1 -8 0
v -1 -7 0
v 0 -7 0
v -1 -8 0
v -2 -8 0
v -2 -7 0
v -1 -7 0
v -2 -8 0
v -3 -8 0
v -3 -7 0
v -2 -7 0
v -3 -8 0
v -4 -8 0
v -4 -7 0
v -3 -7 0
v -4 -8 0
v -5 -8 0
v -5 -7 0
v -4 -7 0
v -5 -8 0
v -6 -8 0
v -6 -7 0
v -5 -7 0
v -6 -8 0
v -7 -8 0
v -7 -7 0
v -6 -7 0
v -7 -8 0
v -8 -8 0
v -8 -7 0
v -7 -7 0
v -8 -8 0
v -9 -8 0
v -9 -7 0
v -8 -7 0
v -9 -8 0
v -10 -8 0
v -10 -7 0
v -9 -7 0
v -10 -8 0
v -11 -8 0
v -11 -7 0
v -10 -7 0
v -11 -8 0
v -12 -8 0
v -12 -7 0
v -11 -7 0
v -12 -8 0
v -13 -8 0
v -13 -7 0
v -12 -7 0
v -13 -8 0
v -14 -8 0
v -14 -7 0
v -13 -7 0
v -17 -8 0
v -18 -8 0
v -18 -7 0
v -17 -7 0
v -18 -8 0
v -19 -8 0
v -19 -7 0
v -18 -7 0
v -19 -8 0
v -20 -8 0
v -20 -7 0
v -19 -7 0
v -20 -8 0
v -21 -8 0
v -21 -7 0
v -20 -7 0
v -21 -8 0
v -22 -8 0
v -22 -7 0
v -21 -7 0
v -22 -8 0
v -23 -8 0
v -23 -7 0
v -22 -7 0
v -23 -8 0
v -24 -8 0
v -24 -7 0
v -23 -7 0
v -24 -8 0
v -25 -8 0
v -25 -7 0
v -24 -7 0
v -25 -8 0
v -26 -8 0
v -26 -7 0
v -25 -7 0
v -26 -8 0
v -27 -8 0
v -27 -7 0
v -26 -7 0
v -27 -8 0
v -28 -8 0
v -28 -7 0
v -27 -7 0
v -28 -8 0
v -29 -8 0
v -29 -7 0
v -28 -7 0
v -29 -8 0
v -30 -8 0
v -30 -7 0
v -29 -7 0
v 0 -9 0
v -1 -9 0
v -1 -8 0
v 0 -8 0
v -1 -9 0
v -2 -9 0
v -2 -8 0
v -1 -8 0
v -2 -9 0
v -3 -9 0
v -3 -8 0
v -2 -8 0
v -3 -9 0
v -4 -9 0
v -4 -8 0
v -3 -8 0
v -4 -9 0
v -5 -9 0
v -5 -8 0
v -4 -8 0
v -5 -9 0
v -6 -9 0
v -6 -8 0
v -5 -8 0
v -6 -9 0
v -7 -9 0
v -7 -8 0
v -6 -8 0
v -7 -9 0
v -8 -9 0
v -8 -8 0
v -7 -8 0
v -8 -9 0
v -9 -9 0
v -9 -8 0
v -8 -8 0
v -9 -9 0
v -10 -9 0
v -10 -8 0
v -9 -8 0
v -10 -9 0
v -11 -9 0
v -11 -8 0
v -10 -8 0
v -11 -9 0
v -12 -9 0
v -12 -8 0
v -11 -8 0
v -12 -9 0
v -13 -9 0
v -13 -8 0
v -12 -8 0
v -13 -9 0
v -14 -9 0
v -14 -8 0
v -13 -8 0
v -17 -9 0
v -18 -9 0
v -18 -8 0
v -17 -8 0
v -18 -9 0
v -19 -9 0
v -19 -8 0
v -18 -8 0
v -19 -9 0
v -20 -9 0
v -20 -8 0
v -19 -8 0
v -20 -9 0
v -21 -9 0
v -21 -8 0
v -20 -8 0
v -21 -9 0
v -22 -9 0
v -22 -8 0
v -21 -8 0
v -22 -9 0
v -23 -9 0
v -23 -8 0
v -22 -8 0
v -23 -9 0
v -24 -9 0
v -24 -8 0
v -23 -8 0
v -24 -9 0
v -25 -9 0
v -25 -8 0
v -24 -8 0
v -25 -9 0
v -26 -9 0
v -26 -8 0
v -25 -8 0
v -26 -9 0
v -27 -9 0
v -27 -8 0
v -26 -8 0
v -27 -9 0
v -28 -9 0
v -28 -8 0
v -27 -8 0
v -28 -9 0
v -29 -9 0
v -29 -8 0
v -28 -8 0
v -29 -9 0
v -30 -9 0
v -30 -8 0
v -29 -8 0
v 0 -10 0
v -1 -10 0
v -1 -9 0
v 0 -9 0
v -1 -10 0
v -2 -10 0
v -2 -9 0
v -1 -9 0
v -2 -10 0
v -3 -10 0
v -3 -9 0
v -2 -9 0
v -3 -10 0
v -4 -10 0
v -4 -9 0
v -3 -9 0
v -4 -10 0
v -5 -10 0
v -5 -9 0
v -4 -9 0
v -5 -10 0
v -6 -10 0
v -6 -9 0
v -5 -9 0
v -6 -10 0
v -7 -10 0
v -7 -9 0
v -6 -9 0
v -7 -10 0
v -8 -10 0
v -8 -9 0
v -7 -9 0
v -8 -10 0
v -9 -10 0
v -9 -9 0
v -8 -9 0
v -9 -10 0
v -10 -10 0
v -10 -9 0
v -9 -9 0
v -10 -10 0
v -11 -10 0
v -11 -9 0
v -10 -9 0
v -11 -10 0
v -12 -10 0
v -12 -9 0
v -11 -9 0
v -12 -10 0
v -13 -10 0
v -13 -9 0
v -12 -9 0
v -13 -10 0
v -14 -10 0
v -14 -9 0
v -13 -9 0
v -17 -10 0
v -18 -10 0
v -18 -9 0
v -17 -9 0
v -18 -10 0
v -19 -10 0
v -19 -9 0
v -18 -9 0
v -19 -10 0
v -20 -10 0
v -20 -9 0
v -19 -9 0
v -20 -10 0
v -21 -10 0
v -21 -9 0
v -20 -9 0
v -21 -10 0
v -22 -10 0
v -22 -9 0
v -21 -9 0
v -22 -10 0
v -23 -10 0
v -23 -9 0
v -22 -9 0
v -23 -10 0
v -24 -10 0
v -24 -9 0
v -23 -9 0
v -24 -10 0
v -25 -10 0
v -25 -9 0
v -24 -9 0
v -25 -10 0
v -26 -10 0
v -26 -9 0
v -25 -9 0
v -26 -10 0
v -27 -10 0
v -27 -9 0
v -26 -9 0
v -27 -10 0
v -28 -10 0
v -28 -9 0
v -27 -9 0
v -28 -10 0
v -29 -10 0
v -29 -9 0
v -28 -9 0
v -29 -10 0
v -30 -10 0
v -30 -9 0
v -29 -9 0
v 0 -11 0
v -1 -11 0
v -1 -10 0
v 0 -10 0
v -1 -11 0
v -2 -11 0
v -2 -10 0
v -1 -10 0
v -2 -11 0
v -3 -11 0
v -3 -10 0
v -2 -10 0
v -3 -11 0
v -4 -11 0
v -4 -10 0
v -3 -10 0
v -4 -11 0
v -5 -11 0
v -5 -10 0
v -4 -10 0
v -5 -11 0
v -6 -11 0
v -6 -10 0
v -5 -10 0
v -6 -11 0
v -7 -11 0
v -7 -10 0
v -6 -10 0
v -7 -11 0
v -8 -11 0
v -8 -10 0
v -7 -10 0
v -8 -11 0
v -9 -11 0
v -9 -10 0
v -8 -10 0
v -9 -11 0
v -10 -11 0
v -10 -10 0
v -9 -10 0
v -10 -11 0
v -11 -11 0
v -11 -10 0
v -10 -10 0
v -11 -11 0
v -12 -11 0
v -12 -10 0
v -11 -10 0
v -12 -11 0
v -13 -11 0
v -13 -10 0
v -12 -10 0
v -13 -11 0
v -14 -11 0
v -14 -10 0
v -13 -10 0
v -17 -11 0
v -18 -11 0
v -18 -10 0
v -17 -10 0
v -18 -11 0
v -19 -11 0
v -19 -10 0
v -18 -10 0
v -19 -11 0
v -20 -11 0
v -20 -10 0
v -19 -10 0
v -20 -11 0
v -21 -11 0
v -21 -10 0
v -20 -10 0
v -21 -11 0
v -22 -11 0
v -22 -10 0
v -21 -10 0
v -22 -11 0
v -23 -11 0
v -23 -10 0
v -22 -10 0
v -23 -11 0
v -24 -11 0
v -24 -10 0
v -23 -10 0
v -24 -11 0
v -25 -11 0
v -25 -10 0
v -24 -10 0
v -25 -11 0
v -26 -11 0
v -26 -10 0
v -25 -10 0
v -26 -11 0
v -27 -11 0
v -27 -10 0
v -26 -10 0
v -27 -11 0
v -28 -11 0
v -28 -10 0
v -27 -10 0
v -28 -11 0
v -29 -11 0
v -29 -10 0
v -28 -10 0
v -29 -11 0
v -30 -11 0
v -30 -10 0
v -29 -10 0
v 0 -13 0
v -1 -13 0
v -1 -12 0
v 0 -12 0
v -29 -13 0
v -30 -13 0
v -30 -12 0
v -29 -12 0
v 0 -14 0
v -1 -14 0
v -1 -13 0
v 0 -13 0
v -29 -14 0
v -30 -14 0
v -30 -13 0
v -29 -13 0
v 0 -15 0
v -1 -15 0
v -1 -14 0
v 0 -14 0
v -7 -15 0
v -8 -15 0
v -8 -14 0
v -7 -14 0
v -8 -15 0
v -9 -15 0
v -9 -14 0
v -8 -14 0
v -25 -15 0
v -26 -15 0
v -26 -14 0
v -25 -14 0
v -26 -15 0
v -27 -15 0
v -27 -14 0
v -26 -14 0
v -29 -15 0
v -30 -15 0
v -30 -14 0
v -29 -14 0
v 0 -16 0
v -1 -16 0
v -1 -15 0
v 0 -15 0
v -2 -16 0
v -3 -16 0
v -3 -15 0
v -2 -15 0
v -3 -16 0
v -4 -16 0
v -4 -15 0
v -3 -15 0
v -29 -16 0
v -30 -16 0
v -30 -15 0
v -29 -15 0
v 0 -17 0
v -1 -17 0
v -1 -16 0
v 0 -16 0
v -29 -17 0
v -30 -17 0
v -30 -16 0
v -29 -16 0
v 0 -18 0
v -1 -18 0
v -1 -17 0
v 0 -17 0
v -13 -18 0
v -14 -18 0
v -14 -17 0
v -13 -17 0
v -29 -18 0
v -30 -18 0
v -30 -17 0
v -29 -17 0
v 0 -19 0
v -1 -19 0
v -1 -18 0
v 0 -18 0
v -5 -19 0
v -6 -19 0
v -6 -18 0
v -5 -18 0
v -22 -19 0
v -23 -19 0
v -23 -18 0
v -22 -18 0
v -23 -19 0
v -24 -19 0
v -24 -18 0
v -23 -18 0
v -29 -19 0
v -30 -19 0
v -30 -18 0
v -29 -18 0
v -29 -20 0
v -30 -20 0
v -30 -19 0
v -29 -19 0
v -29 -21 0
v -30 -21 0
v -30 -20 0
v -29 -20 0
v -29 -22 0
v -30 -22 0
v -30 -21 0
v -29 -21 0
v -29 -23 0
v -30 -23 0
v -30 -22 0
v -29 -22 0
v -10 -24 0
v -11 -24 0
v -11 -23 0
v -10 -23 0
v -20 -24 0
v -21 -24 0
v -21 -23 0
v -20 -23 0
v -29 -24 0
v -30 -24 0
v -30 -23 0
v -29 -23 0
v -10 -30 0
v -11 -30 0
v -11 -29 0
v -10 -29 0

# Texture cooridinates (Count = 65)
vt 0.55 0.9444444
vt 0.575 0.9444444
vt 0.575 0.9722222
vt 0.55 0.9722222
vt 0.6 0.9444444
vt 0.6 0.9722222
vt 0.7 0.9722222
vt 0.725 0.9722222
vt 0.725 1
vt 0.7 1
vt 0.575 0.9166667
vt 0.6 0.9166667
vt 0.75 0.9722222
vt 0.75 1
vt 0.625 0.9444444
vt 0.625 0.9722222
vt 0.575 0.8888889
vt 0.6 0.8888889
vt 0.625 0.8888889
vt 0.625 0.9166667
vt 0.575 0.8611111
vt 0.6 0.8611111
vt 0.625 0.8611111
vt 0.7 0.9444444
vt 0.725 0.9444444
vt 0.6 1
vt 0.575 1
vt 0.625 1
vt 0.55 1
vt 0.75 0.9444444
vt 0.55 0.9166667
vt 0.55 0.8888889
vt 0.55 0.8611111
vt 0.05 0.5833334
vt 0.075 0.5833334
vt 0.075 0.6111111
vt 0.05 0.6111111
vt 0 0.5833334
vt 0.025 0.5833334
vt 0.025 0.6111111
vt 0 0.6111111
vt 0 0.5555556
vt 0.025 0.5555556
vt 0.225 0.6666666
vt 0.25 0.6666666
vt 0.25 0.6944444
vt 0.225 0.6944444
vt 0.275 0.6666666
vt 0.275 0.6944444
vt 0.475 0.1944444
vt 0.5 0.1944444
vt 0.5 0.2222222
vt 0.475 0.2222222
vt 0.05 0.6388889
vt 0.075 0.6388889
vt 0.075 0.6666666
vt 0.05 0.6666666
vt 0.675 0.3611111
vt 0.7 0.3611111
vt 0.7 0.3888889
vt 0.675 0.3888889
vt 0.675 0.1944444
vt 0.7 0.1944444
vt 0.7 0.2222222
vt 0.675 0.2222222

# Normal
vn 0 0 -1

# Mesh description
g Numbers-3-lake_mesh_0004

# Faces
f 1/1/1 2/2/1 3/3/1 4/4/1
f 5/2/1 6/5/1 7/6/1 8/3/1
f 9/2/1 10/5/1 11/6/1 12/3/1
f 13/7/1 14/8/1 15/9/1 16/10/1
f 17/11/1 18/12/1 19/5/1 20/2/1
f 21/11/1 22/12/1 23/5/1 24/2/1
f 25/11/1 26/12/1 27/5/1 28/2/1
f 29/11/1 30/12/1 31/5/1 32/2/1
f 33/11/1 34/12/1 35/5/1 36/2/1
f 37/11/1 38/12/1 39/5/1 40/2/1
f 41/11/1 42/12/1 43/5/1 44/2/1
f 45/11/1 46/12/1 47/5/1 48/2/1
f 49/11/1 50/12/1 51/5/1 52/2/1
f 53/11/1 54/12/1 55/5/1 56/2/1
f 57/11/1 58/12/1 59/5/1 60/2/1
f 61/11/1 62/12/1 63/5/1 64/2/1
f 65/11/1 66/12/1 67/5/1 68/2/1
f 69/11/1 70/12/1 71/5/1 72/2/1
f 73/11/1 74/12/1 75/5/1 76/2/1
f 77/11/1 78/12/1 79/5/1 80/2/1
f 81/11/1 82/12/1 83/5/1 84/2/1
f 85/11/1 86/12/1 87/5/1 88/2/1
f 89/11/1 90/12/1 91/5/1 92/2/1
f 93/11/1 94/12/1 95/5/1 96/2/1
f 97/11/1 98/12/1 99/5/1 100/2/1
f 101/11/1 102/12/1 103/5/1 104/2/1
f 105/8/1 106/13/1 107/14/1 108/9/1
f 109/2/1 110/5/1 111/6/1 112/3/1
f 113/2/1 114/5/1 115/6/1 116/3/1
f 117/5/1 118/15/1 119/16/1 120/6/1
f 121/1/1 122/2/1 123/3/1 124/4/1
f 125/2/1 126/5/1 127/6/1 128/3/1
f 129/2/1 130/5/1 131/6/1 132/3/1
f 133/5/1 134/15/1 135/16/1 136/6/1
f 137/17/1 138/18/1 139/12/1 140/11/1
f 141/17/1 142/18/1 143/12/1 144/11/1
f 145/17/1 146/18/1 147/12/1 148/11/1
f 149/17/1 150/18/1 151/12/1 152/11/1
f 153/17/1 154/18/1 155/12/1 156/11/1
f 157/17/1 158/18/1 159/12/1 160/11/1
f 161/17/1 162/18/1 163/12/1 164/11/1
f 165/17/1 166/18/1 167/12/1 168/11/1
f 169/17/1 170/18/1 171/12/1 172/11/1
f 173/17/1 174/18/1 175/12/1 176/11/1
f 177/17/1 178/18/1 179/12/1 180/11/1
f 181/17/1 182/18/1 183/12/1 184/11/1
f 185/17/1 186/18/1 187/12/1 188/11/1
f 189/17/1 190/18/1 191/12/1 192/11/1
f 193/17/1 194/18/1 195/12/1 196/11/1
f 197/17/1 198/18/1 199/12/1 200/11/1
f 201/17/1 202/18/1 203/12/1 204/11/1
f 205/17/1 206/18/1 207/12/1 208/11/1
f 209/17/1 210/18/1 211/12/1 212/11/1
f 213/17/1 214/18/1 215/12/1 216/11/1
f 217/17/1 218/18/1 219/12/1 220/11/1
f 221/18/1 222/19/1 223/20/1 224/12/1
f 225/1/1 226/2/1 227/3/1 228/4/1
f 229/2/1 230/5/1 231/6/1 232/3/1
f 233/2/1 234/5/1 235/6/1 236/3/1
f 237/5/1 238/15/1 239/16/1 240/6/1
f 241/1/1 242/2/1 243/3/1 244/4/1
f 245/2/1 246/5/1 247/6/1 248/3/1
f 249/2/1 250/5/1 251/6/1 252/3/1
f 253/5/1 254/15/1 255/16/1 256/6/1
f 257/21/1 258/22/1 259/18/1 260/17/1
f 261/21/1 262/22/1 263/18/1 264/17/1
f 265/21/1 266/22/1 267/18/1 268/17/1
f 269/21/1 270/22/1 271/18/1 272/17/1
f 273/21/1 274/22/1 275/18/1 276/17/1
f 277/21/1 278/22/1 279/18/1 280/17/1
f 281/21/1 282/22/1 283/18/1 284/17/1
f 285/21/1 286/22/1 287/18/1 288/17/1
f 289/21/1 290/22/1 291/18/1 292/17/1
f 293/21/1 294/22/1 295/18/1 296/17/1
f 297/21/1 298/22/1 299/18/1 300/17/1
f 301/21/1 302/22/1 303/18/1 304/17/1
f 305/21/1 306/22/1 307/18/1 308/17/1
f 309/21/1 310/22/1 311/18/1 312/17/1
f 313/21/1 314/22/1 315/18/1 316/17/1
f 317/21/1 318/22/1 319/18/1 320/17/1
f 321/21/1 322/22/1 323/18/1 324/17/1
f 325/21/1 326/22/1 327/18/1 328/17/1
f 329/21/1 330/22/1 331/18/1 332/17/1
f 333/21/1 334/22/1 335/18/1 336/17/1
f 337/21/1 338/22/1 339/18/1 340/17/1
f 341/22/1 342/23/1 343/19/1 344/18/1
f 345/1/1 346/2/1 347/3/1 348/4/1
f 349/2/1 350/5/1 351/6/1 352/3/1
f 353/2/1 354/5/1 355/6/1 356/3/1
f 357/5/1 358/15/1 359/16/1 360/6/1
f 361/1/1 362/2/1 363/3/1 364/4/1
f 365/2/1 366/5/1 367/6/1 368/3/1
f 369/2/1 370/5/1 371/6/1 372/3/1
f 373/5/1 374/15/1 375/16/1 376/6/1
f 377/1/1 378/2/1 379/3/1 380/4/1
f 381/2/1 382/5/1 383/6/1 384/3/1
f 385/2/1 386/5/1 387/6/1 388/3/1
f 389/5/1 390/15/1 391/16/1 392/6/1
f 393/1/1 394/2/1 395/3/1 396/4/1
f 397/2/1 398/5/1 399/6/1 400/3/1
f 401/2/1 402/5/1 403/6/1 404/3/1
f 405/5/1 406/15/1 407/16/1 408/6/1
f 409/1/1 410/2/1 411/3/1 412/4/1
f 413/2/1 414/5/1 415/6/1 416/3/1
f 417/2/1 418/5/1 419/6/1 420/3/1
f 421/5/1 422/15/1 423/16/1 424/6/1
f 425/1/1 426/2/1 427/3/1 428/4/1
f 429/2/1 430/5/1 431/6/1 432/3/1
f 433/2/1 434/5/1 435/6/1 436/3/1
f 437/5/1 438/15/1 439/16/1 440/6/1
f 441/1/1 442/2/1 443/3/1 444/4/1
f 445/2/1 446/5/1 447/6/1 448/3/1
f 449/2/1 450/5/1 451/6/1 452/3/1
f 453/5/1 454/15/1 455/16/1 456/6/1
f 457/1/1 458/2/1 459/3/1 460/4/1
f 461/2/1 462/5/1 463/6/1 464/3/1
f 465/2/1 466/5/1 467/6/1 468/3/1
f 469/24/1 470/25/1 471/8/1 472/7/1
f 473/3/1 474/6/1 475/26/1 476/27/1
f 477/3/1 478/6/1 479/26/1 480/27/1
f 481/3/1 482/6/1 483/26/1 484/27/1
f 485/3/1 486/6/1 487/26/1 488/27/1
f 489/3/1 490/6/1 491/26/1 492/27/1
f 493/3/1 494/6/1 495/26/1 496/27/1
f 497/3/1 498/6/1 499/26/1 500/27/1
f 501/3/1 502/6/1 503/26/1 504/27/1
f 505/3/1 506/6/1 507/26/1 508/27/1
f 509/6/1 510/16/1 511/28/1 512/26/1
f 513/4/1 514/3/1 515/27/1 516/29/1
f 517/3/1 518/6/1 519/26/1 520/27/1
f 521/3/1 522/6/1 523/26/1 524/27/1
f 525/3/1 526/6/1 527/26/1 528/27/1
f 529/3/1 530/6/1 531/26/1 532/27/1
f 533/3/1 534/6/1 535/26/1 536/27/1
f 537/3/1 538/6/1 539/26/1 540/27/1
f 541/3/1 542/6/1 543/26/1 544/27/1
f 545/3/1 546/6/1 547/26/1 548/27/1
f 549/25/1 550/30/1 551/13/1 552/8/1
f 553/2/1 554/5/1 555/6/1 556/3/1
f 557/2/1 558/5/1 559/6/1 560/3/1
f 561/5/1 562/15/1 563/16/1 564/6/1
f 565/1/1 566/2/1 567/3/1 568/4/1
f 569/2/1 570/5/1 571/6/1 572/3/1
f 573/2/1 574/5/1 575/6/1 576/3/1
f 577/2/1 578/5/1 579/6/1 580/3/1
f 581/2/1 582/5/1 583/6/1 584/3/1
f 585/2/1 586/5/1 587/6/1 588/3/1
f 589/2/1 590/5/1 591/6/1 592/3/1
f 593/2/1 594/5/1 595/6/1 596/3/1
f 597/2/1 598/5/1 599/6/1 600/3/1
f 601/2/1 602/5/1 603/6/1 604/3/1
f 605/2/1 606/5/1 607/6/1 608/3/1
f 609/2/1 610/5/1 611/6/1 612/3/1
f 613/2/1 614/5/1 615/6/1 616/3/1
f 617/5/1 618/15/1 619/16/1 620/6/1
f 621/1/1 622/2/1 623/3/1 624/4/1
f 625/2/1 626/5/1 627/6/1 628/3/1
f 629/2/1 630/5/1 631/6/1 632/3/1
f 633/2/1 634/5/1 635/6/1 636/3/1
f 637/2/1 638/5/1 639/6/1 640/3/1
f 641/2/1 642/5/1 643/6/1 644/3/1
f 645/2/1 646/5/1 647/6/1 648/3/1
f 649/2/1 650/5/1 651/6/1 652/3/1
f 653/2/1 654/5/1 655/6/1 656/3/1
f 657/2/1 658/5/1 659/6/1 660/3/1
f 661/2/1 662/5/1 663/6/1 664/3/1
f 665/2/1 666/5/1 667/6/1 668/3/1
f 669/5/1 670/15/1 671/16/1 672/6/1
f 673/31/1 674/11/1 675/2/1 676/1/1
f 677/11/1 678/12/1 679/5/1 680/2/1
f 681/11/1 682/12/1 683/5/1 684/2/1
f 685/11/1 686/12/1 687/5/1 688/2/1
f 689/11/1 690/12/1 691/5/1 692/2/1
f 693/11/1 694/12/1 695/5/1 696/2/1
f 697/11/1 698/12/1 699/5/1 700/2/1
f 701/11/1 702/12/1 703/5/1 704/2/1
f 705/11/1 706/12/1 707/5/1 708/2/1
f 709/11/1 710/12/1 711/5/1 712/2/1
f 713/11/1 714/12/1 715/5/1 716/2/1
f 717/11/1 718/12/1 719/5/1 720/2/1
f 721/11/1 722/12/1 723/5/1 724/2/1
f 725/12/1 726/20/1 727/15/1 728/5/1
f 729/31/1 730/11/1 731/2/1 732/1/1
f 733/11/1 734/12/1 735/5/1 736/2/1
f 737/11/1 738/12/1 739/5/1 740/2/1
f 741/11/1 742/12/1 743/5/1 744/2/1
f 745/11/1 746/12/1 747/5/1 748/2/1
f 749/11/1 750/12/1 751/5/1 752/2/1
f 753/11/1 754/12/1 755/5/1 756/2/1
f 757/11/1 758/12/1 759/5/1 760/2/1
f 761/11/1 762/12/1 763/5/1 764/2/1
f 765/11/1 766/12/1 767/5/1 768/2/1
f 769/11/1 770/12/1 771/5/1 772/2/1
f 773/11/1 774/12/1 775/5/1 776/2/1
f 777/12/1 778/20/1 779/15/1 780/5/1
f 781/32/1 782/17/1 783/11/1 784/31/1
f 785/17/1 786/18/1 787/12/1 788/11/1
f 789/17/1 790/18/1 791/12/1 792/11/1
f 793/17/1 794/18/1 795/12/1 796/11/1
f 797/17/1 798/18/1 799/12/1 800/11/1
f 801/17/1 802/18/1 803/12/1 804/11/1
f 805/17/1 806/18/1 807/12/1 808/11/1
f 809/17/1 810/18/1 811/12/1 812/11/1
f 813/17/1 814/18/1 815/12/1 816/11/1
f 817/17/1 818/18/1 819/12/1 820/11/1
f 821/17/1 822/18/1 823/12/1 824/11/1
f 825/17/1 826/18/1 827/12/1 828/11/1
f 829/17/1 830/18/1 831/12/1 832/11/1
f 833/18/1 834/19/1 835/20/1 836/12/1
f 837/32/1 838/17/1 839/11/1 840/31/1
f 841/17/1 842/18/1 843/12/1 844/11/1
f 845/17/1 846/18/1 847/12/1 848/11/1
f 849/17/1 850/18/1 851/12/1 852/11/1
f 853/17/1 854/18/1 855/12/1 856/11/1
f 857/17/1 858/18/1 859/12/1 860/11/1
f 861/17/1 862/18/1 863/12/1 864/11/1
f 865/17/1 866/18/1 867/12/1 868/11/1
f 869/17/1 870/18/1 871/12/1 872/11/1
f 873/17/1 874/18/1 875/12/1 876/11/1
f 877/17/1 878/18/1 879/12/1 880/11/1
f 881/17/1 882/18/1 883/12/1 884/11/1
f 885/18/1 886/19/1 887/20/1 888/12/1
f 889/33/1 890/21/1 891/17/1 892/32/1
f 893/21/1 894/22/1 895/18/1 896/17/1
f 897/21/1 898/22/1 899/18/1 900/17/1
f 901/21/1 902/22/1 903/18/1 904/17/1
f 905/21/1 906/22/1 907/18/1 908/17/1
f 909/21/1 910/22/1 911/18/1 912/17/1
f 913/21/1 914/22/1 915/18/1 916/17/1
f 917/21/1 918/22/1 919/18/1 920/17/1
f 921/21/1 922/22/1 923/18/1 924/17/1
f 925/21/1 926/22/1 927/18/1 928/17/1
f 929/21/1 930/22/1 931/18/1 932/17/1
f 933/21/1 934/22/1 935/18/1 936/17/1
f 937/21/1 938/22/1 939/18/1 940/17/1
f 941/22/1 942/23/1 943/19/1 944/18/1
f 945/33/1 946/21/1 947/17/1 948/32/1
f 949/21/1 950/22/1 951/18/1 952/17/1
f 953/21/1 954/22/1 955/18/1 956/17/1
f 957/21/1 958/22/1 959/18/1 960/17/1
f 961/21/1 962/22/1 963/18/1 964/17/1
f 965/21/1 966/22/1 967/18/1 968/17/1
f 969/21/1 970/22/1 971/18/1 972/17/1
f 973/21/1 974/22/1 975/18/1 976/17/1
f 977/21/1 978/22/1 979/18/1 980/17/1
f 981/21/1 982/22/1 983/18/1 984/17/1
f 985/21/1 986/22/1 987/18/1 988/17/1
f 989/21/1 990/22/1 991/18/1 992/17/1
f 993/22/1 994/23/1 995/19/1 996/18/1
f 997/34/1 998/35/1 999/36/1 1000/37/1
f 1001/38/1 1002/39/1 1003/40/1 1004/41/1
f 1005/38/1 1006/39/1 1007/40/1 1008/41/1
f 1009/42/1 1010/43/1 1011/39/1 1012/38/1
f 1013/42/1 1014/43/1 1015/39/1 1016/38/1
f 1017/44/1 1018/45/1 1019/46/1 1020/47/1
f 1021/45/1 1022/48/1 1023/49/1 1024/46/1
f 1025/44/1 1026/45/1 1027/46/1 1028/47/1
f 1029/45/1 1030/48/1 1031/49/1 1032/46/1
f 1033/38/1 1034/39/1 1035/40/1 1036/41/1
f 1037/38/1 1038/39/1 1039/40/1 1040/41/1
f 1041/44/1 1042/45/1 1043/46/1 1044/47/1
f 1045/45/1 1046/48/1 1047/49/1 1048/46/1
f 1049/42/1 1050/43/1 1051/39/1 1052/38/1
f 1053/42/1 1054/43/1 1055/39/1 1056/38/1
f 1057/38/1 1058/39/1 1059/40/1 1060/41/1
f 1061/38/1 1062/39/1 1063/40/1 1064/41/1
f 1065/50/1 1066/51/1 1067/52/1 1068/53/1
f 1069/42/1 1070/43/1 1071/39/1 1072/38/1
f 1073/42/1 1074/43/1 1075/39/1 1076/38/1
f 1077/54/1 1078/55/1 1079/56/1 1080/57/1
f 1081/44/1 1082/45/1 1083/46/1 1084/47/1
f 1085/45/1 1086/48/1 1087/49/1 1088/46/1
f 1089/38/1 1090/39/1 1091/40/1 1092/41/1
f 1093/42/1 1094/43/1 1095/39/1 1096/38/1
f 1097/38/1 1098/39/1 1099/40/1 1100/41/1
f 1101/42/1 1102/43/1 1103/39/1 1104/38/1
f 1105/38/1 1106/39/1 1107/40/1 1108/41/1
f 1109/58/1 1110/59/1 1111/60/1 1112/61/1
f 1113/58/1 1114/59/1 1115/60/1 1116/61/1
f 1117/42/1 1118/43/1 1119/39/1 1120/38/1
f 1121/62/1 1122/63/1 1123/64/1 1124/65/1

