# Tiled2Unity generated file. Do not modify by hand.
# Wavefront file for 'Numbers-2-orchard_mesh_0003.obj'

# Vertices (Count = 308)
v 0 -1 0
v -1 -1 0
v -1 0 0
v 0 0 0
v -11 -1 0
v -12 -1 0
v -12 0 0
v -11 0 0
v -19 -1 0
v -20 -1 0
v -20 0 0
v -19 0 0
v 0 -2 0
v -1 -2 0
v -1 -1 0
v 0 -1 0
v -4 -2 0
v -5 -2 0
v -5 -1 0
v -4 -1 0
v -5 -2 0
v -6 -2 0
v -6 -1 0
v -5 -1 0
v -6 -2 0
v -7 -2 0
v -7 -1 0
v -6 -1 0
v -7 -2 0
v -8 -2 0
v -8 -1 0
v -7 -1 0
v -8 -2 0
v -9 -2 0
v -9 -1 0
v -8 -1 0
v -11 -2 0
v -12 -2 0
v -12 -1 0
v -11 -1 0
v -19 -2 0
v -20 -2 0
v -20 -1 0
v -19 -1 0
v -4 -3 0
v -5 -3 0
v -5 -2 0
v -4 -2 0
v -5 -3 0
v -6 -3 0
v -6 -2 0
v -5 -2 0
v -6 -3 0
v -7 -3 0
v -7 -2 0
v -6 -2 0
v -7 -3 0
v -8 -3 0
v -8 -2 0
v -7 -2 0
v -8 -3 0
v -9 -3 0
v -9 -2 0
v -8 -2 0
v -10 -3 0
v -11 -3 0
v -11 -2 0
v -10 -2 0
v -11 -3 0
v -12 -3 0
v -12 -2 0
v -11 -2 0
v -19 -3 0
v -20 -3 0
v -20 -2 0
v -19 -2 0
v -4 -4 0
v -5 -4 0
v -5 -3 0
v -4 -3 0
v -5 -4 0
v -6 -4 0
v -6 -3 0
v -5 -3 0
v -6 -4 0
v -7 -4 0
v -7 -3 0
v -6 -3 0
v -7 -4 0
v -8 -4 0
v -8 -3 0
v -7 -3 0
v -8 -4 0
v -9 -4 0
v -9 -3 0
v -8 -3 0
v -11 -4 0
v -12 -4 0
v -12 -3 0
v -11 -3 0
v -19 -4 0
v -20 -4 0
v -20 -3 0
v -19 -3 0
v -4 -5 0
v -5 -5 0
v -5 -4 0
v -4 -4 0
v -5 -5 0
v -6 -5 0
v -6 -4 0
v -5 -4 0
v -6 -5 0
v -7 -5 0
v -7 -4 0
v -6 -4 0
v -7 -5 0
v -8 -5 0
v -8 -4 0
v -7 -4 0
v -8 -5 0
v -9 -5 0
v -9 -4 0
v -8 -4 0
v -10 -5 0
v -11 -5 0
v -11 -4 0
v -10 -4 0
v -11 -5 0
v -12 -5 0
v -12 -4 0
v -11 -4 0
v -19 -5 0
v -20 -5 0
v -20 -4 0
v -19 -4 0
v -11 -6 0
v -12 -6 0
v -12 -5 0
v -11 -5 0
v -19 -6 0
v -20 -6 0
v -20 -5 0
v -19 -5 0
v -10 -7 0
v -11 -7 0
v -11 -6 0
v -10 -6 0
v -11 -7 0
v -12 -7 0
v -12 -6 0
v -11 -6 0
v -19 -7 0
v -20 -7 0
v -20 -6 0
v -19 -6 0
v -11 -8 0
v -12 -8 0
v -12 -7 0
v -11 -7 0
v -19 -8 0
v -20 -8 0
v -20 -7 0
v -19 -7 0
v -11 -13 0
v -12 -13 0
v -12 -12 0
v -11 -12 0
v -19 -13 0
v -20 -13 0
v -20 -12 0
v -19 -12 0
v -11 -14 0
v -12 -14 0
v -12 -13 0
v -11 -13 0
v -19 -14 0
v -20 -14 0
v -20 -13 0
v -19 -13 0
v -9 -15 0
v -10 -15 0
v -10 -14 0
v -9 -14 0
v -10 -15 0
v -11 -15 0
v -11 -14 0
v -10 -14 0
v -11 -15 0
v -12 -15 0
v -12 -14 0
v -11 -14 0
v -19 -15 0
v -20 -15 0
v -20 -14 0
v -19 -14 0
v -11 -16 0
v -12 -16 0
v -12 -15 0
v -11 -15 0
v -19 -16 0
v -20 -16 0
v -20 -15 0
v -19 -15 0
v -9 -17 0
v -10 -17 0
v -10 -16 0
v -9 -16 0
v -10 -17 0
v -11 -17 0
v -11 -16 0
v -10 -16 0
v -11 -17 0
v -12 -17 0
v -12 -16 0
v -11 -16 0
v -19 -17 0
v -20 -17 0
v -20 -16 0
v -19 -16 0
v 0 -18 0
v -1 -18 0
v -1 -17 0
v 0 -17 0
v -11 -18 0
v -12 -18 0
v -12 -17 0
v -11 -17 0
v -19 -18 0
v -20 -18 0
v -20 -17 0
v -19 -17 0
v 0 -19 0
v -1 -19 0
v -1 -18 0
v 0 -18 0
v -7 -19 0
v -8 -19 0
v -8 -18 0
v -7 -18 0
v -8 -19 0
v -9 -19 0
v -9 -18 0
v -8 -18 0
v -9 -19 0
v -10 -19 0
v -10 -18 0
v -9 -18 0
v -11 -19 0
v -12 -19 0
v -12 -18 0
v -11 -18 0
v -19 -19 0
v -20 -19 0
v -20 -18 0
v -19 -18 0
v 0 -20 0
v -1 -20 0
v -1 -19 0
v 0 -19 0
v -1 -20 0
v -2 -20 0
v -2 -19 0
v -1 -19 0
v -2 -20 0
v -3 -20 0
v -3 -19 0
v -2 -19 0
v -3 -20 0
v -4 -20 0
v -4 -19 0
v -3 -19 0
v -4 -20 0
v -5 -20 0
v -5 -19 0
v -4 -19 0
v -5 -20 0
v -6 -20 0
v -6 -19 0
v -5 -19 0
v -6 -20 0
v -7 -20 0
v -7 -19 0
v -6 -19 0
v -7 -20 0
v -8 -20 0
v -8 -19 0
v -7 -19 0
v -8 -20 0
v -9 -20 0
v -9 -19 0
v -8 -19 0
v -9 -20 0
v -10 -20 0
v -10 -19 0
v -9 -19 0
v -10 -20 0
v -11 -20 0
v -11 -19 0
v -10 -19 0
v -11 -20 0
v -12 -20 0
v -12 -19 0
v -11 -19 0
v -19 -20 0
v -20 -20 0
v -20 -19 0
v -19 -19 0

# Texture cooridinates (Count = 70)
vt 0.025 0.6111111
vt 0.05 0.6111111
vt 0.05 0.6388889
vt 0.025 0.6388889
vt 0.05 0.5
vt 0.075 0.5
vt 0.075 0.5277778
vt 0.05 0.5277778
vt 0.1 0.5
vt 0.1 0.5277778
vt 0.025 0.5833334
vt 0.05 0.5833334
vt 0.15 0.9722222
vt 0.175 0.9722222
vt 0.175 1
vt 0.15 1
vt 0.2 0.9722222
vt 0.2 1
vt 0.225 0.9722222
vt 0.225 1
vt 0.25 0.9722222
vt 0.25 1
vt 0.275 0.9722222
vt 0.275 1
vt 0.1 0.4722222
vt 0.125 0.4722222
vt 0.125 0.5
vt 0.15 0.9444444
vt 0.175 0.9444444
vt 0.2 0.9444444
vt 0.225 0.9444444
vt 0.25 0.9444444
vt 0.275 0.9444444
vt 0.65 0.4166667
vt 0.675 0.4166667
vt 0.675 0.4444444
vt 0.65 0.4444444
vt 0.15 0.9166667
vt 0.175 0.9166667
vt 0.2 0.9166667
vt 0.225 0.9166667
vt 0.25 0.9166667
vt 0.275 0.9166667
vt 0.15 0.8888889
vt 0.175 0.8888889
vt 0.2 0.8888889
vt 0.225 0.8888889
vt 0.25 0.8888889
vt 0.275 0.8888889
vt 0.7 0.4166667
vt 0.725 0.4166667
vt 0.725 0.4444444
vt 0.7 0.4444444
vt 0 0.5833334
vt 0 0.6111111
vt 0.075 0.8333333
vt 0.1 0.8333333
vt 0.1 0.8611111
vt 0.075 0.8611111
vt 0.125 0.8333333
vt 0.125 0.8611111
vt 0.15 0.8333333
vt 0.15 0.8611111
vt 0.025 0.5555556
vt 0.05 0.5555556
vt 0.075 0.5555556
vt 0.075 0.5833334
vt 0.025 0.5277778
vt 0.05 0.4722222
vt 0.075 0.4722222

# Normal
vn 0 0 -1

# Mesh description
g Numbers-2-orchard_mesh_0003

# Faces
f 1/1/1 2/2/1 3/3/1 4/4/1
f 5/5/1 6/6/1 7/7/1 8/8/1
f 9/6/1 10/9/1 11/10/1 12/7/1
f 13/11/1 14/12/1 15/2/1 16/1/1
f 17/13/1 18/14/1 19/15/1 20/16/1
f 21/14/1 22/17/1 23/18/1 24/15/1
f 25/17/1 26/19/1 27/20/1 28/18/1
f 29/19/1 30/21/1 31/22/1 32/20/1
f 33/21/1 34/23/1 35/24/1 36/22/1
f 37/25/1 38/26/1 39/27/1 40/9/1
f 41/25/1 42/26/1 43/27/1 44/9/1
f 45/28/1 46/29/1 47/14/1 48/13/1
f 49/29/1 50/30/1 51/17/1 52/14/1
f 53/30/1 54/31/1 55/19/1 56/17/1
f 57/31/1 58/32/1 59/21/1 60/19/1
f 61/32/1 62/33/1 63/23/1 64/21/1
f 65/34/1 66/35/1 67/36/1 68/37/1
f 69/25/1 70/26/1 71/27/1 72/9/1
f 73/25/1 74/26/1 75/27/1 76/9/1
f 77/38/1 78/39/1 79/29/1 80/28/1
f 81/39/1 82/40/1 83/30/1 84/29/1
f 85/40/1 86/41/1 87/31/1 88/30/1
f 89/41/1 90/42/1 91/32/1 92/31/1
f 93/42/1 94/43/1 95/33/1 96/32/1
f 97/25/1 98/26/1 99/27/1 100/9/1
f 101/25/1 102/26/1 103/27/1 104/9/1
f 105/44/1 106/45/1 107/39/1 108/38/1
f 109/45/1 110/46/1 111/40/1 112/39/1
f 113/46/1 114/47/1 115/41/1 116/40/1
f 117/47/1 118/48/1 119/42/1 120/41/1
f 121/48/1 122/49/1 123/43/1 124/42/1
f 125/34/1 126/35/1 127/36/1 128/37/1
f 129/25/1 130/26/1 131/27/1 132/9/1
f 133/25/1 134/26/1 135/27/1 136/9/1
f 137/25/1 138/26/1 139/27/1 140/9/1
f 141/25/1 142/26/1 143/27/1 144/9/1
f 145/34/1 146/35/1 147/36/1 148/37/1
f 149/25/1 150/26/1 151/27/1 152/9/1
f 153/25/1 154/26/1 155/27/1 156/9/1
f 157/25/1 158/26/1 159/27/1 160/9/1
f 161/25/1 162/26/1 163/27/1 164/9/1
f 165/25/1 166/26/1 167/27/1 168/9/1
f 169/25/1 170/26/1 171/27/1 172/9/1
f 173/25/1 174/26/1 175/27/1 176/9/1
f 177/25/1 178/26/1 179/27/1 180/9/1
f 181/50/1 182/51/1 183/52/1 184/53/1
f 185/50/1 186/51/1 187/52/1 188/53/1
f 189/25/1 190/26/1 191/27/1 192/9/1
f 193/25/1 194/26/1 195/27/1 196/9/1
f 197/25/1 198/26/1 199/27/1 200/9/1
f 201/25/1 202/26/1 203/27/1 204/9/1
f 205/50/1 206/51/1 207/52/1 208/53/1
f 209/50/1 210/51/1 211/52/1 212/53/1
f 213/25/1 214/26/1 215/27/1 216/9/1
f 217/25/1 218/26/1 219/27/1 220/9/1
f 221/54/1 222/11/1 223/1/1 224/55/1
f 225/25/1 226/26/1 227/27/1 228/9/1
f 229/25/1 230/26/1 231/27/1 232/9/1
f 233/11/1 234/12/1 235/2/1 236/1/1
f 237/56/1 238/57/1 239/58/1 240/59/1
f 241/57/1 242/60/1 243/61/1 244/58/1
f 245/60/1 246/62/1 247/63/1 248/61/1
f 249/25/1 250/26/1 251/27/1 252/9/1
f 253/25/1 254/26/1 255/27/1 256/9/1
f 257/64/1 258/65/1 259/12/1 260/11/1
f 261/65/1 262/66/1 263/67/1 264/12/1
f 265/65/1 266/66/1 267/67/1 268/12/1
f 269/65/1 270/66/1 271/67/1 272/12/1
f 273/68/1 274/8/1 275/65/1 276/64/1
f 277/56/1 278/57/1 279/58/1 280/59/1
f 281/57/1 282/60/1 283/61/1 284/58/1
f 285/60/1 286/62/1 287/63/1 288/61/1
f 289/56/1 290/57/1 291/58/1 292/59/1
f 293/57/1 294/60/1 295/61/1 296/58/1
f 297/60/1 298/62/1 299/63/1 300/61/1
f 301/69/1 302/70/1 303/6/1 304/5/1
f 305/70/1 306/25/1 307/9/1 308/6/1

