# Tiled2Unity generated file. Do not modify by hand.
# Wavefront file for 'Numbers-2-orchard_mesh_0002.obj'

# Vertices (Count = 1024)
v -11 -1 0
v -12 -1 0
v -12 0 0
v -11 0 0
v -12 -1 0
v -13 -1 0
v -13 0 0
v -12 0 0
v -13 -1 0
v -14 -1 0
v -14 0 0
v -13 0 0
v -14 -1 0
v -15 -1 0
v -15 0 0
v -14 0 0
v -15 -1 0
v -16 -1 0
v -16 0 0
v -15 0 0
v -16 -1 0
v -17 -1 0
v -17 0 0
v -16 0 0
v -17 -1 0
v -18 -1 0
v -18 0 0
v -17 0 0
v -18 -1 0
v -19 -1 0
v -19 0 0
v -18 0 0
v -19 -1 0
v -20 -1 0
v -20 0 0
v -19 0 0
v -11 -2 0
v -12 -2 0
v -12 -1 0
v -11 -1 0
v -12 -2 0
v -13 -2 0
v -13 -1 0
v -12 -1 0
v -13 -2 0
v -14 -2 0
v -14 -1 0
v -13 -1 0
v -14 -2 0
v -15 -2 0
v -15 -1 0
v -14 -1 0
v -15 -2 0
v -16 -2 0
v -16 -1 0
v -15 -1 0
v -16 -2 0
v -17 -2 0
v -17 -1 0
v -16 -1 0
v -17 -2 0
v -18 -2 0
v -18 -1 0
v -17 -1 0
v -18 -2 0
v -19 -2 0
v -19 -1 0
v -18 -1 0
v -19 -2 0
v -20 -2 0
v -20 -1 0
v -19 -1 0
v 0 -3 0
v -1 -3 0
v -1 -2 0
v 0 -2 0
v -1 -3 0
v -2 -3 0
v -2 -2 0
v -1 -2 0
v -11 -3 0
v -12 -3 0
v -12 -2 0
v -11 -2 0
v -12 -3 0
v -13 -3 0
v -13 -2 0
v -12 -2 0
v -13 -3 0
v -14 -3 0
v -14 -2 0
v -13 -2 0
v -14 -3 0
v -15 -3 0
v -15 -2 0
v -14 -2 0
v -15 -3 0
v -16 -3 0
v -16 -2 0
v -15 -2 0
v -16 -3 0
v -17 -3 0
v -17 -2 0
v -16 -2 0
v -17 -3 0
v -18 -3 0
v -18 -2 0
v -17 -2 0
v -18 -3 0
v -19 -3 0
v -19 -2 0
v -18 -2 0
v -19 -3 0
v -20 -3 0
v -20 -2 0
v -19 -2 0
v 0 -4 0
v -1 -4 0
v -1 -3 0
v 0 -3 0
v -1 -4 0
v -2 -4 0
v -2 -3 0
v -1 -3 0
v -2 -4 0
v -3 -4 0
v -3 -3 0
v -2 -3 0
v -11 -4 0
v -12 -4 0
v -12 -3 0
v -11 -3 0
v -12 -4 0
v -13 -4 0
v -13 -3 0
v -12 -3 0
v -13 -4 0
v -14 -4 0
v -14 -3 0
v -13 -3 0
v -14 -4 0
v -15 -4 0
v -15 -3 0
v -14 -3 0
v -15 -4 0
v -16 -4 0
v -16 -3 0
v -15 -3 0
v -16 -4 0
v -17 -4 0
v -17 -3 0
v -16 -3 0
v -17 -4 0
v -18 -4 0
v -18 -3 0
v -17 -3 0
v -18 -4 0
v -19 -4 0
v -19 -3 0
v -18 -3 0
v -19 -4 0
v -20 -4 0
v -20 -3 0
v -19 -3 0
v 0 -5 0
v -1 -5 0
v -1 -4 0
v 0 -4 0
v -1 -5 0
v -2 -5 0
v -2 -4 0
v -1 -4 0
v -2 -5 0
v -3 -5 0
v -3 -4 0
v -2 -4 0
v -11 -5 0
v -12 -5 0
v -12 -4 0
v -11 -4 0
v -12 -5 0
v -13 -5 0
v -13 -4 0
v -12 -4 0
v -13 -5 0
v -14 -5 0
v -14 -4 0
v -13 -4 0
v -14 -5 0
v -15 -5 0
v -15 -4 0
v -14 -4 0
v -15 -5 0
v -16 -5 0
v -16 -4 0
v -15 -4 0
v -16 -5 0
v -17 -5 0
v -17 -4 0
v -16 -4 0
v -17 -5 0
v -18 -5 0
v -18 -4 0
v -17 -4 0
v -18 -5 0
v -19 -5 0
v -19 -4 0
v -18 -4 0
v -19 -5 0
v -20 -5 0
v -20 -4 0
v -19 -4 0
v 0 -6 0
v -1 -6 0
v -1 -5 0
v 0 -5 0
v -1 -6 0
v -2 -6 0
v -2 -5 0
v -1 -5 0
v -2 -6 0
v -3 -6 0
v -3 -5 0
v -2 -5 0
v -3 -6 0
v -4 -6 0
v -4 -5 0
v -3 -5 0
v -11 -6 0
v -12 -6 0
v -12 -5 0
v -11 -5 0
v -12 -6 0
v -13 -6 0
v -13 -5 0
v -12 -5 0
v -13 -6 0
v -14 -6 0
v -14 -5 0
v -13 -5 0
v -14 -6 0
v -15 -6 0
v -15 -5 0
v -14 -5 0
v -15 -6 0
v -16 -6 0
v -16 -5 0
v -15 -5 0
v -16 -6 0
v -17 -6 0
v -17 -5 0
v -16 -5 0
v -17 -6 0
v -18 -6 0
v -18 -5 0
v -17 -5 0
v -18 -6 0
v -19 -6 0
v -19 -5 0
v -18 -5 0
v -19 -6 0
v -20 -6 0
v -20 -5 0
v -19 -5 0
v 0 -7 0
v -1 -7 0
v -1 -6 0
v 0 -6 0
v -1 -7 0
v -2 -7 0
v -2 -6 0
v -1 -6 0
v -2 -7 0
v -3 -7 0
v -3 -6 0
v -2 -6 0
v -3 -7 0
v -4 -7 0
v -4 -6 0
v -3 -6 0
v -5 -7 0
v -6 -7 0
v -6 -6 0
v -5 -6 0
v -6 -7 0
v -7 -7 0
v -7 -6 0
v -6 -6 0
v -7 -7 0
v -8 -7 0
v -8 -6 0
v -7 -6 0
v -11 -7 0
v -12 -7 0
v -12 -6 0
v -11 -6 0
v -12 -7 0
v -13 -7 0
v -13 -6 0
v -12 -6 0
v -13 -7 0
v -14 -7 0
v -14 -6 0
v -13 -6 0
v -14 -7 0
v -15 -7 0
v -15 -6 0
v -14 -6 0
v -15 -7 0
v -16 -7 0
v -16 -6 0
v -15 -6 0
v -16 -7 0
v -17 -7 0
v -17 -6 0
v -16 -6 0
v -17 -7 0
v -18 -7 0
v -18 -6 0
v -17 -6 0
v -18 -7 0
v -19 -7 0
v -19 -6 0
v -18 -6 0
v -19 -7 0
v -20 -7 0
v -20 -6 0
v -19 -6 0
v 0 -8 0
v -1 -8 0
v -1 -7 0
v 0 -7 0
v -1 -8 0
v -2 -8 0
v -2 -7 0
v -1 -7 0
v -2 -8 0
v -3 -8 0
v -3 -7 0
v -2 -7 0
v -3 -8 0
v -4 -8 0
v -4 -7 0
v -3 -7 0
v -5 -8 0
v -6 -8 0
v -6 -7 0
v -5 -7 0
v -6 -8 0
v -7 -8 0
v -7 -7 0
v -6 -7 0
v -7 -8 0
v -8 -8 0
v -8 -7 0
v -7 -7 0
v -11 -8 0
v -12 -8 0
v -12 -7 0
v -11 -7 0
v -12 -8 0
v -13 -8 0
v -13 -7 0
v -12 -7 0
v -13 -8 0
v -14 -8 0
v -14 -7 0
v -13 -7 0
v -14 -8 0
v -15 -8 0
v -15 -7 0
v -14 -7 0
v -15 -8 0
v -16 -8 0
v -16 -7 0
v -15 -7 0
v -16 -8 0
v -17 -8 0
v -17 -7 0
v -16 -7 0
v -17 -8 0
v -18 -8 0
v -18 -7 0
v -17 -7 0
v -18 -8 0
v -19 -8 0
v -19 -7 0
v -18 -7 0
v -19 -8 0
v -20 -8 0
v -20 -7 0
v -19 -7 0
v 0 -9 0
v -1 -9 0
v -1 -8 0
v 0 -8 0
v -1 -9 0
v -2 -9 0
v -2 -8 0
v -1 -8 0
v -2 -9 0
v -3 -9 0
v -3 -8 0
v -2 -8 0
v -3 -9 0
v -4 -9 0
v -4 -8 0
v -3 -8 0
v -4 -9 0
v -5 -9 0
v -5 -8 0
v -4 -8 0
v -11 -9 0
v -12 -9 0
v -12 -8 0
v -11 -8 0
v -12 -9 0
v -13 -9 0
v -13 -8 0
v -12 -8 0
v -13 -9 0
v -14 -9 0
v -14 -8 0
v -13 -8 0
v -14 -9 0
v -15 -9 0
v -15 -8 0
v -14 -8 0
v -15 -9 0
v -16 -9 0
v -16 -8 0
v -15 -8 0
v -16 -9 0
v -17 -9 0
v -17 -8 0
v -16 -8 0
v -17 -9 0
v -18 -9 0
v -18 -8 0
v -17 -8 0
v -18 -9 0
v -19 -9 0
v -19 -8 0
v -18 -8 0
v -19 -9 0
v -20 -9 0
v -20 -8 0
v -19 -8 0
v 0 -10 0
v -1 -10 0
v -1 -9 0
v 0 -9 0
v -1 -10 0
v -2 -10 0
v -2 -9 0
v -1 -9 0
v -2 -10 0
v -3 -10 0
v -3 -9 0
v -2 -9 0
v -3 -10 0
v -4 -10 0
v -4 -9 0
v -3 -9 0
v -4 -10 0
v -5 -10 0
v -5 -9 0
v -4 -9 0
v -5 -10 0
v -6 -10 0
v -6 -9 0
v -5 -9 0
v 0 -11 0
v -1 -11 0
v -1 -10 0
v 0 -10 0
v -1 -11 0
v -2 -11 0
v -2 -10 0
v -1 -10 0
v -2 -11 0
v -3 -11 0
v -3 -10 0
v -2 -10 0
v -3 -11 0
v -4 -11 0
v -4 -10 0
v -3 -10 0
v -4 -11 0
v -5 -11 0
v -5 -10 0
v -4 -10 0
v -5 -11 0
v -6 -11 0
v -6 -10 0
v -5 -10 0
v 0 -12 0
v -1 -12 0
v -1 -11 0
v 0 -11 0
v -1 -12 0
v -2 -12 0
v -2 -11 0
v -1 -11 0
v -2 -12 0
v -3 -12 0
v -3 -11 0
v -2 -11 0
v -3 -12 0
v -4 -12 0
v -4 -11 0
v -3 -11 0
v -4 -12 0
v -5 -12 0
v -5 -11 0
v -4 -11 0
v -5 -12 0
v -6 -12 0
v -6 -11 0
v -5 -11 0
v -6 -12 0
v -7 -12 0
v -7 -11 0
v -6 -11 0
v -11 -12 0
v -12 -12 0
v -12 -11 0
v -11 -11 0
v -12 -12 0
v -13 -12 0
v -13 -11 0
v -12 -11 0
v -13 -12 0
v -14 -12 0
v -14 -11 0
v -13 -11 0
v -14 -12 0
v -15 -12 0
v -15 -11 0
v -14 -11 0
v -15 -12 0
v -16 -12 0
v -16 -11 0
v -15 -11 0
v -16 -12 0
v -17 -12 0
v -17 -11 0
v -16 -11 0
v -17 -12 0
v -18 -12 0
v -18 -11 0
v -17 -11 0
v -18 -12 0
v -19 -12 0
v -19 -11 0
v -18 -11 0
v -19 -12 0
v -20 -12 0
v -20 -11 0
v -19 -11 0
v 0 -13 0
v -1 -13 0
v -1 -12 0
v 0 -12 0
v -1 -13 0
v -2 -13 0
v -2 -12 0
v -1 -12 0
v -2 -13 0
v -3 -13 0
v -3 -12 0
v -2 -12 0
v -3 -13 0
v -4 -13 0
v -4 -12 0
v -3 -12 0
v -4 -13 0
v -5 -13 0
v -5 -12 0
v -4 -12 0
v -5 -13 0
v -6 -13 0
v -6 -12 0
v -5 -12 0
v -6 -13 0
v -7 -13 0
v -7 -12 0
v -6 -12 0
v -11 -13 0
v -12 -13 0
v -12 -12 0
v -11 -12 0
v -12 -13 0
v -13 -13 0
v -13 -12 0
v -12 -12 0
v -13 -13 0
v -14 -13 0
v -14 -12 0
v -13 -12 0
v -14 -13 0
v -15 -13 0
v -15 -12 0
v -14 -12 0
v -15 -13 0
v -16 -13 0
v -16 -12 0
v -15 -12 0
v -16 -13 0
v -17 -13 0
v -17 -12 0
v -16 -12 0
v -17 -13 0
v -18 -13 0
v -18 -12 0
v -17 -12 0
v -18 -13 0
v -19 -13 0
v -19 -12 0
v -18 -12 0
v -19 -13 0
v -20 -13 0
v -20 -12 0
v -19 -12 0
v 0 -14 0
v -1 -14 0
v -1 -13 0
v 0 -13 0
v -1 -14 0
v -2 -14 0
v -2 -13 0
v -1 -13 0
v -2 -14 0
v -3 -14 0
v -3 -13 0
v -2 -13 0
v -3 -14 0
v -4 -14 0
v -4 -13 0
v -3 -13 0
v -4 -14 0
v -5 -14 0
v -5 -13 0
v -4 -13 0
v -5 -14 0
v -6 -14 0
v -6 -13 0
v -5 -13 0
v -6 -14 0
v -7 -14 0
v -7 -13 0
v -6 -13 0
v -11 -14 0
v -12 -14 0
v -12 -13 0
v -11 -13 0
v -12 -14 0
v -13 -14 0
v -13 -13 0
v -12 -13 0
v -13 -14 0
v -14 -14 0
v -14 -13 0
v -13 -13 0
v -14 -14 0
v -15 -14 0
v -15 -13 0
v -14 -13 0
v -15 -14 0
v -16 -14 0
v -16 -13 0
v -15 -13 0
v -16 -14 0
v -17 -14 0
v -17 -13 0
v -16 -13 0
v -17 -14 0
v -18 -14 0
v -18 -13 0
v -17 -13 0
v -18 -14 0
v -19 -14 0
v -19 -13 0
v -18 -13 0
v -19 -14 0
v -20 -14 0
v -20 -13 0
v -19 -13 0
v 0 -15 0
v -1 -15 0
v -1 -14 0
v 0 -14 0
v -1 -15 0
v -2 -15 0
v -2 -14 0
v -1 -14 0
v -2 -15 0
v -3 -15 0
v -3 -14 0
v -2 -14 0
v -3 -15 0
v -4 -15 0
v -4 -14 0
v -3 -14 0
v -4 -15 0
v -5 -15 0
v -5 -14 0
v -4 -14 0
v -5 -15 0
v -6 -15 0
v -6 -14 0
v -5 -14 0
v -6 -15 0
v -7 -15 0
v -7 -14 0
v -6 -14 0
v -7 -15 0
v -8 -15 0
v -8 -14 0
v -7 -14 0
v -11 -15 0
v -12 -15 0
v -12 -14 0
v -11 -14 0
v -12 -15 0
v -13 -15 0
v -13 -14 0
v -12 -14 0
v -13 -15 0
v -14 -15 0
v -14 -14 0
v -13 -14 0
v -14 -15 0
v -15 -15 0
v -15 -14 0
v -14 -14 0
v -15 -15 0
v -16 -15 0
v -16 -14 0
v -15 -14 0
v -16 -15 0
v -17 -15 0
v -17 -14 0
v -16 -14 0
v -17 -15 0
v -18 -15 0
v -18 -14 0
v -17 -14 0
v -18 -15 0
v -19 -15 0
v -19 -14 0
v -18 -14 0
v -19 -15 0
v -20 -15 0
v -20 -14 0
v -19 -14 0
v 0 -16 0
v -1 -16 0
v -1 -15 0
v 0 -15 0
v -1 -16 0
v -2 -16 0
v -2 -15 0
v -1 -15 0
v -2 -16 0
v -3 -16 0
v -3 -15 0
v -2 -15 0
v -3 -16 0
v -4 -16 0
v -4 -15 0
v -3 -15 0
v -4 -16 0
v -5 -16 0
v -5 -15 0
v -4 -15 0
v -5 -16 0
v -6 -16 0
v -6 -15 0
v -5 -15 0
v -6 -16 0
v -7 -16 0
v -7 -15 0
v -6 -15 0
v -7 -16 0
v -8 -16 0
v -8 -15 0
v -7 -15 0
v -11 -16 0
v -12 -16 0
v -12 -15 0
v -11 -15 0
v -12 -16 0
v -13 -16 0
v -13 -15 0
v -12 -15 0
v -13 -16 0
v -14 -16 0
v -14 -15 0
v -13 -15 0
v -14 -16 0
v -15 -16 0
v -15 -15 0
v -14 -15 0
v -15 -16 0
v -16 -16 0
v -16 -15 0
v -15 -15 0
v -16 -16 0
v -17 -16 0
v -17 -15 0
v -16 -15 0
v -17 -16 0
v -18 -16 0
v -18 -15 0
v -17 -15 0
v -18 -16 0
v -19 -16 0
v -19 -15 0
v -18 -15 0
v -19 -16 0
v -20 -16 0
v -20 -15 0
v -19 -15 0
v 0 -17 0
v -1 -17 0
v -1 -16 0
v 0 -16 0
v -1 -17 0
v -2 -17 0
v -2 -16 0
v -1 -16 0
v -2 -17 0
v -3 -17 0
v -3 -16 0
v -2 -16 0
v -3 -17 0
v -4 -17 0
v -4 -16 0
v -3 -16 0
v -4 -17 0
v -5 -17 0
v -5 -16 0
v -4 -16 0
v -5 -17 0
v -6 -17 0
v -6 -16 0
v -5 -16 0
v -6 -17 0
v -7 -17 0
v -7 -16 0
v -6 -16 0
v -7 -17 0
v -8 -17 0
v -8 -16 0
v -7 -16 0
v -11 -17 0
v -12 -17 0
v -12 -16 0
v -11 -16 0
v -12 -17 0
v -13 -17 0
v -13 -16 0
v -12 -16 0
v -13 -17 0
v -14 -17 0
v -14 -16 0
v -13 -16 0
v -14 -17 0
v -15 -17 0
v -15 -16 0
v -14 -16 0
v -15 -17 0
v -16 -17 0
v -16 -16 0
v -15 -16 0
v -16 -17 0
v -17 -17 0
v -17 -16 0
v -16 -16 0
v -17 -17 0
v -18 -17 0
v -18 -16 0
v -17 -16 0
v -18 -17 0
v -19 -17 0
v -19 -16 0
v -18 -16 0
v -19 -17 0
v -20 -17 0
v -20 -16 0
v -19 -16 0
v 0 -18 0
v -1 -18 0
v -1 -17 0
v 0 -17 0
v -1 -18 0
v -2 -18 0
v -2 -17 0
v -1 -17 0
v -2 -18 0
v -3 -18 0
v -3 -17 0
v -2 -17 0
v -3 -18 0
v -4 -18 0
v -4 -17 0
v -3 -17 0
v -4 -18 0
v -5 -18 0
v -5 -17 0
v -4 -17 0
v -5 -18 0
v -6 -18 0
v -6 -17 0
v -5 -17 0
v -11 -18 0
v -12 -18 0
v -12 -17 0
v -11 -17 0
v -12 -18 0
v -13 -18 0
v -13 -17 0
v -12 -17 0
v -13 -18 0
v -14 -18 0
v -14 -17 0
v -13 -17 0
v -14 -18 0
v -15 -18 0
v -15 -17 0
v -14 -17 0
v -15 -18 0
v -16 -18 0
v -16 -17 0
v -15 -17 0
v -16 -18 0
v -17 -18 0
v -17 -17 0
v -16 -17 0
v -17 -18 0
v -18 -18 0
v -18 -17 0
v -17 -17 0
v -18 -18 0
v -19 -18 0
v -19 -17 0
v -18 -17 0
v -19 -18 0
v -20 -18 0
v -20 -17 0
v -19 -17 0
v -11 -19 0
v -12 -19 0
v -12 -18 0
v -11 -18 0
v -12 -19 0
v -13 -19 0
v -13 -18 0
v -12 -18 0
v -13 -19 0
v -14 -19 0
v -14 -18 0
v -13 -18 0
v -14 -19 0
v -15 -19 0
v -15 -18 0
v -14 -18 0
v -15 -19 0
v -16 -19 0
v -16 -18 0
v -15 -18 0
v -16 -19 0
v -17 -19 0
v -17 -18 0
v -16 -18 0
v -17 -19 0
v -18 -19 0
v -18 -18 0
v -17 -18 0
v -18 -19 0
v -19 -19 0
v -19 -18 0
v -18 -18 0
v -19 -19 0
v -20 -19 0
v -20 -18 0
v -19 -18 0
v -11 -20 0
v -12 -20 0
v -12 -19 0
v -11 -19 0
v -12 -20 0
v -13 -20 0
v -13 -19 0
v -12 -19 0
v -13 -20 0
v -14 -20 0
v -14 -19 0
v -13 -19 0
v -14 -20 0
v -15 -20 0
v -15 -19 0
v -14 -19 0
v -15 -20 0
v -16 -20 0
v -16 -19 0
v -15 -19 0
v -16 -20 0
v -17 -20 0
v -17 -19 0
v -16 -19 0
v -17 -20 0
v -18 -20 0
v -18 -19 0
v -17 -19 0
v -18 -20 0
v -19 -20 0
v -19 -19 0
v -18 -19 0
v -19 -20 0
v -20 -20 0
v -20 -19 0
v -19 -19 0

# Texture cooridinates (Count = 52)
vt 0 0.1666667
vt 0.025 0.1666667
vt 0.025 0.1944444
vt 0 0.1944444
vt 0.05 0.1666667
vt 0.05 0.1944444
vt 0.075 0.1666667
vt 0.075 0.1944444
vt 0 0.1388889
vt 0.025 0.1388889
vt 0.025 0.02777779
vt 0.05 0.02777779
vt 0.05 0.05555558
vt 0.025 0.05555558
vt 0.05 0.1388889
vt 0.075 0.1388889
vt 0.3 0.5
vt 0.325 0.5
vt 0.325 0.5277778
vt 0.3 0.5277778
vt 0.35 0.5
vt 0.35 0.5277778
vt 0.3 0.4722222
vt 0.325 0.4722222
vt 0.275 0.3888889
vt 0.3 0.3888889
vt 0.3 0.4166667
vt 0.275 0.4166667
vt 0.35 0.4722222
vt 0.35 0.1388889
vt 0.375 0.1388889
vt 0.375 0.1666667
vt 0.35 0.1666667
vt 0.4 0.1388889
vt 0.4 0.1666667
vt 0.425 0.1388889
vt 0.425 0.1666667
vt 0.35 0.1111111
vt 0.375 0.1111111
vt 0.4 0.1111111
vt 0.425 0.1111111
vt 0 0.1111111
vt 0.025 0.1111111
vt 0.05 0.1111111
vt 0.075 0.1111111
vt 0 0
vt 0.025 0
vt 0 0.02777779
vt 0.3 0.4444444
vt 0.275 0.4444444
vt 0.325 0.4444444
vt 0.35 0.4444444

# Normal
vn 0 0 -1

# Mesh description
g Numbers-2-orchard_mesh_0002

# Faces
f 1/1/1 2/2/1 3/3/1 4/4/1
f 5/2/1 6/5/1 7/6/1 8/3/1
f 9/2/1 10/5/1 11/6/1 12/3/1
f 13/2/1 14/5/1 15/6/1 16/3/1
f 17/2/1 18/5/1 19/6/1 20/3/1
f 21/2/1 22/5/1 23/6/1 24/3/1
f 25/2/1 26/5/1 27/6/1 28/3/1
f 29/2/1 30/5/1 31/6/1 32/3/1
f 33/5/1 34/7/1 35/8/1 36/6/1
f 37/9/1 38/10/1 39/2/1 40/1/1
f 41/11/1 42/12/1 43/13/1 44/14/1
f 45/11/1 46/12/1 47/13/1 48/14/1
f 49/11/1 50/12/1 51/13/1 52/14/1
f 53/11/1 54/12/1 55/13/1 56/14/1
f 57/11/1 58/12/1 59/13/1 60/14/1
f 61/11/1 62/12/1 63/13/1 64/14/1
f 65/11/1 66/12/1 67/13/1 68/14/1
f 69/15/1 70/16/1 71/7/1 72/5/1
f 73/17/1 74/18/1 75/19/1 76/20/1
f 77/18/1 78/21/1 79/22/1 80/19/1
f 81/9/1 82/10/1 83/2/1 84/1/1
f 85/11/1 86/12/1 87/13/1 88/14/1
f 89/11/1 90/12/1 91/13/1 92/14/1
f 93/11/1 94/12/1 95/13/1 96/14/1
f 97/11/1 98/12/1 99/13/1 100/14/1
f 101/11/1 102/12/1 103/13/1 104/14/1
f 105/11/1 106/12/1 107/13/1 108/14/1
f 109/11/1 110/12/1 111/13/1 112/14/1
f 113/15/1 114/16/1 115/7/1 116/5/1
f 117/23/1 118/24/1 119/18/1 120/17/1
f 121/25/1 122/26/1 123/27/1 124/28/1
f 125/18/1 126/21/1 127/22/1 128/19/1
f 129/9/1 130/10/1 131/2/1 132/1/1
f 133/11/1 134/12/1 135/13/1 136/14/1
f 137/11/1 138/12/1 139/13/1 140/14/1
f 141/11/1 142/12/1 143/13/1 144/14/1
f 145/11/1 146/12/1 147/13/1 148/14/1
f 149/11/1 150/12/1 151/13/1 152/14/1
f 153/11/1 154/12/1 155/13/1 156/14/1
f 157/11/1 158/12/1 159/13/1 160/14/1
f 161/15/1 162/16/1 163/7/1 164/5/1
f 165/23/1 166/24/1 167/18/1 168/17/1
f 169/23/1 170/24/1 171/18/1 172/17/1
f 173/24/1 174/29/1 175/21/1 176/18/1
f 177/9/1 178/10/1 179/2/1 180/1/1
f 181/11/1 182/12/1 183/13/1 184/14/1
f 185/11/1 186/12/1 187/13/1 188/14/1
f 189/11/1 190/12/1 191/13/1 192/14/1
f 193/11/1 194/12/1 195/13/1 196/14/1
f 197/11/1 198/12/1 199/13/1 200/14/1
f 201/11/1 202/12/1 203/13/1 204/14/1
f 205/11/1 206/12/1 207/13/1 208/14/1
f 209/15/1 210/16/1 211/7/1 212/5/1
f 213/23/1 214/24/1 215/18/1 216/17/1
f 217/23/1 218/24/1 219/18/1 220/17/1
f 221/25/1 222/26/1 223/27/1 224/28/1
f 225/18/1 226/21/1 227/22/1 228/19/1
f 229/9/1 230/10/1 231/2/1 232/1/1
f 233/11/1 234/12/1 235/13/1 236/14/1
f 237/11/1 238/12/1 239/13/1 240/14/1
f 241/11/1 242/12/1 243/13/1 244/14/1
f 245/11/1 246/12/1 247/13/1 248/14/1
f 249/11/1 250/12/1 251/13/1 252/14/1
f 253/11/1 254/12/1 255/13/1 256/14/1
f 257/11/1 258/12/1 259/13/1 260/14/1
f 261/15/1 262/16/1 263/7/1 264/5/1
f 265/23/1 266/24/1 267/18/1 268/17/1
f 269/23/1 270/24/1 271/18/1 272/17/1
f 273/23/1 274/24/1 275/18/1 276/17/1
f 277/24/1 278/29/1 279/21/1 280/18/1
f 281/30/1 282/31/1 283/32/1 284/33/1
f 285/31/1 286/34/1 287/35/1 288/32/1
f 289/34/1 290/36/1 291/37/1 292/35/1
f 293/9/1 294/10/1 295/2/1 296/1/1
f 297/11/1 298/12/1 299/13/1 300/14/1
f 301/11/1 302/12/1 303/13/1 304/14/1
f 305/11/1 306/12/1 307/13/1 308/14/1
f 309/11/1 310/12/1 311/13/1 312/14/1
f 313/11/1 314/12/1 315/13/1 316/14/1
f 317/11/1 318/12/1 319/13/1 320/14/1
f 321/11/1 322/12/1 323/13/1 324/14/1
f 325/15/1 326/16/1 327/7/1 328/5/1
f 329/23/1 330/24/1 331/18/1 332/17/1
f 333/23/1 334/24/1 335/18/1 336/17/1
f 337/23/1 338/24/1 339/18/1 340/17/1
f 341/24/1 342/29/1 343/21/1 344/18/1
f 345/38/1 346/39/1 347/31/1 348/30/1
f 349/39/1 350/40/1 351/34/1 352/31/1
f 353/40/1 354/41/1 355/36/1 356/34/1
f 357/9/1 358/10/1 359/2/1 360/1/1
f 361/11/1 362/12/1 363/13/1 364/14/1
f 365/11/1 366/12/1 367/13/1 368/14/1
f 369/11/1 370/12/1 371/13/1 372/14/1
f 373/11/1 374/12/1 375/13/1 376/14/1
f 377/11/1 378/12/1 379/13/1 380/14/1
f 381/11/1 382/12/1 383/13/1 384/14/1
f 385/11/1 386/12/1 387/13/1 388/14/1
f 389/15/1 390/16/1 391/7/1 392/5/1
f 393/23/1 394/24/1 395/18/1 396/17/1
f 397/23/1 398/24/1 399/18/1 400/17/1
f 401/23/1 402/24/1 403/18/1 404/17/1
f 405/25/1 406/26/1 407/27/1 408/28/1
f 409/18/1 410/21/1 411/22/1 412/19/1
f 413/42/1 414/43/1 415/10/1 416/9/1
f 417/43/1 418/44/1 419/15/1 420/10/1
f 421/43/1 422/44/1 423/15/1 424/10/1
f 425/43/1 426/44/1 427/15/1 428/10/1
f 429/43/1 430/44/1 431/15/1 432/10/1
f 433/43/1 434/44/1 435/15/1 436/10/1
f 437/43/1 438/44/1 439/15/1 440/10/1
f 441/43/1 442/44/1 443/15/1 444/10/1
f 445/44/1 446/45/1 447/16/1 448/15/1
f 449/23/1 450/24/1 451/18/1 452/17/1
f 453/23/1 454/24/1 455/18/1 456/17/1
f 457/23/1 458/24/1 459/18/1 460/17/1
f 461/23/1 462/24/1 463/18/1 464/17/1
f 465/25/1 466/26/1 467/27/1 468/28/1
f 469/18/1 470/21/1 471/22/1 472/19/1
f 473/23/1 474/24/1 475/18/1 476/17/1
f 477/23/1 478/24/1 479/18/1 480/17/1
f 481/23/1 482/24/1 483/18/1 484/17/1
f 485/23/1 486/24/1 487/18/1 488/17/1
f 489/23/1 490/24/1 491/18/1 492/17/1
f 493/24/1 494/29/1 495/21/1 496/18/1
f 497/23/1 498/24/1 499/18/1 500/17/1
f 501/23/1 502/24/1 503/18/1 504/17/1
f 505/23/1 506/24/1 507/18/1 508/17/1
f 509/23/1 510/24/1 511/18/1 512/17/1
f 513/23/1 514/24/1 515/18/1 516/17/1
f 517/25/1 518/26/1 519/27/1 520/28/1
f 521/18/1 522/21/1 523/22/1 524/19/1
f 525/1/1 526/2/1 527/3/1 528/4/1
f 529/2/1 530/5/1 531/6/1 532/3/1
f 533/2/1 534/5/1 535/6/1 536/3/1
f 537/2/1 538/5/1 539/6/1 540/3/1
f 541/2/1 542/5/1 543/6/1 544/3/1
f 545/2/1 546/5/1 547/6/1 548/3/1
f 549/2/1 550/5/1 551/6/1 552/3/1
f 553/2/1 554/5/1 555/6/1 556/3/1
f 557/5/1 558/7/1 559/8/1 560/6/1
f 561/23/1 562/24/1 563/18/1 564/17/1
f 565/23/1 566/24/1 567/18/1 568/17/1
f 569/23/1 570/24/1 571/18/1 572/17/1
f 573/23/1 574/24/1 575/18/1 576/17/1
f 577/23/1 578/24/1 579/18/1 580/17/1
f 581/23/1 582/24/1 583/18/1 584/17/1
f 585/24/1 586/29/1 587/21/1 588/18/1
f 589/9/1 590/10/1 591/2/1 592/1/1
f 593/46/1 594/47/1 595/11/1 596/48/1
f 597/46/1 598/47/1 599/11/1 600/48/1
f 601/46/1 602/47/1 603/11/1 604/48/1
f 605/46/1 606/47/1 607/11/1 608/48/1
f 609/46/1 610/47/1 611/11/1 612/48/1
f 613/46/1 614/47/1 615/11/1 616/48/1
f 617/46/1 618/47/1 619/11/1 620/48/1
f 621/15/1 622/16/1 623/7/1 624/5/1
f 625/23/1 626/24/1 627/18/1 628/17/1
f 629/23/1 630/24/1 631/18/1 632/17/1
f 633/23/1 634/24/1 635/18/1 636/17/1
f 637/23/1 638/24/1 639/18/1 640/17/1
f 641/23/1 642/24/1 643/18/1 644/17/1
f 645/23/1 646/24/1 647/18/1 648/17/1
f 649/25/1 650/26/1 651/27/1 652/28/1
f 653/9/1 654/10/1 655/2/1 656/1/1
f 657/46/1 658/47/1 659/11/1 660/48/1
f 661/46/1 662/47/1 663/11/1 664/48/1
f 665/46/1 666/47/1 667/11/1 668/48/1
f 669/46/1 670/47/1 671/11/1 672/48/1
f 673/46/1 674/47/1 675/11/1 676/48/1
f 677/46/1 678/47/1 679/11/1 680/48/1
f 681/46/1 682/47/1 683/11/1 684/48/1
f 685/15/1 686/16/1 687/7/1 688/5/1
f 689/23/1 690/24/1 691/18/1 692/17/1
f 693/23/1 694/24/1 695/18/1 696/17/1
f 697/23/1 698/24/1 699/18/1 700/17/1
f 701/23/1 702/24/1 703/18/1 704/17/1
f 705/23/1 706/24/1 707/18/1 708/17/1
f 709/23/1 710/24/1 711/18/1 712/17/1
f 713/23/1 714/24/1 715/18/1 716/17/1
f 717/24/1 718/29/1 719/21/1 720/18/1
f 721/9/1 722/10/1 723/2/1 724/1/1
f 725/46/1 726/47/1 727/11/1 728/48/1
f 729/46/1 730/47/1 731/11/1 732/48/1
f 733/46/1 734/47/1 735/11/1 736/48/1
f 737/46/1 738/47/1 739/11/1 740/48/1
f 741/46/1 742/47/1 743/11/1 744/48/1
f 745/46/1 746/47/1 747/11/1 748/48/1
f 749/46/1 750/47/1 751/11/1 752/48/1
f 753/15/1 754/16/1 755/7/1 756/5/1
f 757/23/1 758/24/1 759/18/1 760/17/1
f 761/23/1 762/24/1 763/18/1 764/17/1
f 765/23/1 766/24/1 767/18/1 768/17/1
f 769/23/1 770/24/1 771/18/1 772/17/1
f 773/23/1 774/24/1 775/18/1 776/17/1
f 777/23/1 778/24/1 779/18/1 780/17/1
f 781/23/1 782/24/1 783/18/1 784/17/1
f 785/24/1 786/29/1 787/21/1 788/18/1
f 789/9/1 790/10/1 791/2/1 792/1/1
f 793/46/1 794/47/1 795/11/1 796/48/1
f 797/46/1 798/47/1 799/11/1 800/48/1
f 801/46/1 802/47/1 803/11/1 804/48/1
f 805/46/1 806/47/1 807/11/1 808/48/1
f 809/46/1 810/47/1 811/11/1 812/48/1
f 813/46/1 814/47/1 815/11/1 816/48/1
f 817/46/1 818/47/1 819/11/1 820/48/1
f 821/15/1 822/16/1 823/7/1 824/5/1
f 825/23/1 826/24/1 827/18/1 828/17/1
f 829/23/1 830/24/1 831/18/1 832/17/1
f 833/23/1 834/24/1 835/18/1 836/17/1
f 837/23/1 838/24/1 839/18/1 840/17/1
f 841/23/1 842/24/1 843/18/1 844/17/1
f 845/23/1 846/24/1 847/18/1 848/17/1
f 849/28/1 850/27/1 851/49/1 852/50/1
f 853/51/1 854/52/1 855/29/1 856/24/1
f 857/9/1 858/10/1 859/2/1 860/1/1
f 861/46/1 862/47/1 863/11/1 864/48/1
f 865/46/1 866/47/1 867/11/1 868/48/1
f 869/46/1 870/47/1 871/11/1 872/48/1
f 873/46/1 874/47/1 875/11/1 876/48/1
f 877/46/1 878/47/1 879/11/1 880/48/1
f 881/46/1 882/47/1 883/11/1 884/48/1
f 885/46/1 886/47/1 887/11/1 888/48/1
f 889/15/1 890/16/1 891/7/1 892/5/1
f 893/49/1 894/51/1 895/24/1 896/23/1
f 897/49/1 898/51/1 899/24/1 900/23/1
f 901/49/1 902/51/1 903/24/1 904/23/1
f 905/49/1 906/51/1 907/24/1 908/23/1
f 909/49/1 910/51/1 911/24/1 912/23/1
f 913/49/1 914/51/1 915/24/1 916/23/1
f 917/9/1 918/10/1 919/2/1 920/1/1
f 921/46/1 922/47/1 923/11/1 924/48/1
f 925/46/1 926/47/1 927/11/1 928/48/1
f 929/46/1 930/47/1 931/11/1 932/48/1
f 933/46/1 934/47/1 935/11/1 936/48/1
f 937/46/1 938/47/1 939/11/1 940/48/1
f 941/46/1 942/47/1 943/11/1 944/48/1
f 945/46/1 946/47/1 947/11/1 948/48/1
f 949/15/1 950/16/1 951/7/1 952/5/1
f 953/9/1 954/10/1 955/2/1 956/1/1
f 957/46/1 958/47/1 959/11/1 960/48/1
f 961/46/1 962/47/1 963/11/1 964/48/1
f 965/46/1 966/47/1 967/11/1 968/48/1
f 969/46/1 970/47/1 971/11/1 972/48/1
f 973/46/1 974/47/1 975/11/1 976/48/1
f 977/46/1 978/47/1 979/11/1 980/48/1
f 981/46/1 982/47/1 983/11/1 984/48/1
f 985/15/1 986/16/1 987/7/1 988/5/1
f 989/42/1 990/43/1 991/10/1 992/9/1
f 993/43/1 994/44/1 995/15/1 996/10/1
f 997/43/1 998/44/1 999/15/1 1000/10/1
f 1001/43/1 1002/44/1 1003/15/1 1004/10/1
f 1005/43/1 1006/44/1 1007/15/1 1008/10/1
f 1009/43/1 1010/44/1 1011/15/1 1012/10/1
f 1013/43/1 1014/44/1 1015/15/1 1016/10/1
f 1017/43/1 1018/44/1 1019/15/1 1020/10/1
f 1021/44/1 1022/45/1 1023/16/1 1024/15/1

