# Tiled2Unity generated file. Do not modify by hand.
# Wavefront file for 'numbers-1_mesh_0005.obj'

# Vertices (Count = 872)
v 0 -1 0
v -1 -1 0
v -1 0 0
v 0 0 0
v -1 -1 0
v -2 -1 0
v -2 0 0
v -1 0 0
v -2 -1 0
v -3 -1 0
v -3 0 0
v -2 0 0
v -3 -1 0
v -4 -1 0
v -4 0 0
v -3 0 0
v -4 -1 0
v -5 -1 0
v -5 0 0
v -4 0 0
v -5 -1 0
v -6 -1 0
v -6 0 0
v -5 0 0
v -6 -1 0
v -7 -1 0
v -7 0 0
v -6 0 0
v -7 -1 0
v -8 -1 0
v -8 0 0
v -7 0 0
v -8 -1 0
v -9 -1 0
v -9 0 0
v -8 0 0
v -9 -1 0
v -10 -1 0
v -10 0 0
v -9 0 0
v -10 -1 0
v -11 -1 0
v -11 0 0
v -10 0 0
v -11 -1 0
v -12 -1 0
v -12 0 0
v -11 0 0
v -12 -1 0
v -13 -1 0
v -13 0 0
v -12 0 0
v -13 -1 0
v -14 -1 0
v -14 0 0
v -13 0 0
v -14 -1 0
v -15 -1 0
v -15 0 0
v -14 0 0
v -15 -1 0
v -16 -1 0
v -16 0 0
v -15 0 0
v -16 -1 0
v -17 -1 0
v -17 0 0
v -16 0 0
v -17 -1 0
v -18 -1 0
v -18 0 0
v -17 0 0
v -18 -1 0
v -19 -1 0
v -19 0 0
v -18 0 0
v -19 -1 0
v -20 -1 0
v -20 0 0
v -19 0 0
v -20 -1 0
v -21 -1 0
v -21 0 0
v -20 0 0
v -21 -1 0
v -22 -1 0
v -22 0 0
v -21 0 0
v -22 -1 0
v -23 -1 0
v -23 0 0
v -22 0 0
v -23 -1 0
v -24 -1 0
v -24 0 0
v -23 0 0
v -24 -1 0
v -25 -1 0
v -25 0 0
v -24 0 0
v -25 -1 0
v -26 -1 0
v -26 0 0
v -25 0 0
v -26 -1 0
v -27 -1 0
v -27 0 0
v -26 0 0
v -27 -1 0
v -28 -1 0
v -28 0 0
v -27 0 0
v -28 -1 0
v -29 -1 0
v -29 0 0
v -28 0 0
v 0 -2 0
v -1 -2 0
v -1 -1 0
v 0 -1 0
v -23 -2 0
v -24 -2 0
v -24 -1 0
v -23 -1 0
v -24 -2 0
v -25 -2 0
v -25 -1 0
v -24 -1 0
v -25 -2 0
v -26 -2 0
v -26 -1 0
v -25 -1 0
v -26 -2 0
v -27 -2 0
v -27 -1 0
v -26 -1 0
v -27 -2 0
v -28 -2 0
v -28 -1 0
v -27 -1 0
v -28 -2 0
v -29 -2 0
v -29 -1 0
v -28 -1 0
v 0 -3 0
v -1 -3 0
v -1 -2 0
v 0 -2 0
v -23 -3 0
v -24 -3 0
v -24 -2 0
v -23 -2 0
v -24 -3 0
v -25 -3 0
v -25 -2 0
v -24 -2 0
v -25 -3 0
v -26 -3 0
v -26 -2 0
v -25 -2 0
v -26 -3 0
v -27 -3 0
v -27 -2 0
v -26 -2 0
v -27 -3 0
v -28 -3 0
v -28 -2 0
v -27 -2 0
v -28 -3 0
v -29 -3 0
v -29 -2 0
v -28 -2 0
v 0 -4 0
v -1 -4 0
v -1 -3 0
v 0 -3 0
v 0 -5 0
v -1 -5 0
v -1 -4 0
v 0 -4 0
v -1 -5 0
v -2 -5 0
v -2 -4 0
v -1 -4 0
v -2 -5 0
v -3 -5 0
v -3 -4 0
v -2 -4 0
v -3 -5 0
v -4 -5 0
v -4 -4 0
v -3 -4 0
v -4 -5 0
v -5 -5 0
v -5 -4 0
v -4 -4 0
v -5 -5 0
v -6 -5 0
v -6 -4 0
v -5 -4 0
v -6 -5 0
v -7 -5 0
v -7 -4 0
v -6 -4 0
v 0 -6 0
v -1 -6 0
v -1 -5 0
v 0 -5 0
v -1 -6 0
v -2 -6 0
v -2 -5 0
v -1 -5 0
v -2 -6 0
v -3 -6 0
v -3 -5 0
v -2 -5 0
v -3 -6 0
v -4 -6 0
v -4 -5 0
v -3 -5 0
v -4 -6 0
v -5 -6 0
v -5 -5 0
v -4 -5 0
v -5 -6 0
v -6 -6 0
v -6 -5 0
v -5 -5 0
v -6 -6 0
v -7 -6 0
v -7 -5 0
v -6 -5 0
v -7 -6 0
v -8 -6 0
v -8 -5 0
v -7 -5 0
v -16 -6 0
v -17 -6 0
v -17 -5 0
v -16 -5 0
v -17 -6 0
v -18 -6 0
v -18 -5 0
v -17 -5 0
v 0 -7 0
v -1 -7 0
v -1 -6 0
v 0 -6 0
v -1 -7 0
v -2 -7 0
v -2 -6 0
v -1 -6 0
v -2 -7 0
v -3 -7 0
v -3 -6 0
v -2 -6 0
v -3 -7 0
v -4 -7 0
v -4 -6 0
v -3 -6 0
v -4 -7 0
v -5 -7 0
v -5 -6 0
v -4 -6 0
v -5 -7 0
v -6 -7 0
v -6 -6 0
v -5 -6 0
v -6 -7 0
v -7 -7 0
v -7 -6 0
v -6 -6 0
v -12 -7 0
v -13 -7 0
v -13 -6 0
v -12 -6 0
v -13 -7 0
v -14 -7 0
v -14 -6 0
v -13 -6 0
v -27 -7 0
v -28 -7 0
v -28 -6 0
v -27 -6 0
v -28 -7 0
v -29 -7 0
v -29 -6 0
v -28 -6 0
v 0 -8 0
v -1 -8 0
v -1 -7 0
v 0 -7 0
v -1 -8 0
v -2 -8 0
v -2 -7 0
v -1 -7 0
v -2 -8 0
v -3 -8 0
v -3 -7 0
v -2 -7 0
v -3 -8 0
v -4 -8 0
v -4 -7 0
v -3 -7 0
v -4 -8 0
v -5 -8 0
v -5 -7 0
v -4 -7 0
v -5 -8 0
v -6 -8 0
v -6 -7 0
v -5 -7 0
v -6 -8 0
v -7 -8 0
v -7 -7 0
v -6 -7 0
v -7 -8 0
v -8 -8 0
v -8 -7 0
v -7 -7 0
v -8 -8 0
v -9 -8 0
v -9 -7 0
v -8 -7 0
v -9 -8 0
v -10 -8 0
v -10 -7 0
v -9 -7 0
v -16 -8 0
v -17 -8 0
v -17 -7 0
v -16 -7 0
v -17 -8 0
v -18 -8 0
v -18 -7 0
v -17 -7 0
v -27 -8 0
v -28 -8 0
v -28 -7 0
v -27 -7 0
v -28 -8 0
v -29 -8 0
v -29 -7 0
v -28 -7 0
v 0 -9 0
v -1 -9 0
v -1 -8 0
v 0 -8 0
v -1 -9 0
v -2 -9 0
v -2 -8 0
v -1 -8 0
v -2 -9 0
v -3 -9 0
v -3 -8 0
v -2 -8 0
v -3 -9 0
v -4 -9 0
v -4 -8 0
v -3 -8 0
v -4 -9 0
v -5 -9 0
v -5 -8 0
v -4 -8 0
v -5 -9 0
v -6 -9 0
v -6 -8 0
v -5 -8 0
v -6 -9 0
v -7 -9 0
v -7 -8 0
v -6 -8 0
v -7 -9 0
v -8 -9 0
v -8 -8 0
v -7 -8 0
v -8 -9 0
v -9 -9 0
v -9 -8 0
v -8 -8 0
v -9 -9 0
v -10 -9 0
v -10 -8 0
v -9 -8 0
v -14 -9 0
v -15 -9 0
v -15 -8 0
v -14 -8 0
v -15 -9 0
v -16 -9 0
v -16 -8 0
v -15 -8 0
v -27 -9 0
v -28 -9 0
v -28 -8 0
v -27 -8 0
v -28 -9 0
v -29 -9 0
v -29 -8 0
v -28 -8 0
v 0 -10 0
v -1 -10 0
v -1 -9 0
v 0 -9 0
v -1 -10 0
v -2 -10 0
v -2 -9 0
v -1 -9 0
v -2 -10 0
v -3 -10 0
v -3 -9 0
v -2 -9 0
v -3 -10 0
v -4 -10 0
v -4 -9 0
v -3 -9 0
v -4 -10 0
v -5 -10 0
v -5 -9 0
v -4 -9 0
v -5 -10 0
v -6 -10 0
v -6 -9 0
v -5 -9 0
v -6 -10 0
v -7 -10 0
v -7 -9 0
v -6 -9 0
v -7 -10 0
v -8 -10 0
v -8 -9 0
v -7 -9 0
v -8 -10 0
v -9 -10 0
v -9 -9 0
v -8 -9 0
v -9 -10 0
v -10 -10 0
v -10 -9 0
v -9 -9 0
v -12 -10 0
v -13 -10 0
v -13 -9 0
v -12 -9 0
v -13 -10 0
v -14 -10 0
v -14 -9 0
v -13 -9 0
v -27 -10 0
v -28 -10 0
v -28 -9 0
v -27 -9 0
v -28 -10 0
v -29 -10 0
v -29 -9 0
v -28 -9 0
v 0 -11 0
v -1 -11 0
v -1 -10 0
v 0 -10 0
v -1 -11 0
v -2 -11 0
v -2 -10 0
v -1 -10 0
v -2 -11 0
v -3 -11 0
v -3 -10 0
v -2 -10 0
v -3 -11 0
v -4 -11 0
v -4 -10 0
v -3 -10 0
v -4 -11 0
v -5 -11 0
v -5 -10 0
v -4 -10 0
v -5 -11 0
v -6 -11 0
v -6 -10 0
v -5 -10 0
v -6 -11 0
v -7 -11 0
v -7 -10 0
v -6 -10 0
v -7 -11 0
v -8 -11 0
v -8 -10 0
v -7 -10 0
v -8 -11 0
v -9 -11 0
v -9 -10 0
v -8 -10 0
v -9 -11 0
v -10 -11 0
v -10 -10 0
v -9 -10 0
v -27 -11 0
v -28 -11 0
v -28 -10 0
v -27 -10 0
v -28 -11 0
v -29 -11 0
v -29 -10 0
v -28 -10 0
v 0 -12 0
v -1 -12 0
v -1 -11 0
v 0 -11 0
v 0 -13 0
v -1 -13 0
v -1 -12 0
v 0 -12 0
v -21 -13 0
v -22 -13 0
v -22 -12 0
v -21 -12 0
v -22 -13 0
v -23 -13 0
v -23 -12 0
v -22 -12 0
v -27 -13 0
v -28 -13 0
v -28 -12 0
v -27 -12 0
v -28 -13 0
v -29 -13 0
v -29 -12 0
v -28 -12 0
v 0 -14 0
v -1 -14 0
v -1 -13 0
v 0 -13 0
v -21 -14 0
v -22 -14 0
v -22 -13 0
v -21 -13 0
v -22 -14 0
v -23 -14 0
v -23 -13 0
v -22 -13 0
v -27 -14 0
v -28 -14 0
v -28 -13 0
v -27 -13 0
v -28 -14 0
v -29 -14 0
v -29 -13 0
v -28 -13 0
v 0 -15 0
v -1 -15 0
v -1 -14 0
v 0 -14 0
v 0 -16 0
v -1 -16 0
v -1 -15 0
v 0 -15 0
v -12 -16 0
v -13 -16 0
v -13 -15 0
v -12 -15 0
v 0 -17 0
v -1 -17 0
v -1 -16 0
v 0 -16 0
v -18 -17 0
v -19 -17 0
v -19 -16 0
v -18 -16 0
v -20 -17 0
v -21 -17 0
v -21 -16 0
v -20 -16 0
v -27 -17 0
v -28 -17 0
v -28 -16 0
v -27 -16 0
v 0 -18 0
v -1 -18 0
v -1 -17 0
v 0 -17 0
v -1 -18 0
v -2 -18 0
v -2 -17 0
v -1 -17 0
v -2 -18 0
v -3 -18 0
v -3 -17 0
v -2 -17 0
v -6 -18 0
v -7 -18 0
v -7 -17 0
v -6 -17 0
v -7 -18 0
v -8 -18 0
v -8 -17 0
v -7 -17 0
v -10 -18 0
v -11 -18 0
v -11 -17 0
v -10 -17 0
v -14 -18 0
v -15 -18 0
v -15 -17 0
v -14 -17 0
v 0 -19 0
v -1 -19 0
v -1 -18 0
v 0 -18 0
v -12 -19 0
v -13 -19 0
v -13 -18 0
v -12 -18 0
v -21 -19 0
v -22 -19 0
v -22 -18 0
v -21 -18 0
v 0 -20 0
v -1 -20 0
v -1 -19 0
v 0 -19 0
v -14 -20 0
v -15 -20 0
v -15 -19 0
v -14 -19 0
v -28 -20 0
v -29 -20 0
v -29 -19 0
v -28 -19 0
v 0 -21 0
v -1 -21 0
v -1 -20 0
v 0 -20 0
v 0 -22 0
v -1 -22 0
v -1 -21 0
v 0 -21 0
v 0 -23 0
v -1 -23 0
v -1 -22 0
v 0 -22 0
v 0 -24 0
v -1 -24 0
v -1 -23 0
v 0 -23 0
v 0 -25 0
v -1 -25 0
v -1 -24 0
v 0 -24 0
v -6 -25 0
v -7 -25 0
v -7 -24 0
v -6 -24 0
v -7 -25 0
v -8 -25 0
v -8 -24 0
v -7 -24 0
v -8 -25 0
v -9 -25 0
v -9 -24 0
v -8 -24 0
v -9 -25 0
v -10 -25 0
v -10 -24 0
v -9 -24 0
v -10 -25 0
v -11 -25 0
v -11 -24 0
v -10 -24 0
v 0 -26 0
v -1 -26 0
v -1 -25 0
v 0 -25 0
v -21 -26 0
v -22 -26 0
v -22 -25 0
v -21 -25 0
v -22 -26 0
v -23 -26 0
v -23 -25 0
v -22 -25 0
v -23 -26 0
v -24 -26 0
v -24 -25 0
v -23 -25 0
v -24 -26 0
v -25 -26 0
v -25 -25 0
v -24 -25 0
v -25 -26 0
v -26 -26 0
v -26 -25 0
v -25 -25 0
v -26 -26 0
v -27 -26 0
v -27 -25 0
v -26 -25 0
v 0 -27 0
v -1 -27 0
v -1 -26 0
v 0 -26 0
v -12 -27 0
v -13 -27 0
v -13 -26 0
v -12 -26 0
v -13 -27 0
v -14 -27 0
v -14 -26 0
v -13 -26 0
v -14 -27 0
v -15 -27 0
v -15 -26 0
v -14 -26 0
v -15 -27 0
v -16 -27 0
v -16 -26 0
v -15 -26 0
v -16 -27 0
v -17 -27 0
v -17 -26 0
v -16 -26 0
v 0 -28 0
v -1 -28 0
v -1 -27 0
v 0 -27 0
v 0 -29 0
v -1 -29 0
v -1 -28 0
v 0 -28 0
v -7 -29 0
v -8 -29 0
v -8 -28 0
v -7 -28 0
v -8 -29 0
v -9 -29 0
v -9 -28 0
v -8 -28 0
v -9 -29 0
v -10 -29 0
v -10 -28 0
v -9 -28 0
v -10 -29 0
v -11 -29 0
v -11 -28 0
v -10 -28 0
v -11 -29 0
v -12 -29 0
v -12 -28 0
v -11 -28 0
v -19 -29 0
v -20 -29 0
v -20 -28 0
v -19 -28 0
v -20 -29 0
v -21 -29 0
v -21 -28 0
v -20 -28 0
v 0 -30 0
v -1 -30 0
v -1 -29 0
v 0 -29 0
v -1 -30 0
v -2 -30 0
v -2 -29 0
v -1 -29 0
v -2 -30 0
v -3 -30 0
v -3 -29 0
v -2 -29 0
v -3 -30 0
v -4 -30 0
v -4 -29 0
v -3 -29 0
v -4 -30 0
v -5 -30 0
v -5 -29 0
v -4 -29 0
v -5 -30 0
v -6 -30 0
v -6 -29 0
v -5 -29 0
v -6 -30 0
v -7 -30 0
v -7 -29 0
v -6 -29 0
v -7 -30 0
v -8 -30 0
v -8 -29 0
v -7 -29 0
v -8 -30 0
v -9 -30 0
v -9 -29 0
v -8 -29 0
v -9 -30 0
v -10 -30 0
v -10 -29 0
v -9 -29 0
v -10 -30 0
v -11 -30 0
v -11 -29 0
v -10 -29 0
v -11 -30 0
v -12 -30 0
v -12 -29 0
v -11 -29 0
v -12 -30 0
v -13 -30 0
v -13 -29 0
v -12 -29 0
v -13 -30 0
v -14 -30 0
v -14 -29 0
v -13 -29 0
v -14 -30 0
v -15 -30 0
v -15 -29 0
v -14 -29 0
v -15 -30 0
v -16 -30 0
v -16 -29 0
v -15 -29 0
v -16 -30 0
v -17 -30 0
v -17 -29 0
v -16 -29 0
v -17 -30 0
v -18 -30 0
v -18 -29 0
v -17 -29 0
v -18 -30 0
v -19 -30 0
v -19 -29 0
v -18 -29 0
v -19 -30 0
v -20 -30 0
v -20 -29 0
v -19 -29 0
v -20 -30 0
v -21 -30 0
v -21 -29 0
v -20 -29 0
v -21 -30 0
v -22 -30 0
v -22 -29 0
v -21 -29 0
v -22 -30 0
v -23 -30 0
v -23 -29 0
v -22 -29 0
v -23 -30 0
v -24 -30 0
v -24 -29 0
v -23 -29 0
v -24 -30 0
v -25 -30 0
v -25 -29 0
v -24 -29 0
v -25 -30 0
v -26 -30 0
v -26 -29 0
v -25 -29 0
v -26 -30 0
v -27 -30 0
v -27 -29 0
v -26 -29 0
v -27 -30 0
v -28 -30 0
v -28 -29 0
v -27 -29 0
v -28 -30 0
v -29 -30 0
v -29 -29 0
v -28 -29 0

# Texture cooridinates (Count = 115)
vt 0.025 0.6111111
vt 0.05 0.6111111
vt 0.05 0.6388889
vt 0.025 0.6388889
vt 0.075 0.6111111
vt 0.075 0.6388889
vt 0.025 0.5277778
vt 0.05 0.5277778
vt 0.05 0.5555556
vt 0.025 0.5555556
vt 0.025 0.5833334
vt 0.05 0.5833334
vt 0.125 0.5277778
vt 0.15 0.5277778
vt 0.15 0.5555556
vt 0.125 0.5555556
vt 0.175 0.5277778
vt 0.175 0.5555556
vt 0.125 0.5
vt 0.15 0.5
vt 0.175 0.5
vt 0.75 0.9444444
vt 0.775 0.9444444
vt 0.775 0.9722222
vt 0.75 0.9722222
vt 0.05 0.5
vt 0.075 0.5
vt 0.075 0.5277778
vt 0.1 0.5
vt 0.1 0.5277778
vt 0.1 0.9166667
vt 0.125 0.9166667
vt 0.125 0.9444444
vt 0.1 0.9444444
vt 0.15 0.9166667
vt 0.15 0.9444444
vt 0.1 0.4722222
vt 0.125 0.4722222
vt 0.65 0.4166667
vt 0.675 0.4166667
vt 0.675 0.4444444
vt 0.65 0.4444444
vt 0.7 0.4166667
vt 0.7 0.4444444
vt 0.725 0.4166667
vt 0.725 0.4444444
vt 0.75 0.4166667
vt 0.75 0.4444444
vt 0.3 0.8333333
vt 0.325 0.8333333
vt 0.325 0.8611111
vt 0.3 0.8611111
vt 0.65 0.3888889
vt 0.675 0.3888889
vt 0.7 0.3888889
vt 0.725 0.3888889
vt 0.75 0.3888889
vt 0.125 0.8611111
vt 0.125 0.8333333
vt 0.15 0.8333333
vt 0.15 0.8611111
vt 0.275 0.8333333
vt 0.275 0.8611111
vt 0.1 0.8611111
vt 0.1 0.8333333
vt 0.025 0.02777779
vt 0.05 0.02777779
vt 0.05 0.05555558
vt 0.025 0.05555558
vt 0.075 0.8611111
vt 0.075 0.8333333
vt 0.05 0.4722222
vt 0.075 0.4722222
vt 0.225 0
vt 0.25 0
vt 0.25 0.02777779
vt 0.225 0.02777779
vt 0.2 0.08333331
vt 0.225 0.08333331
vt 0.225 0.1111111
vt 0.2 0.1111111
vt 0.25 0.08333331
vt 0.25 0.1111111
vt 0.2 0.05555558
vt 0.225 0.05555558
vt 0.25 0.05555558
vt 0.05 0.9722222
vt 0.075 0.9722222
vt 0.075 1
vt 0.05 1
vt 0.125 0.9722222
vt 0.15 0.9722222
vt 0.15 1
vt 0.125 1
vt 0.775 0.8611111
vt 0.8 0.8611111
vt 0.8 0.8888889
vt 0.775 0.8888889
vt 0.825 0.8611111
vt 0.825 0.8888889
vt 0.1 0.9722222
vt 0.1 1
vt 0.175 0.8333333
vt 0.175 0.8611111
vt 0.2 0.8333333
vt 0.2 0.8611111
vt 0.225 0.8333333
vt 0.225 0.8611111
vt 0.25 0.8333333
vt 0.25 0.8611111
vt 0.125 0.4444444
vt 0.15 0.4444444
vt 0.15 0.4722222
vt 0.075 0.5555556
vt 0.075 0.5833334

# Normal
vn 0 0 -1

# Mesh description
g numbers-1_mesh_0005

# Faces
f 1/1/1 2/2/1 3/3/1 4/4/1
f 5/2/1 6/5/1 7/6/1 8/3/1
f 9/2/1 10/5/1 11/6/1 12/3/1
f 13/2/1 14/5/1 15/6/1 16/3/1
f 17/2/1 18/5/1 19/6/1 20/3/1
f 21/2/1 22/5/1 23/6/1 24/3/1
f 25/2/1 26/5/1 27/6/1 28/3/1
f 29/2/1 30/5/1 31/6/1 32/3/1
f 33/2/1 34/5/1 35/6/1 36/3/1
f 37/2/1 38/5/1 39/6/1 40/3/1
f 41/2/1 42/5/1 43/6/1 44/3/1
f 45/2/1 46/5/1 47/6/1 48/3/1
f 49/2/1 50/5/1 51/6/1 52/3/1
f 53/2/1 54/5/1 55/6/1 56/3/1
f 57/2/1 58/5/1 59/6/1 60/3/1
f 61/2/1 62/5/1 63/6/1 64/3/1
f 65/2/1 66/5/1 67/6/1 68/3/1
f 69/2/1 70/5/1 71/6/1 72/3/1
f 73/2/1 74/5/1 75/6/1 76/3/1
f 77/2/1 78/5/1 79/6/1 80/3/1
f 81/2/1 82/5/1 83/6/1 84/3/1
f 85/2/1 86/5/1 87/6/1 88/3/1
f 89/2/1 90/5/1 91/6/1 92/3/1
f 93/2/1 94/5/1 95/6/1 96/3/1
f 97/2/1 98/5/1 99/6/1 100/3/1
f 101/2/1 102/5/1 103/6/1 104/3/1
f 105/2/1 106/5/1 107/6/1 108/3/1
f 109/2/1 110/5/1 111/6/1 112/3/1
f 113/7/1 114/8/1 115/9/1 116/10/1
f 117/11/1 118/12/1 119/2/1 120/1/1
f 121/13/1 122/14/1 123/15/1 124/16/1
f 125/14/1 126/17/1 127/18/1 128/15/1
f 129/13/1 130/14/1 131/15/1 132/16/1
f 133/14/1 134/17/1 135/18/1 136/15/1
f 137/13/1 138/14/1 139/15/1 140/16/1
f 141/14/1 142/17/1 143/18/1 144/15/1
f 145/11/1 146/12/1 147/2/1 148/1/1
f 149/19/1 150/20/1 151/14/1 152/13/1
f 153/20/1 154/21/1 155/17/1 156/14/1
f 157/19/1 158/20/1 159/14/1 160/13/1
f 161/20/1 162/21/1 163/17/1 164/14/1
f 165/19/1 166/20/1 167/14/1 168/13/1
f 169/20/1 170/21/1 171/17/1 172/14/1
f 173/11/1 174/12/1 175/2/1 176/1/1
f 177/11/1 178/12/1 179/2/1 180/1/1
f 181/22/1 182/23/1 183/24/1 184/25/1
f 185/22/1 186/23/1 187/24/1 188/25/1
f 189/22/1 190/23/1 191/24/1 192/25/1
f 193/22/1 194/23/1 195/24/1 196/25/1
f 197/22/1 198/23/1 199/24/1 200/25/1
f 201/22/1 202/23/1 203/24/1 204/25/1
f 205/11/1 206/12/1 207/2/1 208/1/1
f 209/26/1 210/27/1 211/28/1 212/8/1
f 213/29/1 214/19/1 215/13/1 216/30/1
f 217/29/1 218/19/1 219/13/1 220/30/1
f 221/29/1 222/19/1 223/13/1 224/30/1
f 225/29/1 226/19/1 227/13/1 228/30/1
f 229/29/1 230/19/1 231/13/1 232/30/1
f 233/27/1 234/29/1 235/30/1 236/28/1
f 237/31/1 238/32/1 239/33/1 240/34/1
f 241/32/1 242/35/1 243/36/1 244/33/1
f 245/11/1 246/12/1 247/2/1 248/1/1
f 249/37/1 250/38/1 251/19/1 252/29/1
f 253/39/1 254/40/1 255/41/1 256/42/1
f 257/40/1 258/43/1 259/44/1 260/41/1
f 261/43/1 262/45/1 263/46/1 264/44/1
f 265/45/1 266/47/1 267/48/1 268/46/1
f 269/49/1 270/50/1 271/51/1 272/52/1
f 273/31/1 274/32/1 275/33/1 276/34/1
f 277/32/1 278/35/1 279/36/1 280/33/1
f 281/19/1 282/20/1 283/14/1 284/13/1
f 285/20/1 286/21/1 287/17/1 288/14/1
f 289/11/1 290/12/1 291/2/1 292/1/1
f 293/37/1 294/38/1 295/19/1 296/29/1
f 297/53/1 298/54/1 299/40/1 300/39/1
f 301/54/1 302/55/1 303/43/1 304/40/1
f 305/55/1 306/56/1 307/45/1 308/43/1
f 309/56/1 310/57/1 311/47/1 312/45/1
f 313/49/1 314/50/1 315/51/1 316/52/1
f 317/37/1 318/38/1 319/19/1 320/29/1
f 321/58/1 322/59/1 323/60/1 324/61/1
f 325/58/1 326/59/1 327/60/1 328/61/1
f 329/31/1 330/32/1 331/33/1 332/34/1
f 333/32/1 334/35/1 335/36/1 336/33/1
f 337/13/1 338/14/1 339/15/1 340/16/1
f 341/14/1 342/17/1 343/18/1 344/15/1
f 345/11/1 346/12/1 347/2/1 348/1/1
f 349/37/1 350/38/1 351/19/1 352/29/1
f 353/62/1 354/49/1 355/52/1 356/63/1
f 357/49/1 358/50/1 359/51/1 360/52/1
f 361/49/1 362/50/1 363/51/1 364/52/1
f 365/49/1 366/50/1 367/51/1 368/52/1
f 369/49/1 370/50/1 371/51/1 372/52/1
f 373/37/1 374/38/1 375/19/1 376/29/1
f 377/64/1 378/65/1 379/59/1 380/58/1
f 381/64/1 382/65/1 383/59/1 384/58/1
f 385/31/1 386/32/1 387/33/1 388/34/1
f 389/32/1 390/35/1 391/36/1 392/33/1
f 393/19/1 394/20/1 395/14/1 396/13/1
f 397/20/1 398/21/1 399/17/1 400/14/1
f 401/11/1 402/12/1 403/2/1 404/1/1
f 405/37/1 406/38/1 407/19/1 408/29/1
f 409/66/1 410/67/1 411/68/1 412/69/1
f 413/66/1 414/67/1 415/68/1 416/69/1
f 417/66/1 418/67/1 419/68/1 420/69/1
f 421/66/1 422/67/1 423/68/1 424/69/1
f 425/66/1 426/67/1 427/68/1 428/69/1
f 429/37/1 430/38/1 431/19/1 432/29/1
f 433/70/1 434/71/1 435/65/1 436/64/1
f 437/70/1 438/71/1 439/65/1 440/64/1
f 441/31/1 442/32/1 443/33/1 444/34/1
f 445/32/1 446/35/1 447/36/1 448/33/1
f 449/13/1 450/14/1 451/15/1 452/16/1
f 453/14/1 454/17/1 455/18/1 456/15/1
f 457/11/1 458/12/1 459/2/1 460/1/1
f 461/72/1 462/73/1 463/27/1 464/26/1
f 465/29/1 466/19/1 467/13/1 468/30/1
f 469/29/1 470/19/1 471/13/1 472/30/1
f 473/29/1 474/19/1 475/13/1 476/30/1
f 477/29/1 478/19/1 479/13/1 480/30/1
f 481/29/1 482/19/1 483/13/1 484/30/1
f 485/73/1 486/37/1 487/29/1 488/27/1
f 489/74/1 490/75/1 491/76/1 492/77/1
f 493/74/1 494/75/1 495/76/1 496/77/1
f 497/19/1 498/20/1 499/14/1 500/13/1
f 501/20/1 502/21/1 503/17/1 504/14/1
f 505/11/1 506/12/1 507/2/1 508/1/1
f 509/11/1 510/12/1 511/2/1 512/1/1
f 513/78/1 514/79/1 515/80/1 516/81/1
f 517/79/1 518/82/1 519/83/1 520/80/1
f 521/78/1 522/79/1 523/80/1 524/81/1
f 525/79/1 526/82/1 527/83/1 528/80/1
f 529/11/1 530/12/1 531/2/1 532/1/1
f 533/84/1 534/85/1 535/79/1 536/78/1
f 537/85/1 538/86/1 539/82/1 540/79/1
f 541/84/1 542/85/1 543/79/1 544/78/1
f 545/85/1 546/86/1 547/82/1 548/79/1
f 549/11/1 550/12/1 551/2/1 552/1/1
f 553/11/1 554/12/1 555/2/1 556/1/1
f 557/87/1 558/88/1 559/89/1 560/90/1
f 561/11/1 562/12/1 563/2/1 564/1/1
f 565/87/1 566/88/1 567/89/1 568/90/1
f 569/91/1 570/92/1 571/93/1 572/94/1
f 573/91/1 574/92/1 575/93/1 576/94/1
f 577/11/1 578/12/1 579/2/1 580/1/1
f 581/95/1 582/96/1 583/97/1 584/98/1
f 585/96/1 586/99/1 587/100/1 588/97/1
f 589/95/1 590/96/1 591/97/1 592/98/1
f 593/96/1 594/99/1 595/100/1 596/97/1
f 597/101/1 598/91/1 599/94/1 600/102/1
f 601/101/1 602/91/1 603/94/1 604/102/1
f 605/11/1 606/12/1 607/2/1 608/1/1
f 609/101/1 610/91/1 611/94/1 612/102/1
f 613/101/1 614/91/1 615/94/1 616/102/1
f 617/11/1 618/12/1 619/2/1 620/1/1
f 621/91/1 622/92/1 623/93/1 624/94/1
f 625/87/1 626/88/1 627/89/1 628/90/1
f 629/11/1 630/12/1 631/2/1 632/1/1
f 633/11/1 634/12/1 635/2/1 636/1/1
f 637/11/1 638/12/1 639/2/1 640/1/1
f 641/11/1 642/12/1 643/2/1 644/1/1
f 645/11/1 646/12/1 647/2/1 648/1/1
f 649/60/1 650/103/1 651/104/1 652/61/1
f 653/103/1 654/105/1 655/106/1 656/104/1
f 657/105/1 658/107/1 659/108/1 660/106/1
f 661/107/1 662/109/1 663/110/1 664/108/1
f 665/109/1 666/62/1 667/63/1 668/110/1
f 669/11/1 670/12/1 671/2/1 672/1/1
f 673/19/1 674/20/1 675/14/1 676/13/1
f 677/111/1 678/112/1 679/113/1 680/38/1
f 681/111/1 682/112/1 683/113/1 684/38/1
f 685/111/1 686/112/1 687/113/1 688/38/1
f 689/111/1 690/112/1 691/113/1 692/38/1
f 693/20/1 694/21/1 695/17/1 696/14/1
f 697/11/1 698/12/1 699/2/1 700/1/1
f 701/60/1 702/103/1 703/104/1 704/61/1
f 705/103/1 706/105/1 707/106/1 708/104/1
f 709/105/1 710/107/1 711/108/1 712/106/1
f 713/107/1 714/109/1 715/110/1 716/108/1
f 717/109/1 718/62/1 719/63/1 720/110/1
f 721/11/1 722/12/1 723/2/1 724/1/1
f 725/11/1 726/12/1 727/2/1 728/1/1
f 729/60/1 730/103/1 731/104/1 732/61/1
f 733/103/1 734/105/1 735/106/1 736/104/1
f 737/105/1 738/107/1 739/108/1 740/106/1
f 741/107/1 742/109/1 743/110/1 744/108/1
f 745/109/1 746/62/1 747/63/1 748/110/1
f 749/19/1 750/20/1 751/14/1 752/13/1
f 753/20/1 754/21/1 755/17/1 756/14/1
f 757/10/1 758/9/1 759/12/1 760/11/1
f 761/9/1 762/114/1 763/115/1 764/12/1
f 765/9/1 766/114/1 767/115/1 768/12/1
f 769/9/1 770/114/1 771/115/1 772/12/1
f 773/9/1 774/114/1 775/115/1 776/12/1
f 777/9/1 778/114/1 779/115/1 780/12/1
f 781/9/1 782/114/1 783/115/1 784/12/1
f 785/9/1 786/114/1 787/115/1 788/12/1
f 789/9/1 790/114/1 791/115/1 792/12/1
f 793/9/1 794/114/1 795/115/1 796/12/1
f 797/9/1 798/114/1 799/115/1 800/12/1
f 801/9/1 802/114/1 803/115/1 804/12/1
f 805/9/1 806/114/1 807/115/1 808/12/1
f 809/9/1 810/114/1 811/115/1 812/12/1
f 813/9/1 814/114/1 815/115/1 816/12/1
f 817/9/1 818/114/1 819/115/1 820/12/1
f 821/9/1 822/114/1 823/115/1 824/12/1
f 825/9/1 826/114/1 827/115/1 828/12/1
f 829/9/1 830/114/1 831/115/1 832/12/1
f 833/9/1 834/114/1 835/115/1 836/12/1
f 837/9/1 838/114/1 839/115/1 840/12/1
f 841/9/1 842/114/1 843/115/1 844/12/1
f 845/9/1 846/114/1 847/115/1 848/12/1
f 849/9/1 850/114/1 851/115/1 852/12/1
f 853/9/1 854/114/1 855/115/1 856/12/1
f 857/9/1 858/114/1 859/115/1 860/12/1
f 861/9/1 862/114/1 863/115/1 864/12/1
f 865/9/1 866/114/1 867/115/1 868/12/1
f 869/7/1 870/8/1 871/9/1 872/10/1

