# Tiled2Unity generated file. Do not modify by hand.
# Wavefront file for 'numbers-1_mesh_0006.obj'

# Vertices (Count = 120)
v -6 -2 0
v -7 -2 0
v -7 -1 0
v -6 -1 0
v -7 -2 0
v -8 -2 0
v -8 -1 0
v -7 -1 0
v -9 -5 0
v -10 -5 0
v -10 -4 0
v -9 -4 0
v -22 -5 0
v -23 -5 0
v -23 -4 0
v -22 -4 0
v -23 -5 0
v -24 -5 0
v -24 -4 0
v -23 -4 0
v -8 -6 0
v -9 -6 0
v -9 -5 0
v -8 -5 0
v -9 -6 0
v -10 -6 0
v -10 -5 0
v -9 -5 0
v -14 -6 0
v -15 -6 0
v -15 -5 0
v -14 -5 0
v -15 -6 0
v -16 -6 0
v -16 -5 0
v -15 -5 0
v -25 -8 0
v -26 -8 0
v -26 -7 0
v -25 -7 0
v -17 -9 0
v -18 -9 0
v -18 -8 0
v -17 -8 0
v -24 -9 0
v -25 -9 0
v -25 -8 0
v -24 -8 0
v -25 -9 0
v -26 -9 0
v -26 -8 0
v -25 -8 0
v -16 -10 0
v -17 -10 0
v -17 -9 0
v -16 -9 0
v -17 -10 0
v -18 -10 0
v -18 -9 0
v -17 -9 0
v -3 -13 0
v -4 -13 0
v -4 -12 0
v -3 -12 0
v -4 -13 0
v -5 -13 0
v -5 -12 0
v -4 -12 0
v -6 -16 0
v -7 -16 0
v -7 -15 0
v -6 -15 0
v -5 -17 0
v -6 -17 0
v -6 -16 0
v -5 -16 0
v -6 -17 0
v -7 -17 0
v -7 -16 0
v -6 -16 0
v -16 -22 0
v -17 -22 0
v -17 -21 0
v -16 -21 0
v -17 -22 0
v -18 -22 0
v -18 -21 0
v -17 -21 0
v -2 -23 0
v -3 -23 0
v -3 -22 0
v -2 -22 0
v -3 -23 0
v -4 -23 0
v -4 -22 0
v -3 -22 0
v -19 -25 0
v -20 -25 0
v -20 -24 0
v -19 -24 0
v -5 -26 0
v -6 -26 0
v -6 -25 0
v -5 -25 0
v -18 -26 0
v -19 -26 0
v -19 -25 0
v -18 -25 0
v -19 -26 0
v -20 -26 0
v -20 -25 0
v -19 -25 0
v -4 -27 0
v -5 -27 0
v -5 -26 0
v -4 -26 0
v -5 -27 0
v -6 -27 0
v -6 -26 0
v -5 -26 0

# Texture cooridinates (Count = 14)
vt 0 0.75
vt 0.025 0.75
vt 0.025 0.7777778
vt 0 0.7777778
vt 0.05 0.75
vt 0.05 0.7777778
vt 0.075 0.6666666
vt 0.1 0.6666666
vt 0.1 0.6944444
vt 0.075 0.6944444
vt 0.05 0.6388889
vt 0.075 0.6388889
vt 0.05 0.6666666
vt 0.1 0.6388889

# Normal
vn 0 0 -1

# Mesh description
g numbers-1_mesh_0006

# Faces
f 1/1/1 2/2/1 3/3/1 4/4/1
f 5/2/1 6/5/1 7/6/1 8/3/1
f 9/7/1 10/8/1 11/9/1 12/10/1
f 13/1/1 14/2/1 15/3/1 16/4/1
f 17/2/1 18/5/1 19/6/1 20/3/1
f 21/11/1 22/12/1 23/7/1 24/13/1
f 25/12/1 26/14/1 27/8/1 28/7/1
f 29/1/1 30/2/1 31/3/1 32/4/1
f 33/2/1 34/5/1 35/6/1 36/3/1
f 37/7/1 38/8/1 39/9/1 40/10/1
f 41/7/1 42/8/1 43/9/1 44/10/1
f 45/11/1 46/12/1 47/7/1 48/13/1
f 49/12/1 50/14/1 51/8/1 52/7/1
f 53/11/1 54/12/1 55/7/1 56/13/1
f 57/12/1 58/14/1 59/8/1 60/7/1
f 61/1/1 62/2/1 63/3/1 64/4/1
f 65/2/1 66/5/1 67/6/1 68/3/1
f 69/7/1 70/8/1 71/9/1 72/10/1
f 73/11/1 74/12/1 75/7/1 76/13/1
f 77/12/1 78/14/1 79/8/1 80/7/1
f 81/1/1 82/2/1 83/3/1 84/4/1
f 85/2/1 86/5/1 87/6/1 88/3/1
f 89/1/1 90/2/1 91/3/1 92/4/1
f 93/2/1 94/5/1 95/6/1 96/3/1
f 97/7/1 98/8/1 99/9/1 100/10/1
f 101/7/1 102/8/1 103/9/1 104/10/1
f 105/11/1 106/12/1 107/7/1 108/13/1
f 109/12/1 110/14/1 111/8/1 112/7/1
f 113/11/1 114/12/1 115/7/1 116/13/1
f 117/12/1 118/14/1 119/8/1 120/7/1

