# Tiled2Unity generated file. Do not modify by hand.
# Wavefront file for 'Numbers-2-the-entrance-to-the-city_mesh_0004.obj'

# Vertices (Count = 640)
v 0 -1 0
v -1 -1 0
v -1 0 0
v 0 0 0
v -1 -1 0
v -2 -1 0
v -2 0 0
v -1 0 0
v -2 -1 0
v -3 -1 0
v -3 0 0
v -2 0 0
v -3 -1 0
v -4 -1 0
v -4 0 0
v -3 0 0
v -4 -1 0
v -5 -1 0
v -5 0 0
v -4 0 0
v -5 -1 0
v -6 -1 0
v -6 0 0
v -5 0 0
v -6 -1 0
v -7 -1 0
v -7 0 0
v -6 0 0
v -7 -1 0
v -8 -1 0
v -8 0 0
v -7 0 0
v -8 -1 0
v -9 -1 0
v -9 0 0
v -8 0 0
v -9 -1 0
v -10 -1 0
v -10 0 0
v -9 0 0
v -10 -1 0
v -11 -1 0
v -11 0 0
v -10 0 0
v -11 -1 0
v -12 -1 0
v -12 0 0
v -11 0 0
v -12 -1 0
v -13 -1 0
v -13 0 0
v -12 0 0
v -13 -1 0
v -14 -1 0
v -14 0 0
v -13 0 0
v -14 -1 0
v -15 -1 0
v -15 0 0
v -14 0 0
v -15 -1 0
v -16 -1 0
v -16 0 0
v -15 0 0
v -16 -1 0
v -17 -1 0
v -17 0 0
v -16 0 0
v -17 -1 0
v -18 -1 0
v -18 0 0
v -17 0 0
v -18 -1 0
v -19 -1 0
v -19 0 0
v -18 0 0
v -19 -1 0
v -20 -1 0
v -20 0 0
v -19 0 0
v 0 -2 0
v -1 -2 0
v -1 -1 0
v 0 -1 0
v -1 -2 0
v -2 -2 0
v -2 -1 0
v -1 -1 0
v -2 -2 0
v -3 -2 0
v -3 -1 0
v -2 -1 0
v -3 -2 0
v -4 -2 0
v -4 -1 0
v -3 -1 0
v -4 -2 0
v -5 -2 0
v -5 -1 0
v -4 -1 0
v -5 -2 0
v -6 -2 0
v -6 -1 0
v -5 -1 0
v -6 -2 0
v -7 -2 0
v -7 -1 0
v -6 -1 0
v -7 -2 0
v -8 -2 0
v -8 -1 0
v -7 -1 0
v -8 -2 0
v -9 -2 0
v -9 -1 0
v -8 -1 0
v -9 -2 0
v -10 -2 0
v -10 -1 0
v -9 -1 0
v -10 -2 0
v -11 -2 0
v -11 -1 0
v -10 -1 0
v -11 -2 0
v -12 -2 0
v -12 -1 0
v -11 -1 0
v -12 -2 0
v -13 -2 0
v -13 -1 0
v -12 -1 0
v -13 -2 0
v -14 -2 0
v -14 -1 0
v -13 -1 0
v -14 -2 0
v -15 -2 0
v -15 -1 0
v -14 -1 0
v -15 -2 0
v -16 -2 0
v -16 -1 0
v -15 -1 0
v -16 -2 0
v -17 -2 0
v -17 -1 0
v -16 -1 0
v -17 -2 0
v -18 -2 0
v -18 -1 0
v -17 -1 0
v -18 -2 0
v -19 -2 0
v -19 -1 0
v -18 -1 0
v -19 -2 0
v -20 -2 0
v -20 -1 0
v -19 -1 0
v 0 -3 0
v -1 -3 0
v -1 -2 0
v 0 -2 0
v -1 -3 0
v -2 -3 0
v -2 -2 0
v -1 -2 0
v -2 -3 0
v -3 -3 0
v -3 -2 0
v -2 -2 0
v -3 -3 0
v -4 -3 0
v -4 -2 0
v -3 -2 0
v -4 -3 0
v -5 -3 0
v -5 -2 0
v -4 -2 0
v -5 -3 0
v -6 -3 0
v -6 -2 0
v -5 -2 0
v -6 -3 0
v -7 -3 0
v -7 -2 0
v -6 -2 0
v -7 -3 0
v -8 -3 0
v -8 -2 0
v -7 -2 0
v -8 -3 0
v -9 -3 0
v -9 -2 0
v -8 -2 0
v -9 -3 0
v -10 -3 0
v -10 -2 0
v -9 -2 0
v -10 -3 0
v -11 -3 0
v -11 -2 0
v -10 -2 0
v -11 -3 0
v -12 -3 0
v -12 -2 0
v -11 -2 0
v -12 -3 0
v -13 -3 0
v -13 -2 0
v -12 -2 0
v -13 -3 0
v -14 -3 0
v -14 -2 0
v -13 -2 0
v -14 -3 0
v -15 -3 0
v -15 -2 0
v -14 -2 0
v -15 -3 0
v -16 -3 0
v -16 -2 0
v -15 -2 0
v -16 -3 0
v -17 -3 0
v -17 -2 0
v -16 -2 0
v -17 -3 0
v -18 -3 0
v -18 -2 0
v -17 -2 0
v -18 -3 0
v -19 -3 0
v -19 -2 0
v -18 -2 0
v -19 -3 0
v -20 -3 0
v -20 -2 0
v -19 -2 0
v 0 -4 0
v -1 -4 0
v -1 -3 0
v 0 -3 0
v -1 -4 0
v -2 -4 0
v -2 -3 0
v -1 -3 0
v -2 -4 0
v -3 -4 0
v -3 -3 0
v -2 -3 0
v -3 -4 0
v -4 -4 0
v -4 -3 0
v -3 -3 0
v -4 -4 0
v -5 -4 0
v -5 -3 0
v -4 -3 0
v -5 -4 0
v -6 -4 0
v -6 -3 0
v -5 -3 0
v -6 -4 0
v -7 -4 0
v -7 -3 0
v -6 -3 0
v -7 -4 0
v -8 -4 0
v -8 -3 0
v -7 -3 0
v -8 -4 0
v -9 -4 0
v -9 -3 0
v -8 -3 0
v -9 -4 0
v -10 -4 0
v -10 -3 0
v -9 -3 0
v -10 -4 0
v -11 -4 0
v -11 -3 0
v -10 -3 0
v -11 -4 0
v -12 -4 0
v -12 -3 0
v -11 -3 0
v -12 -4 0
v -13 -4 0
v -13 -3 0
v -12 -3 0
v -13 -4 0
v -14 -4 0
v -14 -3 0
v -13 -3 0
v -14 -4 0
v -15 -4 0
v -15 -3 0
v -14 -3 0
v -15 -4 0
v -16 -4 0
v -16 -3 0
v -15 -3 0
v -16 -4 0
v -17 -4 0
v -17 -3 0
v -16 -3 0
v -17 -4 0
v -18 -4 0
v -18 -3 0
v -17 -3 0
v -18 -4 0
v -19 -4 0
v -19 -3 0
v -18 -3 0
v -19 -4 0
v -20 -4 0
v -20 -3 0
v -19 -3 0
v 0 -5 0
v -1 -5 0
v -1 -4 0
v 0 -4 0
v -1 -5 0
v -2 -5 0
v -2 -4 0
v -1 -4 0
v -2 -5 0
v -3 -5 0
v -3 -4 0
v -2 -4 0
v -3 -5 0
v -4 -5 0
v -4 -4 0
v -3 -4 0
v -4 -5 0
v -5 -5 0
v -5 -4 0
v -4 -4 0
v -5 -5 0
v -6 -5 0
v -6 -4 0
v -5 -4 0
v -6 -5 0
v -7 -5 0
v -7 -4 0
v -6 -4 0
v -7 -5 0
v -8 -5 0
v -8 -4 0
v -7 -4 0
v -8 -5 0
v -9 -5 0
v -9 -4 0
v -8 -4 0
v -9 -5 0
v -10 -5 0
v -10 -4 0
v -9 -4 0
v -10 -5 0
v -11 -5 0
v -11 -4 0
v -10 -4 0
v -11 -5 0
v -12 -5 0
v -12 -4 0
v -11 -4 0
v -12 -5 0
v -13 -5 0
v -13 -4 0
v -12 -4 0
v -13 -5 0
v -14 -5 0
v -14 -4 0
v -13 -4 0
v -14 -5 0
v -15 -5 0
v -15 -4 0
v -14 -4 0
v -15 -5 0
v -16 -5 0
v -16 -4 0
v -15 -4 0
v -16 -5 0
v -17 -5 0
v -17 -4 0
v -16 -4 0
v -17 -5 0
v -18 -5 0
v -18 -4 0
v -17 -4 0
v -18 -5 0
v -19 -5 0
v -19 -4 0
v -18 -4 0
v -19 -5 0
v -20 -5 0
v -20 -4 0
v -19 -4 0
v 0 -7 0
v -1 -7 0
v -1 -6 0
v 0 -6 0
v -19 -7 0
v -20 -7 0
v -20 -6 0
v -19 -6 0
v 0 -8 0
v -1 -8 0
v -1 -7 0
v 0 -7 0
v -1 -8 0
v -2 -8 0
v -2 -7 0
v -1 -7 0
v -18 -8 0
v -19 -8 0
v -19 -7 0
v -18 -7 0
v -19 -8 0
v -20 -8 0
v -20 -7 0
v -19 -7 0
v 0 -9 0
v -1 -9 0
v -1 -8 0
v 0 -8 0
v -1 -9 0
v -2 -9 0
v -2 -8 0
v -1 -8 0
v -18 -9 0
v -19 -9 0
v -19 -8 0
v -18 -8 0
v -19 -9 0
v -20 -9 0
v -20 -8 0
v -19 -8 0
v 0 -10 0
v -1 -10 0
v -1 -9 0
v 0 -9 0
v -1 -10 0
v -2 -10 0
v -2 -9 0
v -1 -9 0
v -18 -10 0
v -19 -10 0
v -19 -9 0
v -18 -9 0
v -19 -10 0
v -20 -10 0
v -20 -9 0
v -19 -9 0
v 0 -11 0
v -1 -11 0
v -1 -10 0
v 0 -10 0
v -19 -11 0
v -20 -11 0
v -20 -10 0
v -19 -10 0
v 0 -12 0
v -1 -12 0
v -1 -11 0
v 0 -11 0
v -18 -12 0
v -19 -12 0
v -19 -11 0
v -18 -11 0
v -19 -12 0
v -20 -12 0
v -20 -11 0
v -19 -11 0
v 0 -13 0
v -1 -13 0
v -1 -12 0
v 0 -12 0
v -18 -13 0
v -19 -13 0
v -19 -12 0
v -18 -12 0
v -19 -13 0
v -20 -13 0
v -20 -12 0
v -19 -12 0
v 0 -14 0
v -1 -14 0
v -1 -13 0
v 0 -13 0
v -18 -14 0
v -19 -14 0
v -19 -13 0
v -18 -13 0
v -19 -14 0
v -20 -14 0
v -20 -13 0
v -19 -13 0
v 0 -15 0
v -1 -15 0
v -1 -14 0
v 0 -14 0
v -19 -15 0
v -20 -15 0
v -20 -14 0
v -19 -14 0
v 0 -16 0
v -1 -16 0
v -1 -15 0
v 0 -15 0
v -19 -16 0
v -20 -16 0
v -20 -15 0
v -19 -15 0
v 0 -17 0
v -1 -17 0
v -1 -16 0
v 0 -16 0
v -11 -17 0
v -12 -17 0
v -12 -16 0
v -11 -16 0
v -12 -17 0
v -13 -17 0
v -13 -16 0
v -12 -16 0
v -17 -17 0
v -18 -17 0
v -18 -16 0
v -17 -16 0
v -18 -17 0
v -19 -17 0
v -19 -16 0
v -18 -16 0
v -19 -17 0
v -20 -17 0
v -20 -16 0
v -19 -16 0
v 0 -18 0
v -1 -18 0
v -1 -17 0
v 0 -17 0
v -11 -18 0
v -12 -18 0
v -12 -17 0
v -11 -17 0
v -12 -18 0
v -13 -18 0
v -13 -17 0
v -12 -17 0
v -17 -18 0
v -18 -18 0
v -18 -17 0
v -17 -17 0
v -18 -18 0
v -19 -18 0
v -19 -17 0
v -18 -17 0
v -19 -18 0
v -20 -18 0
v -20 -17 0
v -19 -17 0
v 0 -19 0
v -1 -19 0
v -1 -18 0
v 0 -18 0
v -19 -19 0
v -20 -19 0
v -20 -18 0
v -19 -18 0
v 0 -20 0
v -1 -20 0
v -1 -19 0
v 0 -19 0
v -4 -20 0
v -5 -20 0
v -5 -19 0
v -4 -19 0
v -5 -20 0
v -6 -20 0
v -6 -19 0
v -5 -19 0
v -6 -20 0
v -7 -20 0
v -7 -19 0
v -6 -19 0
v -7 -20 0
v -8 -20 0
v -8 -19 0
v -7 -19 0
v -8 -20 0
v -9 -20 0
v -9 -19 0
v -8 -19 0
v -9 -20 0
v -10 -20 0
v -10 -19 0
v -9 -19 0
v -10 -20 0
v -11 -20 0
v -11 -19 0
v -10 -19 0
v -11 -20 0
v -12 -20 0
v -12 -19 0
v -11 -19 0
v -12 -20 0
v -13 -20 0
v -13 -19 0
v -12 -19 0
v -13 -20 0
v -14 -20 0
v -14 -19 0
v -13 -19 0
v -14 -20 0
v -15 -20 0
v -15 -19 0
v -14 -19 0
v -15 -20 0
v -16 -20 0
v -16 -19 0
v -15 -19 0
v -16 -20 0
v -17 -20 0
v -17 -19 0
v -16 -19 0
v -17 -20 0
v -18 -20 0
v -18 -19 0
v -17 -19 0
v -18 -20 0
v -19 -20 0
v -19 -19 0
v -18 -19 0
v -19 -20 0
v -20 -20 0
v -20 -19 0
v -19 -19 0

# Texture cooridinates (Count = 71)
vt 0.55 0.9722222
vt 0.575 0.9722222
vt 0.575 1
vt 0.55 1
vt 0.6 0.9722222
vt 0.6 1
vt 0.625 0.9722222
vt 0.625 1
vt 0.55 0.9444444
vt 0.575 0.9444444
vt 0.6 0.9444444
vt 0.625 0.9444444
vt 0.55 0.9166667
vt 0.575 0.9166667
vt 0.6 0.9166667
vt 0.625 0.9166667
vt 0.55 0.8888889
vt 0.575 0.8888889
vt 0.6 0.8888889
vt 0.625 0.8888889
vt 0.55 0.8611111
vt 0.575 0.8611111
vt 0.6 0.8611111
vt 0.625 0.8611111
vt 0 0.5833334
vt 0.025 0.5833334
vt 0.025 0.6111111
vt 0 0.6111111
vt 0.05 0.5833334
vt 0.05 0.6111111
vt 0.65 0.8611111
vt 0.675 0.8611111
vt 0.675 0.8888889
vt 0.65 0.8888889
vt 0.7 0.8611111
vt 0.7 0.8888889
vt 0.075 0.5833334
vt 0.1 0.5833334
vt 0.1 0.6111111
vt 0.075 0.6111111
vt 0.65 0.8333333
vt 0.675 0.8333333
vt 0.7 0.8333333
vt 0.65 0.8055556
vt 0.675 0.8055556
vt 0.7 0.8055556
vt 0 0.5555556
vt 0.025 0.5555556
vt 0.125 0.8611111
vt 0.125 0.8333333
vt 0.15 0.8333333
vt 0.15 0.8611111
vt 0.1 0.8611111
vt 0.1 0.8333333
vt 0.2 0.1111111
vt 0.225 0.1111111
vt 0.225 0.1388889
vt 0.2 0.1388889
vt 0.25 0.1111111
vt 0.25 0.1388889
vt 0.2 0.08333331
vt 0.225 0.08333331
vt 0.25 0.08333331
vt 0.075 0.8611111
vt 0.075 0.8333333
vt 0 0.5277778
vt 0.025 0.5277778
vt 0.075 0.6388889
vt 0.05 0.6388889
vt 0.075 0.5555556
vt 0.1 0.5555556

# Normal
vn 0 0 -1

# Mesh description
g Numbers-2-the-entrance-to-the-city_mesh_0004

# Faces
f 1/1/1 2/2/1 3/3/1 4/4/1
f 5/2/1 6/5/1 7/6/1 8/3/1
f 9/2/1 10/5/1 11/6/1 12/3/1
f 13/2/1 14/5/1 15/6/1 16/3/1
f 17/2/1 18/5/1 19/6/1 20/3/1
f 21/2/1 22/5/1 23/6/1 24/3/1
f 25/2/1 26/5/1 27/6/1 28/3/1
f 29/2/1 30/5/1 31/6/1 32/3/1
f 33/2/1 34/5/1 35/6/1 36/3/1
f 37/2/1 38/5/1 39/6/1 40/3/1
f 41/2/1 42/5/1 43/6/1 44/3/1
f 45/2/1 46/5/1 47/6/1 48/3/1
f 49/2/1 50/5/1 51/6/1 52/3/1
f 53/2/1 54/5/1 55/6/1 56/3/1
f 57/2/1 58/5/1 59/6/1 60/3/1
f 61/2/1 62/5/1 63/6/1 64/3/1
f 65/2/1 66/5/1 67/6/1 68/3/1
f 69/2/1 70/5/1 71/6/1 72/3/1
f 73/2/1 74/5/1 75/6/1 76/3/1
f 77/5/1 78/7/1 79/8/1 80/6/1
f 81/9/1 82/10/1 83/2/1 84/1/1
f 85/10/1 86/11/1 87/5/1 88/2/1
f 89/10/1 90/11/1 91/5/1 92/2/1
f 93/10/1 94/11/1 95/5/1 96/2/1
f 97/10/1 98/11/1 99/5/1 100/2/1
f 101/10/1 102/11/1 103/5/1 104/2/1
f 105/10/1 106/11/1 107/5/1 108/2/1
f 109/10/1 110/11/1 111/5/1 112/2/1
f 113/10/1 114/11/1 115/5/1 116/2/1
f 117/10/1 118/11/1 119/5/1 120/2/1
f 121/10/1 122/11/1 123/5/1 124/2/1
f 125/10/1 126/11/1 127/5/1 128/2/1
f 129/10/1 130/11/1 131/5/1 132/2/1
f 133/10/1 134/11/1 135/5/1 136/2/1
f 137/10/1 138/11/1 139/5/1 140/2/1
f 141/10/1 142/11/1 143/5/1 144/2/1
f 145/10/1 146/11/1 147/5/1 148/2/1
f 149/10/1 150/11/1 151/5/1 152/2/1
f 153/10/1 154/11/1 155/5/1 156/2/1
f 157/11/1 158/12/1 159/7/1 160/5/1
f 161/13/1 162/14/1 163/10/1 164/9/1
f 165/14/1 166/15/1 167/11/1 168/10/1
f 169/14/1 170/15/1 171/11/1 172/10/1
f 173/14/1 174/15/1 175/11/1 176/10/1
f 177/14/1 178/15/1 179/11/1 180/10/1
f 181/14/1 182/15/1 183/11/1 184/10/1
f 185/14/1 186/15/1 187/11/1 188/10/1
f 189/14/1 190/15/1 191/11/1 192/10/1
f 193/14/1 194/15/1 195/11/1 196/10/1
f 197/14/1 198/15/1 199/11/1 200/10/1
f 201/14/1 202/15/1 203/11/1 204/10/1
f 205/14/1 206/15/1 207/11/1 208/10/1
f 209/14/1 210/15/1 211/11/1 212/10/1
f 213/14/1 214/15/1 215/11/1 216/10/1
f 217/14/1 218/15/1 219/11/1 220/10/1
f 221/14/1 222/15/1 223/11/1 224/10/1
f 225/14/1 226/15/1 227/11/1 228/10/1
f 229/14/1 230/15/1 231/11/1 232/10/1
f 233/14/1 234/15/1 235/11/1 236/10/1
f 237/15/1 238/16/1 239/12/1 240/11/1
f 241/17/1 242/18/1 243/14/1 244/13/1
f 245/18/1 246/19/1 247/15/1 248/14/1
f 249/18/1 250/19/1 251/15/1 252/14/1
f 253/18/1 254/19/1 255/15/1 256/14/1
f 257/18/1 258/19/1 259/15/1 260/14/1
f 261/18/1 262/19/1 263/15/1 264/14/1
f 265/18/1 266/19/1 267/15/1 268/14/1
f 269/18/1 270/19/1 271/15/1 272/14/1
f 273/18/1 274/19/1 275/15/1 276/14/1
f 277/18/1 278/19/1 279/15/1 280/14/1
f 281/18/1 282/19/1 283/15/1 284/14/1
f 285/18/1 286/19/1 287/15/1 288/14/1
f 289/18/1 290/19/1 291/15/1 292/14/1
f 293/18/1 294/19/1 295/15/1 296/14/1
f 297/18/1 298/19/1 299/15/1 300/14/1
f 301/18/1 302/19/1 303/15/1 304/14/1
f 305/18/1 306/19/1 307/15/1 308/14/1
f 309/18/1 310/19/1 311/15/1 312/14/1
f 313/18/1 314/19/1 315/15/1 316/14/1
f 317/19/1 318/20/1 319/16/1 320/15/1
f 321/21/1 322/22/1 323/18/1 324/17/1
f 325/22/1 326/23/1 327/19/1 328/18/1
f 329/22/1 330/23/1 331/19/1 332/18/1
f 333/22/1 334/23/1 335/19/1 336/18/1
f 337/22/1 338/23/1 339/19/1 340/18/1
f 341/22/1 342/23/1 343/19/1 344/18/1
f 345/22/1 346/23/1 347/19/1 348/18/1
f 349/22/1 350/23/1 351/19/1 352/18/1
f 353/22/1 354/23/1 355/19/1 356/18/1
f 357/22/1 358/23/1 359/19/1 360/18/1
f 361/22/1 362/23/1 363/19/1 364/18/1
f 365/22/1 366/23/1 367/19/1 368/18/1
f 369/22/1 370/23/1 371/19/1 372/18/1
f 373/22/1 374/23/1 375/19/1 376/18/1
f 377/22/1 378/23/1 379/19/1 380/18/1
f 381/22/1 382/23/1 383/19/1 384/18/1
f 385/22/1 386/23/1 387/19/1 388/18/1
f 389/22/1 390/23/1 391/19/1 392/18/1
f 393/22/1 394/23/1 395/19/1 396/18/1
f 397/23/1 398/24/1 399/20/1 400/19/1
f 401/25/1 402/26/1 403/27/1 404/28/1
f 405/25/1 406/26/1 407/27/1 408/28/1
f 409/26/1 410/29/1 411/30/1 412/27/1
f 413/31/1 414/32/1 415/33/1 416/34/1
f 417/32/1 418/35/1 419/36/1 420/33/1
f 421/37/1 422/38/1 423/39/1 424/40/1
f 425/26/1 426/29/1 427/30/1 428/27/1
f 429/41/1 430/42/1 431/32/1 432/31/1
f 433/42/1 434/43/1 435/35/1 436/32/1
f 437/37/1 438/38/1 439/39/1 440/40/1
f 441/26/1 442/29/1 443/30/1 444/27/1
f 445/44/1 446/45/1 447/42/1 448/41/1
f 449/45/1 450/46/1 451/43/1 452/42/1
f 453/37/1 454/38/1 455/39/1 456/40/1
f 457/26/1 458/29/1 459/30/1 460/27/1
f 461/37/1 462/38/1 463/39/1 464/40/1
f 465/26/1 466/29/1 467/30/1 468/27/1
f 469/32/1 470/35/1 471/36/1 472/33/1
f 473/37/1 474/38/1 475/39/1 476/40/1
f 477/26/1 478/29/1 479/30/1 480/27/1
f 481/42/1 482/43/1 483/35/1 484/32/1
f 485/37/1 486/38/1 487/39/1 488/40/1
f 489/26/1 490/29/1 491/30/1 492/27/1
f 493/45/1 494/46/1 495/43/1 496/42/1
f 497/37/1 498/38/1 499/39/1 500/40/1
f 501/47/1 502/48/1 503/26/1 504/25/1
f 505/37/1 506/38/1 507/39/1 508/40/1
f 509/49/1 510/50/1 511/51/1 512/52/1
f 513/37/1 514/38/1 515/39/1 516/40/1
f 517/53/1 518/54/1 519/50/1 520/49/1
f 521/55/1 522/56/1 523/57/1 524/58/1
f 525/56/1 526/59/1 527/60/1 528/57/1
f 529/55/1 530/56/1 531/57/1 532/58/1
f 533/56/1 534/59/1 535/60/1 536/57/1
f 537/37/1 538/38/1 539/39/1 540/40/1
f 541/53/1 542/54/1 543/50/1 544/49/1
f 545/61/1 546/62/1 547/56/1 548/55/1
f 549/62/1 550/63/1 551/59/1 552/56/1
f 553/61/1 554/62/1 555/56/1 556/55/1
f 557/62/1 558/63/1 559/59/1 560/56/1
f 561/37/1 562/38/1 563/39/1 564/40/1
f 565/53/1 566/54/1 567/50/1 568/49/1
f 569/37/1 570/38/1 571/39/1 572/40/1
f 573/64/1 574/65/1 575/54/1 576/53/1
f 577/66/1 578/67/1 579/48/1 580/47/1
f 581/30/1 582/40/1 583/68/1 584/69/1
f 585/30/1 586/40/1 587/68/1 588/69/1
f 589/30/1 590/40/1 591/68/1 592/69/1
f 593/30/1 594/40/1 595/68/1 596/69/1
f 597/30/1 598/40/1 599/68/1 600/69/1
f 601/30/1 602/40/1 603/68/1 604/69/1
f 605/30/1 606/40/1 607/68/1 608/69/1
f 609/30/1 610/40/1 611/68/1 612/69/1
f 613/30/1 614/40/1 615/68/1 616/69/1
f 617/30/1 618/40/1 619/68/1 620/69/1
f 621/30/1 622/40/1 623/68/1 624/69/1
f 625/30/1 626/40/1 627/68/1 628/69/1
f 629/30/1 630/40/1 631/68/1 632/69/1
f 633/30/1 634/40/1 635/68/1 636/69/1
f 637/70/1 638/71/1 639/38/1 640/37/1

