# Tiled2Unity generated file. Do not modify by hand.
# Wavefront file for 'Numbers-2-the-entrance-to-the-city_mesh_0007.obj'

# Vertices (Count = 144)
v -1 -2 0
v -2 -2 0
v -2 -1 0
v -1 -1 0
v -3 -2 0
v -4 -2 0
v -4 -1 0
v -3 -1 0
v -5 -2 0
v -6 -2 0
v -6 -1 0
v -5 -1 0
v -7 -2 0
v -8 -2 0
v -8 -1 0
v -7 -1 0
v -9 -2 0
v -10 -2 0
v -10 -1 0
v -9 -1 0
v -11 -2 0
v -12 -2 0
v -12 -1 0
v -11 -1 0
v -13 -2 0
v -14 -2 0
v -14 -1 0
v -13 -1 0
v -15 -2 0
v -16 -2 0
v -16 -1 0
v -15 -1 0
v -18 -2 0
v -19 -2 0
v -19 -1 0
v -18 -1 0
v -1 -3 0
v -2 -3 0
v -2 -2 0
v -1 -2 0
v -3 -3 0
v -4 -3 0
v -4 -2 0
v -3 -2 0
v -5 -3 0
v -6 -3 0
v -6 -2 0
v -5 -2 0
v -7 -3 0
v -8 -3 0
v -8 -2 0
v -7 -2 0
v -9 -3 0
v -10 -3 0
v -10 -2 0
v -9 -2 0
v -11 -3 0
v -12 -3 0
v -12 -2 0
v -11 -2 0
v -13 -3 0
v -14 -3 0
v -14 -2 0
v -13 -2 0
v -15 -3 0
v -16 -3 0
v -16 -2 0
v -15 -2 0
v -18 -3 0
v -19 -3 0
v -19 -2 0
v -18 -2 0
v -1 -4 0
v -2 -4 0
v -2 -3 0
v -1 -3 0
v -3 -4 0
v -4 -4 0
v -4 -3 0
v -3 -3 0
v -5 -4 0
v -6 -4 0
v -6 -3 0
v -5 -3 0
v -7 -4 0
v -8 -4 0
v -8 -3 0
v -7 -3 0
v -9 -4 0
v -10 -4 0
v -10 -3 0
v -9 -3 0
v -11 -4 0
v -12 -4 0
v -12 -3 0
v -11 -3 0
v -13 -4 0
v -14 -4 0
v -14 -3 0
v -13 -3 0
v -15 -4 0
v -16 -4 0
v -16 -3 0
v -15 -3 0
v -18 -4 0
v -19 -4 0
v -19 -3 0
v -18 -3 0
v -1 -5 0
v -2 -5 0
v -2 -4 0
v -1 -4 0
v -3 -5 0
v -4 -5 0
v -4 -4 0
v -3 -4 0
v -5 -5 0
v -6 -5 0
v -6 -4 0
v -5 -4 0
v -7 -5 0
v -8 -5 0
v -8 -4 0
v -7 -4 0
v -9 -5 0
v -10 -5 0
v -10 -4 0
v -9 -4 0
v -11 -5 0
v -12 -5 0
v -12 -4 0
v -11 -4 0
v -13 -5 0
v -14 -5 0
v -14 -4 0
v -13 -4 0
v -15 -5 0
v -16 -5 0
v -16 -4 0
v -15 -4 0
v -18 -5 0
v -19 -5 0
v -19 -4 0
v -18 -4 0

# Texture cooridinates (Count = 10)
vt 0.125 0.2222222
vt 0.15 0.2222222
vt 0.15 0.25
vt 0.125 0.25
vt 0.125 0.1944444
vt 0.15 0.1944444
vt 0.075 0.1111111
vt 0.1 0.1111111
vt 0.1 0.1388889
vt 0.075 0.1388889

# Normal
vn 0 0 -1

# Mesh description
g Numbers-2-the-entrance-to-the-city_mesh_0007

# Faces
f 1/1/1 2/2/1 3/3/1 4/4/1
f 5/1/1 6/2/1 7/3/1 8/4/1
f 9/1/1 10/2/1 11/3/1 12/4/1
f 13/1/1 14/2/1 15/3/1 16/4/1
f 17/1/1 18/2/1 19/3/1 20/4/1
f 21/1/1 22/2/1 23/3/1 24/4/1
f 25/1/1 26/2/1 27/3/1 28/4/1
f 29/1/1 30/2/1 31/3/1 32/4/1
f 33/1/1 34/2/1 35/3/1 36/4/1
f 37/5/1 38/6/1 39/2/1 40/1/1
f 41/5/1 42/6/1 43/2/1 44/1/1
f 45/5/1 46/6/1 47/2/1 48/1/1
f 49/5/1 50/6/1 51/2/1 52/1/1
f 53/5/1 54/6/1 55/2/1 56/1/1
f 57/5/1 58/6/1 59/2/1 60/1/1
f 61/5/1 62/6/1 63/2/1 64/1/1
f 65/5/1 66/6/1 67/2/1 68/1/1
f 69/5/1 70/6/1 71/2/1 72/1/1
f 73/7/1 74/8/1 75/9/1 76/10/1
f 77/7/1 78/8/1 79/9/1 80/10/1
f 81/7/1 82/8/1 83/9/1 84/10/1
f 85/7/1 86/8/1 87/9/1 88/10/1
f 89/7/1 90/8/1 91/9/1 92/10/1
f 93/7/1 94/8/1 95/9/1 96/10/1
f 97/7/1 98/8/1 99/9/1 100/10/1
f 101/7/1 102/8/1 103/9/1 104/10/1
f 105/7/1 106/8/1 107/9/1 108/10/1
f 109/7/1 110/8/1 111/9/1 112/10/1
f 113/7/1 114/8/1 115/9/1 116/10/1
f 117/7/1 118/8/1 119/9/1 120/10/1
f 121/7/1 122/8/1 123/9/1 124/10/1
f 125/7/1 126/8/1 127/9/1 128/10/1
f 129/7/1 130/8/1 131/9/1 132/10/1
f 133/7/1 134/8/1 135/9/1 136/10/1
f 137/7/1 138/8/1 139/9/1 140/10/1
f 141/7/1 142/8/1 143/9/1 144/10/1

